<svg xmlns="http://www.w3.org/2000/svg" xmlns:xlink="http://www.w3.org/1999/xlink" width="156" zoomAndPan="magnify" viewBox="0 0 116.88 129.000003" height="172" preserveAspectRatio="xMidYMid meet" version="1.0"><defs><clipPath id="25f266ac48"><path d="M 0.390625 0 L 116.371094 0 L 116.371094 128.007812 L 0.390625 128.007812 Z M 0.390625 0 " clip-rule="nonzero"/></clipPath><clipPath id="bec7e36fb5"><path d="M 25.554688 25.003906 L 92.539062 25.003906 L 92.539062 91.984375 L 25.554688 91.984375 Z M 25.554688 25.003906 " clip-rule="nonzero"/></clipPath><clipPath id="bf76ffbade"><path d="M 27.179688 27.070312 L 89.695312 27.070312 L 89.695312 89.585938 L 27.179688 89.585938 Z M 27.179688 27.070312 " clip-rule="nonzero"/></clipPath></defs><path fill="#203a55" d="M 68.3125 81.820312 C 68.265625 83.339844 67.238281 84.714844 65.707031 85.125 C 64.175781 85.53125 62.597656 84.855469 61.804688 83.570312 C 61.371094 85.019531 60.027344 86.082031 58.433594 86.082031 C 56.84375 86.082031 55.496094 85.019531 55.066406 83.570312 C 54.269531 84.855469 52.691406 85.539062 51.160156 85.132812 C 49.628906 84.722656 48.601562 83.347656 48.558594 81.828125 C 47.457031 82.871094 45.761719 83.125 44.378906 82.328125 C 43.003906 81.53125 42.363281 79.941406 42.71875 78.46875 C 41.390625 79.1875 39.6875 78.988281 38.5625 77.867188 C 37.433594 76.742188 37.230469 75.039062 37.960938 73.699219 C 36.488281 74.058594 34.890625 73.417969 34.101562 72.042969 C 33.304688 70.667969 33.550781 68.964844 34.589844 67.863281 C 33.074219 67.816406 31.699219 66.792969 31.289062 65.257812 C 30.878906 63.726562 31.558594 62.152344 32.851562 61.355469 C 31.394531 60.925781 30.335938 59.578125 30.335938 57.984375 C 30.335938 56.394531 31.402344 55.046875 32.851562 54.617188 C 31.566406 53.820312 30.878906 52.246094 31.289062 50.710938 C 31.699219 49.179688 33.082031 48.15625 34.589844 48.109375 C 33.550781 47.007812 33.296875 45.304688 34.101562 43.929688 C 34.894531 42.554688 36.488281 41.914062 37.960938 42.273438 C 37.238281 40.941406 37.441406 39.238281 38.5625 38.113281 C 39.6875 36.984375 41.390625 36.785156 42.71875 37.511719 C 42.371094 36.039062 43.003906 34.449219 44.378906 33.652344 C 45.753906 32.855469 47.457031 33.101562 48.558594 34.152344 C 48.601562 32.632812 49.628906 31.257812 51.160156 30.847656 C 52.691406 30.441406 54.277344 31.117188 55.066406 32.410156 C 55.496094 30.953125 56.84375 29.890625 58.433594 29.890625 C 60.027344 29.890625 61.371094 30.953125 61.804688 32.410156 C 62.597656 31.125 64.175781 30.441406 65.707031 30.847656 C 67.238281 31.257812 68.265625 32.640625 68.3125 34.152344 C 69.410156 33.109375 71.113281 32.855469 72.492188 33.652344 C 73.867188 34.449219 74.503906 36.039062 74.148438 37.511719 C 75.480469 36.789062 77.183594 36.992188 78.304688 38.113281 C 79.429688 39.238281 79.636719 40.941406 78.910156 42.273438 C 80.382812 41.921875 81.972656 42.554688 82.769531 43.929688 C 83.5625 45.304688 83.320312 47.007812 82.269531 48.109375 C 83.78125 48.15625 85.164062 49.179688 85.570312 50.710938 C 85.980469 52.246094 85.304688 53.820312 84.011719 54.617188 C 85.46875 55.046875 86.53125 56.394531 86.53125 57.984375 C 86.53125 59.578125 85.46875 60.925781 84.011719 61.355469 C 85.296875 62.152344 85.980469 63.726562 85.570312 65.257812 C 85.164062 66.792969 83.78125 67.816406 82.269531 67.863281 C 83.3125 68.964844 83.5625 70.660156 82.769531 72.042969 C 81.972656 73.417969 80.382812 74.058594 78.910156 73.699219 C 79.628906 75.03125 79.429688 76.734375 78.304688 77.867188 C 77.175781 78.988281 75.480469 79.195312 74.148438 78.46875 C 74.5 79.941406 73.867188 81.539062 72.492188 82.328125 C 71.113281 83.125 69.410156 82.878906 68.3125 81.828125 Z M 114.195312 28.105469 L 114.628906 28.105469 L 114.628906 38.648438 L 114.195312 38.648438 C 112.6875 41.378906 107.675781 40.84375 107.621094 36.917969 L 107.621094 29.824219 C 107.675781 25.917969 112.6875 25.382812 114.195312 28.113281 Z M 114.195312 77.292969 L 114.628906 77.292969 L 114.628906 87.832031 L 114.191406 87.832031 C 112.679688 90.546875 107.667969 90.03125 107.617188 86.097656 L 107.617188 79.003906 C 107.667969 75.121094 112.679688 74.5625 114.191406 77.292969 Z M 114.195312 77.292969 " fill-opacity="1" fill-rule="evenodd"/><path fill="#ffffff" d="M 100.59375 8.78125 C 104.460938 8.78125 107.621094 11.945312 107.621094 15.8125 L 107.621094 100.140625 C 107.621094 104 104.460938 107.167969 100.59375 107.167969 L 16.273438 107.167969 C 12.40625 107.167969 9.246094 104.007812 9.246094 100.140625 L 9.246094 15.8125 C 9.246094 11.945312 12.40625 8.78125 16.273438 8.78125 L 100.601562 8.78125 Z M 58.433594 29.867188 C 42.914062 29.867188 30.328125 42.449219 30.328125 57.980469 C 30.328125 73.507812 42.914062 86.082031 58.433594 86.082031 C 73.957031 86.082031 86.546875 73.5 86.546875 57.980469 C 86.546875 42.457031 73.960938 29.867188 58.433594 29.867188 Z M 58.433594 29.867188 " fill-opacity="1" fill-rule="evenodd"/><path fill="#ffffff" d="M 107.621094 76.570312 L 107.621094 39.363281 L 109.964844 40.191406 C 110.710938 40.449219 111.558594 40.449219 112.300781 40.191406 L 114.652344 39.339844 L 114.652344 76.601562 L 112.300781 75.761719 C 111.558594 75.492188 110.710938 75.492188 109.957031 75.753906 L 107.617188 76.578125 Z M 114.652344 88.523438 L 114.652344 100.132812 C 114.652344 107.859375 108.328125 114.1875 100.59375 114.1875 L 16.273438 114.1875 C 8.546875 114.1875 2.21875 107.867188 2.21875 100.132812 L 2.21875 15.8125 C 2.21875 8.085938 8.539062 1.753906 16.273438 1.753906 L 100.601562 1.753906 C 108.328125 1.753906 114.65625 8.078125 114.65625 15.8125 L 114.65625 27.414062 L 112.308594 26.574219 C 111.5625 26.304688 110.714844 26.304688 109.964844 26.574219 L 107.621094 27.390625 L 107.621094 15.820312 C 107.621094 11.953125 104.460938 8.789062 100.59375 8.789062 L 16.273438 8.789062 C 12.40625 8.789062 9.246094 11.953125 9.246094 15.820312 L 9.246094 100.148438 C 9.246094 104.007812 12.40625 107.175781 16.273438 107.175781 L 100.601562 107.175781 C 104.46875 107.175781 107.628906 104.015625 107.628906 100.148438 L 107.628906 88.574219 L 109.972656 89.398438 C 110.714844 89.660156 111.5625 89.660156 112.308594 89.394531 L 114.65625 88.542969 Z M 114.652344 88.523438 " fill-opacity="1" fill-rule="evenodd"/><path fill="#38b6ff" d="M 16.273438 14.054688 C 17.242188 14.054688 18.027344 14.84375 18.027344 15.8125 C 18.027344 16.777344 17.242188 17.566406 16.273438 17.566406 C 15.308594 17.566406 14.519531 16.777344 14.519531 15.8125 C 14.519531 14.84375 15.308594 14.054688 16.273438 14.054688 Z M 16.273438 14.054688 " fill-opacity="1" fill-rule="evenodd"/><path fill="#38b6ff" d="M 58.433594 28.105469 C 74.929688 28.105469 88.300781 41.476562 88.300781 57.972656 C 88.300781 74.464844 74.929688 87.839844 58.433594 87.839844 C 41.9375 87.839844 28.566406 74.464844 28.566406 57.972656 C 28.566406 41.476562 41.9375 28.105469 58.433594 28.105469 Z M 58.433594 28.105469 " fill-opacity="1" fill-rule="evenodd"/><g clip-path="url(#25f266ac48)"><path fill="#203a55" d="M 100.378906 115.941406 L 98.839844 128.234375 L 88.300781 128.234375 L 86.761719 115.941406 L 30.105469 115.941406 L 28.566406 128.234375 L 18.027344 128.234375 L 16.488281 115.941406 L 16.273438 115.941406 C 7.574219 115.941406 0.464844 108.832031 0.464844 100.132812 L 0.464844 15.8125 C 0.457031 7.109375 7.574219 0 16.273438 0 L 100.601562 0 C 109.304688 0 116.414062 7.109375 116.414062 15.8125 L 116.414062 100.140625 C 116.414062 108.832031 109.304688 115.949219 100.601562 115.949219 L 100.378906 115.949219 Z M 100.378906 115.941406 " fill-opacity="1" fill-rule="evenodd"/></g><path fill="#ffffff" d="M 109.378906 74.09375 C 110.507812 73.699219 111.765625 73.699219 112.886719 74.101562 L 112.886719 41.839844 C 111.765625 42.25 110.5 42.25 109.378906 41.855469 Z M 109.378906 74.09375 " fill-opacity="1" fill-rule="evenodd"/><path fill="#ffffff" d="M 112.894531 91.027344 C 111.773438 91.4375 110.507812 91.4375 109.386719 91.042969 L 109.386719 100.140625 C 109.386719 104.972656 105.4375 108.921875 100.601562 108.921875 L 16.273438 108.921875 C 11.441406 108.921875 7.492188 104.972656 7.492188 100.140625 L 7.492188 15.8125 C 7.492188 10.976562 11.441406 7.027344 16.273438 7.027344 L 100.601562 7.027344 C 105.4375 7.027344 109.386719 10.976562 109.386719 15.8125 L 109.386719 24.90625 C 110.515625 24.511719 111.773438 24.511719 112.894531 24.914062 L 112.894531 15.8125 C 112.894531 9.050781 107.355469 3.511719 100.59375 3.511719 L 16.273438 3.511719 C 9.515625 3.511719 3.980469 9.042969 3.980469 15.8125 L 3.980469 100.140625 C 3.980469 106.898438 9.515625 112.433594 16.273438 112.433594 L 100.601562 112.433594 C 107.363281 112.433594 112.902344 106.898438 112.902344 100.140625 L 112.902344 91.035156 Z M 112.894531 91.027344 " fill-opacity="1" fill-rule="evenodd"/><path fill="#38b6ff" d="M 111.117188 77.335938 C 111.988281 77.335938 112.867188 77.910156 112.867188 79.054688 L 112.867188 86.082031 C 112.867188 87.222656 111.980469 87.800781 111.101562 87.800781 C 110.226562 87.800781 109.394531 87.242188 109.386719 86.105469 L 109.386719 79.03125 C 109.398438 77.902344 110.261719 77.335938 111.125 77.335938 M 111.125 75.851562 C 109.3125 75.851562 107.921875 77.210938 107.898438 79.019531 L 107.898438 86.082031 C 107.898438 86.082031 107.898438 86.121094 107.898438 86.121094 C 107.921875 87.925781 109.296875 89.289062 111.101562 89.289062 C 112.40625 89.289062 113.484375 88.605469 114.011719 87.570312 L 114.359375 87.570312 L 114.359375 86.082031 C 114.359375 86.082031 114.359375 79.054688 114.359375 79.054688 L 114.359375 77.566406 L 114.011719 77.566406 C 113.492188 76.527344 112.417969 75.851562 111.125 75.851562 Z M 111.125 75.851562 " fill-opacity="1" fill-rule="nonzero"/><path fill="#38b6ff" d="M 111.109375 28.140625 C 111.988281 28.140625 112.867188 28.722656 112.867188 29.859375 L 112.867188 36.886719 C 112.867188 38.03125 111.988281 38.613281 111.109375 38.613281 C 110.234375 38.613281 109.394531 38.054688 109.378906 36.910156 L 109.378906 29.835938 C 109.394531 28.699219 110.246094 28.140625 111.101562 28.140625 M 111.101562 26.652344 C 109.289062 26.652344 107.914062 28.015625 107.890625 29.824219 L 107.890625 36.886719 C 107.890625 36.886719 107.890625 36.925781 107.890625 36.925781 C 107.914062 38.730469 109.296875 40.09375 111.109375 40.09375 C 112.414062 40.09375 113.484375 39.410156 114.011719 38.367188 L 114.351562 38.367188 L 114.351562 36.878906 C 114.351562 36.878906 114.351562 29.851562 114.351562 29.851562 L 114.351562 28.363281 L 114.003906 28.363281 C 113.476562 27.324219 112.40625 26.648438 111.101562 26.648438 Z M 111.101562 26.652344 " fill-opacity="1" fill-rule="nonzero"/><path fill="#ffffff" d="M 100.59375 10.539062 L 16.273438 10.539062 C 13.382812 10.539062 11 12.917969 11 15.8125 L 11 100.140625 C 11 103.03125 13.375 105.410156 16.273438 105.410156 L 100.601562 105.410156 C 103.496094 105.410156 105.875 103.039062 105.875 100.140625 L 105.875 15.8125 C 105.875 12.917969 103.496094 10.539062 100.601562 10.539062 Z M 100.59375 10.539062 " fill-opacity="1" fill-rule="evenodd"/><path fill="#38b6ff" d="M 58.433594 98.316406 L 58.507812 98.316406 C 59.484375 98.316406 60.265625 99.105469 60.265625 100.070312 C 60.265625 101.039062 59.476562 101.828125 58.507812 101.828125 L 58.433594 101.828125 C 57.496094 101.789062 56.746094 101.015625 56.746094 100.070312 C 56.746094 99.128906 57.496094 98.355469 58.433594 98.316406 Z M 58.433594 98.316406 " fill-opacity="1" fill-rule="evenodd"/><path fill="#38b6ff" d="M 58.433594 14.054688 C 59.402344 14.054688 60.191406 14.84375 60.191406 15.8125 C 60.191406 16.777344 59.402344 17.566406 58.433594 17.566406 C 57.460938 17.566406 56.679688 16.777344 56.679688 15.8125 C 56.679688 14.84375 57.46875 14.054688 58.433594 14.054688 Z M 58.433594 14.054688 " fill-opacity="1" fill-rule="evenodd"/><path fill="#38b6ff" d="M 100.667969 101.828125 C 99.703125 101.828125 98.914062 101.039062 98.914062 100.070312 C 98.914062 99.105469 99.703125 98.316406 100.667969 98.316406 C 101.636719 98.316406 102.425781 99.105469 102.425781 100.070312 C 102.425781 101.039062 101.636719 101.828125 100.667969 101.828125 Z M 100.667969 101.828125 " fill-opacity="1" fill-rule="evenodd"/><path fill="#38b6ff" d="M 102.351562 15.8125 C 102.351562 16.777344 101.5625 17.566406 100.59375 17.566406 C 99.628906 17.566406 98.839844 16.777344 98.839844 15.8125 C 98.839844 14.84375 99.628906 14.054688 100.59375 14.054688 C 101.5625 14.054688 102.351562 14.84375 102.351562 15.8125 Z M 102.351562 15.8125 " fill-opacity="1" fill-rule="evenodd"/><path fill="#38b6ff" d="M 18.394531 15.8125 C 18.394531 16.777344 17.605469 17.566406 16.636719 17.566406 C 15.671875 17.566406 14.882812 16.777344 14.882812 15.8125 C 14.882812 14.84375 15.671875 14.054688 16.636719 14.054688 C 17.605469 14.054688 18.394531 14.84375 18.394531 15.8125 Z M 18.394531 15.8125 " fill-opacity="1" fill-rule="evenodd"/><path fill="#38b6ff" d="M 67.21875 15.8125 C 67.21875 16.777344 66.429688 17.566406 65.460938 17.566406 C 64.496094 17.566406 63.707031 16.777344 63.707031 15.8125 C 63.707031 14.84375 64.496094 14.054688 65.460938 14.054688 C 66.429688 14.054688 67.21875 14.84375 67.21875 15.8125 Z M 67.21875 15.8125 " fill-opacity="1" fill-rule="evenodd"/><path fill="#38b6ff" d="M 58.710938 25.5 C 76.988281 25.5 91.804688 40.324219 91.804688 58.601562 C 91.804688 76.882812 76.980469 91.699219 58.710938 91.699219 C 40.4375 91.699219 25.609375 76.882812 25.609375 58.601562 C 25.609375 40.324219 40.429688 25.5 58.710938 25.5 Z M 58.710938 25.5 " fill-opacity="1" fill-rule="evenodd"/><path fill="#38b6ff" d="M 74.246094 15.8125 C 74.246094 16.777344 73.457031 17.566406 72.492188 17.566406 C 71.523438 17.566406 70.734375 16.777344 70.734375 15.8125 C 70.734375 14.84375 71.523438 14.054688 72.492188 14.054688 C 73.457031 14.054688 74.246094 14.84375 74.246094 15.8125 Z M 74.246094 15.8125 " fill-opacity="1" fill-rule="evenodd"/><path fill="#38b6ff" d="M 81.273438 15.8125 C 81.273438 16.777344 80.484375 17.566406 79.519531 17.566406 C 78.550781 17.566406 77.761719 16.777344 77.761719 15.8125 C 77.761719 14.84375 78.550781 14.054688 79.519531 14.054688 C 80.484375 14.054688 81.273438 14.84375 81.273438 15.8125 Z M 81.273438 15.8125 " fill-opacity="1" fill-rule="evenodd"/><path fill="#38b6ff" d="M 88.300781 15.8125 C 88.300781 16.777344 87.511719 17.566406 86.546875 17.566406 C 85.578125 17.566406 84.792969 16.777344 84.792969 15.8125 C 84.792969 14.84375 85.578125 14.054688 86.546875 14.054688 C 87.511719 14.054688 88.300781 14.84375 88.300781 15.8125 Z M 88.300781 15.8125 " fill-opacity="1" fill-rule="evenodd"/><path fill="#38b6ff" d="M 95.328125 15.8125 C 95.328125 16.777344 94.542969 17.566406 93.574219 17.566406 C 92.605469 17.566406 91.820312 16.777344 91.820312 15.8125 C 91.820312 14.84375 92.605469 14.054688 93.574219 14.054688 C 94.542969 14.054688 95.328125 14.84375 95.328125 15.8125 Z M 95.328125 15.8125 " fill-opacity="1" fill-rule="evenodd"/><path fill="#38b6ff" d="M 100.667969 24.535156 C 100.015625 24.535156 99.441406 24.171875 99.136719 23.640625 C 98.996094 23.390625 98.914062 23.09375 98.914062 22.78125 C 98.914062 21.8125 99.703125 21.023438 100.667969 21.023438 C 101.636719 21.023438 102.425781 21.8125 102.425781 22.78125 C 102.425781 23.09375 102.34375 23.390625 102.199219 23.648438 C 101.894531 24.183594 101.332031 24.542969 100.667969 24.542969 Z M 100.667969 24.535156 " fill-opacity="1" fill-rule="evenodd"/><path fill="#38b6ff" d="M 100.667969 31.5625 C 99.703125 31.5625 98.914062 30.773438 98.914062 29.808594 C 98.914062 28.839844 99.703125 28.050781 100.667969 28.050781 C 101.636719 28.050781 102.425781 28.839844 102.425781 29.808594 C 102.425781 30.773438 101.636719 31.5625 100.667969 31.5625 Z M 100.667969 31.5625 " fill-opacity="1" fill-rule="evenodd"/><path fill="#38b6ff" d="M 100.667969 38.589844 C 99.703125 38.589844 98.914062 37.800781 98.914062 36.835938 C 98.914062 35.867188 99.703125 35.082031 100.667969 35.082031 C 101.636719 35.082031 102.425781 35.867188 102.425781 36.835938 C 102.425781 37.800781 101.636719 38.589844 100.667969 38.589844 Z M 100.667969 38.589844 " fill-opacity="1" fill-rule="evenodd"/><path fill="#38b6ff" d="M 100.667969 45.617188 C 99.703125 45.617188 98.914062 44.832031 98.914062 43.863281 C 98.914062 42.898438 99.703125 42.109375 100.667969 42.109375 C 101.636719 42.109375 102.425781 42.898438 102.425781 43.863281 C 102.425781 44.832031 101.636719 45.617188 100.667969 45.617188 Z M 100.667969 45.617188 " fill-opacity="1" fill-rule="evenodd"/><path fill="#38b6ff" d="M 100.667969 52.640625 C 99.703125 52.640625 98.914062 51.851562 98.914062 50.882812 C 98.914062 49.917969 99.703125 49.128906 100.667969 49.128906 C 101.636719 49.128906 102.425781 49.917969 102.425781 50.882812 C 102.425781 51.851562 101.636719 52.640625 100.667969 52.640625 Z M 100.667969 52.640625 " fill-opacity="1" fill-rule="evenodd"/><path fill="#38b6ff" d="M 100.667969 59.667969 C 99.703125 59.667969 98.914062 58.878906 98.914062 57.910156 C 98.914062 56.945312 99.703125 56.15625 100.667969 56.15625 C 101.636719 56.15625 102.425781 56.945312 102.425781 57.910156 C 102.425781 58.878906 101.636719 59.667969 100.667969 59.667969 Z M 100.667969 59.667969 " fill-opacity="1" fill-rule="evenodd"/><path fill="#38b6ff" d="M 100.667969 66.695312 C 99.703125 66.695312 98.914062 65.90625 98.914062 64.941406 C 98.914062 63.972656 99.703125 63.183594 100.667969 63.183594 C 101.636719 63.183594 102.425781 63.972656 102.425781 64.941406 C 102.425781 65.90625 101.636719 66.695312 100.667969 66.695312 Z M 100.667969 66.695312 " fill-opacity="1" fill-rule="evenodd"/><path fill="#38b6ff" d="M 100.667969 73.722656 C 99.703125 73.722656 98.914062 72.933594 98.914062 71.96875 C 98.914062 71 99.703125 70.210938 100.667969 70.210938 C 101.636719 70.210938 102.425781 71 102.425781 71.96875 C 102.425781 72.933594 101.636719 73.722656 100.667969 73.722656 Z M 100.667969 73.722656 " fill-opacity="1" fill-rule="evenodd"/><path fill="#38b6ff" d="M 100.667969 80.75 C 99.703125 80.75 98.914062 79.960938 98.914062 78.996094 C 98.914062 78.027344 99.703125 77.242188 100.667969 77.242188 C 101.636719 77.242188 102.425781 78.027344 102.425781 78.996094 C 102.425781 79.960938 101.636719 80.75 100.667969 80.75 Z M 100.667969 80.75 " fill-opacity="1" fill-rule="evenodd"/><path fill="#38b6ff" d="M 100.667969 87.777344 C 99.703125 87.777344 98.914062 86.992188 98.914062 86.023438 C 98.914062 85.058594 99.703125 84.269531 100.667969 84.269531 C 101.636719 84.269531 102.425781 85.058594 102.425781 86.023438 C 102.425781 86.992188 101.636719 87.777344 100.667969 87.777344 Z M 100.667969 87.777344 " fill-opacity="1" fill-rule="evenodd"/><path fill="#38b6ff" d="M 100.667969 94.808594 C 99.703125 94.808594 98.914062 94.019531 98.914062 93.050781 C 98.914062 92.085938 99.703125 91.296875 100.667969 91.296875 C 101.636719 91.296875 102.425781 92.085938 102.425781 93.050781 C 102.425781 94.019531 101.636719 94.808594 100.667969 94.808594 Z M 100.667969 94.808594 " fill-opacity="1" fill-rule="evenodd"/><path fill="#38b6ff" d="M 91.886719 100.070312 C 91.886719 99.105469 92.675781 98.316406 93.640625 98.316406 C 94.609375 98.316406 95.394531 99.105469 95.394531 100.070312 C 95.394531 101.039062 94.609375 101.828125 93.640625 101.828125 C 92.675781 101.828125 91.886719 101.039062 91.886719 100.070312 Z M 91.886719 100.070312 " fill-opacity="1" fill-rule="evenodd"/><path fill="#38b6ff" d="M 84.859375 100.070312 C 84.859375 99.105469 85.644531 98.316406 86.613281 98.316406 C 87.578125 98.316406 88.367188 99.105469 88.367188 100.070312 C 88.367188 101.039062 87.578125 101.828125 86.613281 101.828125 C 85.644531 101.828125 84.859375 101.039062 84.859375 100.070312 Z M 84.859375 100.070312 " fill-opacity="1" fill-rule="evenodd"/><path fill="#38b6ff" d="M 77.832031 100.070312 C 77.832031 99.105469 78.617188 98.316406 79.585938 98.316406 C 80.550781 98.316406 81.339844 99.105469 81.339844 100.070312 C 81.339844 101.039062 80.550781 101.828125 79.585938 101.828125 C 78.617188 101.828125 77.832031 101.039062 77.832031 100.070312 Z M 77.832031 100.070312 " fill-opacity="1" fill-rule="evenodd"/><path fill="#38b6ff" d="M 70.800781 100.070312 C 70.800781 99.105469 71.589844 98.316406 72.558594 98.316406 C 73.523438 98.316406 74.3125 99.105469 74.3125 100.070312 C 74.3125 101.039062 73.523438 101.828125 72.558594 101.828125 C 71.589844 101.828125 70.800781 101.039062 70.800781 100.070312 Z M 70.800781 100.070312 " fill-opacity="1" fill-rule="evenodd"/><path fill="#38b6ff" d="M 63.773438 100.070312 C 63.773438 99.105469 64.5625 98.316406 65.53125 98.316406 C 66.496094 98.316406 67.285156 99.105469 67.285156 100.070312 C 67.285156 101.039062 66.496094 101.828125 65.53125 101.828125 C 64.5625 101.828125 63.773438 101.039062 63.773438 100.070312 Z M 63.773438 100.070312 " fill-opacity="1" fill-rule="evenodd"/><path fill="#38b6ff" d="M 25.058594 15.8125 C 25.058594 16.777344 24.269531 17.566406 23.300781 17.566406 C 22.335938 17.566406 21.546875 16.777344 21.546875 15.8125 C 21.546875 14.84375 22.335938 14.054688 23.300781 14.054688 C 24.269531 14.054688 25.058594 14.84375 25.058594 15.8125 Z M 25.058594 15.8125 " fill-opacity="1" fill-rule="evenodd"/><path fill="#38b6ff" d="M 32.085938 15.8125 C 32.085938 16.777344 31.296875 17.566406 30.328125 17.566406 C 29.363281 17.566406 28.574219 16.777344 28.574219 15.8125 C 28.574219 14.84375 29.363281 14.054688 30.328125 14.054688 C 31.296875 14.054688 32.085938 14.84375 32.085938 15.8125 Z M 32.085938 15.8125 " fill-opacity="1" fill-rule="evenodd"/><path fill="#38b6ff" d="M 39.105469 15.8125 C 39.105469 16.777344 38.316406 17.566406 37.351562 17.566406 C 36.382812 17.566406 35.59375 16.777344 35.59375 15.8125 C 35.59375 14.84375 36.382812 14.054688 37.351562 14.054688 C 38.316406 14.054688 39.105469 14.84375 39.105469 15.8125 Z M 39.105469 15.8125 " fill-opacity="1" fill-rule="evenodd"/><path fill="#38b6ff" d="M 46.132812 15.8125 C 46.132812 16.777344 45.34375 17.566406 44.378906 17.566406 C 43.410156 17.566406 42.625 16.777344 42.625 15.8125 C 42.625 14.84375 43.410156 14.054688 44.378906 14.054688 C 45.34375 14.054688 46.132812 14.84375 46.132812 15.8125 Z M 46.132812 15.8125 " fill-opacity="1" fill-rule="evenodd"/><path fill="#38b6ff" d="M 53.160156 15.8125 C 53.160156 16.777344 52.375 17.566406 51.40625 17.566406 C 50.441406 17.566406 49.652344 16.777344 49.652344 15.8125 C 49.652344 14.84375 50.441406 14.054688 51.40625 14.054688 C 52.375 14.054688 53.160156 14.84375 53.160156 15.8125 Z M 53.160156 15.8125 " fill-opacity="1" fill-rule="evenodd"/><path fill="#38b6ff" d="M 14.585938 100.070312 C 14.585938 99.105469 15.375 98.316406 16.339844 98.316406 C 17.308594 98.316406 18.097656 99.105469 18.097656 100.070312 C 18.097656 101.039062 17.308594 101.828125 16.339844 101.828125 C 15.375 101.828125 14.585938 101.039062 14.585938 100.070312 Z M 14.585938 100.070312 " fill-opacity="1" fill-rule="evenodd"/><path fill="#38b6ff" d="M 49.71875 100.070312 C 49.71875 99.105469 50.507812 98.316406 51.472656 98.316406 C 52.441406 98.316406 53.230469 99.105469 53.230469 100.070312 C 53.230469 101.039062 52.441406 101.828125 51.472656 101.828125 C 50.507812 101.828125 49.71875 101.039062 49.71875 100.070312 Z M 49.71875 100.070312 " fill-opacity="1" fill-rule="evenodd"/><path fill="#38b6ff" d="M 42.691406 100.070312 C 42.691406 99.105469 43.480469 98.316406 44.445312 98.316406 C 45.414062 98.316406 46.199219 99.105469 46.199219 100.070312 C 46.199219 101.039062 45.414062 101.828125 44.445312 101.828125 C 43.480469 101.828125 42.691406 101.039062 42.691406 100.070312 Z M 42.691406 100.070312 " fill-opacity="1" fill-rule="evenodd"/><path fill="#38b6ff" d="M 35.667969 100.070312 C 35.667969 99.105469 36.457031 98.316406 37.425781 98.316406 C 38.390625 98.316406 39.179688 99.105469 39.179688 100.070312 C 39.179688 101.039062 38.390625 101.828125 37.425781 101.828125 C 36.457031 101.828125 35.667969 101.039062 35.667969 100.070312 Z M 35.667969 100.070312 " fill-opacity="1" fill-rule="evenodd"/><path fill="#38b6ff" d="M 28.640625 100.070312 C 28.640625 99.105469 29.429688 98.316406 30.398438 98.316406 C 31.363281 98.316406 32.152344 99.105469 32.152344 100.070312 C 32.152344 101.039062 31.363281 101.828125 30.398438 101.828125 C 29.429688 101.828125 28.640625 101.039062 28.640625 100.070312 Z M 28.640625 100.070312 " fill-opacity="1" fill-rule="evenodd"/><path fill="#38b6ff" d="M 21.613281 100.070312 C 21.613281 99.105469 22.402344 98.316406 23.367188 98.316406 C 24.335938 98.316406 25.125 99.105469 25.125 100.070312 C 25.125 101.039062 24.335938 101.828125 23.367188 101.828125 C 22.402344 101.828125 21.613281 101.039062 21.613281 100.070312 Z M 21.613281 100.070312 " fill-opacity="1" fill-rule="evenodd"/><path fill="#38b6ff" d="M 16.273438 91.347656 C 17.242188 91.347656 18.027344 92.136719 18.027344 93.105469 C 18.027344 94.070312 17.242188 94.859375 16.273438 94.859375 C 15.308594 94.859375 14.519531 94.070312 14.519531 93.105469 C 14.519531 92.136719 15.308594 91.347656 16.273438 91.347656 Z M 16.273438 91.347656 " fill-opacity="1" fill-rule="evenodd"/><path fill="#38b6ff" d="M 16.273438 84.328125 C 17.242188 84.328125 18.027344 85.117188 18.027344 86.082031 C 18.027344 87.050781 17.242188 87.839844 16.273438 87.839844 C 15.308594 87.839844 14.519531 87.050781 14.519531 86.082031 C 14.519531 85.117188 15.308594 84.328125 16.273438 84.328125 Z M 16.273438 84.328125 " fill-opacity="1" fill-rule="evenodd"/><path fill="#38b6ff" d="M 16.273438 77.292969 C 17.242188 77.292969 18.027344 78.082031 18.027344 79.046875 C 18.027344 80.015625 17.242188 80.804688 16.273438 80.804688 C 15.308594 80.804688 14.519531 80.015625 14.519531 79.046875 C 14.519531 78.082031 15.308594 77.292969 16.273438 77.292969 Z M 16.273438 77.292969 " fill-opacity="1" fill-rule="evenodd"/><path fill="#38b6ff" d="M 16.273438 70.273438 C 17.242188 70.273438 18.027344 71.058594 18.027344 72.027344 C 18.027344 72.992188 17.242188 73.78125 16.273438 73.78125 C 15.308594 73.78125 14.519531 72.992188 14.519531 72.027344 C 14.519531 71.058594 15.308594 70.273438 16.273438 70.273438 Z M 16.273438 70.273438 " fill-opacity="1" fill-rule="evenodd"/><path fill="#38b6ff" d="M 16.273438 63.246094 C 17.242188 63.246094 18.027344 64.03125 18.027344 65 C 18.027344 65.964844 17.242188 66.753906 16.273438 66.753906 C 15.308594 66.753906 14.519531 65.964844 14.519531 65 C 14.519531 64.03125 15.308594 63.246094 16.273438 63.246094 Z M 16.273438 63.246094 " fill-opacity="1" fill-rule="evenodd"/><path fill="#38b6ff" d="M 16.273438 56.214844 C 17.242188 56.214844 18.027344 57.003906 18.027344 57.972656 C 18.027344 58.9375 17.242188 59.726562 16.273438 59.726562 C 15.308594 59.726562 14.519531 58.9375 14.519531 57.972656 C 14.519531 57.003906 15.308594 56.214844 16.273438 56.214844 Z M 16.273438 56.214844 " fill-opacity="1" fill-rule="evenodd"/><path fill="#38b6ff" d="M 16.273438 49.1875 C 17.242188 49.1875 18.027344 49.976562 18.027344 50.945312 C 18.027344 51.910156 17.242188 52.699219 16.273438 52.699219 C 15.308594 52.699219 14.519531 51.910156 14.519531 50.945312 C 14.519531 49.976562 15.308594 49.1875 16.273438 49.1875 Z M 16.273438 49.1875 " fill-opacity="1" fill-rule="evenodd"/><path fill="#38b6ff" d="M 16.273438 42.160156 C 17.242188 42.160156 18.027344 42.949219 18.027344 43.914062 C 18.027344 44.882812 17.242188 45.671875 16.273438 45.671875 C 15.308594 45.671875 14.519531 44.882812 14.519531 43.914062 C 14.519531 42.949219 15.308594 42.160156 16.273438 42.160156 Z M 16.273438 42.160156 " fill-opacity="1" fill-rule="evenodd"/><path fill="#38b6ff" d="M 16.273438 35.132812 C 17.242188 35.132812 18.027344 35.921875 18.027344 36.886719 C 18.027344 37.855469 17.242188 38.644531 16.273438 38.644531 C 15.308594 38.644531 14.519531 37.855469 14.519531 36.886719 C 14.519531 35.921875 15.308594 35.132812 16.273438 35.132812 Z M 16.273438 35.132812 " fill-opacity="1" fill-rule="evenodd"/><path fill="#38b6ff" d="M 16.273438 28.105469 C 17.242188 28.105469 18.027344 28.894531 18.027344 29.859375 C 18.027344 30.828125 17.242188 31.613281 16.273438 31.613281 C 15.308594 31.613281 14.519531 30.828125 14.519531 29.859375 C 14.519531 28.894531 15.308594 28.105469 16.273438 28.105469 Z M 16.273438 28.105469 " fill-opacity="1" fill-rule="evenodd"/><path fill="#38b6ff" d="M 16.273438 21.082031 C 17.242188 21.082031 18.027344 21.871094 18.027344 22.839844 C 18.027344 23.078125 17.984375 23.308594 17.894531 23.507812 C 17.628906 24.148438 17.003906 24.59375 16.273438 24.59375 C 15.546875 24.59375 14.90625 24.140625 14.644531 23.5 C 14.5625 23.292969 14.519531 23.070312 14.519531 22.832031 C 14.519531 21.863281 15.308594 21.078125 16.273438 21.078125 Z M 16.273438 21.082031 " fill-opacity="1" fill-rule="evenodd"/><path fill="#203a55" d="M 81.207031 48.839844 C 79.964844 45.847656 78.015625 43.074219 75.761719 40.828125 C 73.507812 38.574219 70.632812 36.886719 67.640625 35.644531 C 64.757812 34.449219 61.550781 33.851562 58.234375 33.851562 C 54.917969 33.851562 51.511719 33.972656 48.632812 35.167969 C 45.644531 36.410156 43.144531 38.761719 40.890625 41.015625 C 38.636719 43.269531 36.019531 45.65625 34.785156 48.644531 C 33.585938 51.53125 33.980469 55.042969 33.980469 58.359375 C 33.980469 61.675781 34.226562 64.925781 35.417969 67.808594 C 36.660156 70.800781 39.179688 72.914062 41.433594 75.164062 C 43.6875 77.417969 45.722656 80.109375 48.714844 81.351562 C 51.601562 82.550781 54.925781 83.359375 58.242188 83.359375 C 61.558594 83.359375 64.808594 82.378906 67.695312 81.183594 C 70.683594 79.941406 73.382812 78.007812 75.636719 75.753906 C 77.890625 73.5 79.703125 70.75 80.945312 67.757812 C 82.144531 64.871094 83.511719 61.667969 83.511719 58.359375 C 83.511719 55.046875 82.410156 51.722656 81.214844 48.847656 Z M 65.179688 72.488281 L 59.921875 71.707031 L 61.425781 61.542969 L 50.425781 70.011719 L 47.191406 65.789062 L 56.835938 58.359375 L 47.191406 50.929688 L 50.425781 46.703125 L 61.425781 55.175781 L 59.921875 45.007812 L 65.179688 44.226562 L 67.261719 58.359375 Z M 65.179688 72.488281 " fill-opacity="1" fill-rule="nonzero"/><g clip-path="url(#bec7e36fb5)"><path fill="#ffffff" d="M 92.539062 58.496094 C 92.539062 59.589844 92.484375 60.683594 92.375 61.777344 C 92.269531 62.867188 92.109375 63.953125 91.894531 65.027344 C 91.679688 66.105469 91.414062 67.167969 91.09375 68.214844 C 90.777344 69.265625 90.40625 70.296875 89.988281 71.3125 C 89.566406 72.324219 89.101562 73.3125 88.582031 74.28125 C 88.066406 75.25 87.503906 76.1875 86.894531 77.101562 C 86.285156 78.011719 85.632812 78.894531 84.933594 79.742188 C 84.238281 80.589844 83.503906 81.398438 82.726562 82.175781 C 81.953125 82.953125 81.140625 83.6875 80.292969 84.382812 C 79.445312 85.078125 78.566406 85.730469 77.652344 86.339844 C 76.742188 86.949219 75.800781 87.511719 74.835938 88.03125 C 73.867188 88.546875 72.875 89.015625 71.863281 89.433594 C 70.851562 89.855469 69.816406 90.222656 68.769531 90.542969 C 67.71875 90.859375 66.65625 91.128906 65.582031 91.339844 C 64.503906 91.554688 63.421875 91.714844 62.328125 91.824219 C 61.238281 91.929688 60.144531 91.984375 59.046875 91.984375 C 57.949219 91.984375 56.855469 91.929688 55.765625 91.824219 C 54.671875 91.714844 53.589844 91.554688 52.511719 91.339844 C 51.4375 91.128906 50.375 90.859375 49.324219 90.542969 C 48.277344 90.222656 47.242188 89.855469 46.230469 89.433594 C 45.21875 89.015625 44.226562 88.546875 43.257812 88.03125 C 42.292969 87.511719 41.351562 86.949219 40.441406 86.339844 C 39.527344 85.730469 38.648438 85.078125 37.800781 84.382812 C 36.953125 83.6875 36.140625 82.953125 35.367188 82.175781 C 34.589844 81.398438 33.855469 80.589844 33.160156 79.742188 C 32.460938 78.894531 31.808594 78.011719 31.199219 77.101562 C 30.589844 76.1875 30.027344 75.25 29.511719 74.28125 C 28.992188 73.3125 28.527344 72.324219 28.105469 71.3125 C 27.6875 70.296875 27.316406 69.265625 27 68.214844 C 26.679688 67.167969 26.414062 66.105469 26.199219 65.027344 C 25.984375 63.953125 25.824219 62.867188 25.71875 61.777344 C 25.609375 60.683594 25.554688 59.589844 25.554688 58.496094 C 25.554688 57.398438 25.609375 56.304688 25.71875 55.210938 C 25.824219 54.121094 25.984375 53.035156 26.199219 51.960938 C 26.414062 50.886719 26.679688 49.824219 27 48.773438 C 27.316406 47.722656 27.6875 46.691406 28.105469 45.679688 C 28.527344 44.664062 28.992188 43.675781 29.511719 42.707031 C 30.027344 41.738281 30.589844 40.800781 31.199219 39.886719 C 31.808594 38.976562 32.460938 38.097656 33.160156 37.25 C 33.855469 36.402344 34.589844 35.589844 35.367188 34.8125 C 36.140625 34.039062 36.953125 33.300781 37.800781 32.605469 C 38.648438 31.910156 39.527344 31.257812 40.441406 30.648438 C 41.351562 30.039062 42.292969 29.476562 43.257812 28.957031 C 44.226562 28.441406 45.21875 27.972656 46.230469 27.554688 C 47.242188 27.132812 48.277344 26.765625 49.324219 26.445312 C 50.375 26.128906 51.4375 25.863281 52.511719 25.648438 C 53.589844 25.433594 54.671875 25.273438 55.765625 25.164062 C 56.855469 25.058594 57.949219 25.003906 59.046875 25.003906 C 60.144531 25.003906 61.238281 25.058594 62.328125 25.164062 C 63.421875 25.273438 64.503906 25.433594 65.582031 25.648438 C 66.65625 25.863281 67.71875 26.128906 68.769531 26.445312 C 69.816406 26.765625 70.851562 27.132812 71.863281 27.554688 C 72.875 27.972656 73.867188 28.441406 74.835938 28.957031 C 75.800781 29.476562 76.742188 30.039062 77.652344 30.648438 C 78.566406 31.257812 79.445312 31.910156 80.292969 32.605469 C 81.140625 33.300781 81.953125 34.039062 82.726562 34.8125 C 83.503906 35.589844 84.238281 36.402344 84.933594 37.25 C 85.632812 38.097656 86.285156 38.976562 86.894531 39.886719 C 87.503906 40.800781 88.066406 41.738281 88.582031 42.707031 C 89.101562 43.675781 89.566406 44.664062 89.988281 45.679688 C 90.40625 46.691406 90.777344 47.722656 91.09375 48.773438 C 91.414062 49.824219 91.679688 50.886719 91.894531 51.960938 C 92.109375 53.035156 92.269531 54.121094 92.375 55.210938 C 92.484375 56.304688 92.539062 57.398438 92.539062 58.496094 Z M 92.539062 58.496094 " fill-opacity="1" fill-rule="nonzero"/></g><g clip-path="url(#bf76ffbade)"><path fill="#203a55" d="M 55.988281 89.542969 C 55.792969 89.515625 54.855469 89.378906 53.910156 89.242188 C 47.355469 88.304688 40.8125 85.007812 36.230469 80.339844 C 31.25 75.261719 28.242188 69.113281 27.347656 62.171875 C 27.0625 59.96875 27.152344 55.460938 27.523438 53.390625 C 28.671875 46.980469 31.699219 41.128906 36.238281 36.535156 C 41.667969 31.042969 48.941406 27.703125 56.691406 27.144531 C 58.707031 26.996094 60.230469 27.0625 62.621094 27.398438 C 71.453125 28.636719 79.707031 33.871094 84.617188 41.359375 C 88.039062 46.570312 89.695312 52.136719 89.695312 58.425781 C 89.695312 68.714844 84.722656 78.304688 76.464844 83.945312 C 72.359375 86.75 67.789062 88.554688 62.847656 89.320312 C 61.648438 89.503906 56.804688 89.664062 55.988281 89.542969 Z M 51.679688 83.105469 C 52.484375 82.878906 52.882812 82.546875 53.582031 81.515625 C 53.726562 81.300781 53.777344 81.304688 55.039062 81.550781 C 56.679688 81.875 59.199219 81.988281 60.703125 81.804688 C 61.804688 81.667969 63.964844 81.261719 64.324219 81.121094 C 64.449219 81.074219 64.578125 81.199219 64.738281 81.511719 C 65.277344 82.566406 66.199219 83.117188 67.410156 83.113281 C 69.375 83.109375 70.5625 81.554688 70.207031 79.445312 L 70.125 78.964844 L 71.070312 78.339844 C 72.011719 77.714844 72.011719 77.714844 72.234375 77.960938 C 72.839844 78.640625 74.332031 78.976562 75.167969 78.625 C 76.355469 78.125 77.046875 77.109375 77.046875 75.871094 C 77.046875 75.484375 76.96875 74.972656 76.871094 74.738281 L 76.691406 74.3125 L 77.449219 73.207031 C 78.492188 71.679688 79.316406 70.195312 80.195312 68.25 C 80.9375 66.613281 80.953125 66.589844 81.433594 66.445312 C 83.089844 65.953125 83.953125 64.386719 83.472656 62.761719 C 83.296875 62.171875 82.640625 61.394531 82.066406 61.097656 L 81.625 60.871094 L 81.734375 59.929688 C 81.882812 58.621094 81.753906 56.023438 81.453125 54.238281 C 81.257812 53.082031 81.234375 52.726562 81.347656 52.6875 C 81.703125 52.570312 82.476562 51.71875 82.734375 51.164062 C 83.222656 50.105469 83.035156 49.039062 82.1875 48.066406 C 81.652344 47.449219 80.941406 47.136719 80.082031 47.128906 L 79.375 47.125 L 78.660156 45.917969 C 78.269531 45.253906 77.613281 44.285156 77.207031 43.769531 L 76.46875 42.824219 L 76.722656 42.308594 C 77.070312 41.601562 77.070312 40.402344 76.722656 39.734375 C 76.160156 38.644531 75.339844 38.175781 73.996094 38.171875 C 73.144531 38.167969 72.976562 38.207031 72.539062 38.5 C 72.265625 38.679688 71.996094 38.832031 71.941406 38.832031 C 71.890625 38.832031 71.3125 38.476562 70.65625 38.039062 C 70.003906 37.605469 68.8125 36.925781 68.007812 36.527344 C 66.703125 35.882812 66.546875 35.773438 66.546875 35.496094 C 66.546875 34.035156 65.121094 32.695312 63.566406 32.695312 C 62.417969 32.695312 61.445312 33.300781 60.953125 34.316406 L 60.730469 34.785156 L 58.597656 34.8125 C 56.734375 34.832031 54.871094 35.023438 53.953125 35.285156 C 53.753906 35.34375 53.636719 35.238281 53.339844 34.757812 C 52.878906 34.011719 52.125 33.542969 51.234375 33.449219 C 50.359375 33.359375 49.863281 33.46875 49.226562 33.894531 C 48.226562 34.5625 47.789062 35.851562 48.082031 37.265625 L 48.167969 37.6875 L 47.144531 38.347656 C 46.582031 38.710938 46.054688 39.058594 45.96875 39.121094 C 45.871094 39.191406 45.683594 39.125 45.414062 38.914062 C 44.074219 37.886719 42.464844 37.867188 41.386719 38.867188 C 40.640625 39.558594 40.339844 41 40.714844 42.078125 C 40.914062 42.648438 40.9375 42.59375 40.148438 43.609375 C 39.261719 44.75 37.78125 47.214844 37.128906 48.625 C 36.550781 49.878906 36.539062 49.890625 36.066406 49.96875 C 33.695312 50.367188 32.777344 53.332031 34.519531 54.953125 C 34.8125 55.222656 35.179688 55.503906 35.339844 55.578125 C 35.589844 55.691406 35.621094 55.765625 35.550781 56.085938 C 35.441406 56.582031 35.441406 60.203125 35.550781 60.703125 C 35.636719 61.078125 35.617188 61.105469 35.042969 61.398438 C 33.675781 62.097656 33.136719 63.878906 33.859375 65.304688 C 34.265625 66.109375 35.308594 66.871094 35.996094 66.871094 C 36.179688 66.871094 36.40625 67.214844 37.007812 68.40625 C 37.953125 70.277344 38.847656 71.730469 40.011719 73.277344 L 40.894531 74.449219 L 40.71875 75.199219 C 40.457031 76.335938 40.71875 77.265625 41.511719 78.019531 C 42.28125 78.75 43.1875 79 44.25 78.769531 C 44.722656 78.667969 45.011719 78.503906 45.445312 78.097656 L 46.015625 77.558594 L 47.0625 78.316406 C 47.640625 78.734375 48.128906 79.085938 48.152344 79.097656 C 48.171875 79.109375 48.128906 79.351562 48.054688 79.632812 C 47.855469 80.367188 48.007812 81.214844 48.453125 81.878906 C 49.222656 83.023438 50.390625 83.46875 51.679688 83.105469 Z M 56.046875 80.464844 C 54.757812 80.277344 54.007812 80.074219 53.910156 79.878906 C 53.855469 79.773438 53.773438 79.515625 53.730469 79.308594 C 53.640625 78.886719 53.851562 78.597656 56.214844 75.933594 L 57.394531 74.601562 L 57.980469 74.910156 C 58.761719 75.320312 59.75 75.328125 60.582031 74.933594 L 61.179688 74.652344 L 61.449219 74.890625 C 61.992188 75.378906 64.589844 77.746094 64.84375 77.992188 L 65.113281 78.246094 L 64.714844 79.023438 L 64.320312 79.804688 L 63.226562 80.070312 C 62.625 80.214844 61.664062 80.390625 61.089844 80.460938 C 59.910156 80.605469 57.039062 80.609375 56.046875 80.464844 Z M 47.898438 77.367188 L 46.96875 76.679688 L 46.96875 61.515625 C 46.96875 53.175781 46.972656 44.914062 46.976562 43.15625 L 46.980469 39.964844 L 47.941406 39.335938 C 48.46875 38.992188 48.953125 38.710938 49.011719 38.710938 C 49.074219 38.710938 49.296875 38.816406 49.511719 38.949219 C 49.726562 39.082031 49.992188 39.191406 50.097656 39.191406 C 50.257812 39.191406 50.316406 39.433594 50.429688 40.605469 C 50.503906 41.382812 50.617188 42.402344 50.679688 42.871094 C 50.738281 43.339844 50.824219 44.230469 50.871094 44.855469 L 50.949219 45.992188 L 50.507812 46.152344 C 48.117188 47.023438 48.097656 50.546875 50.480469 51.535156 L 51.035156 51.765625 L 51.035156 64.6875 L 50.628906 64.820312 C 49.007812 65.363281 48.164062 67.34375 48.898438 68.878906 C 49.1875 69.480469 49.945312 70.175781 50.515625 70.367188 C 51 70.527344 50.992188 70.289062 50.675781 73.90625 C 50.382812 77.261719 50.351562 77.460938 50.15625 77.460938 C 50.070312 77.460938 49.746094 77.597656 49.4375 77.761719 C 49.128906 77.925781 48.867188 78.0625 48.851562 78.0625 C 48.839844 78.058594 48.410156 77.75 47.898438 77.367188 Z M 52.144531 77.664062 C 51.871094 77.519531 51.640625 77.320312 51.640625 77.21875 C 51.632812 76.949219 52.222656 70.566406 52.257812 70.542969 C 52.277344 70.53125 52.476562 70.449219 52.699219 70.355469 C 52.925781 70.265625 53.289062 70.035156 53.503906 69.84375 L 53.894531 69.5 L 54.285156 69.773438 C 54.5 69.925781 55.066406 70.34375 55.542969 70.703125 L 56.410156 71.355469 L 56.339844 71.910156 C 56.296875 72.253906 56.339844 72.6875 56.449219 73.042969 L 56.621094 73.613281 L 55.886719 74.425781 C 55.484375 74.871094 54.625 75.84375 53.980469 76.589844 C 53.332031 77.332031 52.769531 77.9375 52.726562 77.933594 C 52.683594 77.925781 52.421875 77.804688 52.144531 77.660156 Z M 68.585938 77.566406 C 67.898438 77.199219 67.421875 77.148438 66.574219 77.34375 L 66.058594 77.464844 L 65.140625 76.578125 C 64.636719 76.089844 63.699219 75.214844 63.058594 74.636719 C 62.109375 73.777344 61.917969 73.546875 62.007812 73.378906 C 62.070312 73.265625 62.15625 72.902344 62.199219 72.574219 C 62.527344 70.074219 59.703125 68.390625 57.589844 69.824219 L 56.980469 70.238281 L 56.304688 69.71875 C 55.933594 69.433594 55.375 69.027344 55.0625 68.8125 L 54.496094 68.421875 L 54.496094 67.617188 C 54.496094 66.941406 54.4375 66.707031 54.132812 66.171875 C 53.785156 65.5625 52.894531 64.824219 52.503906 64.824219 C 52.339844 64.824219 52.339844 64.777344 52.316406 55.867188 L 52.308594 51.78125 L 52.6875 51.652344 C 53.28125 51.453125 53.8125 50.957031 54.191406 50.253906 C 54.472656 49.734375 54.539062 49.464844 54.535156 48.878906 L 54.527344 48.152344 L 55.257812 47.652344 C 55.660156 47.378906 56.34375 46.902344 56.78125 46.59375 L 57.570312 46.027344 L 58.03125 46.335938 C 59.003906 46.980469 60.328125 46.984375 61.285156 46.347656 C 61.992188 45.875 62.609375 44.871094 62.609375 44.199219 C 62.609375 43.953125 62.785156 43.878906 64.667969 43.347656 C 65.800781 43.03125 67.660156 42.503906 68.800781 42.179688 C 69.941406 41.855469 70.894531 41.609375 70.921875 41.636719 C 70.96875 41.683594 68.765625 43.773438 65.175781 47.074219 C 64.457031 47.734375 63.199219 48.90625 62.375 49.671875 C 61.554688 50.4375 59.804688 52.058594 58.492188 53.277344 C 54.734375 56.761719 52.53125 58.84375 52.488281 58.949219 C 52.441406 59.070312 52.433594 59.0625 54.257812 60.671875 C 55.078125 61.394531 56.339844 62.535156 57.0625 63.203125 C 58.332031 64.378906 60.132812 66.003906 67.652344 72.746094 C 71.875 76.53125 71.742188 76.308594 70.308594 77.316406 C 69.816406 77.660156 69.375 77.933594 69.324219 77.925781 C 69.273438 77.917969 68.941406 77.753906 68.585938 77.566406 Z M 41.085938 72.609375 C 40.101562 71.265625 39.210938 69.847656 38.320312 68.203125 C 37.554688 66.792969 37.523438 66.699219 37.742188 66.578125 C 38.039062 66.410156 39.007812 65.433594 39.171875 65.132812 C 39.296875 64.90625 39.328125 64.90625 40.933594 65.191406 L 42.566406 65.480469 L 42.566406 73.121094 L 42.214844 73.304688 C 42.019531 73.40625 41.832031 73.488281 41.796875 73.488281 C 41.761719 73.488281 41.441406 73.09375 41.085938 72.609375 Z M 75.136719 73.160156 C 74.84375 73.058594 74.539062 72.945312 74.464844 72.902344 C 74.355469 72.84375 68.1875 67.324219 66.367188 65.65625 C 66.105469 65.414062 64.386719 63.878906 62.550781 62.238281 C 60.714844 60.601562 59.140625 59.195312 59.058594 59.117188 C 58.902344 58.96875 60.632812 57.273438 66.195312 52.128906 C 67.339844 51.070312 68.734375 49.769531 69.292969 49.238281 C 72.058594 46.597656 74.976562 43.9375 75.347656 43.71875 C 75.4375 43.664062 75.617188 43.765625 75.800781 43.96875 C 76.183594 44.394531 78.242188 47.488281 78.242188 47.636719 C 78.242188 47.695312 78.105469 47.882812 77.941406 48.046875 C 77.09375 48.90625 76.859375 50.289062 77.386719 51.371094 L 77.664062 51.941406 L 74.570312 57.542969 L 73.796875 57.503906 C 72.492188 57.4375 71.355469 58.117188 70.886719 59.25 C 70.792969 59.480469 70.632812 59.648438 70.519531 59.648438 C 70.410156 59.648438 68.839844 59.410156 67.03125 59.113281 C 62.9375 58.445312 62.195312 58.363281 61.957031 58.566406 C 61.707031 58.773438 61.722656 59.375 61.984375 59.511719 C 62.171875 59.617188 66.902344 60.410156 69.234375 60.730469 C 70.667969 60.925781 70.644531 60.917969 70.875 61.488281 C 71.109375 62.070312 71.773438 62.8125 72.324219 63.117188 C 72.574219 63.25 72.980469 63.316406 73.585938 63.316406 C 74.601562 63.316406 75.042969 63.136719 75.765625 62.441406 L 76.210938 62.007812 L 76.988281 62.425781 L 77.765625 62.839844 L 77.695312 63.328125 C 77.546875 64.351562 78.140625 65.578125 79.046875 66.113281 C 79.691406 66.492188 79.695312 66.46875 78.65625 68.613281 C 77.714844 70.558594 75.96875 73.394531 75.734375 73.351562 C 75.703125 73.34375 75.433594 73.257812 75.136719 73.160156 Z M 40.953125 63.917969 C 40.234375 63.765625 39.601562 63.636719 39.554688 63.632812 C 39.503906 63.625 39.464844 63.566406 39.464844 63.496094 C 39.464844 63.371094 42.265625 61.9375 42.503906 61.9375 C 42.578125 61.9375 42.609375 62.371094 42.585938 63.078125 C 42.5625 63.867188 42.503906 64.21875 42.40625 64.207031 C 42.332031 64.199219 41.675781 64.070312 40.953125 63.917969 Z M 38.449219 61.816406 C 38.261719 61.617188 37.835938 61.355469 37.507812 61.230469 C 37.035156 61.050781 36.886719 60.929688 36.8125 60.65625 C 36.6875 60.214844 36.65625 56.976562 36.769531 56.320312 C 36.847656 55.875 36.898438 55.816406 37.253906 55.746094 C 37.472656 55.707031 37.851562 55.535156 38.097656 55.363281 L 38.546875 55.058594 L 39.09375 55.371094 C 39.394531 55.546875 40.300781 56.023438 41.105469 56.433594 L 42.570312 57.179688 L 42.539062 58.839844 L 42.503906 60.496094 L 40.730469 61.335938 C 39.753906 61.800781 38.917969 62.175781 38.875 62.175781 C 38.828125 62.175781 38.636719 62.015625 38.449219 61.816406 Z M 77.375 61.230469 C 76.574219 60.796875 76.570312 60.792969 76.570312 60.277344 C 76.570312 59.742188 76.238281 58.9375 75.832031 58.488281 L 75.597656 58.230469 L 76.824219 56.023438 C 77.5 54.808594 78.1875 53.554688 78.355469 53.242188 C 78.570312 52.835938 78.710938 52.691406 78.835938 52.746094 C 78.9375 52.785156 79.21875 52.859375 79.46875 52.910156 C 79.71875 52.960938 79.941406 53.019531 79.960938 53.046875 C 79.984375 53.070312 80.09375 53.605469 80.207031 54.234375 C 80.4375 55.554688 80.578125 58.757812 80.457031 59.914062 L 80.371094 60.703125 L 79.917969 60.777344 C 79.667969 60.820312 79.191406 61.042969 78.855469 61.273438 C 78.519531 61.507812 78.230469 61.6875 78.214844 61.679688 C 78.195312 61.671875 77.820312 61.46875 77.375 61.230469 Z M 40.894531 54.894531 C 40.007812 54.429688 39.296875 53.996094 39.3125 53.933594 C 39.324219 53.867188 39.371094 53.582031 39.414062 53.300781 C 39.472656 52.910156 39.550781 52.773438 39.746094 52.730469 C 39.886719 52.695312 40.558594 52.535156 41.246094 52.371094 C 41.929688 52.207031 42.507812 52.089844 42.53125 52.113281 C 42.554688 52.136719 42.558594 52.960938 42.539062 53.945312 L 42.503906 55.738281 Z M 38.738281 50.976562 C 38.449219 50.667969 38.113281 50.363281 38 50.304688 C 37.800781 50.199219 37.8125 50.136719 38.144531 49.394531 C 38.691406 48.175781 39.75 46.375 40.800781 44.878906 C 41.320312 44.132812 41.773438 43.523438 41.804688 43.523438 C 41.835938 43.523438 42.019531 43.605469 42.214844 43.707031 L 42.566406 43.890625 L 42.566406 50.738281 L 42.296875 50.800781 C 42.148438 50.835938 41.40625 51.015625 40.648438 51.199219 L 39.265625 51.535156 Z M 53.722656 46.773438 C 53.601562 46.640625 53.21875 46.390625 52.871094 46.21875 C 52.128906 45.851562 52.226562 46.226562 51.871094 42.441406 C 51.734375 40.953125 51.601562 39.636719 51.578125 39.519531 C 51.546875 39.363281 51.699219 39.222656 52.113281 39.007812 L 52.691406 38.714844 L 54.902344 40.515625 L 57.109375 42.320312 L 56.933594 42.75 C 56.738281 43.214844 56.6875 43.988281 56.816406 44.570312 C 56.894531 44.929688 56.855469 44.96875 55.847656 45.699219 C 55.269531 46.117188 54.644531 46.582031 54.457031 46.734375 C 54.046875 47.074219 53.996094 47.078125 53.722656 46.773438 Z M 62.023438 41.988281 L 61.503906 41.3125 L 62.203125 39.964844 L 62.90625 38.617188 L 63.757812 38.5625 C 64.925781 38.488281 65.679688 38.03125 66.246094 37.058594 C 66.257812 37.042969 66.890625 37.351562 67.65625 37.746094 C 69.21875 38.542969 71.019531 39.699219 71.121094 39.964844 C 71.207031 40.1875 70.84375 40.300781 64.042969 42.207031 C 63.289062 42.417969 62.640625 42.609375 62.605469 42.628906 C 62.570312 42.648438 62.308594 42.359375 62.023438 41.988281 Z M 57.152344 40.761719 C 56.46875 40.214844 54.011719 38.195312 53.617188 37.855469 C 53.421875 37.6875 53.816406 36.644531 54.113281 36.53125 C 54.660156 36.320312 57.328125 36.0625 58.941406 36.0625 L 60.589844 36.0625 L 60.8125 36.585938 C 60.9375 36.875 61.210938 37.3125 61.425781 37.558594 L 61.8125 38.003906 L 61.085938 39.410156 L 60.355469 40.816406 L 59.621094 40.898438 C 59.214844 40.945312 58.683594 41.085938 58.4375 41.207031 L 57.992188 41.429688 Z M 57.152344 40.761719 " fill-opacity="1" fill-rule="nonzero"/></g></svg>