<svg xmlns="http://www.w3.org/2000/svg" xmlns:xlink="http://www.w3.org/1999/xlink" width="420" zoomAndPan="magnify" viewBox="0 0 315 92.999996" height="124" preserveAspectRatio="xMidYMid meet" version="1.0"><defs><g/><clipPath id="194655cf32"><path d="M 0.324219 0 L 84.339844 0 L 84.339844 93 L 0.324219 93 Z M 0.324219 0 " clip-rule="nonzero"/></clipPath><clipPath id="09fc14c315"><path d="M 18.554688 18.171875 L 67.074219 18.171875 L 67.074219 66.847656 L 18.554688 66.847656 Z M 18.554688 18.171875 " clip-rule="nonzero"/></clipPath><clipPath id="623639b094"><path d="M 19.730469 19.671875 L 65.015625 19.671875 L 65.015625 65.105469 L 19.730469 65.105469 Z M 19.730469 19.671875 " clip-rule="nonzero"/></clipPath></defs><path fill="#203a55" d="M 49.527344 59.460938 C 49.492188 60.566406 48.75 61.566406 47.640625 61.863281 C 46.53125 62.160156 45.386719 61.667969 44.8125 60.734375 C 44.5 61.789062 43.523438 62.558594 42.371094 62.558594 C 41.21875 62.558594 40.242188 61.789062 39.929688 60.734375 C 39.355469 61.667969 38.210938 62.164062 37.101562 61.871094 C 35.992188 61.570312 35.25 60.574219 35.21875 59.46875 C 34.417969 60.226562 33.191406 60.410156 32.1875 59.832031 C 31.191406 59.253906 30.730469 58.097656 30.988281 57.027344 C 30.023438 57.550781 28.789062 57.402344 27.976562 56.589844 C 27.15625 55.773438 27.011719 54.535156 27.539062 53.558594 C 26.472656 53.820312 25.316406 53.355469 24.746094 52.355469 C 24.167969 51.359375 24.34375 50.121094 25.097656 49.320312 C 24 49.285156 23.003906 48.542969 22.707031 47.425781 C 22.410156 46.3125 22.902344 45.167969 23.839844 44.589844 C 22.785156 44.277344 22.015625 43.296875 22.015625 42.140625 C 22.015625 40.984375 22.789062 40.003906 23.839844 39.691406 C 22.90625 39.113281 22.410156 37.96875 22.707031 36.855469 C 23.003906 35.742188 24.007812 34.996094 25.097656 34.964844 C 24.34375 34.164062 24.160156 32.925781 24.746094 31.925781 C 25.320312 30.925781 26.472656 30.460938 27.539062 30.722656 C 27.015625 29.753906 27.164062 28.515625 27.976562 27.699219 C 28.789062 26.878906 30.023438 26.734375 30.988281 27.261719 C 30.734375 26.191406 31.191406 25.035156 32.1875 24.457031 C 33.183594 23.878906 34.417969 24.054688 35.21875 24.820312 C 35.25 23.714844 35.992188 22.714844 37.101562 22.417969 C 38.210938 22.125 39.359375 22.613281 39.929688 23.554688 C 40.242188 22.496094 41.21875 21.722656 42.371094 21.722656 C 43.523438 21.722656 44.5 22.496094 44.8125 23.554688 C 45.386719 22.621094 46.53125 22.125 47.640625 22.417969 C 48.75 22.714844 49.492188 23.722656 49.527344 24.820312 C 50.320312 24.0625 51.554688 23.878906 52.554688 24.457031 C 53.550781 25.035156 54.011719 26.191406 53.753906 27.261719 C 54.71875 26.734375 55.953125 26.882812 56.765625 27.699219 C 57.578125 28.515625 57.730469 29.753906 57.203125 30.722656 C 58.269531 30.464844 59.421875 30.925781 60 31.925781 C 60.574219 32.925781 60.398438 34.164062 59.636719 34.964844 C 60.730469 34.996094 61.734375 35.742188 62.027344 36.855469 C 62.324219 37.96875 61.835938 39.113281 60.898438 39.691406 C 61.953125 40.003906 62.722656 40.984375 62.722656 42.140625 C 62.722656 43.296875 61.953125 44.277344 60.898438 44.589844 C 61.828125 45.167969 62.324219 46.3125 62.027344 47.425781 C 61.734375 48.542969 60.730469 49.285156 59.636719 49.320312 C 60.390625 50.121094 60.574219 51.351562 60 52.355469 C 59.421875 53.355469 58.269531 53.820312 57.203125 53.558594 C 57.722656 54.527344 57.578125 55.765625 56.765625 56.589844 C 55.945312 57.402344 54.71875 57.554688 53.753906 57.027344 C 54.007812 58.097656 53.550781 59.257812 52.554688 59.832031 C 51.554688 60.410156 50.320312 60.230469 49.527344 59.46875 Z M 82.765625 20.425781 L 83.078125 20.425781 L 83.078125 28.085938 L 82.765625 28.085938 C 81.671875 30.070312 78.039062 29.683594 78 26.828125 L 78 21.675781 C 78.039062 18.835938 81.671875 18.445312 82.765625 20.429688 Z M 82.765625 56.171875 L 83.078125 56.171875 L 83.078125 63.832031 L 82.761719 63.832031 C 81.664062 65.804688 78.035156 65.429688 78 62.570312 L 78 57.414062 C 78.035156 54.59375 81.664062 54.1875 82.761719 56.171875 Z M 82.765625 56.171875 " fill-opacity="1" fill-rule="evenodd"/><path fill="#ffffff" d="M 72.910156 6.382812 C 75.710938 6.382812 78 8.679688 78 11.492188 L 78 72.777344 C 78 75.582031 75.710938 77.882812 72.910156 77.882812 L 11.828125 77.882812 C 9.027344 77.882812 6.738281 75.585938 6.738281 72.777344 L 6.738281 11.492188 C 6.738281 8.679688 9.027344 6.382812 11.828125 6.382812 L 72.917969 6.382812 Z M 42.371094 21.707031 C 31.128906 21.707031 22.011719 30.851562 22.011719 42.136719 C 22.011719 53.421875 31.128906 62.558594 42.371094 62.558594 C 53.617188 62.558594 62.734375 53.414062 62.734375 42.136719 C 62.734375 30.855469 53.617188 21.707031 42.371094 21.707031 Z M 42.371094 21.707031 " fill-opacity="1" fill-rule="evenodd"/><path fill="#ffffff" d="M 78 55.648438 L 78 28.605469 L 79.699219 29.207031 C 80.238281 29.394531 80.855469 29.394531 81.390625 29.207031 L 83.09375 28.589844 L 83.09375 55.667969 L 81.390625 55.058594 C 80.855469 54.863281 80.238281 54.863281 79.695312 55.054688 L 78 55.652344 Z M 83.09375 64.332031 L 83.09375 72.769531 C 83.09375 78.386719 78.511719 82.984375 72.910156 82.984375 L 11.828125 82.984375 C 6.234375 82.984375 1.648438 78.390625 1.648438 72.769531 L 1.648438 11.492188 C 1.648438 5.875 6.226562 1.273438 11.828125 1.273438 L 72.917969 1.273438 C 78.511719 1.273438 83.097656 5.871094 83.097656 11.492188 L 83.097656 19.921875 L 81.398438 19.3125 C 80.855469 19.117188 80.242188 19.117188 79.699219 19.3125 L 78 19.90625 L 78 11.496094 C 78 8.6875 75.710938 6.386719 72.910156 6.386719 L 11.828125 6.386719 C 9.027344 6.386719 6.738281 8.6875 6.738281 11.496094 L 6.738281 72.78125 C 6.738281 75.585938 9.027344 77.890625 11.828125 77.890625 L 72.917969 77.890625 C 75.71875 77.890625 78.007812 75.59375 78.007812 72.78125 L 78.007812 64.371094 L 79.703125 64.96875 C 80.242188 65.160156 80.855469 65.160156 81.398438 64.96875 L 83.097656 64.347656 Z M 83.09375 64.332031 " fill-opacity="1" fill-rule="evenodd"/><path fill="#38b6ff" d="M 11.828125 10.214844 C 12.53125 10.214844 13.101562 10.789062 13.101562 11.492188 C 13.101562 12.191406 12.53125 12.765625 11.828125 12.765625 C 11.132812 12.765625 10.558594 12.191406 10.558594 11.492188 C 10.558594 10.789062 11.132812 10.214844 11.828125 10.214844 Z M 11.828125 10.214844 " fill-opacity="1" fill-rule="evenodd"/><path fill="#38b6ff" d="M 42.371094 20.425781 C 54.320312 20.425781 64.007812 30.144531 64.007812 42.132812 C 64.007812 54.117188 54.320312 63.835938 42.371094 63.835938 C 30.421875 63.835938 20.734375 54.117188 20.734375 42.132812 C 20.734375 30.144531 30.421875 20.425781 42.371094 20.425781 Z M 42.371094 20.425781 " fill-opacity="1" fill-rule="evenodd"/><g clip-path="url(#194655cf32)"><path fill="#203a55" d="M 72.753906 84.257812 L 71.640625 93.195312 L 64.007812 93.195312 L 62.890625 84.257812 L 21.851562 84.257812 L 20.734375 93.195312 L 13.101562 93.195312 L 11.984375 84.257812 L 11.828125 84.257812 C 5.527344 84.257812 0.378906 79.09375 0.378906 72.769531 L 0.378906 11.492188 C 0.371094 5.167969 5.527344 0 11.828125 0 L 72.917969 0 C 79.222656 0 84.371094 5.167969 84.371094 11.492188 L 84.371094 72.777344 C 84.371094 79.09375 79.222656 84.265625 72.917969 84.265625 L 72.753906 84.265625 Z M 72.753906 84.257812 " fill-opacity="1" fill-rule="evenodd"/></g><path fill="#ffffff" d="M 79.273438 53.847656 C 80.09375 53.558594 81.003906 53.558594 81.816406 53.851562 L 81.816406 30.40625 C 81.003906 30.703125 80.085938 30.703125 79.273438 30.417969 Z M 79.273438 53.847656 " fill-opacity="1" fill-rule="evenodd"/><path fill="#ffffff" d="M 81.820312 66.152344 C 81.007812 66.453125 80.09375 66.453125 79.28125 66.164062 L 79.28125 72.777344 C 79.28125 76.289062 76.417969 79.160156 72.917969 79.160156 L 11.828125 79.160156 C 8.328125 79.160156 5.46875 76.289062 5.46875 72.777344 L 5.46875 11.492188 C 5.46875 7.976562 8.328125 5.105469 11.828125 5.105469 L 72.917969 5.105469 C 76.417969 5.105469 79.28125 7.976562 79.28125 11.492188 L 79.28125 18.101562 C 80.097656 17.8125 81.007812 17.8125 81.820312 18.105469 L 81.820312 11.492188 C 81.820312 6.578125 77.808594 2.550781 72.910156 2.550781 L 11.828125 2.550781 C 6.933594 2.550781 2.925781 6.570312 2.925781 11.492188 L 2.925781 72.777344 C 2.925781 77.6875 6.933594 81.710938 11.828125 81.710938 L 72.917969 81.710938 C 77.816406 81.710938 81.828125 77.6875 81.828125 72.777344 L 81.828125 66.160156 Z M 81.820312 66.152344 " fill-opacity="1" fill-rule="evenodd"/><path fill="#38b6ff" d="M 80.535156 56.203125 C 81.164062 56.203125 81.800781 56.621094 81.800781 57.453125 L 81.800781 62.558594 C 81.800781 63.386719 81.160156 63.808594 80.523438 63.808594 C 79.890625 63.808594 79.285156 63.402344 79.28125 62.578125 L 79.28125 57.433594 C 79.289062 56.613281 79.914062 56.203125 80.539062 56.203125 M 80.539062 55.125 C 79.226562 55.125 78.21875 56.113281 78.203125 57.425781 L 78.203125 62.558594 C 78.203125 62.558594 78.203125 62.589844 78.203125 62.589844 C 78.21875 63.898438 79.214844 64.890625 80.523438 64.890625 C 81.46875 64.890625 82.25 64.394531 82.628906 63.640625 L 82.882812 63.640625 L 82.882812 62.558594 C 82.882812 62.558594 82.882812 57.453125 82.882812 57.453125 L 82.882812 56.371094 L 82.628906 56.371094 C 82.253906 55.617188 81.476562 55.125 80.539062 55.125 Z M 80.539062 55.125 " fill-opacity="1" fill-rule="nonzero"/><path fill="#38b6ff" d="M 80.527344 20.449219 C 81.164062 20.449219 81.800781 20.875 81.800781 21.699219 L 81.800781 26.808594 C 81.800781 27.640625 81.164062 28.0625 80.527344 28.0625 C 79.894531 28.0625 79.285156 27.65625 79.273438 26.824219 L 79.273438 21.683594 C 79.285156 20.855469 79.902344 20.449219 80.523438 20.449219 M 80.523438 19.371094 C 79.210938 19.371094 78.214844 20.359375 78.195312 21.675781 L 78.195312 26.808594 C 78.195312 26.808594 78.195312 26.835938 78.195312 26.835938 C 78.214844 28.148438 79.214844 29.136719 80.527344 29.136719 C 81.472656 29.136719 82.25 28.640625 82.628906 27.882812 L 82.875 27.882812 L 82.875 26.800781 C 82.875 26.800781 82.875 21.695312 82.875 21.695312 L 82.875 20.613281 L 82.625 20.613281 C 82.242188 19.859375 81.46875 19.367188 80.523438 19.367188 Z M 80.523438 19.371094 " fill-opacity="1" fill-rule="nonzero"/><path fill="#ffffff" d="M 72.910156 7.660156 L 11.828125 7.660156 C 9.734375 7.660156 8.011719 9.386719 8.011719 11.492188 L 8.011719 72.777344 C 8.011719 74.878906 9.730469 76.605469 11.828125 76.605469 L 72.917969 76.605469 C 75.011719 76.605469 76.738281 74.882812 76.738281 72.777344 L 76.738281 11.492188 C 76.738281 9.386719 75.011719 7.660156 72.917969 7.660156 Z M 72.910156 7.660156 " fill-opacity="1" fill-rule="evenodd"/><path fill="#38b6ff" d="M 42.371094 71.449219 L 42.425781 71.449219 C 43.132812 71.449219 43.699219 72.023438 43.699219 72.726562 C 43.699219 73.429688 43.125 74.003906 42.425781 74.003906 L 42.371094 74.003906 C 41.691406 73.972656 41.148438 73.414062 41.148438 72.726562 C 41.148438 72.042969 41.691406 71.480469 42.371094 71.449219 Z M 42.371094 71.449219 " fill-opacity="1" fill-rule="evenodd"/><path fill="#38b6ff" d="M 42.371094 10.214844 C 43.070312 10.214844 43.644531 10.789062 43.644531 11.492188 C 43.644531 12.191406 43.070312 12.765625 42.371094 12.765625 C 41.664062 12.765625 41.101562 12.191406 41.101562 11.492188 C 41.101562 10.789062 41.671875 10.214844 42.371094 10.214844 Z M 42.371094 10.214844 " fill-opacity="1" fill-rule="evenodd"/><path fill="#38b6ff" d="M 72.964844 74.003906 C 72.265625 74.003906 71.695312 73.429688 71.695312 72.726562 C 71.695312 72.023438 72.265625 71.449219 72.964844 71.449219 C 73.667969 71.449219 74.238281 72.023438 74.238281 72.726562 C 74.238281 73.429688 73.667969 74.003906 72.964844 74.003906 Z M 72.964844 74.003906 " fill-opacity="1" fill-rule="evenodd"/><path fill="#38b6ff" d="M 74.183594 11.492188 C 74.183594 12.191406 73.613281 12.765625 72.910156 12.765625 C 72.210938 12.765625 71.640625 12.191406 71.640625 11.492188 C 71.640625 10.789062 72.210938 10.214844 72.910156 10.214844 C 73.613281 10.214844 74.183594 10.789062 74.183594 11.492188 Z M 74.183594 11.492188 " fill-opacity="1" fill-rule="evenodd"/><path fill="#38b6ff" d="M 13.367188 11.492188 C 13.367188 12.191406 12.792969 12.765625 12.09375 12.765625 C 11.394531 12.765625 10.824219 12.191406 10.824219 11.492188 C 10.824219 10.789062 11.394531 10.214844 12.09375 10.214844 C 12.792969 10.214844 13.367188 10.789062 13.367188 11.492188 Z M 13.367188 11.492188 " fill-opacity="1" fill-rule="evenodd"/><path fill="#38b6ff" d="M 48.734375 11.492188 C 48.734375 12.191406 48.164062 12.765625 47.460938 12.765625 C 46.761719 12.765625 46.191406 12.191406 46.191406 11.492188 C 46.191406 10.789062 46.761719 10.214844 47.460938 10.214844 C 48.164062 10.214844 48.734375 10.789062 48.734375 11.492188 Z M 48.734375 11.492188 " fill-opacity="1" fill-rule="evenodd"/><path fill="#38b6ff" d="M 42.570312 18.53125 C 55.8125 18.53125 66.542969 29.304688 66.542969 42.589844 C 66.542969 55.875 55.804688 66.640625 42.570312 66.640625 C 29.335938 66.640625 18.59375 55.875 18.59375 42.589844 C 18.59375 29.304688 29.328125 18.53125 42.570312 18.53125 Z M 42.570312 18.53125 " fill-opacity="1" fill-rule="evenodd"/><path fill="#38b6ff" d="M 53.824219 11.492188 C 53.824219 12.191406 53.253906 12.765625 52.554688 12.765625 C 51.851562 12.765625 51.28125 12.191406 51.28125 11.492188 C 51.28125 10.789062 51.851562 10.214844 52.554688 10.214844 C 53.253906 10.214844 53.824219 10.789062 53.824219 11.492188 Z M 53.824219 11.492188 " fill-opacity="1" fill-rule="evenodd"/><path fill="#38b6ff" d="M 58.914062 11.492188 C 58.914062 12.191406 58.34375 12.765625 57.644531 12.765625 C 56.941406 12.765625 56.371094 12.191406 56.371094 11.492188 C 56.371094 10.789062 56.941406 10.214844 57.644531 10.214844 C 58.34375 10.214844 58.914062 10.789062 58.914062 11.492188 Z M 58.914062 11.492188 " fill-opacity="1" fill-rule="evenodd"/><path fill="#38b6ff" d="M 64.007812 11.492188 C 64.007812 12.191406 63.433594 12.765625 62.734375 12.765625 C 62.035156 12.765625 61.464844 12.191406 61.464844 11.492188 C 61.464844 10.789062 62.035156 10.214844 62.734375 10.214844 C 63.433594 10.214844 64.007812 10.789062 64.007812 11.492188 Z M 64.007812 11.492188 " fill-opacity="1" fill-rule="evenodd"/><path fill="#38b6ff" d="M 69.097656 11.492188 C 69.097656 12.191406 68.527344 12.765625 67.824219 12.765625 C 67.125 12.765625 66.554688 12.191406 66.554688 11.492188 C 66.554688 10.789062 67.125 10.214844 67.824219 10.214844 C 68.527344 10.214844 69.097656 10.789062 69.097656 11.492188 Z M 69.097656 11.492188 " fill-opacity="1" fill-rule="evenodd"/><path fill="#38b6ff" d="M 72.964844 17.832031 C 72.492188 17.832031 72.074219 17.566406 71.855469 17.179688 C 71.753906 17 71.695312 16.785156 71.695312 16.554688 C 71.695312 15.851562 72.265625 15.277344 72.964844 15.277344 C 73.667969 15.277344 74.238281 15.851562 74.238281 16.554688 C 74.238281 16.785156 74.179688 17 74.074219 17.1875 C 73.851562 17.574219 73.445312 17.835938 72.964844 17.835938 Z M 72.964844 17.832031 " fill-opacity="1" fill-rule="evenodd"/><path fill="#38b6ff" d="M 72.964844 22.9375 C 72.265625 22.9375 71.695312 22.363281 71.695312 21.664062 C 71.695312 20.960938 72.265625 20.386719 72.964844 20.386719 C 73.667969 20.386719 74.238281 20.960938 74.238281 21.664062 C 74.238281 22.363281 73.667969 22.9375 72.964844 22.9375 Z M 72.964844 22.9375 " fill-opacity="1" fill-rule="evenodd"/><path fill="#38b6ff" d="M 72.964844 28.046875 C 72.265625 28.046875 71.695312 27.472656 71.695312 26.769531 C 71.695312 26.066406 72.265625 25.496094 72.964844 25.496094 C 73.667969 25.496094 74.238281 26.066406 74.238281 26.769531 C 74.238281 27.472656 73.667969 28.046875 72.964844 28.046875 Z M 72.964844 28.046875 " fill-opacity="1" fill-rule="evenodd"/><path fill="#38b6ff" d="M 72.964844 33.152344 C 72.265625 33.152344 71.695312 32.582031 71.695312 31.878906 C 71.695312 31.175781 72.265625 30.601562 72.964844 30.601562 C 73.667969 30.601562 74.238281 31.175781 74.238281 31.878906 C 74.238281 32.582031 73.667969 33.152344 72.964844 33.152344 Z M 72.964844 33.152344 " fill-opacity="1" fill-rule="evenodd"/><path fill="#38b6ff" d="M 72.964844 38.257812 C 72.265625 38.257812 71.695312 37.683594 71.695312 36.980469 C 71.695312 36.277344 72.265625 35.703125 72.964844 35.703125 C 73.667969 35.703125 74.238281 36.277344 74.238281 36.980469 C 74.238281 37.683594 73.667969 38.257812 72.964844 38.257812 Z M 72.964844 38.257812 " fill-opacity="1" fill-rule="evenodd"/><path fill="#38b6ff" d="M 72.964844 43.363281 C 72.265625 43.363281 71.695312 42.789062 71.695312 42.085938 C 71.695312 41.382812 72.265625 40.8125 72.964844 40.8125 C 73.667969 40.8125 74.238281 41.382812 74.238281 42.085938 C 74.238281 42.789062 73.667969 43.363281 72.964844 43.363281 Z M 72.964844 43.363281 " fill-opacity="1" fill-rule="evenodd"/><path fill="#38b6ff" d="M 72.964844 48.46875 C 72.265625 48.46875 71.695312 47.898438 71.695312 47.195312 C 71.695312 46.492188 72.265625 45.917969 72.964844 45.917969 C 73.667969 45.917969 74.238281 46.492188 74.238281 47.195312 C 74.238281 47.898438 73.667969 48.46875 72.964844 48.46875 Z M 72.964844 48.46875 " fill-opacity="1" fill-rule="evenodd"/><path fill="#38b6ff" d="M 72.964844 53.578125 C 72.265625 53.578125 71.695312 53.003906 71.695312 52.304688 C 71.695312 51.597656 72.265625 51.023438 72.964844 51.023438 C 73.667969 51.023438 74.238281 51.597656 74.238281 52.304688 C 74.238281 53.003906 73.667969 53.578125 72.964844 53.578125 Z M 72.964844 53.578125 " fill-opacity="1" fill-rule="evenodd"/><path fill="#38b6ff" d="M 72.964844 58.683594 C 72.265625 58.683594 71.695312 58.109375 71.695312 57.410156 C 71.695312 56.707031 72.265625 56.136719 72.964844 56.136719 C 73.667969 56.136719 74.238281 56.707031 74.238281 57.410156 C 74.238281 58.109375 73.667969 58.683594 72.964844 58.683594 Z M 72.964844 58.683594 " fill-opacity="1" fill-rule="evenodd"/><path fill="#38b6ff" d="M 72.964844 63.792969 C 72.265625 63.792969 71.695312 63.222656 71.695312 62.515625 C 71.695312 61.816406 72.265625 61.242188 72.964844 61.242188 C 73.667969 61.242188 74.238281 61.816406 74.238281 62.515625 C 74.238281 63.222656 73.667969 63.792969 72.964844 63.792969 Z M 72.964844 63.792969 " fill-opacity="1" fill-rule="evenodd"/><path fill="#38b6ff" d="M 72.964844 68.902344 C 72.265625 68.902344 71.695312 68.328125 71.695312 67.625 C 71.695312 66.921875 72.265625 66.347656 72.964844 66.347656 C 73.667969 66.347656 74.238281 66.921875 74.238281 67.625 C 74.238281 68.328125 73.667969 68.902344 72.964844 68.902344 Z M 72.964844 68.902344 " fill-opacity="1" fill-rule="evenodd"/><path fill="#38b6ff" d="M 66.605469 72.726562 C 66.605469 72.023438 67.175781 71.449219 67.875 71.449219 C 68.574219 71.449219 69.144531 72.023438 69.144531 72.726562 C 69.144531 73.429688 68.574219 74.003906 67.875 74.003906 C 67.175781 74.003906 66.605469 73.429688 66.605469 72.726562 Z M 66.605469 72.726562 " fill-opacity="1" fill-rule="evenodd"/><path fill="#38b6ff" d="M 61.511719 72.726562 C 61.511719 72.023438 62.082031 71.449219 62.785156 71.449219 C 63.480469 71.449219 64.054688 72.023438 64.054688 72.726562 C 64.054688 73.429688 63.480469 74.003906 62.785156 74.003906 C 62.082031 74.003906 61.511719 73.429688 61.511719 72.726562 Z M 61.511719 72.726562 " fill-opacity="1" fill-rule="evenodd"/><path fill="#38b6ff" d="M 56.421875 72.726562 C 56.421875 72.023438 56.992188 71.449219 57.691406 71.449219 C 58.390625 71.449219 58.964844 72.023438 58.964844 72.726562 C 58.964844 73.429688 58.390625 74.003906 57.691406 74.003906 C 56.992188 74.003906 56.421875 73.429688 56.421875 72.726562 Z M 56.421875 72.726562 " fill-opacity="1" fill-rule="evenodd"/><path fill="#38b6ff" d="M 51.328125 72.726562 C 51.328125 72.023438 51.902344 71.449219 52.601562 71.449219 C 53.300781 71.449219 53.871094 72.023438 53.871094 72.726562 C 53.871094 73.429688 53.300781 74.003906 52.601562 74.003906 C 51.902344 74.003906 51.328125 73.429688 51.328125 72.726562 Z M 51.328125 72.726562 " fill-opacity="1" fill-rule="evenodd"/><path fill="#38b6ff" d="M 46.238281 72.726562 C 46.238281 72.023438 46.808594 71.449219 47.511719 71.449219 C 48.210938 71.449219 48.78125 72.023438 48.78125 72.726562 C 48.78125 73.429688 48.210938 74.003906 47.511719 74.003906 C 46.808594 74.003906 46.238281 73.429688 46.238281 72.726562 Z M 46.238281 72.726562 " fill-opacity="1" fill-rule="evenodd"/><path fill="#38b6ff" d="M 18.195312 11.492188 C 18.195312 12.191406 17.621094 12.765625 16.921875 12.765625 C 16.222656 12.765625 15.648438 12.191406 15.648438 11.492188 C 15.648438 10.789062 16.222656 10.214844 16.921875 10.214844 C 17.621094 10.214844 18.195312 10.789062 18.195312 11.492188 Z M 18.195312 11.492188 " fill-opacity="1" fill-rule="evenodd"/><path fill="#38b6ff" d="M 23.285156 11.492188 C 23.285156 12.191406 22.710938 12.765625 22.011719 12.765625 C 21.3125 12.765625 20.742188 12.191406 20.742188 11.492188 C 20.742188 10.789062 21.3125 10.214844 22.011719 10.214844 C 22.710938 10.214844 23.285156 10.789062 23.285156 11.492188 Z M 23.285156 11.492188 " fill-opacity="1" fill-rule="evenodd"/><path fill="#38b6ff" d="M 28.371094 11.492188 C 28.371094 12.191406 27.796875 12.765625 27.097656 12.765625 C 26.398438 12.765625 25.824219 12.191406 25.824219 11.492188 C 25.824219 10.789062 26.398438 10.214844 27.097656 10.214844 C 27.796875 10.214844 28.371094 10.789062 28.371094 11.492188 Z M 28.371094 11.492188 " fill-opacity="1" fill-rule="evenodd"/><path fill="#38b6ff" d="M 33.460938 11.492188 C 33.460938 12.191406 32.886719 12.765625 32.1875 12.765625 C 31.488281 12.765625 30.917969 12.191406 30.917969 11.492188 C 30.917969 10.789062 31.488281 10.214844 32.1875 10.214844 C 32.886719 10.214844 33.460938 10.789062 33.460938 11.492188 Z M 33.460938 11.492188 " fill-opacity="1" fill-rule="evenodd"/><path fill="#38b6ff" d="M 38.550781 11.492188 C 38.550781 12.191406 37.980469 12.765625 37.28125 12.765625 C 36.582031 12.765625 36.007812 12.191406 36.007812 11.492188 C 36.007812 10.789062 36.582031 10.214844 37.28125 10.214844 C 37.980469 10.214844 38.550781 10.789062 38.550781 11.492188 Z M 38.550781 11.492188 " fill-opacity="1" fill-rule="evenodd"/><path fill="#38b6ff" d="M 10.609375 72.726562 C 10.609375 72.023438 11.179688 71.449219 11.878906 71.449219 C 12.578125 71.449219 13.152344 72.023438 13.152344 72.726562 C 13.152344 73.429688 12.578125 74.003906 11.878906 74.003906 C 11.179688 74.003906 10.609375 73.429688 10.609375 72.726562 Z M 10.609375 72.726562 " fill-opacity="1" fill-rule="evenodd"/><path fill="#38b6ff" d="M 36.058594 72.726562 C 36.058594 72.023438 36.628906 71.449219 37.328125 71.449219 C 38.03125 71.449219 38.601562 72.023438 38.601562 72.726562 C 38.601562 73.429688 38.03125 74.003906 37.328125 74.003906 C 36.628906 74.003906 36.058594 73.429688 36.058594 72.726562 Z M 36.058594 72.726562 " fill-opacity="1" fill-rule="evenodd"/><path fill="#38b6ff" d="M 30.96875 72.726562 C 30.96875 72.023438 31.539062 71.449219 32.238281 71.449219 C 32.9375 71.449219 33.507812 72.023438 33.507812 72.726562 C 33.507812 73.429688 32.9375 74.003906 32.238281 74.003906 C 31.539062 74.003906 30.96875 73.429688 30.96875 72.726562 Z M 30.96875 72.726562 " fill-opacity="1" fill-rule="evenodd"/><path fill="#38b6ff" d="M 25.878906 72.726562 C 25.878906 72.023438 26.449219 71.449219 27.152344 71.449219 C 27.851562 71.449219 28.421875 72.023438 28.421875 72.726562 C 28.421875 73.429688 27.851562 74.003906 27.152344 74.003906 C 26.449219 74.003906 25.878906 73.429688 25.878906 72.726562 Z M 25.878906 72.726562 " fill-opacity="1" fill-rule="evenodd"/><path fill="#38b6ff" d="M 20.789062 72.726562 C 20.789062 72.023438 21.359375 71.449219 22.0625 71.449219 C 22.761719 71.449219 23.332031 72.023438 23.332031 72.726562 C 23.332031 73.429688 22.761719 74.003906 22.0625 74.003906 C 21.359375 74.003906 20.789062 73.429688 20.789062 72.726562 Z M 20.789062 72.726562 " fill-opacity="1" fill-rule="evenodd"/><path fill="#38b6ff" d="M 15.699219 72.726562 C 15.699219 72.023438 16.269531 71.449219 16.96875 71.449219 C 17.671875 71.449219 18.242188 72.023438 18.242188 72.726562 C 18.242188 73.429688 17.671875 74.003906 16.96875 74.003906 C 16.269531 74.003906 15.699219 73.429688 15.699219 72.726562 Z M 15.699219 72.726562 " fill-opacity="1" fill-rule="evenodd"/><path fill="#38b6ff" d="M 11.828125 66.386719 C 12.53125 66.386719 13.101562 66.960938 13.101562 67.664062 C 13.101562 68.363281 12.53125 68.9375 11.828125 68.9375 C 11.132812 68.9375 10.558594 68.363281 10.558594 67.664062 C 10.558594 66.960938 11.132812 66.386719 11.828125 66.386719 Z M 11.828125 66.386719 " fill-opacity="1" fill-rule="evenodd"/><path fill="#38b6ff" d="M 11.828125 61.285156 C 12.53125 61.285156 13.101562 61.859375 13.101562 62.558594 C 13.101562 63.261719 12.53125 63.835938 11.828125 63.835938 C 11.132812 63.835938 10.558594 63.261719 10.558594 62.558594 C 10.558594 61.859375 11.132812 61.285156 11.828125 61.285156 Z M 11.828125 61.285156 " fill-opacity="1" fill-rule="evenodd"/><path fill="#38b6ff" d="M 11.828125 56.171875 C 12.53125 56.171875 13.101562 56.746094 13.101562 57.445312 C 13.101562 58.152344 12.53125 58.722656 11.828125 58.722656 C 11.132812 58.722656 10.558594 58.152344 10.558594 57.445312 C 10.558594 56.746094 11.132812 56.171875 11.828125 56.171875 Z M 11.828125 56.171875 " fill-opacity="1" fill-rule="evenodd"/><path fill="#38b6ff" d="M 11.828125 51.070312 C 12.53125 51.070312 13.101562 51.640625 13.101562 52.34375 C 13.101562 53.046875 12.53125 53.621094 11.828125 53.621094 C 11.132812 53.621094 10.558594 53.046875 10.558594 52.34375 C 10.558594 51.640625 11.132812 51.070312 11.828125 51.070312 Z M 11.828125 51.070312 " fill-opacity="1" fill-rule="evenodd"/><path fill="#38b6ff" d="M 11.828125 45.964844 C 12.53125 45.964844 13.101562 46.535156 13.101562 47.238281 C 13.101562 47.941406 12.53125 48.511719 11.828125 48.511719 C 11.132812 48.511719 10.558594 47.941406 10.558594 47.238281 C 10.558594 46.535156 11.132812 45.964844 11.828125 45.964844 Z M 11.828125 45.964844 " fill-opacity="1" fill-rule="evenodd"/><path fill="#38b6ff" d="M 11.828125 40.855469 C 12.53125 40.855469 13.101562 41.425781 13.101562 42.132812 C 13.101562 42.832031 12.53125 43.40625 11.828125 43.40625 C 11.132812 43.40625 10.558594 42.832031 10.558594 42.132812 C 10.558594 41.425781 11.132812 40.855469 11.828125 40.855469 Z M 11.828125 40.855469 " fill-opacity="1" fill-rule="evenodd"/><path fill="#38b6ff" d="M 11.828125 35.746094 C 12.53125 35.746094 13.101562 36.320312 13.101562 37.023438 C 13.101562 37.726562 12.53125 38.300781 11.828125 38.300781 C 11.132812 38.300781 10.558594 37.726562 10.558594 37.023438 C 10.558594 36.320312 11.132812 35.746094 11.828125 35.746094 Z M 11.828125 35.746094 " fill-opacity="1" fill-rule="evenodd"/><path fill="#38b6ff" d="M 11.828125 30.640625 C 12.53125 30.640625 13.101562 31.214844 13.101562 31.914062 C 13.101562 32.617188 12.53125 33.191406 11.828125 33.191406 C 11.132812 33.191406 10.558594 32.617188 10.558594 31.914062 C 10.558594 31.214844 11.132812 30.640625 11.828125 30.640625 Z M 11.828125 30.640625 " fill-opacity="1" fill-rule="evenodd"/><path fill="#38b6ff" d="M 11.828125 25.53125 C 12.53125 25.53125 13.101562 26.105469 13.101562 26.808594 C 13.101562 27.511719 12.53125 28.085938 11.828125 28.085938 C 11.132812 28.085938 10.558594 27.511719 10.558594 26.808594 C 10.558594 26.105469 11.132812 25.53125 11.828125 25.53125 Z M 11.828125 25.53125 " fill-opacity="1" fill-rule="evenodd"/><path fill="#38b6ff" d="M 11.828125 20.425781 C 12.53125 20.425781 13.101562 21 13.101562 21.699219 C 13.101562 22.402344 12.53125 22.976562 11.828125 22.976562 C 11.132812 22.976562 10.558594 22.402344 10.558594 21.699219 C 10.558594 21 11.132812 20.425781 11.828125 20.425781 Z M 11.828125 20.425781 " fill-opacity="1" fill-rule="evenodd"/><path fill="#38b6ff" d="M 11.828125 15.320312 C 12.53125 15.320312 13.101562 15.894531 13.101562 16.597656 C 13.101562 16.773438 13.070312 16.9375 13.003906 17.085938 C 12.8125 17.550781 12.359375 17.875 11.828125 17.875 C 11.304688 17.875 10.839844 17.542969 10.648438 17.078125 C 10.589844 16.929688 10.558594 16.765625 10.558594 16.59375 C 10.558594 15.890625 11.132812 15.320312 11.828125 15.320312 Z M 11.828125 15.320312 " fill-opacity="1" fill-rule="evenodd"/><path fill="#203a55" d="M 58.867188 35.492188 C 57.96875 33.320312 56.554688 31.304688 54.921875 29.671875 C 53.289062 28.035156 51.207031 26.808594 49.039062 25.90625 C 46.953125 25.035156 44.628906 24.601562 42.226562 24.601562 C 39.824219 24.601562 37.355469 24.6875 35.269531 25.558594 C 33.105469 26.460938 31.296875 28.167969 29.664062 29.808594 C 28.03125 31.445312 26.132812 33.179688 25.238281 35.351562 C 24.371094 37.449219 24.65625 40.003906 24.65625 42.414062 C 24.65625 44.824219 24.835938 47.183594 25.699219 49.28125 C 26.597656 51.453125 28.421875 52.988281 30.054688 54.625 C 31.6875 56.261719 33.164062 58.21875 35.332031 59.121094 C 37.421875 59.992188 39.828125 60.582031 42.230469 60.582031 C 44.632812 60.582031 46.988281 59.867188 49.078125 59 C 51.246094 58.097656 53.199219 56.691406 54.832031 55.054688 C 56.464844 53.414062 57.777344 51.417969 58.675781 49.242188 C 59.546875 47.144531 60.535156 44.816406 60.535156 42.414062 C 60.535156 40.003906 59.738281 37.589844 58.871094 35.5 Z M 47.257812 52.679688 L 43.449219 52.113281 L 44.539062 44.726562 L 36.570312 50.878906 L 34.226562 47.8125 L 41.214844 42.414062 L 34.226562 37.011719 L 36.570312 33.941406 L 44.539062 40.097656 L 43.449219 32.710938 L 47.257812 32.140625 L 48.765625 42.414062 Z M 47.257812 52.679688 " fill-opacity="1" fill-rule="nonzero"/><g clip-path="url(#09fc14c315)"><path fill="#ffffff" d="M 67.074219 42.511719 C 67.074219 43.304688 67.035156 44.101562 66.957031 44.894531 C 66.878906 45.6875 66.765625 46.476562 66.609375 47.257812 C 66.453125 48.042969 66.261719 48.8125 66.027344 49.574219 C 65.800781 50.339844 65.53125 51.085938 65.226562 51.824219 C 64.921875 52.5625 64.585938 53.28125 64.210938 53.984375 C 63.835938 54.6875 63.429688 55.367188 62.988281 56.03125 C 62.546875 56.695312 62.074219 57.335938 61.566406 57.953125 C 61.0625 58.566406 60.53125 59.15625 59.96875 59.722656 C 59.40625 60.285156 58.820312 60.820312 58.207031 61.324219 C 57.589844 61.828125 56.953125 62.304688 56.292969 62.746094 C 55.632812 63.191406 54.949219 63.597656 54.253906 63.976562 C 53.550781 64.351562 52.832031 64.691406 52.097656 64.996094 C 51.367188 65.300781 50.617188 65.570312 49.859375 65.800781 C 49.097656 66.03125 48.328125 66.226562 47.546875 66.378906 C 46.769531 66.535156 45.984375 66.652344 45.191406 66.734375 C 44.402344 66.808594 43.609375 66.847656 42.816406 66.847656 C 42.019531 66.847656 41.226562 66.808594 40.4375 66.734375 C 39.644531 66.652344 38.863281 66.535156 38.082031 66.378906 C 37.300781 66.226562 36.53125 66.03125 35.773438 65.800781 C 35.011719 65.570312 34.261719 65.300781 33.53125 64.996094 C 32.796875 64.691406 32.078125 64.351562 31.378906 63.976562 C 30.679688 63.597656 29.996094 63.191406 29.335938 62.746094 C 28.675781 62.304688 28.039062 61.828125 27.425781 61.324219 C 26.808594 60.820312 26.222656 60.285156 25.660156 59.722656 C 25.097656 59.15625 24.566406 58.566406 24.0625 57.953125 C 23.554688 57.335938 23.082031 56.695312 22.640625 56.03125 C 22.199219 55.367188 21.792969 54.6875 21.417969 53.984375 C 21.042969 53.28125 20.707031 52.5625 20.402344 51.824219 C 20.097656 51.085938 19.828125 50.339844 19.601562 49.574219 C 19.367188 48.8125 19.175781 48.042969 19.019531 47.257812 C 18.863281 46.476562 18.75 45.6875 18.671875 44.894531 C 18.59375 44.101562 18.554688 43.304688 18.554688 42.511719 C 18.554688 41.714844 18.59375 40.917969 18.671875 40.125 C 18.75 39.332031 18.863281 38.542969 19.019531 37.761719 C 19.175781 36.980469 19.367188 36.210938 19.601562 35.445312 C 19.828125 34.683594 20.097656 33.933594 20.402344 33.199219 C 20.707031 32.460938 21.042969 31.742188 21.417969 31.035156 C 21.792969 30.332031 22.199219 29.652344 22.640625 28.988281 C 23.082031 28.324219 23.554688 27.6875 24.0625 27.070312 C 24.566406 26.457031 25.097656 25.863281 25.660156 25.300781 C 26.222656 24.738281 26.808594 24.199219 27.425781 23.695312 C 28.039062 23.191406 28.675781 22.714844 29.335938 22.273438 C 29.996094 21.832031 30.679688 21.421875 31.378906 21.042969 C 32.078125 20.667969 32.796875 20.328125 33.53125 20.023438 C 34.261719 19.71875 35.011719 19.453125 35.773438 19.21875 C 36.53125 18.988281 37.300781 18.796875 38.082031 18.640625 C 38.863281 18.484375 39.644531 18.367188 40.4375 18.289062 C 41.226562 18.210938 42.019531 18.171875 42.816406 18.171875 C 43.609375 18.171875 44.402344 18.210938 45.191406 18.289062 C 45.984375 18.367188 46.769531 18.484375 47.546875 18.640625 C 48.328125 18.796875 49.097656 18.988281 49.859375 19.21875 C 50.617188 19.453125 51.367188 19.71875 52.097656 20.023438 C 52.832031 20.328125 53.550781 20.667969 54.253906 21.042969 C 54.949219 21.421875 55.632812 21.832031 56.292969 22.273438 C 56.953125 22.714844 57.589844 23.191406 58.207031 23.695312 C 58.820312 24.199219 59.40625 24.738281 59.96875 25.300781 C 60.53125 25.863281 61.0625 26.457031 61.566406 27.070312 C 62.074219 27.6875 62.546875 28.324219 62.988281 28.988281 C 63.429688 29.652344 63.835938 30.332031 64.210938 31.035156 C 64.585938 31.742188 64.921875 32.460938 65.226562 33.199219 C 65.53125 33.933594 65.800781 34.683594 66.027344 35.445312 C 66.261719 36.210938 66.453125 36.980469 66.609375 37.761719 C 66.765625 38.542969 66.878906 39.332031 66.957031 40.125 C 67.035156 40.917969 67.074219 41.714844 67.074219 42.511719 Z M 67.074219 42.511719 " fill-opacity="1" fill-rule="nonzero"/></g><g clip-path="url(#623639b094)"><path fill="#203a55" d="M 40.597656 65.074219 C 40.457031 65.054688 39.777344 64.957031 39.09375 64.855469 C 34.34375 64.175781 29.605469 61.777344 26.285156 58.386719 C 22.679688 54.695312 20.5 50.226562 19.851562 45.183594 C 19.644531 43.582031 19.710938 40.304688 19.980469 38.800781 C 20.8125 34.144531 23.003906 29.890625 26.292969 26.550781 C 30.226562 22.558594 35.496094 20.132812 41.109375 19.726562 C 42.570312 19.621094 43.671875 19.667969 45.402344 19.910156 C 51.800781 20.8125 57.78125 24.617188 61.335938 30.058594 C 63.816406 33.84375 65.015625 37.890625 65.015625 42.460938 C 65.015625 49.9375 61.414062 56.90625 55.433594 61.007812 C 52.457031 63.046875 49.148438 64.355469 45.566406 64.914062 C 44.699219 65.046875 41.191406 65.164062 40.597656 65.074219 Z M 37.476562 60.394531 C 38.0625 60.230469 38.347656 59.992188 38.855469 59.242188 C 38.960938 59.085938 38.996094 59.085938 39.910156 59.265625 C 41.101562 59.503906 42.925781 59.585938 44.015625 59.449219 C 44.8125 59.351562 46.378906 59.054688 46.636719 58.953125 C 46.726562 58.921875 46.820312 59.011719 46.9375 59.238281 C 47.328125 60.003906 47.996094 60.40625 48.871094 60.402344 C 50.296875 60.398438 51.15625 59.269531 50.898438 57.738281 L 50.839844 57.386719 L 51.523438 56.933594 C 52.207031 56.480469 52.207031 56.480469 52.367188 56.65625 C 52.804688 57.152344 53.886719 57.394531 54.492188 57.140625 C 55.351562 56.777344 55.855469 56.039062 55.855469 55.140625 C 55.855469 54.859375 55.796875 54.484375 55.726562 54.316406 L 55.597656 54.007812 L 56.144531 53.203125 C 56.902344 52.09375 57.496094 51.015625 58.132812 49.601562 C 58.671875 48.410156 58.683594 48.394531 59.03125 48.289062 C 60.230469 47.929688 60.855469 46.792969 60.507812 45.613281 C 60.382812 45.183594 59.90625 44.617188 59.488281 44.402344 L 59.171875 44.238281 L 59.25 43.554688 C 59.355469 42.601562 59.261719 40.714844 59.046875 39.417969 C 58.902344 38.578125 58.886719 38.320312 58.96875 38.289062 C 59.226562 38.207031 59.785156 37.585938 59.972656 37.183594 C 60.328125 36.414062 60.191406 35.640625 59.578125 34.933594 C 59.191406 34.484375 58.675781 34.257812 58.050781 34.25 L 57.539062 34.246094 L 57.023438 33.371094 C 56.738281 32.886719 56.265625 32.183594 55.96875 31.808594 L 55.433594 31.121094 L 55.617188 30.746094 C 55.871094 30.234375 55.871094 29.363281 55.617188 28.875 C 55.210938 28.085938 54.617188 27.742188 53.644531 27.742188 C 53.027344 27.738281 52.90625 27.765625 52.589844 27.980469 C 52.390625 28.109375 52.195312 28.222656 52.15625 28.222656 C 52.117188 28.222656 51.699219 27.960938 51.222656 27.644531 C 50.75 27.328125 49.890625 26.835938 49.304688 26.546875 C 48.359375 26.078125 48.246094 26 48.246094 25.796875 C 48.246094 24.734375 47.214844 23.761719 46.089844 23.761719 C 45.257812 23.761719 44.550781 24.199219 44.195312 24.9375 L 44.035156 25.28125 L 42.488281 25.300781 C 41.140625 25.3125 39.789062 25.453125 39.125 25.644531 C 38.980469 25.6875 38.894531 25.609375 38.679688 25.261719 C 38.347656 24.71875 37.800781 24.378906 37.15625 24.308594 C 36.519531 24.242188 36.160156 24.324219 35.699219 24.632812 C 34.976562 25.117188 34.660156 26.054688 34.871094 27.082031 L 34.933594 27.390625 L 34.191406 27.867188 C 33.785156 28.132812 33.402344 28.386719 33.339844 28.429688 C 33.269531 28.480469 33.132812 28.433594 32.9375 28.28125 C 31.96875 27.535156 30.804688 27.519531 30.023438 28.246094 C 29.480469 28.75 29.261719 29.796875 29.535156 30.578125 C 29.679688 30.996094 29.695312 30.953125 29.125 31.691406 C 28.480469 32.523438 27.410156 34.3125 26.9375 35.339844 C 26.519531 36.25 26.511719 36.257812 26.167969 36.316406 C 24.449219 36.605469 23.785156 38.757812 25.046875 39.9375 C 25.257812 40.132812 25.527344 40.335938 25.640625 40.390625 C 25.824219 40.472656 25.84375 40.527344 25.792969 40.761719 C 25.714844 41.121094 25.714844 43.753906 25.792969 44.117188 C 25.855469 44.386719 25.84375 44.40625 25.425781 44.621094 C 24.4375 45.128906 24.046875 46.421875 24.570312 47.460938 C 24.863281 48.042969 25.617188 48.597656 26.117188 48.597656 C 26.25 48.597656 26.414062 48.847656 26.851562 49.714844 C 27.535156 51.074219 28.183594 52.128906 29.027344 53.253906 L 29.664062 54.105469 L 29.539062 54.652344 C 29.347656 55.476562 29.539062 56.152344 30.113281 56.699219 C 30.667969 57.230469 31.328125 57.414062 32.097656 57.246094 C 32.4375 57.171875 32.648438 57.050781 32.960938 56.757812 L 33.375 56.367188 L 34.132812 56.914062 C 34.550781 57.21875 34.90625 57.476562 34.921875 57.484375 C 34.9375 57.492188 34.90625 57.667969 34.851562 57.871094 C 34.707031 58.40625 34.816406 59.023438 35.140625 59.503906 C 35.699219 60.335938 36.542969 60.660156 37.476562 60.394531 Z M 40.640625 58.476562 C 39.707031 58.339844 39.164062 58.195312 39.09375 58.050781 C 39.054688 57.976562 38.996094 57.789062 38.964844 57.636719 C 38.898438 57.332031 39.050781 57.121094 40.761719 55.183594 L 41.617188 54.214844 L 42.042969 54.441406 C 42.609375 54.738281 43.324219 54.746094 43.925781 54.457031 L 44.359375 54.253906 L 44.554688 54.425781 C 44.949219 54.78125 46.828125 56.5 47.015625 56.679688 L 47.210938 56.863281 L 46.632812 57.996094 L 45.84375 58.191406 C 45.40625 58.296875 44.710938 58.421875 44.292969 58.472656 C 43.441406 58.578125 41.359375 58.582031 40.640625 58.476562 Z M 34.738281 56.226562 L 34.066406 55.726562 L 34.066406 44.707031 C 34.066406 38.644531 34.066406 32.640625 34.070312 31.363281 L 34.074219 29.042969 L 34.769531 28.585938 C 35.152344 28.335938 35.503906 28.132812 35.546875 28.132812 C 35.589844 28.132812 35.75 28.210938 35.90625 28.304688 C 36.0625 28.402344 36.253906 28.480469 36.332031 28.480469 C 36.449219 28.480469 36.492188 28.65625 36.574219 29.511719 C 36.625 30.074219 36.707031 30.816406 36.753906 31.15625 C 36.796875 31.496094 36.859375 32.144531 36.890625 32.597656 L 36.949219 33.425781 L 36.628906 33.539062 C 34.898438 34.175781 34.882812 36.734375 36.609375 37.453125 L 37.011719 37.621094 L 37.011719 47.011719 L 36.714844 47.109375 C 35.542969 47.503906 34.929688 48.941406 35.464844 50.058594 C 35.671875 50.496094 36.222656 51 36.632812 51.140625 C 36.984375 51.253906 36.980469 51.082031 36.75 53.710938 C 36.539062 56.148438 36.515625 56.292969 36.375 56.292969 C 36.3125 56.292969 36.078125 56.394531 35.855469 56.511719 C 35.628906 56.632812 35.441406 56.730469 35.429688 56.730469 C 35.421875 56.730469 35.109375 56.503906 34.738281 56.226562 Z M 37.816406 56.441406 C 37.617188 56.335938 37.449219 56.191406 37.449219 56.117188 C 37.445312 55.921875 37.871094 51.285156 37.898438 51.265625 C 37.910156 51.257812 38.054688 51.199219 38.214844 51.128906 C 38.378906 51.066406 38.644531 50.898438 38.800781 50.757812 L 39.082031 50.507812 L 39.367188 50.707031 C 39.519531 50.816406 39.929688 51.121094 40.277344 51.382812 L 40.90625 51.855469 L 40.855469 52.261719 C 40.824219 52.511719 40.855469 52.824219 40.933594 53.082031 L 41.058594 53.496094 L 40.527344 54.089844 C 40.234375 54.414062 39.613281 55.117188 39.144531 55.660156 C 38.675781 56.199219 38.265625 56.640625 38.234375 56.636719 C 38.207031 56.632812 38.015625 56.542969 37.816406 56.4375 Z M 49.726562 56.371094 C 49.226562 56.105469 48.882812 56.066406 48.265625 56.210938 L 47.894531 56.296875 L 47.230469 55.652344 C 46.863281 55.296875 46.183594 54.660156 45.71875 54.242188 C 45.03125 53.617188 44.894531 53.449219 44.960938 53.328125 C 45.003906 53.246094 45.066406 52.980469 45.097656 52.742188 C 45.335938 50.925781 43.289062 49.703125 41.757812 50.746094 L 41.316406 51.046875 L 40.828125 50.667969 C 40.558594 50.460938 40.15625 50.164062 39.929688 50.007812 L 39.519531 49.726562 L 39.519531 49.140625 C 39.519531 48.648438 39.476562 48.480469 39.253906 48.089844 C 39.003906 47.648438 38.359375 47.109375 38.074219 47.109375 C 37.957031 47.109375 37.957031 47.078125 37.9375 40.601562 L 37.933594 37.632812 L 38.207031 37.539062 C 38.636719 37.394531 39.023438 37.03125 39.296875 36.523438 C 39.5 36.144531 39.550781 35.949219 39.546875 35.523438 L 39.539062 34.996094 L 40.070312 34.632812 C 40.359375 34.433594 40.855469 34.085938 41.171875 33.863281 L 41.746094 33.449219 L 42.078125 33.675781 C 42.785156 34.144531 43.742188 34.144531 44.4375 33.683594 C 44.949219 33.339844 45.394531 32.609375 45.394531 32.121094 C 45.394531 31.941406 45.523438 31.890625 46.886719 31.503906 C 47.707031 31.273438 49.054688 30.890625 49.878906 30.652344 C 50.707031 30.417969 51.398438 30.238281 51.417969 30.257812 C 51.449219 30.292969 49.855469 31.8125 47.253906 34.210938 C 46.734375 34.691406 45.824219 35.542969 45.226562 36.097656 C 44.632812 36.65625 43.363281 37.832031 42.414062 38.71875 C 39.691406 41.25 38.09375 42.765625 38.0625 42.839844 C 38.03125 42.929688 38.023438 42.921875 39.34375 44.09375 C 39.941406 44.617188 40.855469 45.445312 41.378906 45.933594 C 42.296875 46.785156 43.601562 47.96875 49.046875 52.867188 C 52.105469 55.617188 52.011719 55.457031 50.972656 56.1875 C 50.617188 56.4375 50.296875 56.636719 50.257812 56.632812 C 50.222656 56.625 49.980469 56.507812 49.726562 56.371094 Z M 29.804688 52.769531 C 29.089844 51.792969 28.445312 50.761719 27.800781 49.566406 C 27.246094 48.542969 27.222656 48.472656 27.382812 48.386719 C 27.597656 48.261719 28.296875 47.554688 28.417969 47.335938 C 28.507812 47.171875 28.53125 47.171875 29.695312 47.378906 L 30.875 47.585938 L 30.875 53.140625 L 30.621094 53.273438 C 30.480469 53.347656 30.34375 53.40625 30.320312 53.40625 C 30.292969 53.40625 30.0625 53.121094 29.804688 52.769531 Z M 54.46875 53.167969 C 54.257812 53.09375 54.035156 53.011719 53.984375 52.980469 C 53.902344 52.9375 49.4375 48.925781 48.117188 47.714844 C 47.929688 47.539062 46.683594 46.421875 45.351562 45.230469 C 44.023438 44.042969 42.882812 43.019531 42.824219 42.964844 C 42.710938 42.855469 43.964844 41.625 47.992188 37.882812 C 48.820312 37.113281 49.832031 36.167969 50.238281 35.785156 C 52.238281 33.863281 54.355469 31.929688 54.621094 31.773438 C 54.6875 31.734375 54.816406 31.804688 54.949219 31.953125 C 55.226562 32.261719 56.71875 34.511719 56.71875 34.621094 C 56.71875 34.664062 56.621094 34.796875 56.5 34.917969 C 55.886719 35.542969 55.71875 36.546875 56.101562 37.332031 L 56.300781 37.75 L 54.058594 41.820312 L 53.5 41.789062 C 52.554688 41.742188 51.730469 42.234375 51.390625 43.058594 C 51.324219 43.226562 51.207031 43.347656 51.125 43.347656 C 51.046875 43.347656 49.910156 43.175781 48.597656 42.960938 C 45.632812 42.476562 45.09375 42.414062 44.921875 42.5625 C 44.742188 42.714844 44.753906 43.152344 44.941406 43.25 C 45.078125 43.328125 48.503906 43.902344 50.195312 44.136719 C 51.234375 44.277344 51.214844 44.273438 51.382812 44.6875 C 51.550781 45.109375 52.035156 45.648438 52.433594 45.871094 C 52.613281 45.964844 52.90625 46.015625 53.347656 46.015625 C 54.082031 46.015625 54.402344 45.882812 54.925781 45.378906 L 55.25 45.0625 L 55.8125 45.367188 L 56.375 45.667969 L 56.324219 46.023438 C 56.214844 46.765625 56.644531 47.660156 57.300781 48.046875 C 57.769531 48.324219 57.773438 48.304688 57.019531 49.863281 C 56.335938 51.277344 55.074219 53.339844 54.902344 53.308594 C 54.878906 53.300781 54.683594 53.238281 54.46875 53.167969 Z M 29.707031 46.453125 C 29.1875 46.339844 28.730469 46.246094 28.695312 46.246094 C 28.65625 46.238281 28.628906 46.195312 28.628906 46.144531 C 28.628906 46.054688 30.660156 45.011719 30.832031 45.011719 C 30.886719 45.011719 30.90625 45.328125 30.890625 45.839844 C 30.875 46.414062 30.832031 46.671875 30.761719 46.660156 C 30.707031 46.65625 30.230469 46.5625 29.707031 46.453125 Z M 27.894531 44.925781 C 27.757812 44.78125 27.449219 44.589844 27.210938 44.5 C 26.871094 44.367188 26.761719 44.28125 26.707031 44.082031 C 26.617188 43.761719 26.59375 41.40625 26.675781 40.929688 C 26.734375 40.605469 26.769531 40.5625 27.027344 40.511719 C 27.1875 40.484375 27.460938 40.359375 27.640625 40.234375 L 27.964844 40.011719 L 28.359375 40.242188 C 28.578125 40.367188 29.234375 40.714844 29.816406 41.011719 L 30.878906 41.554688 L 30.855469 42.761719 L 30.832031 43.964844 L 29.546875 44.574219 C 28.839844 44.914062 28.234375 45.1875 28.203125 45.1875 C 28.167969 45.1875 28.03125 45.070312 27.894531 44.925781 Z M 56.089844 44.5 C 55.511719 44.183594 55.507812 44.179688 55.507812 43.804688 C 55.507812 43.417969 55.269531 42.832031 54.972656 42.507812 L 54.804688 42.320312 L 55.691406 40.714844 C 56.183594 39.832031 56.679688 38.921875 56.800781 38.695312 C 56.957031 38.398438 57.058594 38.292969 57.148438 38.332031 C 57.222656 38.359375 57.425781 38.414062 57.609375 38.453125 C 57.789062 38.488281 57.949219 38.53125 57.964844 38.550781 C 57.980469 38.570312 58.0625 38.957031 58.144531 39.414062 C 58.308594 40.375 58.410156 42.703125 58.324219 43.542969 L 58.261719 44.117188 L 57.933594 44.167969 C 57.753906 44.199219 57.40625 44.363281 57.164062 44.53125 C 56.921875 44.699219 56.710938 44.832031 56.699219 44.824219 C 56.6875 44.820312 56.414062 44.671875 56.089844 44.5 Z M 29.664062 39.894531 C 29.023438 39.554688 28.507812 39.242188 28.519531 39.195312 C 28.527344 39.148438 28.5625 38.941406 28.59375 38.734375 C 28.636719 38.453125 28.691406 38.351562 28.832031 38.320312 C 28.933594 38.296875 29.421875 38.179688 29.917969 38.058594 C 30.414062 37.941406 30.832031 37.855469 30.851562 37.871094 C 30.867188 37.890625 30.871094 38.488281 30.855469 39.203125 L 30.832031 40.507812 Z M 28.101562 37.046875 C 27.894531 36.824219 27.652344 36.601562 27.570312 36.558594 C 27.425781 36.480469 27.433594 36.4375 27.671875 35.898438 C 28.070312 35.011719 28.835938 33.703125 29.597656 32.617188 C 29.972656 32.074219 30.300781 31.628906 30.324219 31.628906 C 30.347656 31.628906 30.480469 31.691406 30.621094 31.765625 L 30.875 31.898438 L 30.875 36.875 L 30.679688 36.917969 C 30.574219 36.945312 30.035156 37.074219 29.488281 37.207031 L 28.484375 37.453125 Z M 38.957031 33.992188 C 38.871094 33.894531 38.59375 33.714844 38.339844 33.589844 C 37.804688 33.324219 37.875 33.59375 37.617188 30.84375 C 37.515625 29.761719 37.421875 28.804688 37.40625 28.71875 C 37.382812 28.605469 37.492188 28.503906 37.792969 28.347656 L 38.210938 28.136719 L 39.8125 29.445312 L 41.410156 30.757812 L 41.285156 31.066406 C 41.140625 31.40625 41.105469 31.96875 41.199219 32.390625 C 41.253906 32.652344 41.226562 32.679688 40.496094 33.210938 C 40.078125 33.515625 39.625 33.851562 39.488281 33.964844 C 39.191406 34.210938 39.15625 34.214844 38.957031 33.992188 Z M 44.972656 30.515625 L 44.59375 30.023438 L 45.101562 29.042969 L 45.609375 28.066406 L 46.226562 28.023438 C 47.074219 27.972656 47.621094 27.640625 48.03125 26.933594 C 48.039062 26.921875 48.496094 27.144531 49.050781 27.433594 C 50.183594 28.011719 51.488281 28.851562 51.5625 29.042969 C 51.625 29.207031 51.359375 29.289062 46.433594 30.671875 C 45.886719 30.828125 45.417969 30.964844 45.390625 30.980469 C 45.367188 30.996094 45.175781 30.785156 44.972656 30.515625 Z M 41.441406 29.625 C 40.945312 29.226562 39.167969 27.757812 38.882812 27.511719 C 38.738281 27.390625 39.027344 26.632812 39.242188 26.550781 C 39.636719 26.394531 41.570312 26.207031 42.738281 26.207031 L 43.933594 26.207031 L 44.09375 26.589844 C 44.183594 26.796875 44.382812 27.117188 44.539062 27.296875 L 44.816406 27.617188 L 44.292969 28.640625 L 43.761719 29.664062 L 43.230469 29.722656 C 42.9375 29.757812 42.550781 29.859375 42.375 29.945312 L 42.050781 30.109375 Z M 41.441406 29.625 " fill-opacity="1" fill-rule="nonzero"/></g><g fill="#38b6ff" fill-opacity="1"><g transform="translate(88.019805, 56.424333)"><g><path d="M 18.671875 -19.75 C 18.953125 -19.75 19.109375 -19.644531 19.140625 -19.4375 C 19.171875 -19.226562 19.113281 -19.050781 18.96875 -18.90625 L 12.21875 -11.59375 L 18.671875 -0.953125 C 18.785156 -0.753906 18.804688 -0.546875 18.734375 -0.328125 C 18.671875 -0.109375 18.5 0 18.21875 0 L 14.5625 0 C 14.195312 0 13.90625 -0.078125 13.6875 -0.234375 C 13.46875 -0.398438 13.257812 -0.640625 13.0625 -0.953125 C 13.0625 -0.953125 12.914062 -1.195312 12.625 -1.6875 C 12.332031 -2.1875 11.957031 -2.8125 11.5 -3.5625 C 11.050781 -4.3125 10.582031 -5.09375 10.09375 -5.90625 C 9.601562 -6.726562 9.160156 -7.484375 8.765625 -8.171875 L 6.90625 -6.21875 L 6.90625 -0.875 C 6.90625 -0.53125 6.828125 -0.296875 6.671875 -0.171875 C 6.523438 -0.0546875 6.320312 0 6.0625 0 L 3.09375 0 C 2.8125 0 2.59375 -0.0546875 2.4375 -0.171875 C 2.289062 -0.296875 2.21875 -0.53125 2.21875 -0.875 L 2.21875 -18.875 C 2.21875 -19.21875 2.289062 -19.445312 2.4375 -19.5625 C 2.59375 -19.6875 2.8125 -19.75 3.09375 -19.75 L 6.0625 -19.75 C 6.320312 -19.75 6.523438 -19.6875 6.671875 -19.5625 C 6.828125 -19.445312 6.90625 -19.21875 6.90625 -18.875 L 6.90625 -12.1875 L 13.109375 -19.03125 C 13.410156 -19.375 13.648438 -19.578125 13.828125 -19.640625 C 14.015625 -19.710938 14.28125 -19.75 14.625 -19.75 Z M 18.671875 -19.75 "/></g></g></g><g fill="#38b6ff" fill-opacity="1"><g transform="translate(107.196906, 56.424333)"><g><path d="M 19.203125 -0.84375 C 19.285156 -0.65625 19.304688 -0.46875 19.265625 -0.28125 C 19.222656 -0.09375 19.035156 0 18.703125 0 L 15.546875 0 C 15.222656 0 14.984375 -0.0546875 14.828125 -0.171875 C 14.671875 -0.296875 14.53125 -0.539062 14.40625 -0.90625 L 13.5625 -3.265625 L 6.21875 -3.265625 L 5.375 -0.90625 C 5.25 -0.539062 5.113281 -0.296875 4.96875 -0.171875 C 4.820312 -0.0546875 4.578125 0 4.234375 0 L 1.078125 0 C 0.753906 0 0.566406 -0.09375 0.515625 -0.28125 C 0.472656 -0.46875 0.488281 -0.65625 0.5625 -0.84375 L 7.234375 -18.8125 C 7.347656 -19.132812 7.5 -19.367188 7.6875 -19.515625 C 7.882812 -19.671875 8.144531 -19.75 8.46875 -19.75 L 11.34375 -19.75 C 11.6875 -19.75 11.941406 -19.671875 12.109375 -19.515625 C 12.273438 -19.367188 12.429688 -19.132812 12.578125 -18.8125 Z M 9.90625 -14.109375 L 7.65625 -7.46875 L 12.15625 -7.46875 Z M 9.90625 -14.109375 "/></g></g></g><g fill="#38b6ff" fill-opacity="1"><g transform="translate(126.404022, 56.424333)"><g><path d="M 18.40625 -0.953125 C 18.539062 -0.753906 18.566406 -0.546875 18.484375 -0.328125 C 18.410156 -0.109375 18.234375 0 17.953125 0 L 14.40625 0 C 14.050781 0 13.765625 -0.0664062 13.546875 -0.203125 C 13.335938 -0.347656 13.125 -0.582031 12.90625 -0.90625 L 9.671875 -5.734375 C 9.523438 -5.910156 9.429688 -6.101562 9.390625 -6.3125 C 9.347656 -6.53125 9.328125 -6.847656 9.328125 -7.265625 L 9.328125 -9.671875 C 9.328125 -9.941406 9.382812 -10.148438 9.5 -10.296875 C 9.625 -10.453125 9.859375 -10.53125 10.203125 -10.53125 L 10.8125 -10.53125 C 11.550781 -10.53125 12.207031 -10.757812 12.78125 -11.21875 C 13.363281 -11.6875 13.65625 -12.269531 13.65625 -12.96875 C 13.65625 -13.75 13.390625 -14.367188 12.859375 -14.828125 C 12.328125 -15.285156 11.671875 -15.515625 10.890625 -15.515625 L 6.90625 -15.515625 L 6.90625 -0.875 C 6.90625 -0.53125 6.828125 -0.296875 6.671875 -0.171875 C 6.523438 -0.0546875 6.3125 0 6.03125 0 L 3.0625 0 C 2.800781 0 2.59375 -0.0546875 2.4375 -0.171875 C 2.289062 -0.296875 2.21875 -0.53125 2.21875 -0.875 L 2.21875 -18.84375 C 2.21875 -19.125 2.269531 -19.335938 2.375 -19.484375 C 2.488281 -19.640625 2.71875 -19.71875 3.0625 -19.71875 L 10.625 -19.71875 C 11.726562 -19.71875 12.640625 -19.644531 13.359375 -19.5 C 14.078125 -19.363281 14.691406 -19.148438 15.203125 -18.859375 C 15.710938 -18.566406 16.175781 -18.210938 16.59375 -17.796875 C 17.15625 -17.253906 17.585938 -16.570312 17.890625 -15.75 C 18.191406 -14.9375 18.34375 -14.050781 18.34375 -13.09375 C 18.34375 -12.050781 18.117188 -11.117188 17.671875 -10.296875 C 17.234375 -9.472656 16.691406 -8.789062 16.046875 -8.25 C 15.410156 -7.707031 14.785156 -7.328125 14.171875 -7.109375 Z M 18.40625 -0.953125 "/></g></g></g><g fill="#38b6ff" fill-opacity="1"><g transform="translate(145.941267, 56.424333)"><g><path d="M 15.578125 -4.203125 C 15.921875 -4.203125 16.148438 -4.125 16.265625 -3.96875 C 16.390625 -3.820312 16.453125 -3.609375 16.453125 -3.328125 L 16.453125 -0.875 C 16.453125 -0.613281 16.390625 -0.398438 16.265625 -0.234375 C 16.148438 -0.078125 15.921875 0 15.578125 0 L 3.09375 0 C 2.75 0 2.515625 -0.078125 2.390625 -0.234375 C 2.273438 -0.398438 2.21875 -0.613281 2.21875 -0.875 L 2.21875 -18.875 C 2.21875 -19.21875 2.296875 -19.445312 2.453125 -19.5625 C 2.617188 -19.6875 2.832031 -19.75 3.09375 -19.75 L 6.0625 -19.75 C 6.34375 -19.75 6.554688 -19.6875 6.703125 -19.5625 C 6.859375 -19.445312 6.9375 -19.21875 6.9375 -18.875 L 6.9375 -4.203125 Z M 15.578125 -4.203125 "/></g></g></g><g fill="#38b6ff" fill-opacity="1"><g transform="translate(162.957536, 56.424333)"><g><path d="M 11.53125 -11.46875 C 12.070312 -11.300781 12.648438 -11.101562 13.265625 -10.875 C 13.890625 -10.644531 14.46875 -10.332031 15 -9.9375 C 15.539062 -9.550781 15.988281 -9.03125 16.34375 -8.375 C 16.695312 -7.71875 16.875 -6.878906 16.875 -5.859375 C 16.875 -4.429688 16.523438 -3.253906 15.828125 -2.328125 C 15.140625 -1.398438 14.195312 -0.703125 13 -0.234375 C 11.800781 0.222656 10.429688 0.453125 8.890625 0.453125 C 7.941406 0.453125 6.992188 0.316406 6.046875 0.046875 C 5.097656 -0.222656 4.226562 -0.625 3.4375 -1.15625 C 2.644531 -1.6875 2.007812 -2.351562 1.53125 -3.15625 C 1.050781 -3.957031 0.8125 -4.875 0.8125 -5.90625 C 0.8125 -6.25 0.867188 -6.472656 0.984375 -6.578125 C 1.109375 -6.691406 1.34375 -6.75 1.6875 -6.75 L 4.59375 -6.75 C 4.9375 -6.75 5.195312 -6.703125 5.375 -6.609375 C 5.550781 -6.523438 5.648438 -6.289062 5.671875 -5.90625 C 5.691406 -5.707031 5.738281 -5.507812 5.8125 -5.3125 C 5.894531 -5.113281 6.039062 -4.90625 6.25 -4.6875 C 6.539062 -4.320312 6.960938 -4.0625 7.515625 -3.90625 C 8.066406 -3.757812 8.625 -3.6875 9.1875 -3.6875 C 10.007812 -3.6875 10.703125 -3.816406 11.265625 -4.078125 C 11.835938 -4.335938 12.125 -4.890625 12.125 -5.734375 C 12.125 -6.296875 11.863281 -6.707031 11.34375 -6.96875 C 10.820312 -7.226562 10.164062 -7.441406 9.375 -7.609375 C 8.582031 -7.773438 7.757812 -7.988281 6.90625 -8.25 C 5.90625 -8.570312 4.957031 -8.953125 4.0625 -9.390625 C 3.175781 -9.835938 2.457031 -10.441406 1.90625 -11.203125 C 1.351562 -11.960938 1.078125 -12.972656 1.078125 -14.234375 C 1.078125 -15.523438 1.421875 -16.609375 2.109375 -17.484375 C 2.804688 -18.359375 3.710938 -19.019531 4.828125 -19.46875 C 5.953125 -19.914062 7.132812 -20.160156 8.375 -20.203125 C 9.332031 -20.203125 10.28125 -20.09375 11.21875 -19.875 C 12.164062 -19.65625 13.023438 -19.304688 13.796875 -18.828125 C 14.566406 -18.359375 15.1875 -17.769531 15.65625 -17.0625 C 16.125 -16.351562 16.359375 -15.5 16.359375 -14.5 C 16.359375 -14.132812 16.296875 -13.898438 16.171875 -13.796875 C 16.054688 -13.703125 15.828125 -13.65625 15.484375 -13.65625 L 12.546875 -13.65625 C 12.265625 -13.65625 12.078125 -13.738281 11.984375 -13.90625 C 11.898438 -14.082031 11.816406 -14.269531 11.734375 -14.46875 C 11.671875 -14.625 11.59375 -14.765625 11.5 -14.890625 C 11.414062 -15.023438 11.285156 -15.1875 11.109375 -15.375 C 10.828125 -15.644531 10.445312 -15.84375 9.96875 -15.96875 C 9.488281 -16.101562 9.015625 -16.171875 8.546875 -16.171875 C 8.234375 -16.171875 7.863281 -16.117188 7.4375 -16.015625 C 7.019531 -15.921875 6.660156 -15.75 6.359375 -15.5 C 6.054688 -15.25 5.90625 -14.894531 5.90625 -14.4375 C 5.90625 -13.976562 6.132812 -13.585938 6.59375 -13.265625 C 7.0625 -12.941406 7.617188 -12.664062 8.265625 -12.4375 C 8.921875 -12.207031 9.550781 -12.015625 10.15625 -11.859375 C 10.769531 -11.710938 11.226562 -11.582031 11.53125 -11.46875 Z M 11.53125 -11.46875 "/></g></g></g><g fill="#38b6ff" fill-opacity="1"><g transform="translate(180.664075, 56.424333)"><g><path d="M 16.53125 -4.203125 C 16.875 -4.203125 17.101562 -4.125 17.21875 -3.96875 C 17.34375 -3.820312 17.40625 -3.609375 17.40625 -3.328125 L 17.40625 -0.875 C 17.40625 -0.613281 17.34375 -0.398438 17.21875 -0.234375 C 17.101562 -0.078125 16.875 0 16.53125 0 L 3.09375 0 C 2.75 0 2.515625 -0.078125 2.390625 -0.234375 C 2.273438 -0.398438 2.21875 -0.613281 2.21875 -0.875 L 2.21875 -18.875 C 2.21875 -19.15625 2.273438 -19.367188 2.390625 -19.515625 C 2.515625 -19.671875 2.75 -19.75 3.09375 -19.75 L 16.03125 -19.75 C 16.363281 -19.75 16.59375 -19.671875 16.71875 -19.515625 C 16.84375 -19.367188 16.90625 -19.15625 16.90625 -18.875 L 16.90625 -16.390625 C 16.90625 -16.128906 16.84375 -15.914062 16.71875 -15.75 C 16.59375 -15.59375 16.363281 -15.515625 16.03125 -15.515625 L 6.96875 -15.515625 L 6.96875 -12.25 L 15.015625 -12.25 C 15.347656 -12.25 15.570312 -12.171875 15.6875 -12.015625 C 15.8125 -11.867188 15.875 -11.65625 15.875 -11.375 L 15.875 -9.03125 C 15.875 -8.769531 15.8125 -8.5625 15.6875 -8.40625 C 15.570312 -8.25 15.347656 -8.171875 15.015625 -8.171875 L 6.96875 -8.171875 L 6.96875 -4.203125 Z M 16.53125 -4.203125 "/></g></g></g><g fill="#38b6ff" fill-opacity="1"><g transform="translate(199.030875, 56.424333)"><g><path d="M 17.375 -19.75 C 17.65625 -19.75 17.867188 -19.6875 18.015625 -19.5625 C 18.171875 -19.445312 18.25 -19.21875 18.25 -18.875 L 18.25 -0.875 C 18.25 -0.613281 18.1875 -0.398438 18.0625 -0.234375 C 17.945312 -0.078125 17.71875 0 17.375 0 L 14.640625 0 C 14.265625 0 13.992188 -0.09375 13.828125 -0.28125 C 13.671875 -0.46875 13.492188 -0.710938 13.296875 -1.015625 L 6.9375 -11.3125 L 6.9375 -0.875 C 6.9375 -0.53125 6.859375 -0.296875 6.703125 -0.171875 C 6.554688 -0.0546875 6.34375 0 6.0625 0 L 3.09375 0 C 2.832031 0 2.617188 -0.0546875 2.453125 -0.171875 C 2.296875 -0.296875 2.21875 -0.53125 2.21875 -0.875 L 2.21875 -18.875 C 2.21875 -19.15625 2.273438 -19.367188 2.390625 -19.515625 C 2.515625 -19.671875 2.75 -19.75 3.09375 -19.75 L 5.90625 -19.75 C 6.289062 -19.75 6.5625 -19.65625 6.71875 -19.46875 C 6.882812 -19.28125 7.066406 -19.035156 7.265625 -18.734375 L 13.625 -8.46875 L 13.625 -18.875 C 13.625 -19.21875 13.703125 -19.445312 13.859375 -19.5625 C 14.023438 -19.6875 14.238281 -19.75 14.5 -19.75 Z M 17.375 -19.75 "/></g></g></g><g fill="#203a55" fill-opacity="1"><g transform="translate(219.059677, 56.424333)"><g><path d="M 17.984375 -19.75 C 18.265625 -19.75 18.441406 -19.65625 18.515625 -19.46875 C 18.597656 -19.28125 18.597656 -19.082031 18.515625 -18.875 L 12.09375 -0.90625 C 11.914062 -0.519531 11.75 -0.269531 11.59375 -0.15625 C 11.445312 -0.0507812 11.203125 0 10.859375 0 L 7.984375 0 C 7.660156 0 7.421875 -0.0507812 7.265625 -0.15625 C 7.109375 -0.269531 6.9375 -0.519531 6.75 -0.90625 L 0.296875 -18.875 C 0.222656 -19.082031 0.222656 -19.28125 0.296875 -19.46875 C 0.378906 -19.65625 0.5625 -19.75 0.84375 -19.75 L 4.171875 -19.75 C 4.566406 -19.75 4.835938 -19.675781 4.984375 -19.53125 C 5.140625 -19.394531 5.28125 -19.148438 5.40625 -18.796875 L 9.484375 -6.359375 L 13.53125 -18.796875 C 13.65625 -19.148438 13.796875 -19.394531 13.953125 -19.53125 C 14.117188 -19.675781 14.398438 -19.75 14.796875 -19.75 Z M 17.984375 -19.75 "/></g></g></g><g fill="#203a55" fill-opacity="1"><g transform="translate(237.69657, 56.424333)"><g><path d="M 19.203125 -0.84375 C 19.285156 -0.65625 19.304688 -0.46875 19.265625 -0.28125 C 19.222656 -0.09375 19.035156 0 18.703125 0 L 15.546875 0 C 15.222656 0 14.984375 -0.0546875 14.828125 -0.171875 C 14.671875 -0.296875 14.53125 -0.539062 14.40625 -0.90625 L 13.5625 -3.265625 L 6.21875 -3.265625 L 5.375 -0.90625 C 5.25 -0.539062 5.113281 -0.296875 4.96875 -0.171875 C 4.820312 -0.0546875 4.578125 0 4.234375 0 L 1.078125 0 C 0.753906 0 0.566406 -0.09375 0.515625 -0.28125 C 0.472656 -0.46875 0.488281 -0.65625 0.5625 -0.84375 L 7.234375 -18.8125 C 7.347656 -19.132812 7.5 -19.367188 7.6875 -19.515625 C 7.882812 -19.671875 8.144531 -19.75 8.46875 -19.75 L 11.34375 -19.75 C 11.6875 -19.75 11.941406 -19.671875 12.109375 -19.515625 C 12.273438 -19.367188 12.429688 -19.132812 12.578125 -18.8125 Z M 9.90625 -14.109375 L 7.65625 -7.46875 L 12.15625 -7.46875 Z M 9.90625 -14.109375 "/></g></g></g><g fill="#203a55" fill-opacity="1"><g transform="translate(256.903686, 56.424333)"><g><path d="M 16.984375 -19.75 C 17.265625 -19.75 17.476562 -19.6875 17.625 -19.5625 C 17.78125 -19.445312 17.859375 -19.21875 17.859375 -18.875 L 17.859375 -6.03125 C 17.859375 -4.851562 17.617188 -3.851562 17.140625 -3.03125 C 16.660156 -2.207031 16.023438 -1.539062 15.234375 -1.03125 C 14.441406 -0.519531 13.578125 -0.144531 12.640625 0.09375 C 11.710938 0.332031 10.800781 0.453125 9.90625 0.453125 C 9 0.453125 8.085938 0.332031 7.171875 0.09375 C 6.253906 -0.144531 5.398438 -0.519531 4.609375 -1.03125 C 3.816406 -1.539062 3.179688 -2.207031 2.703125 -3.03125 C 2.222656 -3.851562 1.984375 -4.851562 1.984375 -6.03125 L 1.984375 -18.875 C 1.984375 -19.21875 2.0625 -19.445312 2.21875 -19.5625 C 2.382812 -19.6875 2.59375 -19.75 2.84375 -19.75 L 5.828125 -19.75 C 6.109375 -19.75 6.320312 -19.6875 6.46875 -19.5625 C 6.613281 -19.445312 6.6875 -19.21875 6.6875 -18.875 L 6.6875 -6.6875 C 6.6875 -5.75 6.976562 -5.019531 7.5625 -4.5 C 8.144531 -3.976562 8.925781 -3.71875 9.90625 -3.71875 C 10.90625 -3.71875 11.691406 -3.976562 12.265625 -4.5 C 12.847656 -5.019531 13.140625 -5.75 13.140625 -6.6875 L 13.140625 -18.875 C 13.140625 -19.21875 13.21875 -19.445312 13.375 -19.5625 C 13.539062 -19.6875 13.753906 -19.75 14.015625 -19.75 Z M 16.984375 -19.75 "/></g></g></g><g fill="#203a55" fill-opacity="1"><g transform="translate(276.290868, 56.424333)"><g><path d="M 15.578125 -4.203125 C 15.921875 -4.203125 16.148438 -4.125 16.265625 -3.96875 C 16.390625 -3.820312 16.453125 -3.609375 16.453125 -3.328125 L 16.453125 -0.875 C 16.453125 -0.613281 16.390625 -0.398438 16.265625 -0.234375 C 16.148438 -0.078125 15.921875 0 15.578125 0 L 3.09375 0 C 2.75 0 2.515625 -0.078125 2.390625 -0.234375 C 2.273438 -0.398438 2.21875 -0.613281 2.21875 -0.875 L 2.21875 -18.875 C 2.21875 -19.21875 2.296875 -19.445312 2.453125 -19.5625 C 2.617188 -19.6875 2.832031 -19.75 3.09375 -19.75 L 6.0625 -19.75 C 6.34375 -19.75 6.554688 -19.6875 6.703125 -19.5625 C 6.859375 -19.445312 6.9375 -19.21875 6.9375 -18.875 L 6.9375 -4.203125 Z M 15.578125 -4.203125 "/></g></g></g><g fill="#203a55" fill-opacity="1"><g transform="translate(293.307137, 56.424333)"><g><path d="M 15.578125 -19.75 C 15.921875 -19.75 16.148438 -19.671875 16.265625 -19.515625 C 16.390625 -19.367188 16.453125 -19.15625 16.453125 -18.875 L 16.453125 -16.390625 C 16.453125 -16.128906 16.390625 -15.914062 16.265625 -15.75 C 16.148438 -15.59375 15.921875 -15.515625 15.578125 -15.515625 L 10.984375 -15.515625 L 10.984375 -0.875 C 10.984375 -0.53125 10.90625 -0.296875 10.75 -0.171875 C 10.601562 -0.0546875 10.390625 0 10.109375 0 L 7.140625 0 C 6.878906 0 6.664062 -0.0546875 6.5 -0.171875 C 6.34375 -0.296875 6.265625 -0.53125 6.265625 -0.875 L 6.265625 -15.515625 L 1.65625 -15.515625 C 1.3125 -15.515625 1.078125 -15.59375 0.953125 -15.75 C 0.835938 -15.914062 0.78125 -16.128906 0.78125 -16.390625 L 0.78125 -18.875 C 0.78125 -19.15625 0.835938 -19.367188 0.953125 -19.515625 C 1.078125 -19.671875 1.3125 -19.75 1.65625 -19.75 Z M 15.578125 -19.75 "/></g></g></g></svg>