<svg xmlns="http://www.w3.org/2000/svg" xmlns:xlink="http://www.w3.org/1999/xlink" width="394" zoomAndPan="magnify" viewBox="0 0 295.5 87.749997" height="117" preserveAspectRatio="xMidYMid meet" version="1.0"><defs><g/><clipPath id="fd929efcd9"><path d="M 0.472656 0 L 79.144531 0 L 79.144531 86.828125 L 0.472656 86.828125 Z M 0.472656 0 " clip-rule="nonzero"/></clipPath><clipPath id="8818c4d3fa"><path d="M 17.542969 16.960938 L 62.976562 16.960938 L 62.976562 62.394531 L 17.542969 62.394531 Z M 17.542969 16.960938 " clip-rule="nonzero"/></clipPath><clipPath id="163bc74245"><path d="M 18.644531 18.363281 L 61.050781 18.363281 L 61.050781 60.765625 L 18.644531 60.765625 Z M 18.644531 18.363281 " clip-rule="nonzero"/></clipPath><clipPath id="7bd3b87839"><path d="M 15.640625 13.828125 L 65.746094 13.828125 L 65.746094 63.933594 L 15.640625 63.933594 Z M 15.640625 13.828125 " clip-rule="nonzero"/></clipPath><clipPath id="a5a7d869ee"><path d="M 18.664062 18.222656 L 61.292969 18.222656 L 61.292969 60.851562 L 18.664062 60.851562 Z M 18.664062 18.222656 " clip-rule="nonzero"/></clipPath></defs><path fill="#38b6ff" d="M 46.546875 55.5 C 46.511719 56.53125 45.816406 57.460938 44.777344 57.742188 C 43.738281 58.015625 42.667969 57.558594 42.128906 56.6875 C 41.835938 57.667969 40.925781 58.390625 39.84375 58.390625 C 38.765625 58.390625 37.851562 57.667969 37.558594 56.6875 C 37.019531 57.558594 35.949219 58.019531 34.910156 57.746094 C 33.871094 57.46875 33.175781 56.535156 33.144531 55.503906 C 32.398438 56.210938 31.25 56.382812 30.3125 55.84375 C 29.378906 55.300781 28.945312 54.222656 29.183594 53.226562 C 28.285156 53.710938 27.128906 53.578125 26.367188 52.816406 C 25.601562 52.054688 25.460938 50.898438 25.957031 49.988281 C 24.957031 50.234375 23.875 49.800781 23.339844 48.867188 C 22.800781 47.933594 22.964844 46.777344 23.671875 46.03125 C 22.644531 46 21.710938 45.304688 21.433594 44.265625 C 21.152344 43.226562 21.613281 42.15625 22.492188 41.617188 C 21.503906 41.324219 20.785156 40.410156 20.785156 39.332031 C 20.785156 38.253906 21.507812 37.339844 22.492188 37.046875 C 21.621094 36.507812 21.152344 35.4375 21.433594 34.398438 C 21.710938 33.359375 22.648438 32.664062 23.671875 32.632812 C 22.964844 31.886719 22.792969 30.730469 23.339844 29.796875 C 23.878906 28.863281 24.957031 28.429688 25.957031 28.675781 C 25.46875 27.769531 25.605469 26.617188 26.367188 25.851562 C 27.128906 25.085938 28.285156 24.953125 29.183594 25.445312 C 28.949219 24.445312 29.378906 23.367188 30.3125 22.828125 C 31.242188 22.285156 32.398438 22.453125 33.144531 23.164062 C 33.175781 22.136719 33.871094 21.203125 34.910156 20.925781 C 35.949219 20.648438 37.023438 21.105469 37.558594 21.984375 C 37.851562 20.996094 38.765625 20.273438 39.84375 20.273438 C 40.925781 20.273438 41.835938 20.996094 42.128906 21.984375 C 42.667969 21.113281 43.738281 20.648438 44.777344 20.925781 C 45.816406 21.203125 46.511719 22.140625 46.546875 23.164062 C 47.289062 22.457031 48.445312 22.285156 49.378906 22.828125 C 50.3125 23.367188 50.746094 24.445312 50.503906 25.445312 C 51.40625 24.953125 52.5625 25.09375 53.324219 25.851562 C 54.085938 26.617188 54.226562 27.769531 53.734375 28.675781 C 54.730469 28.4375 55.8125 28.863281 56.351562 29.796875 C 56.890625 30.730469 56.726562 31.886719 56.011719 32.632812 C 57.039062 32.664062 57.976562 33.359375 58.25 34.398438 C 58.527344 35.4375 58.070312 36.507812 57.195312 37.046875 C 58.183594 37.339844 58.902344 38.253906 58.902344 39.332031 C 58.902344 40.410156 58.183594 41.324219 57.195312 41.617188 C 58.066406 42.15625 58.527344 43.226562 58.25 44.265625 C 57.976562 45.304688 57.039062 46 56.011719 46.03125 C 56.71875 46.777344 56.890625 47.929688 56.351562 48.867188 C 55.8125 49.800781 54.730469 50.234375 53.734375 49.988281 C 54.222656 50.894531 54.085938 52.050781 53.324219 52.816406 C 52.558594 53.578125 51.40625 53.71875 50.503906 53.226562 C 50.742188 54.222656 50.3125 55.308594 49.378906 55.84375 C 48.445312 56.382812 47.289062 56.214844 46.546875 55.503906 Z M 77.667969 19.0625 L 77.960938 19.0625 L 77.960938 26.214844 L 77.667969 26.214844 C 76.644531 28.066406 73.246094 27.703125 73.207031 25.042969 L 73.207031 20.230469 C 73.246094 17.582031 76.644531 17.21875 77.667969 19.070312 Z M 77.667969 52.429688 L 77.960938 52.429688 L 77.960938 59.578125 L 77.664062 59.578125 C 76.640625 61.417969 73.238281 61.066406 73.207031 58.398438 L 73.207031 53.589844 C 73.238281 50.953125 76.640625 50.574219 77.664062 52.429688 Z M 77.667969 52.429688 " fill-opacity="1" fill-rule="evenodd"/><path fill="#ffffff" d="M 68.441406 5.957031 C 71.0625 5.957031 73.207031 8.101562 73.207031 10.726562 L 73.207031 67.925781 C 73.207031 70.542969 71.0625 72.691406 68.441406 72.691406 L 11.246094 72.691406 C 8.625 72.691406 6.480469 70.546875 6.480469 67.925781 L 6.480469 10.726562 C 6.480469 8.101562 8.625 5.957031 11.246094 5.957031 L 68.445312 5.957031 Z M 39.84375 20.257812 C 29.316406 20.257812 20.78125 28.792969 20.78125 39.328125 C 20.78125 49.859375 29.316406 58.390625 39.84375 58.390625 C 50.375 58.390625 58.914062 49.855469 58.914062 39.328125 C 58.914062 28.796875 50.375 20.257812 39.84375 20.257812 Z M 39.84375 20.257812 " fill-opacity="1" fill-rule="evenodd"/><path fill="#ffffff" d="M 73.207031 51.9375 L 73.207031 26.699219 L 74.796875 27.261719 C 75.304688 27.4375 75.878906 27.4375 76.382812 27.261719 L 77.976562 26.683594 L 77.976562 51.957031 L 76.382812 51.390625 C 75.878906 51.207031 75.304688 51.207031 74.792969 51.382812 L 73.207031 51.941406 Z M 77.976562 60.046875 L 77.976562 67.921875 C 77.976562 73.160156 73.6875 77.453125 68.441406 77.453125 L 11.246094 77.453125 C 6.007812 77.453125 1.714844 73.167969 1.714844 67.921875 L 1.714844 10.726562 C 1.714844 5.484375 6 1.191406 11.246094 1.191406 L 68.445312 1.191406 C 73.6875 1.191406 77.980469 5.480469 77.980469 10.726562 L 77.980469 18.59375 L 76.386719 18.023438 C 75.882812 17.84375 75.304688 17.84375 74.796875 18.023438 L 73.207031 18.578125 L 73.207031 10.730469 C 73.207031 8.109375 71.0625 5.960938 68.441406 5.960938 L 11.246094 5.960938 C 8.625 5.960938 6.480469 8.109375 6.480469 10.730469 L 6.480469 67.929688 C 6.480469 70.546875 8.625 72.699219 11.246094 72.699219 L 68.445312 72.699219 C 71.070312 72.699219 73.214844 70.554688 73.214844 67.929688 L 73.214844 60.078125 L 74.804688 60.640625 C 75.304688 60.816406 75.882812 60.816406 76.386719 60.636719 L 77.980469 60.058594 Z M 77.976562 60.046875 " fill-opacity="1" fill-rule="evenodd"/><path fill="#203a55" d="M 11.246094 9.535156 C 11.902344 9.535156 12.4375 10.070312 12.4375 10.726562 C 12.4375 11.378906 11.902344 11.914062 11.246094 11.914062 C 10.59375 11.914062 10.058594 11.378906 10.058594 10.726562 C 10.058594 10.070312 10.59375 9.535156 11.246094 9.535156 Z M 11.246094 9.535156 " fill-opacity="1" fill-rule="evenodd"/><path fill="#203a55" d="M 39.84375 19.0625 C 51.035156 19.0625 60.101562 28.132812 60.101562 39.324219 C 60.101562 50.507812 51.035156 59.582031 39.84375 59.582031 C 28.65625 59.582031 19.585938 50.507812 19.585938 39.324219 C 19.585938 28.132812 28.65625 19.0625 39.84375 19.0625 Z M 39.84375 19.0625 " fill-opacity="1" fill-rule="evenodd"/><g clip-path="url(#fd929efcd9)"><path fill="#38b6ff" d="M 68.296875 78.644531 L 67.25 86.980469 L 60.101562 86.980469 L 59.058594 78.644531 L 20.628906 78.644531 L 19.585938 86.980469 L 12.4375 86.980469 L 11.394531 78.644531 L 11.246094 78.644531 C 5.347656 78.644531 0.523438 73.820312 0.523438 67.921875 L 0.523438 10.726562 C 0.519531 4.824219 5.347656 0 11.246094 0 L 68.445312 0 C 74.351562 0 79.171875 4.824219 79.171875 10.726562 L 79.171875 67.925781 C 79.171875 73.820312 74.351562 78.648438 68.445312 78.648438 L 68.296875 78.648438 Z M 68.296875 78.644531 " fill-opacity="1" fill-rule="evenodd"/></g><path fill="#ffffff" d="M 74.398438 50.257812 C 75.167969 49.988281 76.019531 49.988281 76.78125 50.261719 L 76.78125 28.378906 C 76.019531 28.65625 75.160156 28.65625 74.398438 28.390625 Z M 74.398438 50.257812 " fill-opacity="1" fill-rule="evenodd"/><path fill="#ffffff" d="M 76.785156 61.742188 C 76.023438 62.023438 75.167969 62.023438 74.40625 61.753906 L 74.40625 67.925781 C 74.40625 71.203125 71.726562 73.882812 68.445312 73.882812 L 11.246094 73.882812 C 7.96875 73.882812 5.289062 71.203125 5.289062 67.925781 L 5.289062 10.726562 C 5.289062 7.445312 7.96875 4.765625 11.246094 4.765625 L 68.445312 4.765625 C 71.726562 4.765625 74.40625 7.445312 74.40625 10.726562 L 74.40625 16.894531 C 75.171875 16.625 76.023438 16.625 76.785156 16.898438 L 76.785156 10.726562 C 76.785156 6.140625 73.027344 2.382812 68.441406 2.382812 L 11.246094 2.382812 C 6.664062 2.382812 2.910156 6.132812 2.910156 10.726562 L 2.910156 67.925781 C 2.910156 72.507812 6.664062 76.265625 11.246094 76.265625 L 68.445312 76.265625 C 73.03125 76.265625 76.789062 72.507812 76.789062 67.925781 L 76.789062 61.75 Z M 76.785156 61.742188 " fill-opacity="1" fill-rule="evenodd"/><path fill="#203a55" d="M 75.578125 52.457031 C 76.171875 52.457031 76.765625 52.847656 76.765625 53.621094 L 76.765625 58.390625 C 76.765625 59.164062 76.164062 59.554688 75.570312 59.554688 C 74.976562 59.554688 74.410156 59.175781 74.40625 58.40625 L 74.40625 53.605469 C 74.414062 52.839844 75 52.457031 75.585938 52.457031 M 75.585938 51.449219 C 74.355469 51.449219 73.410156 52.371094 73.394531 53.597656 L 73.394531 58.390625 C 73.394531 58.390625 73.394531 58.414062 73.394531 58.414062 C 73.410156 59.640625 74.34375 60.566406 75.570312 60.566406 C 76.453125 60.566406 77.183594 60.101562 77.542969 59.398438 L 77.777344 59.398438 L 77.777344 58.390625 C 77.777344 58.390625 77.777344 53.621094 77.777344 53.621094 L 77.777344 52.613281 L 77.542969 52.613281 C 77.191406 51.910156 76.460938 51.449219 75.585938 51.449219 Z M 75.585938 51.449219 " fill-opacity="1" fill-rule="nonzero"/><path fill="#203a55" d="M 75.574219 19.085938 C 76.171875 19.085938 76.765625 19.484375 76.765625 20.253906 L 76.765625 25.019531 C 76.765625 25.796875 76.171875 26.191406 75.574219 26.191406 C 74.980469 26.191406 74.410156 25.8125 74.398438 25.035156 L 74.398438 20.238281 C 74.410156 19.464844 74.988281 19.085938 75.570312 19.085938 M 75.570312 18.078125 C 74.339844 18.078125 73.40625 19.003906 73.390625 20.230469 L 73.390625 25.019531 C 73.390625 25.019531 73.390625 25.046875 73.390625 25.046875 C 73.40625 26.269531 74.34375 27.195312 75.574219 27.195312 C 76.460938 27.195312 77.183594 26.730469 77.542969 26.023438 L 77.773438 26.023438 L 77.773438 25.015625 C 77.773438 25.015625 77.773438 20.25 77.773438 20.25 L 77.773438 19.238281 L 77.539062 19.238281 C 77.179688 18.535156 76.453125 18.074219 75.570312 18.074219 Z M 75.570312 18.078125 " fill-opacity="1" fill-rule="nonzero"/><path fill="#ffffff" d="M 68.441406 7.148438 L 11.246094 7.148438 C 9.285156 7.148438 7.667969 8.761719 7.667969 10.726562 L 7.667969 67.925781 C 7.667969 69.886719 9.28125 71.5 11.246094 71.5 L 68.445312 71.5 C 70.410156 71.5 72.023438 69.890625 72.023438 67.925781 L 72.023438 10.726562 C 72.023438 8.761719 70.410156 7.148438 68.445312 7.148438 Z M 68.441406 7.148438 " fill-opacity="1" fill-rule="evenodd"/><path fill="#203a55" d="M 39.84375 66.6875 L 39.894531 66.6875 C 40.558594 66.6875 41.085938 67.222656 41.085938 67.878906 C 41.085938 68.535156 40.550781 69.070312 39.894531 69.070312 L 39.84375 69.070312 C 39.207031 69.042969 38.699219 68.519531 38.699219 67.878906 C 38.699219 67.238281 39.207031 66.714844 39.84375 66.6875 Z M 39.84375 66.6875 " fill-opacity="1" fill-rule="evenodd"/><path fill="#203a55" d="M 39.84375 9.535156 C 40.5 9.535156 41.035156 10.070312 41.035156 10.726562 C 41.035156 11.378906 40.5 11.914062 39.84375 11.914062 C 39.183594 11.914062 38.65625 11.378906 38.65625 10.726562 C 38.65625 10.070312 39.191406 9.535156 39.84375 9.535156 Z M 39.84375 9.535156 " fill-opacity="1" fill-rule="evenodd"/><path fill="#203a55" d="M 68.492188 69.070312 C 67.835938 69.070312 67.300781 68.535156 67.300781 67.878906 C 67.300781 67.222656 67.835938 66.6875 68.492188 66.6875 C 69.148438 66.6875 69.683594 67.222656 69.683594 67.878906 C 69.683594 68.535156 69.148438 69.070312 68.492188 69.070312 Z M 68.492188 69.070312 " fill-opacity="1" fill-rule="evenodd"/><path fill="#203a55" d="M 69.632812 10.726562 C 69.632812 11.378906 69.097656 11.914062 68.441406 11.914062 C 67.785156 11.914062 67.25 11.378906 67.25 10.726562 C 67.25 10.070312 67.785156 9.535156 68.441406 9.535156 C 69.097656 9.535156 69.632812 10.070312 69.632812 10.726562 Z M 69.632812 10.726562 " fill-opacity="1" fill-rule="evenodd"/><path fill="#203a55" d="M 12.6875 10.726562 C 12.6875 11.378906 12.148438 11.914062 11.492188 11.914062 C 10.839844 11.914062 10.304688 11.378906 10.304688 10.726562 C 10.304688 10.070312 10.839844 9.535156 11.492188 9.535156 C 12.148438 9.535156 12.6875 10.070312 12.6875 10.726562 Z M 12.6875 10.726562 " fill-opacity="1" fill-rule="evenodd"/><path fill="#203a55" d="M 45.804688 10.726562 C 45.804688 11.378906 45.269531 11.914062 44.609375 11.914062 C 43.957031 11.914062 43.421875 11.378906 43.421875 10.726562 C 43.421875 10.070312 43.957031 9.535156 44.609375 9.535156 C 45.269531 9.535156 45.804688 10.070312 45.804688 10.726562 Z M 45.804688 10.726562 " fill-opacity="1" fill-rule="evenodd"/><path fill="#203a55" d="M 40.03125 17.296875 C 52.429688 17.296875 62.480469 27.351562 62.480469 39.75 C 62.480469 52.148438 52.425781 62.199219 40.03125 62.199219 C 27.636719 62.199219 17.578125 52.148438 17.578125 39.75 C 17.578125 27.351562 27.632812 17.296875 40.03125 17.296875 Z M 40.03125 17.296875 " fill-opacity="1" fill-rule="evenodd"/><path fill="#203a55" d="M 50.570312 10.726562 C 50.570312 11.378906 50.035156 11.914062 49.378906 11.914062 C 48.722656 11.914062 48.1875 11.378906 48.1875 10.726562 C 48.1875 10.070312 48.722656 9.535156 49.378906 9.535156 C 50.035156 9.535156 50.570312 10.070312 50.570312 10.726562 Z M 50.570312 10.726562 " fill-opacity="1" fill-rule="evenodd"/><path fill="#203a55" d="M 55.335938 10.726562 C 55.335938 11.378906 54.800781 11.914062 54.148438 11.914062 C 53.488281 11.914062 52.953125 11.378906 52.953125 10.726562 C 52.953125 10.070312 53.488281 9.535156 54.148438 9.535156 C 54.800781 9.535156 55.335938 10.070312 55.335938 10.726562 Z M 55.335938 10.726562 " fill-opacity="1" fill-rule="evenodd"/><path fill="#203a55" d="M 60.101562 10.726562 C 60.101562 11.378906 59.566406 11.914062 58.914062 11.914062 C 58.257812 11.914062 57.722656 11.378906 57.722656 10.726562 C 57.722656 10.070312 58.257812 9.535156 58.914062 9.535156 C 59.566406 9.535156 60.101562 10.070312 60.101562 10.726562 Z M 60.101562 10.726562 " fill-opacity="1" fill-rule="evenodd"/><path fill="#203a55" d="M 64.871094 10.726562 C 64.871094 11.378906 64.335938 11.914062 63.679688 11.914062 C 63.023438 11.914062 62.492188 11.378906 62.492188 10.726562 C 62.492188 10.070312 63.023438 9.535156 63.679688 9.535156 C 64.335938 9.535156 64.871094 10.070312 64.871094 10.726562 Z M 64.871094 10.726562 " fill-opacity="1" fill-rule="evenodd"/><path fill="#203a55" d="M 68.492188 16.640625 C 68.050781 16.640625 67.660156 16.394531 67.453125 16.035156 C 67.359375 15.867188 67.300781 15.664062 67.300781 15.453125 C 67.300781 14.796875 67.835938 14.261719 68.492188 14.261719 C 69.148438 14.261719 69.683594 14.796875 69.683594 15.453125 C 69.683594 15.664062 69.628906 15.867188 69.53125 16.039062 C 69.324219 16.402344 68.941406 16.648438 68.492188 16.648438 Z M 68.492188 16.640625 " fill-opacity="1" fill-rule="evenodd"/><path fill="#203a55" d="M 68.492188 21.410156 C 67.835938 21.410156 67.300781 20.875 67.300781 20.21875 C 67.300781 19.5625 67.835938 19.027344 68.492188 19.027344 C 69.148438 19.027344 69.683594 19.5625 69.683594 20.21875 C 69.683594 20.875 69.148438 21.410156 68.492188 21.410156 Z M 68.492188 21.410156 " fill-opacity="1" fill-rule="evenodd"/><path fill="#203a55" d="M 68.492188 26.175781 C 67.835938 26.175781 67.300781 25.640625 67.300781 24.984375 C 67.300781 24.328125 67.835938 23.796875 68.492188 23.796875 C 69.148438 23.796875 69.683594 24.328125 69.683594 24.984375 C 69.683594 25.640625 69.148438 26.175781 68.492188 26.175781 Z M 68.492188 26.175781 " fill-opacity="1" fill-rule="evenodd"/><path fill="#203a55" d="M 68.492188 30.941406 C 67.835938 30.941406 67.300781 30.410156 67.300781 29.753906 C 67.300781 29.097656 67.835938 28.5625 68.492188 28.5625 C 69.148438 28.5625 69.683594 29.097656 69.683594 29.753906 C 69.683594 30.410156 69.148438 30.941406 68.492188 30.941406 Z M 68.492188 30.941406 " fill-opacity="1" fill-rule="evenodd"/><path fill="#203a55" d="M 68.492188 35.707031 C 67.835938 35.707031 67.300781 35.171875 67.300781 34.515625 C 67.300781 33.859375 67.835938 33.324219 68.492188 33.324219 C 69.148438 33.324219 69.683594 33.859375 69.683594 34.515625 C 69.683594 35.171875 69.148438 35.707031 68.492188 35.707031 Z M 68.492188 35.707031 " fill-opacity="1" fill-rule="evenodd"/><path fill="#203a55" d="M 68.492188 40.472656 C 67.835938 40.472656 67.300781 39.9375 67.300781 39.28125 C 67.300781 38.625 67.835938 38.089844 68.492188 38.089844 C 69.148438 38.089844 69.683594 38.625 69.683594 39.28125 C 69.683594 39.9375 69.148438 40.472656 68.492188 40.472656 Z M 68.492188 40.472656 " fill-opacity="1" fill-rule="evenodd"/><path fill="#203a55" d="M 68.492188 45.238281 C 67.835938 45.238281 67.300781 44.703125 67.300781 44.050781 C 67.300781 43.394531 67.835938 42.859375 68.492188 42.859375 C 69.148438 42.859375 69.683594 43.394531 69.683594 44.050781 C 69.683594 44.703125 69.148438 45.238281 68.492188 45.238281 Z M 68.492188 45.238281 " fill-opacity="1" fill-rule="evenodd"/><path fill="#203a55" d="M 68.492188 50.007812 C 67.835938 50.007812 67.300781 49.472656 67.300781 48.816406 C 67.300781 48.160156 67.835938 47.625 68.492188 47.625 C 69.148438 47.625 69.683594 48.160156 69.683594 48.816406 C 69.683594 49.472656 69.148438 50.007812 68.492188 50.007812 Z M 68.492188 50.007812 " fill-opacity="1" fill-rule="evenodd"/><path fill="#203a55" d="M 68.492188 54.773438 C 67.835938 54.773438 67.300781 54.238281 67.300781 53.582031 C 67.300781 52.925781 67.835938 52.394531 68.492188 52.394531 C 69.148438 52.394531 69.683594 52.925781 69.683594 53.582031 C 69.683594 54.238281 69.148438 54.773438 68.492188 54.773438 Z M 68.492188 54.773438 " fill-opacity="1" fill-rule="evenodd"/><path fill="#203a55" d="M 68.492188 59.539062 C 67.835938 59.539062 67.300781 59.007812 67.300781 58.351562 C 67.300781 57.695312 67.835938 57.160156 68.492188 57.160156 C 69.148438 57.160156 69.683594 57.695312 69.683594 58.351562 C 69.683594 59.007812 69.148438 59.539062 68.492188 59.539062 Z M 68.492188 59.539062 " fill-opacity="1" fill-rule="evenodd"/><path fill="#203a55" d="M 68.492188 64.308594 C 67.835938 64.308594 67.300781 63.773438 67.300781 63.117188 C 67.300781 62.460938 67.835938 61.925781 68.492188 61.925781 C 69.148438 61.925781 69.683594 62.460938 69.683594 63.117188 C 69.683594 63.773438 69.148438 64.308594 68.492188 64.308594 Z M 68.492188 64.308594 " fill-opacity="1" fill-rule="evenodd"/><path fill="#203a55" d="M 62.535156 67.878906 C 62.535156 67.222656 63.070312 66.6875 63.726562 66.6875 C 64.382812 66.6875 64.914062 67.222656 64.914062 67.878906 C 64.914062 68.535156 64.382812 69.070312 63.726562 69.070312 C 63.070312 69.070312 62.535156 68.535156 62.535156 67.878906 Z M 62.535156 67.878906 " fill-opacity="1" fill-rule="evenodd"/><path fill="#203a55" d="M 57.769531 67.878906 C 57.769531 67.222656 58.300781 66.6875 58.957031 66.6875 C 59.613281 66.6875 60.148438 67.222656 60.148438 67.878906 C 60.148438 68.535156 59.613281 69.070312 58.957031 69.070312 C 58.300781 69.070312 57.769531 68.535156 57.769531 67.878906 Z M 57.769531 67.878906 " fill-opacity="1" fill-rule="evenodd"/><path fill="#203a55" d="M 53.003906 67.878906 C 53.003906 67.222656 53.535156 66.6875 54.191406 66.6875 C 54.847656 66.6875 55.382812 67.222656 55.382812 67.878906 C 55.382812 68.535156 54.847656 69.070312 54.191406 69.070312 C 53.535156 69.070312 53.003906 68.535156 53.003906 67.878906 Z M 53.003906 67.878906 " fill-opacity="1" fill-rule="evenodd"/><path fill="#203a55" d="M 48.234375 67.878906 C 48.234375 67.222656 48.769531 66.6875 49.425781 66.6875 C 50.078125 66.6875 50.613281 67.222656 50.613281 67.878906 C 50.613281 68.535156 50.078125 69.070312 49.425781 69.070312 C 48.769531 69.070312 48.234375 68.535156 48.234375 67.878906 Z M 48.234375 67.878906 " fill-opacity="1" fill-rule="evenodd"/><path fill="#203a55" d="M 43.464844 67.878906 C 43.464844 67.222656 44 66.6875 44.660156 66.6875 C 45.3125 66.6875 45.847656 67.222656 45.847656 67.878906 C 45.847656 68.535156 45.3125 69.070312 44.660156 69.070312 C 44 69.070312 43.464844 68.535156 43.464844 67.878906 Z M 43.464844 67.878906 " fill-opacity="1" fill-rule="evenodd"/><path fill="#203a55" d="M 17.207031 10.726562 C 17.207031 11.378906 16.671875 11.914062 16.011719 11.914062 C 15.359375 11.914062 14.824219 11.378906 14.824219 10.726562 C 14.824219 10.070312 15.359375 9.535156 16.011719 9.535156 C 16.671875 9.535156 17.207031 10.070312 17.207031 10.726562 Z M 17.207031 10.726562 " fill-opacity="1" fill-rule="evenodd"/><path fill="#203a55" d="M 21.972656 10.726562 C 21.972656 11.378906 21.4375 11.914062 20.78125 11.914062 C 20.125 11.914062 19.589844 11.378906 19.589844 10.726562 C 19.589844 10.070312 20.125 9.535156 20.78125 9.535156 C 21.4375 9.535156 21.972656 10.070312 21.972656 10.726562 Z M 21.972656 10.726562 " fill-opacity="1" fill-rule="evenodd"/><path fill="#203a55" d="M 26.734375 10.726562 C 26.734375 11.378906 26.199219 11.914062 25.542969 11.914062 C 24.886719 11.914062 24.351562 11.378906 24.351562 10.726562 C 24.351562 10.070312 24.886719 9.535156 25.542969 9.535156 C 26.199219 9.535156 26.734375 10.070312 26.734375 10.726562 Z M 26.734375 10.726562 " fill-opacity="1" fill-rule="evenodd"/><path fill="#203a55" d="M 31.5 10.726562 C 31.5 11.378906 30.964844 11.914062 30.3125 11.914062 C 29.652344 11.914062 29.121094 11.378906 29.121094 10.726562 C 29.121094 10.070312 29.652344 9.535156 30.3125 9.535156 C 30.964844 9.535156 31.5 10.070312 31.5 10.726562 Z M 31.5 10.726562 " fill-opacity="1" fill-rule="evenodd"/><path fill="#203a55" d="M 36.265625 10.726562 C 36.265625 11.378906 35.734375 11.914062 35.078125 11.914062 C 34.421875 11.914062 33.886719 11.378906 33.886719 10.726562 C 33.886719 10.070312 34.421875 9.535156 35.078125 9.535156 C 35.734375 9.535156 36.265625 10.070312 36.265625 10.726562 Z M 36.265625 10.726562 " fill-opacity="1" fill-rule="evenodd"/><path fill="#203a55" d="M 10.101562 67.878906 C 10.101562 67.222656 10.636719 66.6875 11.292969 66.6875 C 11.949219 66.6875 12.484375 67.222656 12.484375 67.878906 C 12.484375 68.535156 11.949219 69.070312 11.292969 69.070312 C 10.636719 69.070312 10.101562 68.535156 10.101562 67.878906 Z M 10.101562 67.878906 " fill-opacity="1" fill-rule="evenodd"/><path fill="#203a55" d="M 33.933594 67.878906 C 33.933594 67.222656 34.46875 66.6875 35.121094 66.6875 C 35.78125 66.6875 36.316406 67.222656 36.316406 67.878906 C 36.316406 68.535156 35.78125 69.070312 35.121094 69.070312 C 34.46875 69.070312 33.933594 68.535156 33.933594 67.878906 Z M 33.933594 67.878906 " fill-opacity="1" fill-rule="evenodd"/><path fill="#203a55" d="M 29.167969 67.878906 C 29.167969 67.222656 29.703125 66.6875 30.355469 66.6875 C 31.011719 66.6875 31.546875 67.222656 31.546875 67.878906 C 31.546875 68.535156 31.011719 69.070312 30.355469 69.070312 C 29.703125 69.070312 29.167969 68.535156 29.167969 67.878906 Z M 29.167969 67.878906 " fill-opacity="1" fill-rule="evenodd"/><path fill="#203a55" d="M 24.402344 67.878906 C 24.402344 67.222656 24.9375 66.6875 25.59375 66.6875 C 26.25 66.6875 26.785156 67.222656 26.785156 67.878906 C 26.785156 68.535156 26.25 69.070312 25.59375 69.070312 C 24.9375 69.070312 24.402344 68.535156 24.402344 67.878906 Z M 24.402344 67.878906 " fill-opacity="1" fill-rule="evenodd"/><path fill="#203a55" d="M 19.636719 67.878906 C 19.636719 67.222656 20.171875 66.6875 20.828125 66.6875 C 21.480469 66.6875 22.015625 67.222656 22.015625 67.878906 C 22.015625 68.535156 21.480469 69.070312 20.828125 69.070312 C 20.171875 69.070312 19.636719 68.535156 19.636719 67.878906 Z M 19.636719 67.878906 " fill-opacity="1" fill-rule="evenodd"/><path fill="#203a55" d="M 14.867188 67.878906 C 14.867188 67.222656 15.402344 66.6875 16.058594 66.6875 C 16.714844 66.6875 17.25 67.222656 17.25 67.878906 C 17.25 68.535156 16.714844 69.070312 16.058594 69.070312 C 15.402344 69.070312 14.867188 68.535156 14.867188 67.878906 Z M 14.867188 67.878906 " fill-opacity="1" fill-rule="evenodd"/><path fill="#203a55" d="M 11.246094 61.960938 C 11.902344 61.960938 12.4375 62.496094 12.4375 63.152344 C 12.4375 63.808594 11.902344 64.34375 11.246094 64.34375 C 10.59375 64.34375 10.058594 63.808594 10.058594 63.152344 C 10.058594 62.496094 10.59375 61.960938 11.246094 61.960938 Z M 11.246094 61.960938 " fill-opacity="1" fill-rule="evenodd"/><path fill="#203a55" d="M 11.246094 57.199219 C 11.902344 57.199219 12.4375 57.734375 12.4375 58.390625 C 12.4375 59.046875 11.902344 59.582031 11.246094 59.582031 C 10.59375 59.582031 10.058594 59.046875 10.058594 58.390625 C 10.058594 57.734375 10.59375 57.199219 11.246094 57.199219 Z M 11.246094 57.199219 " fill-opacity="1" fill-rule="evenodd"/><path fill="#203a55" d="M 11.246094 52.429688 C 11.902344 52.429688 12.4375 52.964844 12.4375 53.617188 C 12.4375 54.273438 11.902344 54.808594 11.246094 54.808594 C 10.59375 54.808594 10.058594 54.273438 10.058594 53.617188 C 10.058594 52.964844 10.59375 52.429688 11.246094 52.429688 Z M 11.246094 52.429688 " fill-opacity="1" fill-rule="evenodd"/><path fill="#203a55" d="M 11.246094 47.667969 C 11.902344 47.667969 12.4375 48.199219 12.4375 48.855469 C 12.4375 49.511719 11.902344 50.046875 11.246094 50.046875 C 10.59375 50.046875 10.058594 49.511719 10.058594 48.855469 C 10.058594 48.199219 10.59375 47.667969 11.246094 47.667969 Z M 11.246094 47.667969 " fill-opacity="1" fill-rule="evenodd"/><path fill="#203a55" d="M 11.246094 42.898438 C 11.902344 42.898438 12.4375 43.433594 12.4375 44.089844 C 12.4375 44.742188 11.902344 45.277344 11.246094 45.277344 C 10.59375 45.277344 10.058594 44.742188 10.058594 44.089844 C 10.058594 43.433594 10.59375 42.898438 11.246094 42.898438 Z M 11.246094 42.898438 " fill-opacity="1" fill-rule="evenodd"/><path fill="#203a55" d="M 11.246094 38.128906 C 11.902344 38.128906 12.4375 38.664062 12.4375 39.324219 C 12.4375 39.976562 11.902344 40.511719 11.246094 40.511719 C 10.59375 40.511719 10.058594 39.976562 10.058594 39.324219 C 10.058594 38.664062 10.59375 38.128906 11.246094 38.128906 Z M 11.246094 38.128906 " fill-opacity="1" fill-rule="evenodd"/><path fill="#203a55" d="M 11.246094 33.363281 C 11.902344 33.363281 12.4375 33.898438 12.4375 34.554688 C 12.4375 35.210938 11.902344 35.746094 11.246094 35.746094 C 10.59375 35.746094 10.058594 35.210938 10.058594 34.554688 C 10.058594 33.898438 10.59375 33.363281 11.246094 33.363281 Z M 11.246094 33.363281 " fill-opacity="1" fill-rule="evenodd"/><path fill="#203a55" d="M 11.246094 28.597656 C 11.902344 28.597656 12.4375 29.132812 12.4375 29.785156 C 12.4375 30.445312 11.902344 30.980469 11.246094 30.980469 C 10.59375 30.980469 10.058594 30.445312 10.058594 29.785156 C 10.058594 29.132812 10.59375 28.597656 11.246094 28.597656 Z M 11.246094 28.597656 " fill-opacity="1" fill-rule="evenodd"/><path fill="#203a55" d="M 11.246094 23.832031 C 11.902344 23.832031 12.4375 24.367188 12.4375 25.019531 C 12.4375 25.675781 11.902344 26.210938 11.246094 26.210938 C 10.59375 26.210938 10.058594 25.675781 10.058594 25.019531 C 10.058594 24.367188 10.59375 23.832031 11.246094 23.832031 Z M 11.246094 23.832031 " fill-opacity="1" fill-rule="evenodd"/><path fill="#203a55" d="M 11.246094 19.0625 C 11.902344 19.0625 12.4375 19.597656 12.4375 20.253906 C 12.4375 20.910156 11.902344 21.441406 11.246094 21.441406 C 10.59375 21.441406 10.058594 20.910156 10.058594 20.253906 C 10.058594 19.597656 10.59375 19.0625 11.246094 19.0625 Z M 11.246094 19.0625 " fill-opacity="1" fill-rule="evenodd"/><path fill="#203a55" d="M 11.246094 14.300781 C 11.902344 14.300781 12.4375 14.835938 12.4375 15.492188 C 12.4375 15.652344 12.40625 15.808594 12.347656 15.945312 C 12.167969 16.378906 11.742188 16.683594 11.246094 16.683594 C 10.753906 16.683594 10.320312 16.375 10.140625 15.941406 C 10.085938 15.800781 10.058594 15.648438 10.058594 15.488281 C 10.058594 14.828125 10.59375 14.296875 11.246094 14.296875 Z M 11.246094 14.300781 " fill-opacity="1" fill-rule="evenodd"/><path fill="#38b6ff" d="M 55.292969 33.128906 C 54.449219 31.097656 53.125 29.21875 51.597656 27.695312 C 50.070312 26.164062 48.117188 25.019531 46.089844 24.175781 C 44.132812 23.367188 41.957031 22.960938 39.707031 22.960938 C 37.460938 22.960938 35.148438 23.042969 33.195312 23.855469 C 31.167969 24.695312 29.472656 26.292969 27.945312 27.820312 C 26.414062 29.351562 24.640625 30.96875 23.804688 32.996094 C 22.988281 34.953125 23.257812 37.335938 23.257812 39.585938 C 23.257812 41.835938 23.425781 44.039062 24.234375 45.996094 C 25.074219 48.023438 26.785156 49.457031 28.3125 50.984375 C 29.84375 52.511719 31.222656 54.339844 33.25 55.179688 C 35.210938 55.996094 37.464844 56.542969 39.714844 56.542969 C 41.964844 56.542969 44.167969 55.878906 46.125 55.066406 C 48.152344 54.222656 49.984375 52.914062 51.511719 51.382812 C 53.042969 49.855469 54.269531 47.988281 55.113281 45.960938 C 55.925781 44.003906 56.855469 41.828125 56.855469 39.585938 C 56.855469 37.339844 56.105469 35.082031 55.296875 33.132812 Z M 44.421875 49.167969 L 40.855469 48.640625 L 41.875 41.746094 L 34.414062 47.488281 L 32.21875 44.625 L 38.761719 39.585938 L 32.21875 34.546875 L 34.414062 31.679688 L 41.875 37.425781 L 40.855469 30.527344 L 44.421875 30 L 45.832031 39.585938 Z M 44.421875 49.167969 " fill-opacity="1" fill-rule="nonzero"/><g clip-path="url(#8818c4d3fa)"><path fill="#ffffff" d="M 62.976562 39.679688 C 62.976562 40.417969 62.941406 41.160156 62.867188 41.902344 C 62.796875 42.644531 62.6875 43.378906 62.539062 44.109375 C 62.394531 44.839844 62.214844 45.558594 61.996094 46.269531 C 61.78125 46.984375 61.53125 47.683594 61.246094 48.371094 C 60.960938 49.058594 60.644531 49.726562 60.292969 50.386719 C 59.945312 51.042969 59.5625 51.679688 59.148438 52.296875 C 58.734375 52.914062 58.292969 53.515625 57.820312 54.089844 C 57.347656 54.664062 56.847656 55.210938 56.320312 55.738281 C 55.796875 56.265625 55.246094 56.765625 54.671875 57.238281 C 54.097656 57.707031 53.5 58.152344 52.878906 58.5625 C 52.261719 58.976562 51.625 59.359375 50.96875 59.710938 C 50.3125 60.0625 49.640625 60.378906 48.953125 60.664062 C 48.265625 60.949219 47.566406 61.199219 46.855469 61.414062 C 46.140625 61.628906 45.421875 61.8125 44.691406 61.957031 C 43.960938 62.101562 43.226562 62.210938 42.484375 62.285156 C 41.746094 62.355469 41.003906 62.394531 40.261719 62.394531 C 39.515625 62.394531 38.773438 62.355469 38.035156 62.285156 C 37.292969 62.210938 36.558594 62.101562 35.828125 61.957031 C 35.097656 61.8125 34.378906 61.628906 33.664062 61.414062 C 32.957031 61.199219 32.253906 60.949219 31.566406 60.664062 C 30.878906 60.378906 30.207031 60.0625 29.550781 59.710938 C 28.894531 59.359375 28.257812 58.976562 27.640625 58.5625 C 27.019531 58.152344 26.421875 57.707031 25.847656 57.238281 C 25.273438 56.765625 24.722656 56.265625 24.199219 55.738281 C 23.671875 55.210938 23.171875 54.664062 22.699219 54.089844 C 22.226562 53.515625 21.785156 52.914062 21.371094 52.296875 C 20.957031 51.679688 20.574219 51.042969 20.226562 50.386719 C 19.875 49.726562 19.558594 49.058594 19.273438 48.371094 C 18.988281 47.683594 18.738281 46.984375 18.523438 46.269531 C 18.304688 45.558594 18.125 44.839844 17.980469 44.109375 C 17.832031 43.378906 17.726562 42.644531 17.652344 41.902344 C 17.578125 41.160156 17.542969 40.417969 17.542969 39.679688 C 17.542969 38.933594 17.578125 38.191406 17.652344 37.449219 C 17.726562 36.710938 17.832031 35.972656 17.980469 35.246094 C 18.125 34.515625 18.304688 33.796875 18.523438 33.082031 C 18.738281 32.371094 18.988281 31.671875 19.273438 30.984375 C 19.558594 30.296875 19.875 29.625 20.226562 28.96875 C 20.574219 28.3125 20.957031 27.675781 21.371094 27.054688 C 21.785156 26.4375 22.226562 25.839844 22.699219 25.265625 C 23.171875 24.691406 23.671875 24.140625 24.199219 23.613281 C 24.722656 23.089844 25.273438 22.589844 25.847656 22.117188 C 26.421875 21.644531 27.019531 21.203125 27.640625 20.789062 C 28.257812 20.375 28.894531 19.992188 29.550781 19.640625 C 30.207031 19.292969 30.878906 18.972656 31.566406 18.691406 C 32.253906 18.402344 32.957031 18.15625 33.664062 17.9375 C 34.378906 17.722656 35.097656 17.542969 35.828125 17.398438 C 36.558594 17.25 37.292969 17.144531 38.035156 17.070312 C 38.773438 16.996094 39.515625 16.960938 40.261719 16.960938 C 41.003906 16.960938 41.746094 16.996094 42.484375 17.070312 C 43.226562 17.144531 43.960938 17.25 44.691406 17.398438 C 45.421875 17.542969 46.140625 17.722656 46.855469 17.9375 C 47.566406 18.15625 48.265625 18.402344 48.953125 18.691406 C 49.640625 18.972656 50.3125 19.292969 50.96875 19.640625 C 51.625 19.992188 52.261719 20.375 52.878906 20.789062 C 53.5 21.203125 54.097656 21.644531 54.671875 22.117188 C 55.246094 22.589844 55.796875 23.089844 56.320312 23.613281 C 56.847656 24.140625 57.347656 24.691406 57.820312 25.265625 C 58.292969 25.839844 58.734375 26.4375 59.148438 27.054688 C 59.5625 27.675781 59.945312 28.3125 60.292969 28.96875 C 60.644531 29.625 60.960938 30.296875 61.246094 30.984375 C 61.53125 31.671875 61.78125 32.371094 61.996094 33.082031 C 62.214844 33.796875 62.394531 34.515625 62.539062 35.246094 C 62.6875 35.972656 62.796875 36.710938 62.867188 37.449219 C 62.941406 38.191406 62.976562 38.933594 62.976562 39.679688 Z M 62.976562 39.679688 " fill-opacity="1" fill-rule="nonzero"/></g><g clip-path="url(#163bc74245)"><path fill="#38b6ff" d="M 38.183594 60.738281 C 38.054688 60.71875 37.417969 60.625 36.777344 60.53125 C 32.328125 59.898438 27.890625 57.660156 24.785156 54.496094 C 21.40625 51.050781 19.367188 46.878906 18.757812 42.171875 C 18.566406 40.675781 18.625 37.621094 18.878906 36.214844 C 19.65625 31.867188 21.710938 27.898438 24.789062 24.78125 C 28.472656 21.054688 33.40625 18.792969 38.664062 18.414062 C 40.03125 18.3125 41.0625 18.355469 42.683594 18.585938 C 48.675781 19.425781 54.273438 22.976562 57.605469 28.054688 C 59.925781 31.589844 61.050781 35.363281 61.050781 39.628906 C 61.050781 46.609375 57.675781 53.113281 52.074219 56.941406 C 49.289062 58.84375 46.191406 60.066406 42.839844 60.585938 C 42.023438 60.710938 38.738281 60.820312 38.183594 60.738281 Z M 35.261719 56.371094 C 35.808594 56.214844 36.078125 55.992188 36.554688 55.292969 C 36.652344 55.144531 36.6875 55.148438 37.542969 55.316406 C 38.65625 55.535156 40.363281 55.613281 41.382812 55.488281 C 42.128906 55.394531 43.597656 55.121094 43.839844 55.023438 C 43.925781 54.992188 44.011719 55.078125 44.121094 55.289062 C 44.484375 56.003906 45.113281 56.378906 45.933594 56.375 C 47.265625 56.375 48.070312 55.320312 47.828125 53.886719 L 47.773438 53.5625 L 48.414062 53.136719 C 49.054688 52.714844 49.054688 52.714844 49.207031 52.882812 C 49.617188 53.34375 50.628906 53.570312 51.195312 53.332031 C 52 52.992188 52.46875 52.304688 52.46875 51.464844 C 52.46875 51.199219 52.417969 50.855469 52.351562 50.695312 L 52.226562 50.40625 L 52.742188 49.65625 C 53.449219 48.621094 54.007812 47.613281 54.605469 46.292969 C 55.109375 45.183594 55.117188 45.167969 55.445312 45.070312 C 56.570312 44.734375 57.152344 43.671875 56.828125 42.570312 C 56.707031 42.171875 56.265625 41.644531 55.875 41.441406 L 55.574219 41.289062 L 55.648438 40.648438 C 55.75 39.761719 55.664062 38 55.457031 36.789062 C 55.324219 36.003906 55.308594 35.765625 55.386719 35.738281 C 55.628906 35.660156 56.152344 35.082031 56.328125 34.703125 C 56.660156 33.988281 56.53125 33.261719 55.957031 32.601562 C 55.59375 32.183594 55.109375 31.972656 54.527344 31.96875 L 54.046875 31.964844 L 53.5625 31.144531 C 53.296875 30.695312 52.855469 30.039062 52.578125 29.6875 L 52.078125 29.046875 L 52.25 28.699219 C 52.484375 28.21875 52.484375 27.40625 52.25 26.953125 C 51.867188 26.210938 51.3125 25.894531 50.398438 25.890625 C 49.824219 25.890625 49.707031 25.914062 49.410156 26.113281 C 49.226562 26.238281 49.042969 26.339844 49.007812 26.339844 C 48.972656 26.339844 48.578125 26.097656 48.132812 25.800781 C 47.691406 25.507812 46.882812 25.046875 46.339844 24.777344 C 45.453125 24.339844 45.347656 24.265625 45.347656 24.078125 C 45.347656 23.085938 44.378906 22.175781 43.324219 22.175781 C 42.546875 22.175781 41.886719 22.589844 41.554688 23.277344 L 41.402344 23.59375 L 39.957031 23.613281 C 38.691406 23.625 37.425781 23.757812 36.804688 23.933594 C 36.667969 23.972656 36.589844 23.902344 36.390625 23.578125 C 36.078125 23.070312 35.566406 22.753906 34.960938 22.6875 C 34.367188 22.628906 34.03125 22.703125 33.597656 22.992188 C 32.921875 23.445312 32.625 24.316406 32.824219 25.277344 L 32.882812 25.5625 L 32.1875 26.011719 C 31.804688 26.257812 31.449219 26.492188 31.390625 26.535156 C 31.324219 26.582031 31.195312 26.539062 31.011719 26.394531 C 30.105469 25.699219 29.011719 25.683594 28.28125 26.363281 C 27.773438 26.832031 27.570312 27.808594 27.824219 28.542969 C 27.960938 28.929688 27.976562 28.890625 27.441406 29.582031 C 26.839844 30.355469 25.835938 32.027344 25.394531 32.980469 C 25 33.832031 24.992188 33.839844 24.671875 33.894531 C 23.0625 34.164062 22.441406 36.175781 23.625 37.273438 C 23.820312 37.457031 24.070312 37.648438 24.179688 37.699219 C 24.347656 37.777344 24.371094 37.824219 24.324219 38.042969 C 24.25 38.378906 24.25 40.835938 24.324219 41.175781 C 24.382812 41.429688 24.367188 41.449219 23.976562 41.648438 C 23.050781 42.121094 22.683594 43.328125 23.175781 44.296875 C 23.449219 44.84375 24.160156 45.359375 24.625 45.359375 C 24.75 45.359375 24.902344 45.59375 25.3125 46.398438 C 25.953125 47.667969 26.558594 48.65625 27.347656 49.703125 L 27.949219 50.5 L 27.828125 51.007812 C 27.652344 51.777344 27.828125 52.410156 28.367188 52.921875 C 28.886719 53.417969 29.503906 53.585938 30.222656 53.429688 C 30.542969 53.359375 30.738281 53.25 31.035156 52.972656 L 31.421875 52.609375 L 32.132812 53.121094 C 32.523438 53.40625 32.855469 53.644531 32.871094 53.652344 C 32.882812 53.660156 32.855469 53.824219 32.804688 54.015625 C 32.667969 54.511719 32.773438 55.089844 33.074219 55.539062 C 33.597656 56.316406 34.386719 56.617188 35.261719 56.371094 Z M 38.226562 54.578125 C 37.351562 54.453125 36.84375 54.3125 36.777344 54.183594 C 36.738281 54.109375 36.683594 53.933594 36.652344 53.796875 C 36.59375 53.507812 36.734375 53.3125 38.339844 51.503906 L 39.140625 50.601562 L 39.535156 50.8125 C 40.066406 51.089844 40.738281 51.09375 41.300781 50.828125 L 41.707031 50.636719 L 41.890625 50.796875 C 42.257812 51.128906 44.019531 52.734375 44.191406 52.902344 L 44.375 53.074219 L 44.105469 53.601562 L 43.835938 54.132812 L 43.09375 54.3125 C 42.6875 54.410156 42.035156 54.527344 41.644531 54.578125 C 40.84375 54.675781 38.898438 54.675781 38.226562 54.578125 Z M 32.699219 52.476562 L 32.066406 52.011719 L 32.066406 41.726562 C 32.066406 36.070312 32.070312 30.464844 32.074219 29.273438 L 32.074219 27.109375 L 32.726562 26.679688 C 33.085938 26.449219 33.414062 26.257812 33.453125 26.257812 C 33.496094 26.257812 33.648438 26.328125 33.792969 26.417969 C 33.9375 26.507812 34.117188 26.582031 34.191406 26.582031 C 34.296875 26.582031 34.339844 26.746094 34.414062 27.542969 C 34.464844 28.070312 34.542969 28.761719 34.585938 29.078125 C 34.625 29.398438 34.683594 30 34.714844 30.425781 L 34.765625 31.195312 L 34.46875 31.304688 C 32.847656 31.894531 32.832031 34.285156 34.449219 34.957031 L 34.824219 35.113281 L 34.824219 43.878906 L 34.550781 43.96875 C 33.449219 44.335938 32.878906 45.679688 33.375 46.71875 C 33.574219 47.128906 34.085938 47.601562 34.472656 47.730469 C 34.800781 47.839844 34.796875 47.675781 34.582031 50.128906 C 34.382812 52.40625 34.363281 52.542969 34.230469 52.542969 C 34.171875 52.542969 33.953125 52.632812 33.742188 52.746094 C 33.53125 52.855469 33.355469 52.949219 33.34375 52.949219 C 33.335938 52.945312 33.046875 52.738281 32.699219 52.476562 Z M 35.578125 52.679688 C 35.394531 52.582031 35.238281 52.445312 35.238281 52.378906 C 35.230469 52.195312 35.632812 47.863281 35.65625 47.847656 C 35.667969 47.839844 35.804688 47.785156 35.953125 47.722656 C 36.109375 47.660156 36.355469 47.503906 36.5 47.375 L 36.765625 47.140625 L 37.03125 47.328125 C 37.175781 47.429688 37.558594 47.714844 37.882812 47.957031 L 38.472656 48.402344 L 38.425781 48.777344 C 38.394531 49.011719 38.425781 49.304688 38.5 49.546875 L 38.613281 49.933594 L 38.117188 50.484375 C 37.84375 50.785156 37.261719 51.445312 36.824219 51.949219 C 36.382812 52.453125 36.003906 52.863281 35.972656 52.863281 C 35.945312 52.855469 35.765625 52.773438 35.578125 52.675781 Z M 46.730469 52.613281 C 46.265625 52.363281 45.941406 52.328125 45.367188 52.460938 L 45.015625 52.542969 L 44.394531 51.941406 C 44.050781 51.613281 43.414062 51.019531 42.980469 50.625 C 42.335938 50.042969 42.207031 49.886719 42.269531 49.773438 C 42.3125 49.695312 42.371094 49.449219 42.398438 49.226562 C 42.621094 47.53125 40.707031 46.390625 39.273438 47.363281 L 38.859375 47.644531 L 38.398438 47.289062 C 38.148438 47.097656 37.769531 46.820312 37.558594 46.675781 L 37.171875 46.410156 L 37.171875 45.863281 C 37.171875 45.40625 37.132812 45.246094 36.925781 44.882812 C 36.691406 44.472656 36.085938 43.96875 35.820312 43.96875 C 35.710938 43.96875 35.710938 43.9375 35.695312 37.894531 L 35.691406 35.125 L 35.945312 35.035156 C 36.347656 34.902344 36.710938 34.5625 36.964844 34.085938 C 37.15625 33.734375 37.203125 33.550781 37.199219 33.15625 L 37.195312 32.660156 L 37.691406 32.324219 C 37.960938 32.136719 38.425781 31.8125 38.722656 31.605469 L 39.257812 31.21875 L 39.570312 31.429688 C 40.230469 31.867188 41.128906 31.871094 41.777344 31.4375 C 42.257812 31.117188 42.675781 30.4375 42.675781 29.980469 C 42.675781 29.8125 42.796875 29.761719 44.074219 29.402344 C 44.839844 29.1875 46.101562 28.832031 46.875 28.609375 C 47.648438 28.390625 48.296875 28.222656 48.316406 28.242188 C 48.347656 28.273438 46.851562 29.691406 44.417969 31.929688 C 43.929688 32.378906 43.078125 33.171875 42.515625 33.691406 C 41.960938 34.210938 40.773438 35.3125 39.882812 36.136719 C 37.335938 38.5 35.839844 39.914062 35.8125 39.984375 C 35.78125 40.066406 35.773438 40.0625 37.011719 41.152344 C 37.566406 41.644531 38.425781 42.417969 38.914062 42.871094 C 39.773438 43.667969 40.996094 44.769531 46.097656 49.34375 C 48.960938 51.910156 48.871094 51.761719 47.898438 52.445312 C 47.566406 52.675781 47.265625 52.863281 47.230469 52.855469 C 47.195312 52.851562 46.972656 52.742188 46.730469 52.613281 Z M 28.078125 49.25 C 27.410156 48.339844 26.804688 47.378906 26.203125 46.261719 C 25.683594 45.304688 25.660156 45.242188 25.808594 45.160156 C 26.011719 45.046875 26.667969 44.382812 26.777344 44.179688 C 26.863281 44.027344 26.886719 44.027344 27.972656 44.21875 L 29.082031 44.414062 L 29.082031 49.597656 L 28.84375 49.722656 C 28.710938 49.792969 28.582031 49.847656 28.558594 49.847656 C 28.535156 49.847656 28.316406 49.578125 28.078125 49.25 Z M 51.171875 49.625 C 50.976562 49.554688 50.769531 49.480469 50.71875 49.449219 C 50.644531 49.410156 46.460938 45.667969 45.226562 44.535156 C 45.046875 44.371094 43.882812 43.328125 42.636719 42.214844 C 41.390625 41.105469 40.324219 40.152344 40.269531 40.097656 C 40.160156 40 41.335938 38.847656 45.109375 35.359375 C 45.886719 34.640625 46.832031 33.757812 47.210938 33.398438 C 49.085938 31.605469 51.066406 29.804688 51.316406 29.65625 C 51.378906 29.617188 51.5 29.6875 51.625 29.824219 C 51.882812 30.113281 53.28125 32.210938 53.28125 32.3125 C 53.28125 32.351562 53.1875 32.480469 53.078125 32.589844 C 52.5 33.171875 52.34375 34.109375 52.699219 34.84375 L 52.886719 35.230469 L 50.789062 39.03125 L 50.265625 39.003906 C 49.378906 38.960938 48.609375 39.421875 48.292969 40.1875 C 48.226562 40.34375 48.117188 40.460938 48.042969 40.460938 C 47.96875 40.460938 46.902344 40.296875 45.675781 40.097656 C 42.898438 39.644531 42.394531 39.585938 42.234375 39.726562 C 42.066406 39.867188 42.074219 40.273438 42.253906 40.367188 C 42.378906 40.4375 45.589844 40.976562 47.171875 41.195312 C 48.144531 41.324219 48.125 41.320312 48.28125 41.707031 C 48.441406 42.101562 48.890625 42.605469 49.265625 42.8125 C 49.4375 42.902344 49.710938 42.949219 50.121094 42.949219 C 50.8125 42.949219 51.109375 42.824219 51.601562 42.355469 L 51.902344 42.058594 L 52.429688 42.34375 L 52.957031 42.625 L 52.910156 42.957031 C 52.808594 43.648438 53.210938 44.480469 53.824219 44.84375 C 54.261719 45.101562 54.265625 45.085938 53.5625 46.539062 C 52.921875 47.859375 51.738281 49.785156 51.578125 49.753906 C 51.558594 49.75 51.375 49.691406 51.171875 49.625 Z M 27.988281 43.355469 C 27.5 43.253906 27.070312 43.164062 27.039062 43.164062 C 27.003906 43.15625 26.976562 43.117188 26.976562 43.070312 C 26.976562 42.984375 28.878906 42.011719 29.039062 42.011719 C 29.089844 42.011719 29.109375 42.304688 29.09375 42.785156 C 29.078125 43.320312 29.039062 43.558594 28.972656 43.550781 C 28.921875 43.546875 28.476562 43.457031 27.988281 43.355469 Z M 26.289062 41.929688 C 26.160156 41.796875 25.871094 41.617188 25.648438 41.53125 C 25.328125 41.410156 25.230469 41.328125 25.179688 41.144531 C 25.09375 40.84375 25.074219 38.648438 25.148438 38.203125 C 25.203125 37.898438 25.238281 37.859375 25.476562 37.8125 C 25.625 37.785156 25.882812 37.667969 26.050781 37.554688 L 26.355469 37.347656 L 26.726562 37.558594 C 26.929688 37.675781 27.542969 38 28.089844 38.277344 L 29.085938 38.785156 L 29.039062 41.035156 L 27.835938 41.605469 C 27.171875 41.917969 26.605469 42.175781 26.578125 42.175781 C 26.546875 42.175781 26.414062 42.066406 26.289062 41.929688 Z M 52.691406 41.53125 C 52.148438 41.238281 52.144531 41.234375 52.144531 40.886719 C 52.144531 40.523438 51.921875 39.976562 51.644531 39.671875 L 51.488281 39.496094 L 52.320312 38 C 52.777344 37.175781 53.242188 36.324219 53.355469 36.113281 C 53.503906 35.839844 53.597656 35.742188 53.683594 35.777344 C 53.75 35.804688 53.941406 35.855469 54.113281 35.890625 C 54.28125 35.921875 54.433594 35.964844 54.445312 35.980469 C 54.460938 35.996094 54.535156 36.359375 54.613281 36.789062 C 54.769531 37.683594 54.863281 39.855469 54.78125 40.640625 L 54.722656 41.175781 L 54.417969 41.226562 C 54.246094 41.253906 53.925781 41.40625 53.695312 41.5625 C 53.46875 41.722656 53.273438 41.84375 53.261719 41.835938 C 53.25 41.832031 52.992188 41.695312 52.691406 41.53125 Z M 27.949219 37.234375 C 27.347656 36.917969 26.863281 36.625 26.875 36.582031 C 26.882812 36.539062 26.914062 36.34375 26.941406 36.152344 C 26.984375 35.890625 27.035156 35.796875 27.167969 35.765625 C 27.265625 35.742188 27.71875 35.632812 28.1875 35.523438 C 28.648438 35.410156 29.042969 35.332031 29.058594 35.347656 C 29.074219 35.363281 29.074219 35.921875 29.0625 36.589844 L 29.039062 37.808594 Z M 26.484375 34.578125 C 26.289062 34.367188 26.0625 34.160156 25.984375 34.121094 C 25.847656 34.050781 25.855469 34.007812 26.082031 33.503906 C 26.453125 32.675781 27.171875 31.457031 27.882812 30.441406 C 28.234375 29.933594 28.542969 29.523438 28.566406 29.523438 C 28.585938 29.523438 28.710938 29.578125 28.84375 29.644531 L 29.082031 29.769531 L 29.082031 34.414062 L 28.898438 34.457031 C 28.796875 34.480469 28.292969 34.605469 27.78125 34.726562 L 26.84375 34.957031 Z M 36.648438 31.726562 C 36.566406 31.636719 36.308594 31.464844 36.070312 31.351562 C 35.566406 31.101562 35.632812 31.355469 35.394531 28.789062 C 35.300781 27.777344 35.210938 26.886719 35.195312 26.804688 C 35.171875 26.699219 35.277344 26.605469 35.558594 26.460938 L 35.949219 26.261719 L 37.449219 27.480469 L 38.945312 28.707031 L 38.828125 28.996094 C 38.695312 29.3125 38.660156 29.835938 38.746094 30.230469 C 38.800781 30.476562 38.773438 30.503906 38.089844 30.996094 C 37.699219 31.28125 37.273438 31.597656 37.148438 31.699219 C 36.867188 31.929688 36.835938 31.933594 36.648438 31.726562 Z M 42.277344 28.480469 L 41.925781 28.023438 L 42.878906 26.195312 L 43.457031 26.15625 C 44.246094 26.105469 44.757812 25.796875 45.144531 25.136719 C 45.152344 25.125 45.582031 25.335938 46.101562 25.601562 C 47.160156 26.144531 48.382812 26.929688 48.449219 27.109375 C 48.507812 27.257812 48.261719 27.335938 43.648438 28.628906 C 43.136719 28.773438 42.699219 28.902344 42.675781 28.914062 C 42.648438 28.929688 42.472656 28.730469 42.277344 28.480469 Z M 38.976562 27.648438 C 38.511719 27.277344 36.84375 25.90625 36.578125 25.675781 C 36.445312 25.5625 36.710938 24.855469 36.914062 24.777344 C 37.285156 24.636719 39.09375 24.460938 40.1875 24.460938 L 41.308594 24.460938 L 41.457031 24.816406 C 41.542969 25.011719 41.726562 25.308594 41.875 25.476562 L 42.136719 25.777344 L 41.644531 26.730469 L 41.148438 27.6875 L 40.648438 27.742188 C 40.375 27.773438 40.011719 27.867188 39.847656 27.949219 L 39.542969 28.101562 Z M 38.976562 27.648438 " fill-opacity="1" fill-rule="nonzero"/></g><g clip-path="url(#7bd3b87839)"><path fill="#ffffff" d="M 65.746094 38.882812 C 65.746094 39.703125 65.707031 40.519531 65.628906 41.335938 C 65.546875 42.152344 65.425781 42.964844 65.265625 43.769531 C 65.105469 44.574219 64.90625 45.367188 64.667969 46.152344 C 64.429688 46.9375 64.15625 47.710938 63.839844 48.46875 C 63.527344 49.226562 63.175781 49.96875 62.789062 50.691406 C 62.402344 51.414062 61.980469 52.117188 61.527344 52.800781 C 61.070312 53.484375 60.582031 54.140625 60.0625 54.773438 C 59.539062 55.410156 58.988281 56.015625 58.410156 56.597656 C 57.828125 57.175781 57.222656 57.726562 56.589844 58.246094 C 55.953125 58.769531 55.296875 59.257812 54.613281 59.710938 C 53.929688 60.167969 53.226562 60.589844 52.503906 60.976562 C 51.78125 61.363281 51.039062 61.714844 50.28125 62.027344 C 49.523438 62.34375 48.753906 62.617188 47.96875 62.855469 C 47.183594 63.09375 46.386719 63.292969 45.582031 63.453125 C 44.777344 63.613281 43.964844 63.734375 43.148438 63.8125 C 42.332031 63.894531 41.515625 63.933594 40.695312 63.933594 C 39.875 63.933594 39.054688 63.894531 38.238281 63.8125 C 37.421875 63.734375 36.613281 63.613281 35.808594 63.453125 C 35 63.292969 34.207031 63.09375 33.421875 62.855469 C 32.636719 62.617188 31.863281 62.34375 31.105469 62.027344 C 30.347656 61.714844 29.609375 61.363281 28.882812 60.976562 C 28.160156 60.589844 27.457031 60.167969 26.773438 59.710938 C 26.09375 59.257812 25.433594 58.769531 24.800781 58.246094 C 24.167969 57.726562 23.558594 57.175781 22.980469 56.597656 C 22.398438 56.015625 21.847656 55.410156 21.328125 54.773438 C 20.808594 54.140625 20.320312 53.484375 19.863281 52.800781 C 19.40625 52.117188 18.984375 51.414062 18.597656 50.691406 C 18.210938 49.96875 17.863281 49.226562 17.546875 48.46875 C 17.234375 47.710938 16.957031 46.9375 16.71875 46.152344 C 16.480469 45.367188 16.28125 44.574219 16.121094 43.769531 C 15.960938 42.964844 15.84375 42.152344 15.761719 41.335938 C 15.679688 40.519531 15.640625 39.703125 15.640625 38.882812 C 15.640625 38.0625 15.679688 37.242188 15.761719 36.425781 C 15.84375 35.609375 15.960938 34.796875 16.121094 33.992188 C 16.28125 33.1875 16.480469 32.394531 16.71875 31.609375 C 16.957031 30.824219 17.234375 30.050781 17.546875 29.292969 C 17.863281 28.535156 18.210938 27.792969 18.597656 27.070312 C 18.984375 26.347656 19.40625 25.644531 19.863281 24.960938 C 20.320312 24.28125 20.808594 23.621094 21.328125 22.988281 C 21.847656 22.351562 22.398438 21.746094 22.980469 21.164062 C 23.558594 20.585938 24.167969 20.035156 24.800781 19.515625 C 25.433594 18.992188 26.09375 18.503906 26.773438 18.050781 C 27.457031 17.59375 28.160156 17.171875 28.882812 16.785156 C 29.609375 16.398438 30.347656 16.046875 31.105469 15.734375 C 31.863281 15.421875 32.636719 15.144531 33.421875 14.90625 C 34.207031 14.667969 35 14.46875 35.808594 14.308594 C 36.613281 14.148438 37.421875 14.027344 38.238281 13.949219 C 39.054688 13.867188 39.875 13.828125 40.695312 13.828125 C 41.515625 13.828125 42.332031 13.867188 43.148438 13.949219 C 43.964844 14.027344 44.777344 14.148438 45.582031 14.308594 C 46.386719 14.46875 47.183594 14.667969 47.96875 14.90625 C 48.753906 15.144531 49.523438 15.421875 50.28125 15.734375 C 51.039062 16.046875 51.78125 16.398438 52.503906 16.785156 C 53.226562 17.171875 53.929688 17.59375 54.613281 18.050781 C 55.296875 18.503906 55.953125 18.992188 56.589844 19.515625 C 57.222656 20.035156 57.828125 20.585938 58.410156 21.164062 C 58.988281 21.746094 59.539062 22.351562 60.0625 22.988281 C 60.582031 23.621094 61.070312 24.28125 61.527344 24.960938 C 61.980469 25.644531 62.402344 26.347656 62.789062 27.070312 C 63.175781 27.792969 63.527344 28.535156 63.839844 29.292969 C 64.15625 30.050781 64.429688 30.824219 64.667969 31.609375 C 64.90625 32.394531 65.105469 33.1875 65.265625 33.992188 C 65.425781 34.796875 65.546875 35.609375 65.628906 36.425781 C 65.707031 37.242188 65.746094 38.0625 65.746094 38.882812 Z M 65.746094 38.882812 " fill-opacity="1" fill-rule="nonzero"/></g><g clip-path="url(#a5a7d869ee)"><path fill="#203a55" d="M 38.308594 60.824219 C 38.171875 60.804688 37.535156 60.710938 36.890625 60.617188 C 32.417969 59.976562 27.960938 57.730469 24.835938 54.546875 C 21.4375 51.085938 19.390625 46.894531 18.777344 42.15625 C 18.582031 40.65625 18.644531 37.582031 18.898438 36.171875 C 19.683594 31.800781 21.746094 27.808594 24.839844 24.675781 C 28.542969 20.933594 33.503906 18.65625 38.789062 18.273438 C 40.160156 18.171875 41.199219 18.21875 42.832031 18.445312 C 48.851562 19.289062 54.480469 22.863281 57.828125 27.964844 C 60.164062 31.519531 61.292969 35.316406 61.292969 39.605469 C 61.292969 46.621094 57.902344 53.160156 52.269531 57.003906 C 49.472656 58.917969 46.355469 60.148438 42.984375 60.671875 C 42.167969 60.796875 38.863281 60.90625 38.308594 60.824219 Z M 35.371094 56.433594 C 35.917969 56.28125 36.191406 56.054688 36.667969 55.347656 C 36.765625 55.203125 36.800781 55.203125 37.660156 55.375 C 38.777344 55.59375 40.5 55.671875 41.523438 55.546875 C 42.273438 55.453125 43.746094 55.175781 43.992188 55.082031 C 44.074219 55.046875 44.164062 55.132812 44.277344 55.347656 C 44.644531 56.066406 45.269531 56.441406 46.09375 56.441406 C 47.4375 56.433594 48.246094 55.375 48.003906 53.9375 L 47.945312 53.609375 L 48.589844 53.183594 C 49.234375 52.757812 49.234375 52.757812 49.386719 52.925781 C 49.800781 53.386719 50.816406 53.617188 51.386719 53.378906 C 52.195312 53.035156 52.667969 52.34375 52.667969 51.5 C 52.667969 51.234375 52.613281 50.886719 52.546875 50.726562 L 52.425781 50.4375 L 52.941406 49.683594 C 53.652344 48.640625 54.214844 47.628906 54.816406 46.304688 C 55.320312 45.1875 55.332031 45.171875 55.660156 45.074219 C 56.785156 44.738281 57.378906 43.667969 57.046875 42.5625 C 56.929688 42.15625 56.480469 41.628906 56.089844 41.425781 L 55.789062 41.273438 L 55.863281 40.628906 C 55.964844 39.738281 55.878906 37.964844 55.671875 36.75 C 55.539062 35.960938 55.523438 35.71875 55.601562 35.691406 C 55.84375 35.609375 56.371094 35.03125 56.542969 34.652344 C 56.878906 33.929688 56.75 33.203125 56.171875 32.539062 C 55.808594 32.121094 55.324219 31.90625 54.738281 31.902344 L 54.253906 31.898438 L 53.765625 31.074219 C 53.5 30.621094 53.054688 29.960938 52.777344 29.609375 L 52.273438 28.964844 L 52.445312 28.613281 C 52.683594 28.132812 52.683594 27.316406 52.445312 26.859375 C 52.0625 26.117188 51.503906 25.796875 50.585938 25.792969 C 50.007812 25.792969 49.890625 25.816406 49.59375 26.015625 C 49.40625 26.140625 49.222656 26.242188 49.1875 26.242188 C 49.152344 26.242188 48.757812 26 48.3125 25.703125 C 47.867188 25.40625 47.054688 24.945312 46.503906 24.671875 C 45.613281 24.234375 45.507812 24.160156 45.507812 23.96875 C 45.507812 22.972656 44.535156 22.058594 43.472656 22.058594 C 42.691406 22.058594 42.027344 22.472656 41.695312 23.164062 L 41.539062 23.484375 L 40.085938 23.5 C 38.816406 23.515625 37.542969 23.648438 36.917969 23.824219 C 36.785156 23.863281 36.703125 23.792969 36.5 23.464844 C 36.1875 22.957031 35.671875 22.636719 35.066406 22.574219 C 34.46875 22.511719 34.128906 22.585938 33.695312 22.878906 C 33.015625 23.332031 32.71875 24.210938 32.914062 25.175781 L 32.976562 25.460938 L 32.277344 25.914062 C 31.894531 26.164062 31.53125 26.398438 31.476562 26.441406 C 31.410156 26.488281 31.28125 26.441406 31.097656 26.300781 C 30.183594 25.597656 29.085938 25.585938 28.351562 26.269531 C 27.84375 26.738281 27.636719 27.722656 27.894531 28.457031 C 28.03125 28.847656 28.042969 28.808594 27.507812 29.5 C 26.902344 30.277344 25.890625 31.957031 25.449219 32.921875 C 25.054688 33.773438 25.046875 33.785156 24.722656 33.839844 C 23.105469 34.109375 22.480469 36.128906 23.667969 37.234375 C 23.867188 37.417969 24.117188 37.613281 24.226562 37.660156 C 24.398438 37.742188 24.417969 37.789062 24.371094 38.007812 C 24.296875 38.347656 24.296875 40.816406 24.371094 41.15625 C 24.429688 41.414062 24.417969 41.429688 24.027344 41.628906 C 23.09375 42.109375 22.722656 43.324219 23.21875 44.296875 C 23.496094 44.84375 24.207031 45.363281 24.675781 45.363281 C 24.800781 45.363281 24.953125 45.597656 25.363281 46.410156 C 26.007812 47.683594 26.621094 48.675781 27.414062 49.730469 L 28.015625 50.53125 L 27.894531 51.042969 C 27.714844 51.816406 27.894531 52.449219 28.4375 52.964844 C 28.960938 53.464844 29.578125 53.632812 30.304688 53.476562 C 30.625 53.40625 30.824219 53.296875 31.117188 53.019531 L 31.507812 52.652344 L 32.222656 53.167969 C 32.617188 53.453125 32.949219 53.691406 32.964844 53.699219 C 32.976562 53.710938 32.949219 53.875 32.898438 54.0625 C 32.761719 54.566406 32.867188 55.144531 33.167969 55.597656 C 33.695312 56.378906 34.492188 56.679688 35.371094 56.433594 Z M 38.347656 54.632812 C 37.46875 54.503906 36.957031 54.363281 36.890625 54.234375 C 36.851562 54.160156 36.796875 53.988281 36.765625 53.84375 C 36.707031 53.558594 36.851562 53.359375 38.460938 51.542969 L 39.265625 50.636719 L 39.664062 50.84375 C 40.199219 51.125 40.871094 51.128906 41.441406 50.859375 L 41.847656 50.667969 L 42.03125 50.832031 C 42.402344 51.164062 44.171875 52.78125 44.347656 52.945312 L 44.527344 53.117188 L 44.257812 53.652344 L 43.988281 54.183594 L 43.246094 54.363281 C 42.835938 54.460938 42.179688 54.582031 41.785156 54.628906 C 40.980469 54.730469 39.023438 54.730469 38.347656 54.632812 Z M 32.792969 52.519531 L 32.15625 52.050781 L 32.15625 41.710938 C 32.15625 36.023438 32.160156 30.390625 32.160156 29.191406 L 32.164062 27.015625 L 32.820312 26.585938 C 33.179688 26.351562 33.507812 26.160156 33.550781 26.160156 C 33.59375 26.160156 33.746094 26.234375 33.890625 26.324219 C 34.039062 26.414062 34.21875 26.488281 34.292969 26.488281 C 34.402344 26.488281 34.441406 26.65625 34.515625 27.453125 C 34.570312 27.984375 34.644531 28.679688 34.6875 28.996094 C 34.730469 29.316406 34.789062 29.925781 34.816406 30.351562 L 34.871094 31.125 L 34.570312 31.234375 C 32.9375 31.828125 32.925781 34.234375 34.550781 34.90625 L 34.929688 35.0625 L 34.929688 43.875 L 34.652344 43.964844 C 33.546875 44.332031 32.972656 45.683594 33.472656 46.730469 C 33.671875 47.144531 34.1875 47.617188 34.578125 47.746094 C 34.90625 47.855469 34.898438 47.695312 34.683594 50.160156 C 34.484375 52.449219 34.464844 52.585938 34.328125 52.585938 C 34.269531 52.585938 34.050781 52.675781 33.839844 52.789062 C 33.628906 52.902344 33.449219 52.992188 33.441406 52.992188 C 33.433594 52.992188 33.140625 52.78125 32.792969 52.519531 Z M 35.6875 52.722656 C 35.5 52.625 35.34375 52.488281 35.34375 52.421875 C 35.335938 52.238281 35.742188 47.882812 35.765625 47.867188 C 35.777344 47.859375 35.910156 47.800781 36.066406 47.742188 C 36.21875 47.679688 36.464844 47.519531 36.613281 47.390625 L 36.878906 47.15625 L 37.148438 47.34375 C 37.292969 47.445312 37.679688 47.730469 38.003906 47.976562 L 38.59375 48.421875 L 38.546875 48.800781 C 38.519531 49.035156 38.546875 49.328125 38.621094 49.570312 L 38.742188 49.960938 L 38.238281 50.515625 C 37.964844 50.816406 37.378906 51.480469 36.9375 51.988281 C 36.496094 52.496094 36.113281 52.910156 36.082031 52.90625 C 36.054688 52.902344 35.875 52.820312 35.6875 52.722656 Z M 46.898438 52.65625 C 46.429688 52.40625 46.105469 52.371094 45.523438 52.503906 L 45.175781 52.585938 L 44.546875 51.980469 C 44.203125 51.648438 43.566406 51.054688 43.128906 50.660156 C 42.480469 50.074219 42.351562 49.917969 42.414062 49.800781 C 42.453125 49.722656 42.511719 49.476562 42.542969 49.253906 C 42.765625 47.546875 40.839844 46.398438 39.398438 47.378906 L 38.984375 47.660156 L 38.523438 47.304688 C 38.269531 47.109375 37.890625 46.832031 37.675781 46.6875 L 37.289062 46.421875 L 37.289062 45.871094 C 37.289062 45.410156 37.25 45.253906 37.042969 44.886719 C 36.804688 44.46875 36.199219 43.96875 35.933594 43.96875 C 35.820312 43.96875 35.820312 43.9375 35.804688 37.859375 L 35.796875 35.074219 L 36.058594 34.988281 C 36.460938 34.847656 36.824219 34.511719 37.082031 34.03125 C 37.273438 33.675781 37.320312 33.492188 37.316406 33.09375 L 37.3125 32.597656 L 37.808594 32.257812 C 38.082031 32.070312 38.550781 31.746094 38.847656 31.535156 L 39.386719 31.152344 L 39.703125 31.359375 C 40.363281 31.800781 41.269531 31.800781 41.917969 31.367188 C 42.402344 31.046875 42.824219 30.363281 42.824219 29.902344 C 42.824219 29.734375 42.941406 29.6875 44.226562 29.324219 C 45 29.105469 46.265625 28.746094 47.042969 28.527344 C 47.824219 28.304688 48.472656 28.136719 48.488281 28.15625 C 48.523438 28.1875 47.019531 29.613281 44.574219 31.863281 C 44.082031 32.316406 43.222656 33.113281 42.664062 33.632812 C 42.101562 34.15625 40.910156 35.261719 40.015625 36.09375 C 37.453125 38.46875 35.949219 39.886719 35.921875 39.960938 C 35.886719 40.042969 35.882812 40.039062 37.128906 41.136719 C 37.6875 41.628906 38.546875 42.40625 39.039062 42.863281 C 39.90625 43.664062 41.132812 44.769531 46.261719 49.371094 C 49.140625 51.949219 49.050781 51.800781 48.070312 52.484375 C 47.738281 52.71875 47.433594 52.90625 47.402344 52.902344 C 47.367188 52.894531 47.140625 52.785156 46.898438 52.65625 Z M 28.148438 49.277344 C 27.472656 48.359375 26.867188 47.394531 26.257812 46.269531 C 25.738281 45.308594 25.714844 45.246094 25.863281 45.164062 C 26.070312 45.050781 26.730469 44.382812 26.839844 44.179688 C 26.925781 44.023438 26.945312 44.023438 28.042969 44.21875 L 29.15625 44.414062 L 29.15625 49.625 L 28.914062 49.75 C 28.78125 49.820312 28.65625 49.875 28.628906 49.875 C 28.605469 49.875 28.386719 49.605469 28.148438 49.277344 Z M 51.367188 49.652344 C 51.164062 49.582031 50.957031 49.503906 50.90625 49.476562 C 50.832031 49.433594 46.628906 45.671875 45.386719 44.535156 C 45.207031 44.371094 44.035156 43.324219 42.78125 42.207031 C 41.53125 41.089844 40.457031 40.128906 40.398438 40.074219 C 40.292969 39.972656 41.472656 38.820312 45.269531 35.3125 C 46.050781 34.589844 47 33.703125 47.378906 33.339844 C 49.265625 31.539062 51.253906 29.726562 51.507812 29.574219 C 51.570312 29.539062 51.691406 29.605469 51.816406 29.746094 C 52.078125 30.039062 53.480469 32.144531 53.480469 32.246094 C 53.480469 32.289062 53.390625 32.414062 53.277344 32.527344 C 52.699219 33.113281 52.539062 34.054688 52.898438 34.796875 L 53.085938 35.183594 L 52.03125 37.09375 L 50.980469 39.003906 L 50.449219 38.976562 C 49.5625 38.929688 48.785156 39.394531 48.464844 40.167969 C 48.402344 40.324219 48.292969 40.4375 48.214844 40.4375 C 48.140625 40.4375 47.070312 40.273438 45.835938 40.074219 C 43.046875 39.617188 42.539062 39.5625 42.378906 39.699219 C 42.207031 39.839844 42.21875 40.25 42.394531 40.347656 C 42.527344 40.414062 45.75 40.957031 47.339844 41.175781 C 48.316406 41.308594 48.300781 41.300781 48.457031 41.691406 C 48.621094 42.089844 49.070312 42.597656 49.449219 42.800781 C 49.617188 42.894531 49.894531 42.9375 50.308594 42.9375 C 51 42.9375 51.300781 42.816406 51.792969 42.34375 L 52.097656 42.046875 L 52.628906 42.332031 L 53.15625 42.613281 L 53.109375 42.949219 C 53.007812 43.644531 53.414062 44.480469 54.03125 44.84375 C 54.46875 45.105469 54.472656 45.089844 53.765625 46.550781 C 53.125 47.878906 51.929688 49.808594 51.773438 49.78125 C 51.75 49.777344 51.566406 49.71875 51.367188 49.652344 Z M 28.054688 43.351562 C 27.5625 43.246094 27.132812 43.160156 27.101562 43.15625 C 27.066406 43.152344 27.039062 43.109375 27.039062 43.0625 C 27.039062 42.976562 28.949219 42 29.113281 42 C 29.164062 42 29.1875 42.296875 29.167969 42.777344 C 29.152344 43.316406 29.113281 43.554688 29.046875 43.546875 C 28.996094 43.542969 28.546875 43.453125 28.054688 43.351562 Z M 26.347656 41.917969 C 26.21875 41.78125 25.929688 41.601562 25.707031 41.515625 C 25.382812 41.394531 25.28125 41.3125 25.230469 41.125 C 25.148438 40.824219 25.125 38.617188 25.203125 38.171875 C 25.253906 37.867188 25.289062 37.824219 25.53125 37.777344 C 25.679688 37.75 25.941406 37.632812 26.109375 37.515625 L 26.414062 37.308594 L 26.789062 37.523438 C 26.992188 37.640625 27.609375 37.964844 28.160156 38.246094 L 29.160156 38.757812 L 29.113281 41.015625 L 27.902344 41.589844 C 27.238281 41.90625 26.667969 42.164062 26.636719 42.164062 C 26.605469 42.164062 26.476562 42.050781 26.347656 41.917969 Z M 52.890625 41.515625 C 52.34375 41.21875 52.34375 41.21875 52.34375 40.867188 C 52.34375 40.5 52.117188 39.953125 51.839844 39.648438 L 51.679688 39.472656 L 52.515625 37.964844 C 52.976562 37.136719 53.445312 36.285156 53.558594 36.070312 C 53.707031 35.792969 53.800781 35.695312 53.886719 35.730469 C 53.957031 35.757812 54.148438 35.808594 54.320312 35.84375 C 54.488281 35.878906 54.640625 35.917969 54.65625 35.9375 C 54.671875 35.953125 54.746094 36.316406 54.820312 36.746094 C 54.980469 37.644531 55.074219 39.832031 54.992188 40.621094 L 54.933594 41.160156 L 54.625 41.207031 C 54.453125 41.234375 54.128906 41.386719 53.898438 41.546875 C 53.671875 41.703125 53.476562 41.828125 53.464844 41.824219 C 53.449219 41.816406 53.195312 41.679688 52.890625 41.515625 Z M 28.015625 37.195312 C 27.410156 36.878906 26.925781 36.585938 26.9375 36.539062 C 26.945312 36.496094 26.976562 36.300781 27.007812 36.109375 C 27.046875 35.84375 27.097656 35.75 27.230469 35.71875 C 27.328125 35.699219 27.789062 35.585938 28.253906 35.476562 C 28.722656 35.363281 29.117188 35.285156 29.132812 35.300781 C 29.148438 35.316406 29.148438 35.878906 29.136719 36.550781 L 29.113281 37.773438 Z M 26.546875 34.523438 C 26.347656 34.3125 26.121094 34.109375 26.039062 34.066406 C 25.90625 33.992188 25.914062 33.953125 26.140625 33.445312 C 26.515625 32.613281 27.234375 31.386719 27.949219 30.367188 C 28.308594 29.859375 28.617188 29.441406 28.636719 29.441406 C 28.65625 29.441406 28.78125 29.5 28.914062 29.566406 L 29.15625 29.691406 L 29.15625 34.363281 L 28.972656 34.40625 C 28.871094 34.429688 28.363281 34.550781 27.847656 34.675781 L 26.90625 34.90625 Z M 36.761719 31.65625 C 36.679688 31.566406 36.417969 31.398438 36.179688 31.28125 C 35.675781 31.03125 35.742188 31.285156 35.5 28.703125 C 35.40625 27.6875 35.316406 26.792969 35.300781 26.710938 C 35.277344 26.605469 35.382812 26.507812 35.664062 26.363281 L 36.058594 26.164062 L 37.566406 27.390625 L 39.074219 28.621094 L 38.953125 28.914062 C 38.820312 29.234375 38.785156 29.757812 38.871094 30.15625 C 38.925781 30.398438 38.898438 30.429688 38.210938 30.925781 C 37.816406 31.210938 37.390625 31.527344 37.265625 31.632812 C 36.984375 31.863281 36.949219 31.867188 36.761719 31.65625 Z M 42.421875 28.394531 L 42.070312 27.933594 L 43.023438 26.097656 L 43.605469 26.058594 C 44.402344 26.007812 44.914062 25.699219 45.304688 25.035156 C 45.308594 25.023438 45.742188 25.234375 46.265625 25.503906 C 47.328125 26.046875 48.558594 26.835938 48.628906 27.015625 C 48.683594 27.167969 48.4375 27.246094 43.800781 28.546875 C 43.285156 28.691406 42.84375 28.820312 42.820312 28.832031 C 42.796875 28.847656 42.617188 28.648438 42.421875 28.394531 Z M 39.101562 27.558594 C 38.632812 27.1875 36.960938 25.808594 36.691406 25.578125 C 36.558594 25.464844 36.828125 24.753906 37.03125 24.675781 C 37.402344 24.53125 39.222656 24.355469 40.320312 24.355469 L 41.445312 24.355469 L 41.597656 24.710938 C 41.679688 24.910156 41.867188 25.207031 42.015625 25.375 L 42.28125 25.679688 L 41.785156 26.636719 L 41.285156 27.597656 L 40.785156 27.652344 C 40.507812 27.6875 40.144531 27.78125 39.976562 27.863281 L 39.671875 28.015625 Z M 39.101562 27.558594 " fill-opacity="1" fill-rule="nonzero"/></g><g fill="#38b6ff" fill-opacity="1"><g transform="translate(82.571016, 51.750925)"><g><path d="M 17.5 -18.5 C 17.757812 -18.5 17.898438 -18.398438 17.921875 -18.203125 C 17.953125 -18.015625 17.90625 -17.851562 17.78125 -17.71875 L 11.453125 -10.859375 L 17.5 -0.90625 C 17.601562 -0.71875 17.625 -0.519531 17.5625 -0.3125 C 17.5 -0.101562 17.335938 0 17.078125 0 L 13.640625 0 C 13.304688 0 13.035156 -0.0703125 12.828125 -0.21875 C 12.617188 -0.375 12.421875 -0.601562 12.234375 -0.90625 C 12.234375 -0.90625 12.097656 -1.132812 11.828125 -1.59375 C 11.554688 -2.050781 11.207031 -2.628906 10.78125 -3.328125 C 10.363281 -4.035156 9.925781 -4.769531 9.46875 -5.53125 C 9.007812 -6.300781 8.59375 -7.007812 8.21875 -7.65625 L 6.46875 -5.828125 L 6.46875 -0.8125 C 6.46875 -0.5 6.394531 -0.285156 6.25 -0.171875 C 6.113281 -0.0546875 5.925781 0 5.6875 0 L 2.890625 0 C 2.628906 0 2.425781 -0.0546875 2.28125 -0.171875 C 2.144531 -0.285156 2.078125 -0.5 2.078125 -0.8125 L 2.078125 -17.6875 C 2.078125 -18.007812 2.144531 -18.222656 2.28125 -18.328125 C 2.425781 -18.441406 2.628906 -18.5 2.890625 -18.5 L 5.6875 -18.5 C 5.925781 -18.5 6.113281 -18.441406 6.25 -18.328125 C 6.394531 -18.222656 6.46875 -18.007812 6.46875 -17.6875 L 6.46875 -11.421875 L 12.296875 -17.828125 C 12.578125 -18.148438 12.800781 -18.34375 12.96875 -18.40625 C 13.132812 -18.46875 13.378906 -18.5 13.703125 -18.5 Z M 17.5 -18.5 "/></g></g></g><g fill="#38b6ff" fill-opacity="1"><g transform="translate(100.53524, 51.750925)"><g><path d="M 18 -0.78125 C 18.070312 -0.613281 18.085938 -0.441406 18.046875 -0.265625 C 18.015625 -0.0859375 17.835938 0 17.515625 0 L 14.5625 0 C 14.269531 0 14.046875 -0.0546875 13.890625 -0.171875 C 13.742188 -0.285156 13.613281 -0.507812 13.5 -0.84375 L 12.71875 -3.0625 L 5.828125 -3.0625 L 5.03125 -0.84375 C 4.914062 -0.507812 4.785156 -0.285156 4.640625 -0.171875 C 4.503906 -0.0546875 4.28125 0 3.96875 0 L 1.015625 0 C 0.710938 0 0.535156 -0.0859375 0.484375 -0.265625 C 0.441406 -0.441406 0.457031 -0.613281 0.53125 -0.78125 L 6.78125 -17.640625 C 6.894531 -17.929688 7.039062 -18.144531 7.21875 -18.28125 C 7.394531 -18.425781 7.632812 -18.5 7.9375 -18.5 L 10.625 -18.5 C 10.945312 -18.5 11.1875 -18.425781 11.34375 -18.28125 C 11.507812 -18.144531 11.65625 -17.929688 11.78125 -17.640625 Z M 9.28125 -13.21875 L 7.171875 -7 L 11.390625 -7 Z M 9.28125 -13.21875 "/></g></g></g><g fill="#38b6ff" fill-opacity="1"><g transform="translate(118.527583, 51.750925)"><g><path d="M 17.234375 -0.90625 C 17.367188 -0.71875 17.398438 -0.519531 17.328125 -0.3125 C 17.253906 -0.101562 17.082031 0 16.8125 0 L 13.5 0 C 13.164062 0 12.898438 -0.0625 12.703125 -0.1875 C 12.503906 -0.320312 12.300781 -0.539062 12.09375 -0.84375 L 9.0625 -5.375 C 8.925781 -5.539062 8.835938 -5.722656 8.796875 -5.921875 C 8.765625 -6.117188 8.75 -6.414062 8.75 -6.8125 L 8.75 -9.0625 C 8.75 -9.320312 8.800781 -9.519531 8.90625 -9.65625 C 9.019531 -9.800781 9.238281 -9.875 9.5625 -9.875 L 10.125 -9.875 C 10.820312 -9.875 11.441406 -10.085938 11.984375 -10.515625 C 12.523438 -10.953125 12.796875 -11.5 12.796875 -12.15625 C 12.796875 -12.882812 12.546875 -13.460938 12.046875 -13.890625 C 11.554688 -14.328125 10.941406 -14.546875 10.203125 -14.546875 L 6.46875 -14.546875 L 6.46875 -0.8125 C 6.46875 -0.5 6.394531 -0.285156 6.25 -0.171875 C 6.113281 -0.0546875 5.914062 0 5.65625 0 L 2.875 0 C 2.625 0 2.425781 -0.0546875 2.28125 -0.171875 C 2.144531 -0.285156 2.078125 -0.5 2.078125 -0.8125 L 2.078125 -17.65625 C 2.078125 -17.925781 2.128906 -18.128906 2.234375 -18.265625 C 2.335938 -18.410156 2.550781 -18.484375 2.875 -18.484375 L 9.953125 -18.484375 C 10.984375 -18.484375 11.835938 -18.414062 12.515625 -18.28125 C 13.191406 -18.144531 13.769531 -17.941406 14.25 -17.671875 C 14.726562 -17.398438 15.160156 -17.066406 15.546875 -16.671875 C 16.078125 -16.171875 16.484375 -15.535156 16.765625 -14.765625 C 17.046875 -13.992188 17.1875 -13.160156 17.1875 -12.265625 C 17.1875 -11.285156 16.976562 -10.410156 16.5625 -9.640625 C 16.15625 -8.878906 15.648438 -8.242188 15.046875 -7.734375 C 14.441406 -7.222656 13.851562 -6.867188 13.28125 -6.671875 Z M 17.234375 -0.90625 "/></g></g></g><g fill="#38b6ff" fill-opacity="1"><g transform="translate(136.829167, 51.750925)"><g><path d="M 14.59375 -3.9375 C 14.914062 -3.9375 15.128906 -3.863281 15.234375 -3.71875 C 15.347656 -3.582031 15.40625 -3.382812 15.40625 -3.125 L 15.40625 -0.8125 C 15.40625 -0.570312 15.347656 -0.375 15.234375 -0.21875 C 15.128906 -0.0703125 14.914062 0 14.59375 0 L 2.890625 0 C 2.578125 0 2.363281 -0.0703125 2.25 -0.21875 C 2.132812 -0.375 2.078125 -0.570312 2.078125 -0.8125 L 2.078125 -17.6875 C 2.078125 -18.007812 2.148438 -18.222656 2.296875 -18.328125 C 2.453125 -18.441406 2.648438 -18.5 2.890625 -18.5 L 5.6875 -18.5 C 5.945312 -18.5 6.144531 -18.441406 6.28125 -18.328125 C 6.425781 -18.222656 6.5 -18.007812 6.5 -17.6875 L 6.5 -3.9375 Z M 14.59375 -3.9375 "/></g></g></g><g fill="#38b6ff" fill-opacity="1"><g transform="translate(152.769237, 51.750925)"><g><path d="M 10.796875 -10.75 C 11.304688 -10.59375 11.847656 -10.40625 12.421875 -10.1875 C 13.003906 -9.976562 13.550781 -9.691406 14.0625 -9.328125 C 14.570312 -8.960938 14.988281 -8.46875 15.3125 -7.84375 C 15.644531 -7.226562 15.8125 -6.441406 15.8125 -5.484375 C 15.8125 -4.148438 15.484375 -3.046875 14.828125 -2.171875 C 14.179688 -1.304688 13.296875 -0.65625 12.171875 -0.21875 C 11.046875 0.207031 9.765625 0.421875 8.328125 0.421875 C 7.441406 0.421875 6.550781 0.289062 5.65625 0.03125 C 4.769531 -0.21875 3.957031 -0.585938 3.21875 -1.078125 C 2.476562 -1.578125 1.882812 -2.203125 1.4375 -2.953125 C 0.988281 -3.703125 0.765625 -4.566406 0.765625 -5.546875 C 0.765625 -5.859375 0.816406 -6.066406 0.921875 -6.171875 C 1.035156 -6.273438 1.253906 -6.328125 1.578125 -6.328125 L 4.296875 -6.328125 C 4.617188 -6.328125 4.863281 -6.285156 5.03125 -6.203125 C 5.195312 -6.117188 5.289062 -5.898438 5.3125 -5.546875 C 5.332031 -5.359375 5.378906 -5.171875 5.453125 -4.984375 C 5.523438 -4.796875 5.65625 -4.597656 5.84375 -4.390625 C 6.125 -4.046875 6.519531 -3.800781 7.03125 -3.65625 C 7.550781 -3.519531 8.078125 -3.453125 8.609375 -3.453125 C 9.378906 -3.453125 10.03125 -3.570312 10.5625 -3.8125 C 11.09375 -4.0625 11.359375 -4.582031 11.359375 -5.375 C 11.359375 -5.894531 11.113281 -6.273438 10.625 -6.515625 C 10.144531 -6.765625 9.53125 -6.96875 8.78125 -7.125 C 8.039062 -7.289062 7.269531 -7.492188 6.46875 -7.734375 C 5.53125 -8.035156 4.644531 -8.390625 3.8125 -8.796875 C 2.976562 -9.210938 2.300781 -9.773438 1.78125 -10.484375 C 1.269531 -11.203125 1.015625 -12.148438 1.015625 -13.328125 C 1.015625 -14.546875 1.335938 -15.5625 1.984375 -16.375 C 2.628906 -17.195312 3.476562 -17.816406 4.53125 -18.234375 C 5.582031 -18.660156 6.6875 -18.890625 7.84375 -18.921875 C 8.75 -18.921875 9.640625 -18.816406 10.515625 -18.609375 C 11.398438 -18.410156 12.203125 -18.085938 12.921875 -17.640625 C 13.640625 -17.203125 14.21875 -16.648438 14.65625 -15.984375 C 15.101562 -15.316406 15.328125 -14.515625 15.328125 -13.578125 C 15.328125 -13.242188 15.269531 -13.03125 15.15625 -12.9375 C 15.039062 -12.84375 14.828125 -12.796875 14.515625 -12.796875 L 11.75 -12.796875 C 11.488281 -12.796875 11.316406 -12.875 11.234375 -13.03125 C 11.148438 -13.195312 11.070312 -13.375 11 -13.5625 C 10.9375 -13.707031 10.863281 -13.835938 10.78125 -13.953125 C 10.695312 -14.078125 10.570312 -14.226562 10.40625 -14.40625 C 10.144531 -14.664062 9.785156 -14.851562 9.328125 -14.96875 C 8.878906 -15.09375 8.441406 -15.15625 8.015625 -15.15625 C 7.710938 -15.15625 7.363281 -15.109375 6.96875 -15.015625 C 6.582031 -14.921875 6.25 -14.753906 5.96875 -14.515625 C 5.6875 -14.285156 5.546875 -13.957031 5.546875 -13.53125 C 5.546875 -13.09375 5.757812 -12.722656 6.1875 -12.421875 C 6.613281 -12.128906 7.128906 -11.875 7.734375 -11.65625 C 8.347656 -11.4375 8.941406 -11.253906 9.515625 -11.109375 C 10.085938 -10.972656 10.515625 -10.851562 10.796875 -10.75 Z M 10.796875 -10.75 "/></g></g></g><g fill="#38b6ff" fill-opacity="1"><g transform="translate(169.355919, 51.750925)"><g><path d="M 15.5 -3.9375 C 15.8125 -3.9375 16.023438 -3.863281 16.140625 -3.71875 C 16.253906 -3.582031 16.3125 -3.382812 16.3125 -3.125 L 16.3125 -0.8125 C 16.3125 -0.570312 16.253906 -0.375 16.140625 -0.21875 C 16.023438 -0.0703125 15.8125 0 15.5 0 L 2.890625 0 C 2.578125 0 2.363281 -0.0703125 2.25 -0.21875 C 2.132812 -0.375 2.078125 -0.570312 2.078125 -0.8125 L 2.078125 -17.6875 C 2.078125 -17.945312 2.132812 -18.144531 2.25 -18.28125 C 2.363281 -18.425781 2.578125 -18.5 2.890625 -18.5 L 15.015625 -18.5 C 15.335938 -18.5 15.550781 -18.425781 15.65625 -18.28125 C 15.769531 -18.144531 15.828125 -17.945312 15.828125 -17.6875 L 15.828125 -15.359375 C 15.828125 -15.109375 15.769531 -14.910156 15.65625 -14.765625 C 15.550781 -14.617188 15.335938 -14.546875 15.015625 -14.546875 L 6.53125 -14.546875 L 6.53125 -11.46875 L 14.0625 -11.46875 C 14.382812 -11.46875 14.597656 -11.394531 14.703125 -11.25 C 14.816406 -11.113281 14.875 -10.914062 14.875 -10.65625 L 14.875 -8.46875 C 14.875 -8.21875 14.816406 -8.019531 14.703125 -7.875 C 14.597656 -7.726562 14.382812 -7.65625 14.0625 -7.65625 L 6.53125 -7.65625 L 6.53125 -3.9375 Z M 15.5 -3.9375 "/></g></g></g><g fill="#38b6ff" fill-opacity="1"><g transform="translate(186.561081, 51.750925)"><g><path d="M 16.28125 -18.5 C 16.539062 -18.5 16.738281 -18.441406 16.875 -18.328125 C 17.019531 -18.222656 17.09375 -18.007812 17.09375 -17.6875 L 17.09375 -0.8125 C 17.09375 -0.570312 17.035156 -0.375 16.921875 -0.21875 C 16.816406 -0.0703125 16.601562 0 16.28125 0 L 13.71875 0 C 13.363281 0 13.109375 -0.0859375 12.953125 -0.265625 C 12.804688 -0.441406 12.640625 -0.671875 12.453125 -0.953125 L 6.5 -10.609375 L 6.5 -0.8125 C 6.5 -0.5 6.425781 -0.285156 6.28125 -0.171875 C 6.144531 -0.0546875 5.945312 0 5.6875 0 L 2.890625 0 C 2.648438 0 2.453125 -0.0546875 2.296875 -0.171875 C 2.148438 -0.285156 2.078125 -0.5 2.078125 -0.8125 L 2.078125 -17.6875 C 2.078125 -17.945312 2.132812 -18.144531 2.25 -18.28125 C 2.363281 -18.425781 2.578125 -18.5 2.890625 -18.5 L 5.546875 -18.5 C 5.898438 -18.5 6.148438 -18.410156 6.296875 -18.234375 C 6.453125 -18.054688 6.625 -17.828125 6.8125 -17.546875 L 12.765625 -7.9375 L 12.765625 -17.6875 C 12.765625 -18.007812 12.835938 -18.222656 12.984375 -18.328125 C 13.140625 -18.441406 13.335938 -18.5 13.578125 -18.5 Z M 16.28125 -18.5 "/></g></g></g><g fill="#ffffff" fill-opacity="1"><g transform="translate(205.315948, 51.750925)"><g><path d="M 16.84375 -18.5 C 17.101562 -18.5 17.269531 -18.410156 17.34375 -18.234375 C 17.425781 -18.054688 17.429688 -17.875 17.359375 -17.6875 L 11.328125 -0.84375 C 11.160156 -0.488281 11.003906 -0.257812 10.859375 -0.15625 C 10.722656 -0.0507812 10.5 0 10.1875 0 L 7.484375 0 C 7.179688 0 6.953125 -0.0507812 6.796875 -0.15625 C 6.648438 -0.257812 6.492188 -0.488281 6.328125 -0.84375 L 0.28125 -17.6875 C 0.207031 -17.875 0.207031 -18.054688 0.28125 -18.234375 C 0.351562 -18.410156 0.519531 -18.5 0.78125 -18.5 L 3.90625 -18.5 C 4.28125 -18.5 4.535156 -18.429688 4.671875 -18.296875 C 4.816406 -18.171875 4.945312 -17.941406 5.0625 -17.609375 L 8.890625 -5.96875 L 12.6875 -17.609375 C 12.800781 -17.941406 12.929688 -18.171875 13.078125 -18.296875 C 13.222656 -18.429688 13.484375 -18.5 13.859375 -18.5 Z M 16.84375 -18.5 "/></g></g></g><g fill="#ffffff" fill-opacity="1"><g transform="translate(222.77414, 51.750925)"><g><path d="M 18 -0.78125 C 18.070312 -0.613281 18.085938 -0.441406 18.046875 -0.265625 C 18.015625 -0.0859375 17.835938 0 17.515625 0 L 14.5625 0 C 14.269531 0 14.046875 -0.0546875 13.890625 -0.171875 C 13.742188 -0.285156 13.613281 -0.507812 13.5 -0.84375 L 12.71875 -3.0625 L 5.828125 -3.0625 L 5.03125 -0.84375 C 4.914062 -0.507812 4.785156 -0.285156 4.640625 -0.171875 C 4.503906 -0.0546875 4.28125 0 3.96875 0 L 1.015625 0 C 0.710938 0 0.535156 -0.0859375 0.484375 -0.265625 C 0.441406 -0.441406 0.457031 -0.613281 0.53125 -0.78125 L 6.78125 -17.640625 C 6.894531 -17.929688 7.039062 -18.144531 7.21875 -18.28125 C 7.394531 -18.425781 7.632812 -18.5 7.9375 -18.5 L 10.625 -18.5 C 10.945312 -18.5 11.1875 -18.425781 11.34375 -18.28125 C 11.507812 -18.144531 11.65625 -17.929688 11.78125 -17.640625 Z M 9.28125 -13.21875 L 7.171875 -7 L 11.390625 -7 Z M 9.28125 -13.21875 "/></g></g></g><g fill="#ffffff" fill-opacity="1"><g transform="translate(240.766483, 51.750925)"><g><path d="M 15.921875 -18.5 C 16.179688 -18.5 16.378906 -18.441406 16.515625 -18.328125 C 16.660156 -18.222656 16.734375 -18.007812 16.734375 -17.6875 L 16.734375 -5.65625 C 16.734375 -4.550781 16.507812 -3.613281 16.0625 -2.84375 C 15.613281 -2.070312 15.015625 -1.445312 14.265625 -0.96875 C 13.523438 -0.488281 12.71875 -0.140625 11.84375 0.078125 C 10.976562 0.304688 10.125 0.421875 9.28125 0.421875 C 8.4375 0.421875 7.582031 0.304688 6.71875 0.078125 C 5.851562 -0.140625 5.050781 -0.488281 4.3125 -0.96875 C 3.570312 -1.445312 2.976562 -2.070312 2.53125 -2.84375 C 2.082031 -3.613281 1.859375 -4.550781 1.859375 -5.65625 L 1.859375 -17.6875 C 1.859375 -18.007812 1.929688 -18.222656 2.078125 -18.328125 C 2.234375 -18.441406 2.429688 -18.5 2.671875 -18.5 L 5.453125 -18.5 C 5.710938 -18.5 5.910156 -18.441406 6.046875 -18.328125 C 6.191406 -18.222656 6.265625 -18.007812 6.265625 -17.6875 L 6.265625 -6.265625 C 6.265625 -5.390625 6.535156 -4.707031 7.078125 -4.21875 C 7.628906 -3.726562 8.363281 -3.484375 9.28125 -3.484375 C 10.21875 -3.484375 10.957031 -3.726562 11.5 -4.21875 C 12.039062 -4.707031 12.3125 -5.390625 12.3125 -6.265625 L 12.3125 -17.6875 C 12.3125 -18.007812 12.382812 -18.222656 12.53125 -18.328125 C 12.6875 -18.441406 12.890625 -18.5 13.140625 -18.5 Z M 15.921875 -18.5 "/></g></g></g><g fill="#ffffff" fill-opacity="1"><g transform="translate(258.9275, 51.750925)"><g><path d="M 14.59375 -3.9375 C 14.914062 -3.9375 15.128906 -3.863281 15.234375 -3.71875 C 15.347656 -3.582031 15.40625 -3.382812 15.40625 -3.125 L 15.40625 -0.8125 C 15.40625 -0.570312 15.347656 -0.375 15.234375 -0.21875 C 15.128906 -0.0703125 14.914062 0 14.59375 0 L 2.890625 0 C 2.578125 0 2.363281 -0.0703125 2.25 -0.21875 C 2.132812 -0.375 2.078125 -0.570312 2.078125 -0.8125 L 2.078125 -17.6875 C 2.078125 -18.007812 2.148438 -18.222656 2.296875 -18.328125 C 2.453125 -18.441406 2.648438 -18.5 2.890625 -18.5 L 5.6875 -18.5 C 5.945312 -18.5 6.144531 -18.441406 6.28125 -18.328125 C 6.425781 -18.222656 6.5 -18.007812 6.5 -17.6875 L 6.5 -3.9375 Z M 14.59375 -3.9375 "/></g></g></g><g fill="#ffffff" fill-opacity="1"><g transform="translate(274.86757, 51.750925)"><g><path d="M 14.59375 -18.5 C 14.914062 -18.5 15.128906 -18.425781 15.234375 -18.28125 C 15.347656 -18.144531 15.40625 -17.945312 15.40625 -17.6875 L 15.40625 -15.359375 C 15.40625 -15.109375 15.347656 -14.910156 15.234375 -14.765625 C 15.128906 -14.617188 14.914062 -14.546875 14.59375 -14.546875 L 10.296875 -14.546875 L 10.296875 -0.8125 C 10.296875 -0.5 10.222656 -0.285156 10.078125 -0.171875 C 9.941406 -0.0546875 9.742188 0 9.484375 0 L 6.6875 0 C 6.445312 0 6.25 -0.0546875 6.09375 -0.171875 C 5.945312 -0.285156 5.875 -0.5 5.875 -0.8125 L 5.875 -14.546875 L 1.546875 -14.546875 C 1.222656 -14.546875 1.003906 -14.617188 0.890625 -14.765625 C 0.785156 -14.910156 0.734375 -15.109375 0.734375 -15.359375 L 0.734375 -17.6875 C 0.734375 -17.945312 0.785156 -18.144531 0.890625 -18.28125 C 1.003906 -18.425781 1.222656 -18.5 1.546875 -18.5 Z M 14.59375 -18.5 "/></g></g></g></svg>