<svg xmlns="http://www.w3.org/2000/svg" xmlns:xlink="http://www.w3.org/1999/xlink" width="234" zoomAndPan="magnify" viewBox="0 0 175.5 173.999997" height="232" preserveAspectRatio="xMidYMid meet" version="1.0"><defs><g/><clipPath id="2f4d981723"><path d="M 18.265625 0.246094 L 156.964844 0.246094 L 156.964844 153.332031 L 18.265625 153.332031 Z M 18.265625 0.246094 " clip-rule="nonzero"/></clipPath><clipPath id="76f3088f6c"><path d="M 48.359375 30.148438 L 128.464844 30.148438 L 128.464844 110.25 L 48.359375 110.25 Z M 48.359375 30.148438 " clip-rule="nonzero"/></clipPath><clipPath id="7b6327a9e5"><path d="M 50.300781 32.621094 L 125.0625 32.621094 L 125.0625 107.382812 L 50.300781 107.382812 Z M 50.300781 32.621094 " clip-rule="nonzero"/></clipPath><clipPath id="c5e42ce4cb"><path d="M 45 24.628906 L 133.25 24.628906 L 133.25 112.875 L 45 112.875 Z M 45 24.628906 " clip-rule="nonzero"/></clipPath><clipPath id="881c616487"><path d="M 50.332031 32.378906 L 125.117188 32.378906 L 125.117188 107.164062 L 50.332031 107.164062 Z M 50.332031 32.378906 " clip-rule="nonzero"/></clipPath><clipPath id="49b651f75e"><path d="M 59 156 L 73 156 L 73 173.75 L 59 173.75 Z M 59 156 " clip-rule="nonzero"/></clipPath><clipPath id="7034b01c56"><path d="M 134 157 L 147 157 L 147 173.75 L 134 173.75 Z M 134 157 " clip-rule="nonzero"/></clipPath></defs><path fill="#38b6ff" d="M 99.492188 98.097656 C 99.4375 99.914062 98.207031 101.558594 96.375 102.046875 C 94.546875 102.535156 92.65625 101.726562 91.710938 100.1875 C 91.191406 101.921875 89.582031 103.191406 87.679688 103.191406 C 85.777344 103.191406 84.164062 101.921875 83.652344 100.1875 C 82.699219 101.726562 80.8125 102.542969 78.980469 102.058594 C 77.148438 101.566406 75.917969 99.921875 75.867188 98.105469 C 74.550781 99.351562 72.523438 99.65625 70.871094 98.703125 C 69.226562 97.75 68.460938 95.847656 68.882812 94.089844 C 67.296875 94.949219 65.257812 94.710938 63.914062 93.367188 C 62.5625 92.023438 62.320312 89.988281 63.195312 88.382812 C 61.433594 88.8125 59.523438 88.046875 58.578125 86.402344 C 57.625 84.757812 57.921875 82.722656 59.164062 81.40625 C 57.351562 81.347656 55.707031 80.125 55.214844 78.289062 C 54.726562 76.457031 55.539062 74.574219 57.085938 73.621094 C 55.34375 73.109375 54.074219 71.496094 54.074219 69.589844 C 54.074219 67.691406 55.351562 66.078125 57.085938 65.5625 C 55.546875 64.609375 54.726562 62.726562 55.214844 60.890625 C 55.707031 59.0625 57.359375 57.835938 59.164062 57.78125 C 57.921875 56.464844 57.617188 54.425781 58.578125 52.78125 C 59.527344 51.136719 61.433594 50.371094 63.195312 50.800781 C 62.332031 49.210938 62.574219 47.171875 63.914062 45.828125 C 65.257812 44.476562 67.296875 44.238281 68.882812 45.109375 C 68.46875 43.347656 69.226562 41.445312 70.871094 40.492188 C 72.515625 39.539062 74.550781 39.832031 75.867188 41.089844 C 75.917969 39.273438 77.148438 37.628906 78.980469 37.136719 C 80.8125 36.652344 82.707031 37.460938 83.652344 39.007812 C 84.164062 37.265625 85.777344 35.992188 87.679688 35.992188 C 89.582031 35.992188 91.191406 37.265625 91.710938 39.007812 C 92.65625 37.46875 94.546875 36.652344 96.375 37.136719 C 98.207031 37.628906 99.4375 39.28125 99.492188 41.089844 C 100.804688 39.84375 102.839844 39.539062 104.492188 40.492188 C 106.136719 41.445312 106.894531 43.347656 106.472656 45.109375 C 108.0625 44.242188 110.101562 44.484375 111.441406 45.828125 C 112.789062 47.171875 113.035156 49.210938 112.164062 50.800781 C 113.925781 50.382812 115.828125 51.136719 116.78125 52.78125 C 117.730469 54.425781 117.441406 56.464844 116.183594 57.78125 C 117.992188 57.835938 119.644531 59.0625 120.128906 60.890625 C 120.621094 62.726562 119.8125 64.609375 118.265625 65.5625 C 120.007812 66.078125 121.28125 67.691406 121.28125 69.589844 C 121.28125 71.496094 120.007812 73.109375 118.265625 73.621094 C 119.804688 74.574219 120.621094 76.457031 120.128906 78.289062 C 119.644531 80.125 117.992188 81.347656 116.183594 81.40625 C 117.429688 82.722656 117.730469 84.75 116.78125 86.402344 C 115.828125 88.046875 113.925781 88.8125 112.164062 88.382812 C 113.027344 89.976562 112.789062 92.015625 111.441406 93.367188 C 110.089844 94.710938 108.0625 94.957031 106.472656 94.089844 C 106.890625 95.847656 106.136719 97.761719 104.492188 98.703125 C 102.839844 99.65625 100.804688 99.363281 99.492188 98.105469 Z M 154.363281 33.859375 L 154.882812 33.859375 L 154.882812 46.46875 L 154.363281 46.46875 C 152.558594 49.730469 146.566406 49.09375 146.5 44.398438 L 146.5 35.914062 C 146.566406 31.242188 152.558594 30.601562 154.363281 33.867188 Z M 154.363281 92.683594 L 154.882812 92.683594 L 154.882812 105.285156 L 154.359375 105.285156 C 152.550781 108.53125 146.558594 107.914062 146.496094 103.210938 L 146.496094 94.726562 C 146.558594 90.085938 152.550781 89.417969 154.359375 92.683594 Z M 154.363281 92.683594 " fill-opacity="1" fill-rule="evenodd"/><path fill="#ffffff" d="M 138.097656 10.75 C 142.722656 10.75 146.5 14.53125 146.5 19.15625 L 146.5 120.003906 C 146.5 124.621094 142.722656 128.410156 138.097656 128.410156 L 37.257812 128.410156 C 32.632812 128.410156 28.855469 124.628906 28.855469 120.003906 L 28.855469 19.15625 C 28.855469 14.53125 32.632812 10.75 37.257812 10.75 L 138.105469 10.75 Z M 87.679688 35.964844 C 69.117188 35.964844 54.066406 51.011719 54.066406 69.585938 C 54.066406 88.15625 69.117188 103.191406 87.679688 103.191406 C 106.242188 103.191406 121.296875 88.144531 121.296875 69.585938 C 121.296875 51.023438 106.246094 35.964844 87.679688 35.964844 Z M 87.679688 35.964844 " fill-opacity="1" fill-rule="evenodd"/><path fill="#ffffff" d="M 146.5 91.816406 L 146.5 47.320312 L 149.304688 48.3125 C 150.195312 48.621094 151.210938 48.621094 152.097656 48.3125 L 154.910156 47.292969 L 154.910156 91.855469 L 152.097656 90.851562 C 151.210938 90.527344 150.195312 90.527344 149.296875 90.839844 L 146.496094 91.828125 Z M 154.910156 106.113281 L 154.910156 119.996094 C 154.910156 129.238281 147.347656 136.804688 138.097656 136.804688 L 37.257812 136.804688 C 28.019531 136.804688 20.449219 129.246094 20.449219 119.996094 L 20.449219 19.15625 C 20.449219 9.917969 28.007812 2.34375 37.257812 2.34375 L 138.105469 2.34375 C 147.347656 2.34375 154.914062 9.90625 154.914062 19.15625 L 154.914062 33.03125 L 152.105469 32.027344 C 151.214844 31.703125 150.203125 31.703125 149.304688 32.027344 L 146.5 33.003906 L 146.5 19.167969 C 146.5 14.542969 142.722656 10.757812 138.097656 10.757812 L 37.257812 10.757812 C 32.632812 10.757812 28.855469 14.542969 28.855469 19.167969 L 28.855469 120.015625 C 28.855469 124.628906 32.632812 128.417969 37.257812 128.417969 L 138.105469 128.417969 C 142.730469 128.417969 146.511719 124.640625 146.511719 120.015625 L 146.511719 106.171875 L 149.3125 107.160156 C 150.203125 107.472656 151.214844 107.472656 152.105469 107.152344 L 154.914062 106.136719 Z M 154.910156 106.113281 " fill-opacity="1" fill-rule="evenodd"/><path fill="#203a55" d="M 37.257812 17.054688 C 38.417969 17.054688 39.355469 18 39.355469 19.15625 C 39.355469 20.3125 38.417969 21.253906 37.257812 21.253906 C 36.105469 21.253906 35.160156 20.3125 35.160156 19.15625 C 35.160156 18 36.105469 17.054688 37.257812 17.054688 Z M 37.257812 17.054688 " fill-opacity="1" fill-rule="evenodd"/><path fill="#203a55" d="M 87.679688 33.859375 C 107.40625 33.859375 123.394531 49.847656 123.394531 69.578125 C 123.394531 89.300781 107.40625 105.296875 87.679688 105.296875 C 67.949219 105.296875 51.960938 89.300781 51.960938 69.578125 C 51.960938 49.847656 67.949219 33.859375 87.679688 33.859375 Z M 87.679688 33.859375 " fill-opacity="1" fill-rule="evenodd"/><g clip-path="url(#2f4d981723)"><path fill="#38b6ff" d="M 137.839844 138.902344 L 136 153.601562 L 123.394531 153.601562 L 121.554688 138.902344 L 53.800781 138.902344 L 51.960938 153.601562 L 39.355469 153.601562 L 37.515625 138.902344 L 37.257812 138.902344 C 26.855469 138.902344 18.351562 130.398438 18.351562 119.996094 L 18.351562 19.15625 C 18.34375 8.75 26.855469 0.246094 37.257812 0.246094 L 138.105469 0.246094 C 148.515625 0.246094 157.015625 8.75 157.015625 19.15625 L 157.015625 120.003906 C 157.015625 130.398438 148.515625 138.910156 138.105469 138.910156 L 137.839844 138.910156 Z M 137.839844 138.902344 " fill-opacity="1" fill-rule="evenodd"/></g><path fill="#ffffff" d="M 148.605469 88.855469 C 149.953125 88.382812 151.457031 88.382812 152.796875 88.867188 L 152.796875 50.285156 C 151.457031 50.773438 149.945312 50.773438 148.605469 50.300781 Z M 148.605469 88.855469 " fill-opacity="1" fill-rule="evenodd"/><path fill="#ffffff" d="M 152.808594 109.105469 C 151.46875 109.597656 149.953125 109.597656 148.613281 109.125 L 148.613281 120.003906 C 148.613281 125.785156 143.890625 130.507812 138.105469 130.507812 L 37.257812 130.507812 C 31.480469 130.507812 26.757812 125.785156 26.757812 120.003906 L 26.757812 19.15625 C 26.757812 13.375 31.480469 8.652344 37.257812 8.652344 L 138.105469 8.652344 C 143.890625 8.652344 148.613281 13.375 148.613281 19.15625 L 148.613281 30.03125 C 149.964844 29.5625 151.46875 29.5625 152.808594 30.042969 L 152.808594 19.15625 C 152.808594 11.070312 146.183594 4.445312 138.097656 4.445312 L 37.257812 4.445312 C 29.175781 4.445312 22.558594 11.0625 22.558594 19.15625 L 22.558594 120.003906 C 22.558594 128.085938 29.175781 134.707031 37.257812 134.707031 L 138.105469 134.707031 C 146.191406 134.707031 152.816406 128.085938 152.816406 120.003906 L 152.816406 109.117188 Z M 152.808594 109.105469 " fill-opacity="1" fill-rule="evenodd"/><path fill="#203a55" d="M 150.683594 92.734375 C 151.722656 92.734375 152.773438 93.421875 152.773438 94.789062 L 152.773438 103.191406 C 152.773438 104.558594 151.714844 105.25 150.664062 105.25 C 149.617188 105.25 148.621094 104.582031 148.613281 103.222656 L 148.613281 94.761719 C 148.625 93.410156 149.660156 92.734375 150.691406 92.734375 M 150.691406 90.957031 C 148.523438 90.957031 146.859375 92.582031 146.832031 94.746094 L 146.832031 103.191406 C 146.832031 103.191406 146.832031 103.238281 146.832031 103.238281 C 146.859375 105.398438 148.503906 107.027344 150.664062 107.027344 C 152.222656 107.027344 153.511719 106.210938 154.144531 104.972656 L 154.558594 104.972656 L 154.558594 103.191406 C 154.558594 103.191406 154.558594 94.789062 154.558594 94.789062 L 154.558594 93.007812 L 154.144531 93.007812 C 153.523438 91.765625 152.238281 90.957031 150.691406 90.957031 Z M 150.691406 90.957031 " fill-opacity="1" fill-rule="nonzero"/><path fill="#203a55" d="M 150.671875 33.902344 C 151.722656 33.902344 152.773438 34.597656 152.773438 35.957031 L 152.773438 44.359375 C 152.773438 45.730469 151.722656 46.425781 150.671875 46.425781 C 149.625 46.425781 148.621094 45.757812 148.605469 44.386719 L 148.605469 35.929688 C 148.621094 34.570312 149.640625 33.902344 150.664062 33.902344 M 150.664062 32.121094 C 148.496094 32.121094 146.851562 33.75 146.824219 35.914062 L 146.824219 44.359375 C 146.824219 44.359375 146.824219 44.40625 146.824219 44.40625 C 146.851562 46.566406 148.503906 48.195312 150.671875 48.195312 C 152.234375 48.195312 153.511719 47.378906 154.144531 46.128906 L 154.550781 46.128906 L 154.550781 44.351562 C 154.550781 44.351562 154.550781 35.945312 154.550781 35.945312 L 154.550781 34.167969 L 154.132812 34.167969 C 153.503906 32.925781 152.222656 32.117188 150.664062 32.117188 Z M 150.664062 32.121094 " fill-opacity="1" fill-rule="nonzero"/><path fill="#ffffff" d="M 138.097656 12.851562 L 37.257812 12.851562 C 33.800781 12.851562 30.953125 15.695312 30.953125 19.15625 L 30.953125 120.003906 C 30.953125 123.460938 33.792969 126.308594 37.257812 126.308594 L 138.105469 126.308594 C 141.566406 126.308594 144.414062 123.472656 144.414062 120.003906 L 144.414062 19.15625 C 144.414062 15.695312 141.566406 12.851562 138.105469 12.851562 Z M 138.097656 12.851562 " fill-opacity="1" fill-rule="evenodd"/><path fill="#203a55" d="M 87.679688 117.824219 L 87.765625 117.824219 C 88.933594 117.824219 89.867188 118.769531 89.867188 119.921875 C 89.867188 121.078125 88.925781 122.023438 87.765625 122.023438 L 87.679688 122.023438 C 86.558594 121.976562 85.660156 121.050781 85.660156 119.921875 C 85.660156 118.796875 86.558594 117.871094 87.679688 117.824219 Z M 87.679688 117.824219 " fill-opacity="1" fill-rule="evenodd"/><path fill="#203a55" d="M 87.679688 17.054688 C 88.835938 17.054688 89.78125 18 89.78125 19.15625 C 89.78125 20.3125 88.835938 21.253906 87.679688 21.253906 C 86.515625 21.253906 85.582031 20.3125 85.582031 19.15625 C 85.582031 18 86.523438 17.054688 87.679688 17.054688 Z M 87.679688 17.054688 " fill-opacity="1" fill-rule="evenodd"/><path fill="#203a55" d="M 138.1875 122.023438 C 137.03125 122.023438 136.089844 121.078125 136.089844 119.921875 C 136.089844 118.769531 137.03125 117.824219 138.1875 117.824219 C 139.34375 117.824219 140.289062 118.769531 140.289062 119.921875 C 140.289062 121.078125 139.34375 122.023438 138.1875 122.023438 Z M 138.1875 122.023438 " fill-opacity="1" fill-rule="evenodd"/><path fill="#203a55" d="M 140.199219 19.15625 C 140.199219 20.3125 139.257812 21.253906 138.097656 21.253906 C 136.945312 21.253906 136 20.3125 136 19.15625 C 136 18 136.945312 17.054688 138.097656 17.054688 C 139.257812 17.054688 140.199219 18 140.199219 19.15625 Z M 140.199219 19.15625 " fill-opacity="1" fill-rule="evenodd"/><path fill="#203a55" d="M 39.796875 19.15625 C 39.796875 20.3125 38.851562 21.253906 37.691406 21.253906 C 36.539062 21.253906 35.59375 20.3125 35.59375 19.15625 C 35.59375 18 36.539062 17.054688 37.691406 17.054688 C 38.851562 17.054688 39.796875 18 39.796875 19.15625 Z M 39.796875 19.15625 " fill-opacity="1" fill-rule="evenodd"/><path fill="#203a55" d="M 98.183594 19.15625 C 98.183594 20.3125 97.242188 21.253906 96.082031 21.253906 C 94.929688 21.253906 93.984375 20.3125 93.984375 19.15625 C 93.984375 18 94.929688 17.054688 96.082031 17.054688 C 97.242188 17.054688 98.183594 18 98.183594 19.15625 Z M 98.183594 19.15625 " fill-opacity="1" fill-rule="evenodd"/><path fill="#203a55" d="M 88.007812 30.742188 C 109.867188 30.742188 127.585938 48.472656 127.585938 70.328125 C 127.585938 92.191406 109.859375 109.910156 88.007812 109.910156 C 66.15625 109.910156 48.421875 92.191406 48.421875 70.328125 C 48.421875 48.472656 66.148438 30.742188 88.007812 30.742188 Z M 88.007812 30.742188 " fill-opacity="1" fill-rule="evenodd"/><path fill="#203a55" d="M 106.589844 19.15625 C 106.589844 20.3125 105.644531 21.253906 104.492188 21.253906 C 103.332031 21.253906 102.386719 20.3125 102.386719 19.15625 C 102.386719 18 103.332031 17.054688 104.492188 17.054688 C 105.644531 17.054688 106.589844 18 106.589844 19.15625 Z M 106.589844 19.15625 " fill-opacity="1" fill-rule="evenodd"/><path fill="#203a55" d="M 114.992188 19.15625 C 114.992188 20.3125 114.046875 21.253906 112.894531 21.253906 C 111.734375 21.253906 110.792969 20.3125 110.792969 19.15625 C 110.792969 18 111.734375 17.054688 112.894531 17.054688 C 114.046875 17.054688 114.992188 18 114.992188 19.15625 Z M 114.992188 19.15625 " fill-opacity="1" fill-rule="evenodd"/><path fill="#203a55" d="M 123.394531 19.15625 C 123.394531 20.3125 122.453125 21.253906 121.296875 21.253906 C 120.140625 21.253906 119.199219 20.3125 119.199219 19.15625 C 119.199219 18 120.140625 17.054688 121.296875 17.054688 C 122.453125 17.054688 123.394531 18 123.394531 19.15625 Z M 123.394531 19.15625 " fill-opacity="1" fill-rule="evenodd"/><path fill="#203a55" d="M 131.800781 19.15625 C 131.800781 20.3125 130.859375 21.253906 129.703125 21.253906 C 128.542969 21.253906 127.605469 20.3125 127.605469 19.15625 C 127.605469 18 128.542969 17.054688 129.703125 17.054688 C 130.859375 17.054688 131.800781 18 131.800781 19.15625 Z M 131.800781 19.15625 " fill-opacity="1" fill-rule="evenodd"/><path fill="#203a55" d="M 138.1875 29.589844 C 137.40625 29.589844 136.71875 29.15625 136.355469 28.519531 C 136.1875 28.21875 136.089844 27.863281 136.089844 27.492188 C 136.089844 26.332031 137.03125 25.390625 138.1875 25.390625 C 139.34375 25.390625 140.289062 26.332031 140.289062 27.492188 C 140.289062 27.863281 140.191406 28.21875 140.015625 28.527344 C 139.652344 29.167969 138.980469 29.597656 138.1875 29.597656 Z M 138.1875 29.589844 " fill-opacity="1" fill-rule="evenodd"/><path fill="#203a55" d="M 138.1875 37.992188 C 137.03125 37.992188 136.089844 37.050781 136.089844 35.894531 C 136.089844 34.738281 137.03125 33.792969 138.1875 33.792969 C 139.34375 33.792969 140.289062 34.738281 140.289062 35.894531 C 140.289062 37.050781 139.34375 37.992188 138.1875 37.992188 Z M 138.1875 37.992188 " fill-opacity="1" fill-rule="evenodd"/><path fill="#203a55" d="M 138.1875 46.398438 C 137.03125 46.398438 136.089844 45.453125 136.089844 44.300781 C 136.089844 43.140625 137.03125 42.203125 138.1875 42.203125 C 139.34375 42.203125 140.289062 43.140625 140.289062 44.300781 C 140.289062 45.453125 139.34375 46.398438 138.1875 46.398438 Z M 138.1875 46.398438 " fill-opacity="1" fill-rule="evenodd"/><path fill="#203a55" d="M 138.1875 54.800781 C 137.03125 54.800781 136.089844 53.863281 136.089844 52.703125 C 136.089844 51.550781 137.03125 50.605469 138.1875 50.605469 C 139.34375 50.605469 140.289062 51.550781 140.289062 52.703125 C 140.289062 53.863281 139.34375 54.800781 138.1875 54.800781 Z M 138.1875 54.800781 " fill-opacity="1" fill-rule="evenodd"/><path fill="#203a55" d="M 138.1875 63.199219 C 137.03125 63.199219 136.089844 62.257812 136.089844 61.097656 C 136.089844 59.945312 137.03125 59 138.1875 59 C 139.34375 59 140.289062 59.945312 140.289062 61.097656 C 140.289062 62.257812 139.34375 63.199219 138.1875 63.199219 Z M 138.1875 63.199219 " fill-opacity="1" fill-rule="evenodd"/><path fill="#203a55" d="M 138.1875 71.605469 C 137.03125 71.605469 136.089844 70.660156 136.089844 69.503906 C 136.089844 68.347656 137.03125 67.40625 138.1875 67.40625 C 139.34375 67.40625 140.289062 68.347656 140.289062 69.503906 C 140.289062 70.660156 139.34375 71.605469 138.1875 71.605469 Z M 138.1875 71.605469 " fill-opacity="1" fill-rule="evenodd"/><path fill="#203a55" d="M 138.1875 80.007812 C 137.03125 80.007812 136.089844 79.066406 136.089844 77.910156 C 136.089844 76.753906 137.03125 75.808594 138.1875 75.808594 C 139.34375 75.808594 140.289062 76.753906 140.289062 77.910156 C 140.289062 79.066406 139.34375 80.007812 138.1875 80.007812 Z M 138.1875 80.007812 " fill-opacity="1" fill-rule="evenodd"/><path fill="#203a55" d="M 138.1875 88.414062 C 137.03125 88.414062 136.089844 87.46875 136.089844 86.316406 C 136.089844 85.15625 137.03125 84.210938 138.1875 84.210938 C 139.34375 84.210938 140.289062 85.15625 140.289062 86.316406 C 140.289062 87.46875 139.34375 88.414062 138.1875 88.414062 Z M 138.1875 88.414062 " fill-opacity="1" fill-rule="evenodd"/><path fill="#203a55" d="M 138.1875 96.816406 C 137.03125 96.816406 136.089844 95.871094 136.089844 94.71875 C 136.089844 93.558594 137.03125 92.621094 138.1875 92.621094 C 139.34375 92.621094 140.289062 93.558594 140.289062 94.71875 C 140.289062 95.871094 139.34375 96.816406 138.1875 96.816406 Z M 138.1875 96.816406 " fill-opacity="1" fill-rule="evenodd"/><path fill="#203a55" d="M 138.1875 105.21875 C 137.03125 105.21875 136.089844 104.28125 136.089844 103.121094 C 136.089844 101.96875 137.03125 101.023438 138.1875 101.023438 C 139.34375 101.023438 140.289062 101.96875 140.289062 103.121094 C 140.289062 104.28125 139.34375 105.21875 138.1875 105.21875 Z M 138.1875 105.21875 " fill-opacity="1" fill-rule="evenodd"/><path fill="#203a55" d="M 138.1875 113.628906 C 137.03125 113.628906 136.089844 112.683594 136.089844 111.527344 C 136.089844 110.371094 137.03125 109.429688 138.1875 109.429688 C 139.34375 109.429688 140.289062 110.371094 140.289062 111.527344 C 140.289062 112.683594 139.34375 113.628906 138.1875 113.628906 Z M 138.1875 113.628906 " fill-opacity="1" fill-rule="evenodd"/><path fill="#203a55" d="M 127.683594 119.921875 C 127.683594 118.769531 128.628906 117.824219 129.78125 117.824219 C 130.941406 117.824219 131.878906 118.769531 131.878906 119.921875 C 131.878906 121.078125 130.941406 122.023438 129.78125 122.023438 C 128.628906 122.023438 127.683594 121.078125 127.683594 119.921875 Z M 127.683594 119.921875 " fill-opacity="1" fill-rule="evenodd"/><path fill="#203a55" d="M 119.28125 119.921875 C 119.28125 118.769531 120.21875 117.824219 121.378906 117.824219 C 122.53125 117.824219 123.476562 118.769531 123.476562 119.921875 C 123.476562 121.078125 122.53125 122.023438 121.378906 122.023438 C 120.21875 122.023438 119.28125 121.078125 119.28125 119.921875 Z M 119.28125 119.921875 " fill-opacity="1" fill-rule="evenodd"/><path fill="#203a55" d="M 110.875 119.921875 C 110.875 118.769531 111.816406 117.824219 112.972656 117.824219 C 114.128906 117.824219 115.070312 118.769531 115.070312 119.921875 C 115.070312 121.078125 114.128906 122.023438 112.972656 122.023438 C 111.816406 122.023438 110.875 121.078125 110.875 119.921875 Z M 110.875 119.921875 " fill-opacity="1" fill-rule="evenodd"/><path fill="#203a55" d="M 102.46875 119.921875 C 102.46875 118.769531 103.410156 117.824219 104.570312 117.824219 C 105.722656 117.824219 106.667969 118.769531 106.667969 119.921875 C 106.667969 121.078125 105.722656 122.023438 104.570312 122.023438 C 103.410156 122.023438 102.46875 121.078125 102.46875 119.921875 Z M 102.46875 119.921875 " fill-opacity="1" fill-rule="evenodd"/><path fill="#203a55" d="M 94.0625 119.921875 C 94.0625 118.769531 95.007812 117.824219 96.167969 117.824219 C 97.320312 117.824219 98.261719 118.769531 98.261719 119.921875 C 98.261719 121.078125 97.320312 122.023438 96.167969 122.023438 C 95.007812 122.023438 94.0625 121.078125 94.0625 119.921875 Z M 94.0625 119.921875 " fill-opacity="1" fill-rule="evenodd"/><path fill="#203a55" d="M 47.765625 19.15625 C 47.765625 20.3125 46.820312 21.253906 45.664062 21.253906 C 44.507812 21.253906 43.566406 20.3125 43.566406 19.15625 C 43.566406 18 44.507812 17.054688 45.664062 17.054688 C 46.820312 17.054688 47.765625 18 47.765625 19.15625 Z M 47.765625 19.15625 " fill-opacity="1" fill-rule="evenodd"/><path fill="#203a55" d="M 56.167969 19.15625 C 56.167969 20.3125 55.226562 21.253906 54.066406 21.253906 C 52.914062 21.253906 51.96875 20.3125 51.96875 19.15625 C 51.96875 18 52.914062 17.054688 54.066406 17.054688 C 55.226562 17.054688 56.167969 18 56.167969 19.15625 Z M 56.167969 19.15625 " fill-opacity="1" fill-rule="evenodd"/><path fill="#203a55" d="M 64.5625 19.15625 C 64.5625 20.3125 63.621094 21.253906 62.464844 21.253906 C 61.308594 21.253906 60.363281 20.3125 60.363281 19.15625 C 60.363281 18 61.308594 17.054688 62.464844 17.054688 C 63.621094 17.054688 64.5625 18 64.5625 19.15625 Z M 64.5625 19.15625 " fill-opacity="1" fill-rule="evenodd"/><path fill="#203a55" d="M 72.96875 19.15625 C 72.96875 20.3125 72.023438 21.253906 70.871094 21.253906 C 69.710938 21.253906 68.773438 20.3125 68.773438 19.15625 C 68.773438 18 69.710938 17.054688 70.871094 17.054688 C 72.023438 17.054688 72.96875 18 72.96875 19.15625 Z M 72.96875 19.15625 " fill-opacity="1" fill-rule="evenodd"/><path fill="#203a55" d="M 81.371094 19.15625 C 81.371094 20.3125 80.433594 21.253906 79.273438 21.253906 C 78.121094 21.253906 77.175781 20.3125 77.175781 19.15625 C 77.175781 18 78.121094 17.054688 79.273438 17.054688 C 80.433594 17.054688 81.371094 18 81.371094 19.15625 Z M 81.371094 19.15625 " fill-opacity="1" fill-rule="evenodd"/><path fill="#203a55" d="M 35.242188 119.921875 C 35.242188 118.769531 36.183594 117.824219 37.339844 117.824219 C 38.496094 117.824219 39.441406 118.769531 39.441406 119.921875 C 39.441406 121.078125 38.496094 122.023438 37.339844 122.023438 C 36.183594 122.023438 35.242188 121.078125 35.242188 119.921875 Z M 35.242188 119.921875 " fill-opacity="1" fill-rule="evenodd"/><path fill="#203a55" d="M 77.253906 119.921875 C 77.253906 118.769531 78.199219 117.824219 79.351562 117.824219 C 80.511719 117.824219 81.457031 118.769531 81.457031 119.921875 C 81.457031 121.078125 80.511719 122.023438 79.351562 122.023438 C 78.199219 122.023438 77.253906 121.078125 77.253906 119.921875 Z M 77.253906 119.921875 " fill-opacity="1" fill-rule="evenodd"/><path fill="#203a55" d="M 68.851562 119.921875 C 68.851562 118.769531 69.796875 117.824219 70.949219 117.824219 C 72.109375 117.824219 73.046875 118.769531 73.046875 119.921875 C 73.046875 121.078125 72.109375 122.023438 70.949219 122.023438 C 69.796875 122.023438 68.851562 121.078125 68.851562 119.921875 Z M 68.851562 119.921875 " fill-opacity="1" fill-rule="evenodd"/><path fill="#203a55" d="M 60.453125 119.921875 C 60.453125 118.769531 61.394531 117.824219 62.554688 117.824219 C 63.707031 117.824219 64.652344 118.769531 64.652344 119.921875 C 64.652344 121.078125 63.707031 122.023438 62.554688 122.023438 C 61.394531 122.023438 60.453125 121.078125 60.453125 119.921875 Z M 60.453125 119.921875 " fill-opacity="1" fill-rule="evenodd"/><path fill="#203a55" d="M 52.046875 119.921875 C 52.046875 118.769531 52.992188 117.824219 54.152344 117.824219 C 55.304688 117.824219 56.25 118.769531 56.25 119.921875 C 56.25 121.078125 55.304688 122.023438 54.152344 122.023438 C 52.992188 122.023438 52.046875 121.078125 52.046875 119.921875 Z M 52.046875 119.921875 " fill-opacity="1" fill-rule="evenodd"/><path fill="#203a55" d="M 43.644531 119.921875 C 43.644531 118.769531 44.589844 117.824219 45.742188 117.824219 C 46.902344 117.824219 47.84375 118.769531 47.84375 119.921875 C 47.84375 121.078125 46.902344 122.023438 45.742188 122.023438 C 44.589844 122.023438 43.644531 121.078125 43.644531 119.921875 Z M 43.644531 119.921875 " fill-opacity="1" fill-rule="evenodd"/><path fill="#203a55" d="M 37.257812 109.488281 C 38.417969 109.488281 39.355469 110.433594 39.355469 111.59375 C 39.355469 112.746094 38.417969 113.691406 37.257812 113.691406 C 36.105469 113.691406 35.160156 112.746094 35.160156 111.59375 C 35.160156 110.433594 36.105469 109.488281 37.257812 109.488281 Z M 37.257812 109.488281 " fill-opacity="1" fill-rule="evenodd"/><path fill="#203a55" d="M 37.257812 101.09375 C 38.417969 101.09375 39.355469 102.039062 39.355469 103.191406 C 39.355469 104.351562 38.417969 105.296875 37.257812 105.296875 C 36.105469 105.296875 35.160156 104.351562 35.160156 103.191406 C 35.160156 102.039062 36.105469 101.09375 37.257812 101.09375 Z M 37.257812 101.09375 " fill-opacity="1" fill-rule="evenodd"/><path fill="#203a55" d="M 37.257812 92.683594 C 38.417969 92.683594 39.355469 93.625 39.355469 94.78125 C 39.355469 95.9375 38.417969 96.882812 37.257812 96.882812 C 36.105469 96.882812 35.160156 95.9375 35.160156 94.78125 C 35.160156 93.625 36.105469 92.683594 37.257812 92.683594 Z M 37.257812 92.683594 " fill-opacity="1" fill-rule="evenodd"/><path fill="#203a55" d="M 37.257812 84.289062 C 38.417969 84.289062 39.355469 85.226562 39.355469 86.386719 C 39.355469 87.539062 38.417969 88.480469 37.257812 88.480469 C 36.105469 88.480469 35.160156 87.539062 35.160156 86.386719 C 35.160156 85.226562 36.105469 84.289062 37.257812 84.289062 Z M 37.257812 84.289062 " fill-opacity="1" fill-rule="evenodd"/><path fill="#203a55" d="M 37.257812 75.882812 C 38.417969 75.882812 39.355469 76.824219 39.355469 77.980469 C 39.355469 79.132812 38.417969 80.078125 37.257812 80.078125 C 36.105469 80.078125 35.160156 79.132812 35.160156 77.980469 C 35.160156 76.824219 36.105469 75.882812 37.257812 75.882812 Z M 37.257812 75.882812 " fill-opacity="1" fill-rule="evenodd"/><path fill="#203a55" d="M 37.257812 67.476562 C 38.417969 67.476562 39.355469 68.417969 39.355469 69.578125 C 39.355469 70.730469 38.417969 71.675781 37.257812 71.675781 C 36.105469 71.675781 35.160156 70.730469 35.160156 69.578125 C 35.160156 68.417969 36.105469 67.476562 37.257812 67.476562 Z M 37.257812 67.476562 " fill-opacity="1" fill-rule="evenodd"/><path fill="#203a55" d="M 37.257812 59.070312 C 38.417969 59.070312 39.355469 60.015625 39.355469 61.171875 C 39.355469 62.328125 38.417969 63.269531 37.257812 63.269531 C 36.105469 63.269531 35.160156 62.328125 35.160156 61.171875 C 35.160156 60.015625 36.105469 59.070312 37.257812 59.070312 Z M 37.257812 59.070312 " fill-opacity="1" fill-rule="evenodd"/><path fill="#203a55" d="M 37.257812 50.667969 C 38.417969 50.667969 39.355469 51.609375 39.355469 52.765625 C 39.355469 53.921875 38.417969 54.867188 37.257812 54.867188 C 36.105469 54.867188 35.160156 53.921875 35.160156 52.765625 C 35.160156 51.609375 36.105469 50.667969 37.257812 50.667969 Z M 37.257812 50.667969 " fill-opacity="1" fill-rule="evenodd"/><path fill="#203a55" d="M 37.257812 42.261719 C 38.417969 42.261719 39.355469 43.207031 39.355469 44.359375 C 39.355469 45.519531 38.417969 46.460938 37.257812 46.460938 C 36.105469 46.460938 35.160156 45.519531 35.160156 44.359375 C 35.160156 43.207031 36.105469 42.261719 37.257812 42.261719 Z M 37.257812 42.261719 " fill-opacity="1" fill-rule="evenodd"/><path fill="#203a55" d="M 37.257812 33.859375 C 38.417969 33.859375 39.355469 34.800781 39.355469 35.957031 C 39.355469 37.113281 38.417969 38.054688 37.257812 38.054688 C 36.105469 38.054688 35.160156 37.113281 35.160156 35.957031 C 35.160156 34.800781 36.105469 33.859375 37.257812 33.859375 Z M 37.257812 33.859375 " fill-opacity="1" fill-rule="evenodd"/><path fill="#203a55" d="M 37.257812 25.460938 C 38.417969 25.460938 39.355469 26.402344 39.355469 27.5625 C 39.355469 27.847656 39.304688 28.121094 39.195312 28.359375 C 38.878906 29.125 38.132812 29.660156 37.257812 29.660156 C 36.390625 29.660156 35.625 29.117188 35.308594 28.351562 C 35.210938 28.101562 35.160156 27.835938 35.160156 27.550781 C 35.160156 26.394531 36.105469 25.453125 37.257812 25.453125 Z M 37.257812 25.460938 " fill-opacity="1" fill-rule="evenodd"/><path fill="#38b6ff" d="M 114.914062 58.65625 C 113.425781 55.078125 111.097656 51.757812 108.402344 49.074219 C 105.707031 46.378906 102.265625 44.359375 98.6875 42.875 C 95.242188 41.445312 91.40625 40.730469 87.441406 40.730469 C 83.472656 40.730469 79.398438 40.875 75.957031 42.304688 C 72.382812 43.789062 69.394531 46.601562 66.699219 49.296875 C 64.003906 51.992188 60.871094 54.847656 59.398438 58.421875 C 57.960938 61.875 58.433594 66.074219 58.433594 70.039062 C 58.433594 74.003906 58.730469 77.890625 60.152344 81.339844 C 61.640625 84.917969 64.652344 87.445312 67.347656 90.136719 C 70.042969 92.832031 72.476562 96.050781 76.054688 97.535156 C 79.507812 98.96875 83.484375 99.9375 87.449219 99.9375 C 91.414062 99.9375 95.300781 98.765625 98.753906 97.335938 C 102.328125 95.847656 105.554688 93.535156 108.25 90.839844 C 110.945312 88.144531 113.113281 84.855469 114.601562 81.277344 C 116.035156 77.828125 117.667969 73.996094 117.667969 70.039062 C 117.667969 66.078125 116.351562 62.101562 114.921875 58.664062 Z M 95.746094 86.9375 L 89.457031 86 L 91.257812 73.847656 L 78.101562 83.972656 L 74.234375 78.925781 L 85.765625 70.039062 L 74.234375 61.152344 L 78.101562 56.097656 L 91.257812 66.230469 L 89.457031 54.070312 L 95.746094 53.136719 L 98.234375 70.039062 Z M 95.746094 86.9375 " fill-opacity="1" fill-rule="nonzero"/><g clip-path="url(#76f3088f6c)"><path fill="#ffffff" d="M 128.464844 70.203125 C 128.464844 71.511719 128.398438 72.820312 128.269531 74.125 C 128.140625 75.429688 127.949219 76.730469 127.695312 78.011719 C 127.4375 79.304688 127.121094 80.574219 126.734375 81.824219 C 126.359375 83.082031 125.914062 84.316406 125.414062 85.53125 C 124.910156 86.738281 124.355469 87.921875 123.734375 89.082031 C 123.117188 90.238281 122.441406 91.359375 121.714844 92.453125 C 120.984375 93.542969 120.207031 94.597656 119.371094 95.609375 C 118.539062 96.625 117.660156 97.589844 116.730469 98.519531 C 115.804688 99.449219 114.832031 100.328125 113.820312 101.160156 C 112.804688 101.992188 111.753906 102.773438 110.660156 103.5 C 109.574219 104.230469 108.449219 104.902344 107.292969 105.523438 C 106.136719 106.140625 104.949219 106.699219 103.738281 107.199219 C 102.527344 107.707031 101.289062 108.144531 100.039062 108.527344 C 98.78125 108.90625 97.511719 109.226562 96.226562 109.480469 C 94.9375 109.738281 93.644531 109.929688 92.335938 110.058594 C 91.03125 110.1875 89.722656 110.25 88.410156 110.25 C 87.097656 110.25 85.789062 110.1875 84.488281 110.058594 C 83.179688 109.929688 81.886719 109.738281 80.597656 109.480469 C 79.3125 109.226562 78.039062 108.90625 76.785156 108.527344 C 75.53125 108.144531 74.292969 107.707031 73.085938 107.199219 C 71.875 106.699219 70.6875 106.140625 69.527344 105.523438 C 68.375 104.902344 67.25 104.230469 66.160156 103.5 C 65.066406 102.773438 64.015625 101.992188 63.003906 101.160156 C 61.988281 100.328125 61.019531 99.449219 60.09375 98.519531 C 59.164062 97.589844 58.285156 96.625 57.453125 95.609375 C 56.617188 94.597656 55.835938 93.542969 55.109375 92.453125 C 54.378906 91.359375 53.707031 90.238281 53.089844 89.082031 C 52.46875 87.921875 51.914062 86.738281 51.410156 85.53125 C 50.910156 84.316406 50.464844 83.082031 50.085938 81.824219 C 49.703125 80.574219 49.386719 79.304688 49.128906 78.011719 C 48.871094 76.730469 48.679688 75.429688 48.554688 74.125 C 48.421875 72.820312 48.359375 71.511719 48.359375 70.203125 C 48.359375 68.890625 48.421875 67.582031 48.554688 66.273438 C 48.679688 64.96875 48.871094 63.671875 49.128906 62.386719 C 49.386719 61.101562 49.703125 59.832031 50.085938 58.574219 C 50.464844 57.320312 50.910156 56.085938 51.410156 54.875 C 51.914062 53.660156 52.46875 52.480469 53.089844 51.320312 C 53.707031 50.160156 54.378906 49.039062 55.109375 47.949219 C 55.835938 46.859375 56.617188 45.808594 57.453125 44.792969 C 58.285156 43.78125 59.164062 42.808594 60.09375 41.878906 C 61.019531 40.953125 61.988281 40.070312 63.003906 39.238281 C 64.015625 38.410156 65.066406 37.628906 66.160156 36.898438 C 67.25 36.171875 68.375 35.5 69.527344 34.875 C 70.6875 34.261719 71.875 33.699219 73.085938 33.199219 C 74.292969 32.695312 75.53125 32.257812 76.785156 31.875 C 78.039062 31.496094 79.3125 31.175781 80.597656 30.921875 C 81.886719 30.664062 83.179688 30.472656 84.488281 30.339844 C 85.789062 30.214844 87.097656 30.148438 88.410156 30.148438 C 89.722656 30.148438 91.03125 30.214844 92.335938 30.339844 C 93.644531 30.472656 94.9375 30.664062 96.226562 30.921875 C 97.511719 31.175781 98.78125 31.496094 100.039062 31.875 C 101.289062 32.257812 102.527344 32.695312 103.738281 33.199219 C 104.949219 33.699219 106.136719 34.261719 107.292969 34.875 C 108.449219 35.5 109.574219 36.171875 110.660156 36.898438 C 111.753906 37.628906 112.804688 38.410156 113.820312 39.238281 C 114.832031 40.070312 115.804688 40.953125 116.730469 41.878906 C 117.660156 42.808594 118.539062 43.78125 119.371094 44.792969 C 120.207031 45.808594 120.984375 46.859375 121.714844 47.949219 C 122.441406 49.039062 123.117188 50.160156 123.734375 51.320312 C 124.355469 52.480469 124.910156 53.660156 125.414062 54.875 C 125.914062 56.085938 126.359375 57.320312 126.734375 58.574219 C 127.121094 59.832031 127.4375 61.101562 127.695312 62.386719 C 127.949219 63.671875 128.140625 64.96875 128.269531 66.273438 C 128.398438 67.582031 128.464844 68.890625 128.464844 70.203125 Z M 128.464844 70.203125 " fill-opacity="1" fill-rule="nonzero"/></g><g clip-path="url(#7b6327a9e5)"><path fill="#38b6ff" d="M 84.753906 107.332031 C 84.519531 107.300781 83.398438 107.136719 82.269531 106.972656 C 74.429688 105.851562 66.605469 101.910156 61.125 96.324219 C 55.167969 90.253906 51.570312 82.898438 50.503906 74.597656 C 50.160156 71.964844 50.269531 66.574219 50.710938 64.097656 C 52.085938 56.429688 55.707031 49.433594 61.132812 43.941406 C 67.628906 37.371094 76.328125 33.378906 85.59375 32.710938 C 88.003906 32.53125 89.828125 32.609375 92.6875 33.011719 C 103.246094 34.492188 113.117188 40.753906 118.992188 49.707031 C 123.082031 55.941406 125.0625 62.597656 125.0625 70.117188 C 125.0625 82.421875 119.117188 93.890625 109.242188 100.636719 C 104.332031 103.992188 98.867188 106.148438 92.957031 107.066406 C 91.523438 107.285156 85.730469 107.476562 84.753906 107.332031 Z M 79.601562 99.632812 C 80.5625 99.363281 81.039062 98.964844 81.875 97.730469 C 82.046875 97.476562 82.109375 97.480469 83.617188 97.773438 C 85.582031 98.160156 88.59375 98.296875 90.390625 98.078125 C 91.710938 97.914062 94.292969 97.429688 94.722656 97.261719 C 94.871094 97.203125 95.027344 97.351562 95.21875 97.726562 C 95.863281 98.988281 96.964844 99.648438 98.414062 99.640625 C 100.761719 99.636719 102.183594 97.777344 101.757812 95.257812 L 101.660156 94.679688 L 102.789062 93.933594 C 103.917969 93.1875 103.917969 93.1875 104.183594 93.480469 C 104.90625 94.292969 106.691406 94.695312 107.691406 94.273438 C 109.109375 93.675781 109.9375 92.460938 109.9375 90.980469 C 109.9375 90.519531 109.84375 89.90625 109.726562 89.625 L 109.511719 89.117188 L 110.417969 87.796875 C 111.667969 85.96875 112.652344 84.195312 113.703125 81.867188 C 114.589844 79.910156 114.609375 79.882812 115.183594 79.710938 C 117.164062 79.121094 118.195312 77.246094 117.621094 75.304688 C 117.410156 74.597656 116.628906 73.667969 115.941406 73.3125 L 115.414062 73.042969 L 115.542969 71.917969 C 115.722656 70.351562 115.566406 67.246094 115.207031 65.109375 C 114.972656 63.726562 114.945312 63.304688 115.082031 63.257812 C 115.507812 63.117188 116.429688 62.097656 116.738281 61.433594 C 117.324219 60.167969 117.097656 58.894531 116.085938 57.730469 C 115.445312 56.992188 114.59375 56.617188 113.566406 56.609375 L 112.722656 56.605469 L 111.867188 55.160156 C 111.398438 54.367188 110.613281 53.207031 110.128906 52.589844 L 109.246094 51.460938 L 109.550781 50.84375 C 109.964844 50 109.964844 48.5625 109.550781 47.765625 C 108.878906 46.460938 107.894531 45.902344 106.289062 45.898438 C 105.269531 45.890625 105.070312 45.9375 104.546875 46.289062 C 104.21875 46.503906 103.898438 46.6875 103.832031 46.6875 C 103.769531 46.6875 103.078125 46.261719 102.296875 45.738281 C 101.515625 45.21875 100.089844 44.40625 99.128906 43.929688 C 97.566406 43.160156 97.378906 43.027344 97.378906 42.695312 C 97.378906 40.949219 95.675781 39.347656 93.816406 39.347656 C 92.441406 39.347656 91.28125 40.070312 90.691406 41.285156 L 90.425781 41.847656 L 87.875 41.878906 C 85.644531 41.902344 83.417969 42.132812 82.320312 42.445312 C 82.082031 42.515625 81.941406 42.390625 81.585938 41.8125 C 81.035156 40.921875 80.132812 40.359375 79.070312 40.25 C 78.023438 40.140625 77.429688 40.273438 76.667969 40.78125 C 75.472656 41.582031 74.949219 43.121094 75.296875 44.8125 L 75.402344 45.316406 L 74.175781 46.105469 C 73.503906 46.542969 72.875 46.957031 72.769531 47.03125 C 72.65625 47.117188 72.429688 47.035156 72.109375 46.785156 C 70.503906 45.554688 68.582031 45.53125 67.292969 46.730469 C 66.398438 47.554688 66.039062 49.277344 66.488281 50.570312 C 66.726562 51.25 66.753906 51.183594 65.8125 52.398438 C 64.75 53.765625 62.980469 56.710938 62.199219 58.398438 C 61.507812 59.898438 61.496094 59.910156 60.929688 60.003906 C 58.09375 60.480469 56.996094 64.027344 59.078125 65.964844 C 59.429688 66.289062 59.867188 66.625 60.058594 66.714844 C 60.359375 66.847656 60.394531 66.9375 60.3125 67.320312 C 60.179688 67.914062 60.179688 72.246094 60.3125 72.84375 C 60.414062 73.289062 60.390625 73.324219 59.703125 73.671875 C 58.070312 74.511719 57.425781 76.640625 58.289062 78.34375 C 58.777344 79.308594 60.023438 80.21875 60.84375 80.21875 C 61.0625 80.21875 61.335938 80.628906 62.054688 82.054688 C 63.183594 84.292969 64.253906 86.03125 65.648438 87.878906 L 66.703125 89.28125 L 66.492188 90.179688 C 66.179688 91.539062 66.492188 92.648438 67.441406 93.550781 C 68.359375 94.425781 69.445312 94.722656 70.714844 94.449219 C 71.28125 94.328125 71.625 94.128906 72.144531 93.644531 L 72.828125 93 L 74.078125 93.90625 C 74.769531 94.40625 75.355469 94.828125 75.382812 94.839844 C 75.40625 94.855469 75.355469 95.144531 75.265625 95.480469 C 75.027344 96.359375 75.210938 97.371094 75.742188 98.167969 C 76.664062 99.535156 78.058594 100.066406 79.601562 99.632812 Z M 84.824219 96.476562 C 83.28125 96.25 82.386719 96.007812 82.269531 95.773438 C 82.203125 95.648438 82.105469 95.339844 82.054688 95.09375 C 81.945312 94.589844 82.199219 94.242188 85.023438 91.054688 L 86.433594 89.464844 L 87.136719 89.832031 C 88.070312 90.324219 89.253906 90.332031 90.246094 89.859375 L 90.960938 89.523438 L 91.285156 89.808594 C 91.933594 90.394531 95.039062 93.222656 95.34375 93.519531 L 95.667969 93.820312 L 95.191406 94.75 L 94.71875 95.6875 L 93.410156 96.003906 C 92.691406 96.175781 91.542969 96.386719 90.855469 96.46875 C 89.445312 96.644531 86.011719 96.648438 84.824219 96.476562 Z M 75.078125 92.769531 L 73.96875 91.949219 L 73.96875 73.8125 C 73.96875 63.839844 73.972656 53.960938 73.976562 51.859375 L 73.980469 48.042969 L 75.128906 47.289062 C 75.761719 46.878906 76.339844 46.542969 76.410156 46.542969 C 76.484375 46.542969 76.75 46.667969 77.007812 46.828125 C 77.265625 46.984375 77.582031 47.117188 77.707031 47.117188 C 77.902344 47.117188 77.96875 47.40625 78.105469 48.808594 C 78.195312 49.738281 78.332031 50.957031 78.40625 51.515625 C 78.476562 52.078125 78.578125 53.140625 78.632812 53.890625 L 78.726562 55.25 L 78.199219 55.441406 C 75.339844 56.484375 75.316406 60.695312 78.167969 61.878906 L 78.832031 62.152344 L 78.832031 77.605469 L 78.34375 77.765625 C 76.40625 78.414062 75.398438 80.785156 76.273438 82.621094 C 76.621094 83.339844 77.527344 84.171875 78.207031 84.398438 C 78.789062 84.589844 78.777344 84.304688 78.398438 88.632812 C 78.050781 92.644531 78.011719 92.882812 77.777344 92.882812 C 77.675781 92.882812 77.289062 93.046875 76.917969 93.242188 C 76.550781 93.4375 76.238281 93.601562 76.21875 93.601562 C 76.203125 93.597656 75.691406 93.230469 75.078125 92.769531 Z M 80.15625 93.125 C 79.828125 92.953125 79.554688 92.714844 79.554688 92.59375 C 79.542969 92.269531 80.25 84.636719 80.292969 84.609375 C 80.316406 84.59375 80.554688 84.496094 80.820312 84.386719 C 81.089844 84.277344 81.527344 84.003906 81.78125 83.773438 L 82.25 83.363281 L 82.71875 83.6875 C 82.972656 83.871094 83.652344 84.371094 84.222656 84.800781 L 85.257812 85.582031 L 85.175781 86.246094 C 85.121094 86.65625 85.175781 87.175781 85.304688 87.597656 L 85.511719 88.28125 L 84.632812 89.253906 C 84.152344 89.785156 83.125 90.949219 82.351562 91.839844 C 81.578125 92.730469 80.902344 93.453125 80.851562 93.449219 C 80.800781 93.4375 80.488281 93.292969 80.15625 93.121094 Z M 99.820312 93.007812 C 98.996094 92.570312 98.425781 92.507812 97.414062 92.742188 L 96.796875 92.886719 L 95.699219 91.828125 C 95.097656 91.242188 93.976562 90.195312 93.207031 89.503906 C 92.074219 88.476562 91.84375 88.203125 91.953125 88 C 92.027344 87.867188 92.128906 87.429688 92.179688 87.039062 C 92.574219 84.050781 89.195312 82.035156 86.667969 83.75 L 85.941406 84.246094 L 85.132812 83.625 C 84.6875 83.28125 84.019531 82.796875 83.644531 82.539062 L 82.96875 82.074219 L 82.96875 81.109375 C 82.96875 80.300781 82.898438 80.023438 82.535156 79.382812 C 82.117188 78.652344 81.054688 77.769531 80.585938 77.769531 C 80.390625 77.769531 80.390625 77.714844 80.363281 67.058594 L 80.351562 62.171875 L 80.804688 62.019531 C 81.515625 61.78125 82.152344 61.1875 82.605469 60.347656 C 82.941406 59.726562 83.019531 59.402344 83.015625 58.703125 L 83.007812 57.832031 L 83.878906 57.234375 C 84.359375 56.90625 85.179688 56.335938 85.703125 55.96875 L 86.644531 55.292969 L 87.195312 55.660156 C 88.359375 56.429688 89.945312 56.4375 91.089844 55.675781 C 91.933594 55.109375 92.671875 53.910156 92.671875 53.105469 C 92.671875 52.8125 92.882812 52.722656 95.132812 52.085938 C 96.488281 51.707031 98.710938 51.078125 100.074219 50.691406 C 101.441406 50.300781 102.578125 50.007812 102.613281 50.039062 C 102.667969 50.097656 100.035156 52.597656 95.742188 56.542969 C 94.882812 57.332031 93.378906 58.734375 92.390625 59.648438 C 91.410156 60.566406 89.316406 62.503906 87.746094 63.960938 C 83.253906 68.128906 80.621094 70.617188 80.566406 70.746094 C 80.511719 70.890625 80.503906 70.878906 82.683594 72.804688 C 83.664062 73.667969 85.175781 75.03125 86.039062 75.832031 C 87.554688 77.238281 89.710938 79.179688 98.703125 87.246094 C 103.753906 91.769531 103.59375 91.503906 101.878906 92.710938 C 101.289062 93.121094 100.761719 93.449219 100.703125 93.4375 C 100.640625 93.429688 100.246094 93.234375 99.820312 93.007812 Z M 66.933594 87.082031 C 65.753906 85.472656 64.691406 83.777344 63.625 81.8125 C 62.707031 80.125 62.671875 80.011719 62.933594 79.867188 C 63.289062 79.667969 64.445312 78.5 64.644531 78.140625 C 64.792969 77.867188 64.828125 77.867188 66.75 78.210938 L 68.703125 78.554688 L 68.703125 87.691406 L 68.28125 87.914062 C 68.046875 88.035156 67.824219 88.132812 67.78125 88.132812 C 67.738281 88.132812 67.355469 87.660156 66.933594 87.082031 Z M 107.652344 87.738281 C 107.304688 87.617188 106.9375 87.484375 106.851562 87.429688 C 106.71875 87.359375 99.34375 80.761719 97.164062 78.765625 C 96.851562 78.476562 94.796875 76.640625 92.601562 74.679688 C 90.40625 72.722656 88.523438 71.039062 88.425781 70.945312 C 88.238281 70.769531 90.308594 68.742188 96.960938 62.589844 C 98.328125 61.324219 99.996094 59.765625 100.664062 59.132812 C 103.972656 55.972656 107.460938 52.792969 107.90625 52.53125 C 108.011719 52.464844 108.226562 52.585938 108.449219 52.828125 C 108.90625 53.339844 111.367188 57.039062 111.367188 57.214844 C 111.367188 57.285156 111.203125 57.511719 111.007812 57.707031 C 109.992188 58.734375 109.714844 60.386719 110.34375 61.683594 L 110.675781 62.363281 L 106.976562 69.0625 L 106.050781 69.015625 C 104.492188 68.9375 103.132812 69.75 102.570312 71.105469 C 102.457031 71.378906 102.265625 71.582031 102.132812 71.582031 C 102 71.582031 100.121094 71.296875 97.960938 70.941406 C 93.0625 70.140625 92.175781 70.042969 91.890625 70.285156 C 91.59375 70.535156 91.609375 71.253906 91.925781 71.417969 C 92.148438 71.542969 97.804688 72.492188 100.59375 72.875 C 102.308594 73.109375 102.28125 73.097656 102.554688 73.78125 C 102.835938 74.476562 103.632812 75.363281 104.289062 75.730469 C 104.589844 75.886719 105.074219 75.96875 105.796875 75.96875 C 107.011719 75.96875 107.542969 75.753906 108.40625 74.921875 L 108.9375 74.402344 L 109.867188 74.902344 L 110.796875 75.398438 L 110.714844 75.980469 C 110.535156 77.207031 111.246094 78.671875 112.328125 79.3125 C 113.101562 79.765625 113.105469 79.738281 111.863281 82.300781 C 110.738281 84.628906 108.648438 88.019531 108.367188 87.96875 C 108.332031 87.960938 108.007812 87.855469 107.652344 87.738281 Z M 66.773438 76.6875 C 65.914062 76.503906 65.15625 76.351562 65.101562 76.347656 C 65.039062 76.335938 64.992188 76.265625 64.992188 76.183594 C 64.992188 76.03125 68.34375 74.320312 68.628906 74.320312 C 68.714844 74.320312 68.753906 74.835938 68.726562 75.683594 C 68.699219 76.625 68.628906 77.046875 68.511719 77.03125 C 68.421875 77.023438 67.636719 76.867188 66.773438 76.6875 Z M 63.777344 74.171875 C 63.554688 73.933594 63.046875 73.621094 62.652344 73.472656 C 62.085938 73.257812 61.910156 73.113281 61.820312 72.785156 C 61.671875 72.257812 61.632812 68.386719 61.769531 67.601562 C 61.863281 67.066406 61.925781 67 62.347656 66.914062 C 62.609375 66.867188 63.0625 66.660156 63.359375 66.457031 L 63.894531 66.09375 L 64.550781 66.464844 C 64.910156 66.675781 65.992188 67.246094 66.957031 67.734375 L 68.707031 68.628906 L 68.667969 70.613281 L 68.628906 72.59375 L 66.507812 73.597656 C 65.339844 74.15625 64.339844 74.601562 64.289062 74.601562 C 64.230469 74.601562 64.003906 74.410156 63.777344 74.171875 Z M 110.328125 73.472656 C 109.371094 72.953125 109.367188 72.949219 109.367188 72.332031 C 109.367188 71.691406 108.96875 70.730469 108.484375 70.195312 L 108.203125 69.886719 L 109.671875 67.246094 C 110.480469 65.792969 111.300781 64.292969 111.503906 63.917969 C 111.757812 63.433594 111.925781 63.261719 112.078125 63.328125 C 112.199219 63.375 112.535156 63.460938 112.832031 63.523438 C 113.132812 63.582031 113.398438 63.652344 113.421875 63.6875 C 113.449219 63.714844 113.582031 64.355469 113.71875 65.105469 C 113.992188 66.683594 114.160156 70.515625 114.015625 71.898438 L 113.914062 72.84375 L 113.371094 72.929688 C 113.070312 72.980469 112.503906 73.25 112.101562 73.523438 C 111.699219 73.804688 111.351562 74.019531 111.335938 74.011719 C 111.3125 74 110.863281 73.757812 110.328125 73.472656 Z M 66.703125 65.894531 C 65.640625 65.339844 64.792969 64.820312 64.8125 64.746094 C 64.824219 64.667969 64.882812 64.324219 64.933594 63.988281 C 65.003906 63.523438 65.097656 63.359375 65.328125 63.308594 C 65.496094 63.265625 66.300781 63.074219 67.125 62.878906 C 67.941406 62.683594 68.632812 62.542969 68.660156 62.570312 C 68.6875 62.597656 68.691406 63.582031 68.667969 64.761719 L 68.628906 66.90625 Z M 64.125 61.210938 C 63.777344 60.839844 63.375 60.476562 63.242188 60.40625 C 63.003906 60.28125 63.015625 60.207031 63.414062 59.316406 C 64.066406 57.859375 65.335938 55.707031 66.589844 53.917969 C 67.210938 53.027344 67.753906 52.296875 67.792969 52.296875 C 67.828125 52.296875 68.046875 52.394531 68.28125 52.515625 L 68.703125 52.734375 L 68.703125 60.925781 L 68.378906 61 C 68.203125 61.042969 67.316406 61.257812 66.410156 61.476562 L 64.753906 61.878906 Z M 82.042969 56.183594 C 81.898438 56.023438 81.441406 55.726562 81.027344 55.519531 C 80.136719 55.082031 80.253906 55.53125 79.828125 51.003906 C 79.667969 49.222656 79.507812 47.648438 79.480469 47.507812 C 79.441406 47.320312 79.625 47.152344 80.121094 46.898438 L 80.8125 46.546875 L 83.453125 48.699219 L 86.09375 50.859375 L 85.882812 51.371094 C 85.652344 51.929688 85.589844 52.851562 85.742188 53.550781 C 85.835938 53.980469 85.789062 54.027344 84.585938 54.898438 C 83.894531 55.398438 83.148438 55.953125 82.921875 56.136719 C 82.433594 56.542969 82.371094 56.546875 82.042969 56.183594 Z M 91.972656 50.460938 L 91.351562 49.652344 L 92.1875 48.042969 L 93.027344 46.429688 L 94.046875 46.363281 C 95.441406 46.273438 96.34375 45.730469 97.019531 44.566406 C 97.035156 44.546875 97.792969 44.914062 98.707031 45.386719 C 100.574219 46.339844 102.730469 47.722656 102.851562 48.042969 C 102.953125 48.308594 102.519531 48.441406 94.386719 50.722656 C 93.484375 50.976562 92.710938 51.203125 92.667969 51.226562 C 92.625 51.25 92.3125 50.90625 91.972656 50.460938 Z M 86.144531 48.996094 C 85.328125 48.339844 82.390625 45.925781 81.917969 45.519531 C 81.683594 45.316406 82.15625 44.070312 82.511719 43.933594 C 83.164062 43.683594 86.355469 43.375 88.285156 43.375 L 90.257812 43.375 L 90.523438 44 C 90.671875 44.347656 91 44.871094 91.257812 45.164062 L 91.71875 45.695312 L 90.851562 47.378906 L 89.976562 49.058594 L 89.097656 49.15625 C 88.613281 49.214844 87.976562 49.382812 87.683594 49.527344 L 87.148438 49.792969 Z M 86.144531 48.996094 " fill-opacity="1" fill-rule="nonzero"/></g><g clip-path="url(#c5e42ce4cb)"><path fill="#ffffff" d="M 133.25 68.75 C 133.25 70.195312 133.179688 71.636719 133.039062 73.078125 C 132.894531 74.515625 132.683594 75.941406 132.402344 77.359375 C 132.121094 78.777344 131.769531 80.175781 131.351562 81.558594 C 130.929688 82.941406 130.445312 84.300781 129.890625 85.636719 C 129.339844 86.972656 128.722656 88.277344 128.039062 89.550781 C 127.359375 90.828125 126.617188 92.0625 125.8125 93.265625 C 125.011719 94.46875 124.152344 95.625 123.234375 96.742188 C 122.316406 97.859375 121.347656 98.929688 120.324219 99.953125 C 119.304688 100.972656 118.234375 101.945312 117.117188 102.859375 C 116 103.777344 114.839844 104.636719 113.640625 105.441406 C 112.4375 106.242188 111.199219 106.984375 109.925781 107.664062 C 108.652344 108.347656 107.347656 108.964844 106.011719 109.515625 C 104.675781 110.070312 103.316406 110.554688 101.933594 110.976562 C 100.550781 111.394531 99.152344 111.746094 97.734375 112.027344 C 96.316406 112.308594 94.890625 112.523438 93.449219 112.664062 C 92.011719 112.804688 90.570312 112.875 89.125 112.875 C 87.679688 112.875 86.238281 112.804688 84.800781 112.664062 C 83.363281 112.523438 81.933594 112.308594 80.515625 112.027344 C 79.101562 111.746094 77.699219 111.394531 76.316406 110.976562 C 74.933594 110.554688 73.574219 110.070312 72.238281 109.515625 C 70.90625 108.964844 69.601562 108.347656 68.324219 107.664062 C 67.050781 106.984375 65.8125 106.242188 64.613281 105.441406 C 63.410156 104.636719 62.25 103.777344 61.132812 102.859375 C 60.015625 101.945312 58.945312 100.972656 57.925781 99.953125 C 56.902344 98.929688 55.933594 97.859375 55.015625 96.742188 C 54.101562 95.625 53.242188 94.46875 52.4375 93.265625 C 51.632812 92.0625 50.894531 90.828125 50.210938 89.550781 C 49.53125 88.277344 48.914062 86.972656 48.359375 85.636719 C 47.808594 84.300781 47.320312 82.941406 46.902344 81.558594 C 46.480469 80.175781 46.132812 78.777344 45.847656 77.359375 C 45.566406 75.941406 45.355469 74.515625 45.214844 73.078125 C 45.070312 71.636719 45 70.195312 45 68.75 C 45 67.308594 45.070312 65.863281 45.214844 64.425781 C 45.355469 62.988281 45.566406 61.5625 45.847656 60.144531 C 46.132812 58.726562 46.480469 57.324219 46.902344 55.941406 C 47.320312 54.558594 47.808594 53.203125 48.359375 51.867188 C 48.914062 50.53125 49.53125 49.226562 50.210938 47.953125 C 50.894531 46.675781 51.632812 45.4375 52.4375 44.238281 C 53.242188 43.035156 54.101562 41.875 55.015625 40.757812 C 55.933594 39.644531 56.902344 38.574219 57.925781 37.550781 C 58.945312 36.53125 60.015625 35.558594 61.132812 34.644531 C 62.25 33.726562 63.410156 32.867188 64.613281 32.0625 C 65.8125 31.261719 67.050781 30.519531 68.324219 29.835938 C 69.601562 29.15625 70.90625 28.539062 72.238281 27.984375 C 73.574219 27.433594 74.933594 26.945312 76.316406 26.527344 C 77.699219 26.109375 79.101562 25.757812 80.515625 25.476562 C 81.933594 25.195312 83.363281 24.980469 84.800781 24.839844 C 86.238281 24.699219 87.679688 24.628906 89.125 24.628906 C 90.570312 24.628906 92.011719 24.699219 93.449219 24.839844 C 94.890625 24.980469 96.316406 25.195312 97.734375 25.476562 C 99.152344 25.757812 100.550781 26.109375 101.933594 26.527344 C 103.316406 26.945312 104.675781 27.433594 106.011719 27.984375 C 107.347656 28.539062 108.652344 29.15625 109.925781 29.835938 C 111.199219 30.519531 112.4375 31.261719 113.640625 32.0625 C 114.839844 32.867188 116 33.726562 117.117188 34.644531 C 118.234375 35.558594 119.304688 36.53125 120.324219 37.550781 C 121.347656 38.574219 122.316406 39.644531 123.234375 40.757812 C 124.152344 41.875 125.011719 43.035156 125.8125 44.238281 C 126.617188 45.4375 127.359375 46.675781 128.039062 47.953125 C 128.722656 49.226562 129.339844 50.53125 129.890625 51.867188 C 130.445312 53.203125 130.929688 54.558594 131.351562 55.941406 C 131.769531 57.324219 132.121094 58.726562 132.402344 60.144531 C 132.683594 61.5625 132.894531 62.988281 133.039062 64.425781 C 133.179688 65.863281 133.25 67.308594 133.25 68.75 Z M 133.25 68.75 " fill-opacity="1" fill-rule="nonzero"/></g><g clip-path="url(#881c616487)"><path fill="#203a55" d="M 84.792969 107.113281 C 84.558594 107.078125 83.441406 106.917969 82.308594 106.753906 C 74.464844 105.632812 66.640625 101.691406 61.15625 96.101562 C 55.199219 90.03125 51.605469 82.675781 50.53125 74.367188 C 50.191406 71.734375 50.300781 66.339844 50.742188 63.867188 C 52.117188 56.195312 55.738281 49.195312 61.167969 43.703125 C 67.664062 37.128906 76.363281 33.136719 85.636719 32.464844 C 88.046875 32.289062 89.867188 32.367188 92.730469 32.769531 C 103.296875 34.25 113.167969 40.515625 119.042969 49.46875 C 123.136719 55.707031 125.117188 62.367188 125.117188 69.886719 C 125.117188 82.195312 119.171875 93.667969 109.289062 100.417969 C 104.378906 103.769531 98.910156 105.929688 93 106.847656 C 91.566406 107.070312 85.769531 107.257812 84.792969 107.113281 Z M 79.640625 99.414062 C 80.605469 99.144531 81.078125 98.746094 81.917969 97.507812 C 82.089844 97.253906 82.148438 97.257812 83.660156 97.554688 C 85.621094 97.941406 88.636719 98.078125 90.433594 97.855469 C 91.753906 97.691406 94.335938 97.207031 94.765625 97.039062 C 94.914062 96.980469 95.070312 97.128906 95.265625 97.507812 C 95.910156 98.769531 97.007812 99.429688 98.457031 99.421875 C 100.8125 99.414062 102.226562 97.558594 101.800781 95.035156 L 101.707031 94.460938 L 102.835938 93.714844 C 103.964844 92.964844 103.964844 92.964844 104.226562 93.261719 C 104.953125 94.070312 106.742188 94.472656 107.738281 94.050781 C 109.160156 93.453125 109.988281 92.242188 109.988281 90.757812 C 109.988281 90.292969 109.890625 89.683594 109.777344 89.402344 L 109.5625 88.890625 L 110.464844 87.574219 C 111.71875 85.746094 112.703125 83.96875 113.753906 81.640625 C 114.640625 79.683594 114.660156 79.652344 115.234375 79.480469 C 117.214844 78.890625 118.25 77.019531 117.671875 75.074219 C 117.460938 74.367188 116.679688 73.4375 115.992188 73.085938 L 115.464844 72.8125 L 115.59375 71.6875 C 115.769531 70.121094 115.617188 67.011719 115.257812 64.878906 C 115.023438 63.496094 114.996094 63.070312 115.132812 63.023438 C 115.558594 62.882812 116.484375 61.863281 116.789062 61.203125 C 117.375 59.933594 117.152344 58.660156 116.136719 57.496094 C 115.496094 56.757812 114.644531 56.382812 113.617188 56.375 L 112.769531 56.371094 L 111.917969 54.925781 C 111.445312 54.128906 110.664062 52.972656 110.179688 52.351562 L 109.296875 51.226562 L 109.601562 50.605469 C 110.011719 49.761719 110.011719 48.328125 109.597656 47.527344 C 108.925781 46.226562 107.941406 45.664062 106.339844 45.65625 C 105.316406 45.65625 105.117188 45.699219 104.59375 46.050781 C 104.265625 46.269531 103.945312 46.445312 103.882812 46.445312 C 103.816406 46.445312 103.125 46.019531 102.34375 45.5 C 101.5625 44.980469 100.136719 44.167969 99.175781 43.695312 C 97.613281 42.921875 97.425781 42.792969 97.425781 42.460938 C 97.425781 40.710938 95.71875 39.105469 93.859375 39.105469 C 92.488281 39.105469 91.320312 39.832031 90.734375 41.046875 L 90.464844 41.609375 L 87.914062 41.636719 C 85.6875 41.664062 83.457031 41.890625 82.359375 42.207031 C 82.121094 42.273438 81.980469 42.152344 81.625 41.574219 C 81.074219 40.683594 80.171875 40.121094 79.105469 40.011719 C 78.0625 39.902344 77.464844 40.035156 76.703125 40.542969 C 75.511719 41.339844 74.988281 42.882812 75.335938 44.574219 L 75.4375 45.078125 L 74.214844 45.871094 C 73.539062 46.304688 72.910156 46.722656 72.808594 46.792969 C 72.691406 46.878906 72.46875 46.796875 72.140625 46.546875 C 70.542969 45.316406 68.617188 45.292969 67.328125 46.492188 C 66.433594 47.316406 66.074219 49.042969 66.523438 50.332031 C 66.761719 51.015625 66.789062 50.949219 65.847656 52.160156 C 64.785156 53.527344 63.011719 56.476562 62.234375 58.164062 C 61.542969 59.660156 61.527344 59.679688 60.960938 59.773438 C 58.125 60.25 57.027344 63.792969 59.113281 65.734375 C 59.460938 66.054688 59.902344 66.394531 60.09375 66.480469 C 60.394531 66.617188 60.429688 66.703125 60.34375 67.089844 C 60.210938 67.679688 60.214844 72.015625 60.347656 72.613281 C 60.445312 73.0625 60.421875 73.09375 59.738281 73.441406 C 58.101562 74.28125 57.453125 76.414062 58.320312 78.121094 C 58.808594 79.078125 60.054688 79.992188 60.875 79.992188 C 61.097656 79.992188 61.367188 80.402344 62.089844 81.828125 C 63.21875 84.066406 64.289062 85.804688 65.683594 87.65625 L 66.734375 89.058594 L 66.527344 89.953125 C 66.214844 91.316406 66.523438 92.425781 67.476562 93.328125 C 68.398438 94.203125 69.480469 94.5 70.75 94.226562 C 71.316406 94.105469 71.664062 93.910156 72.179688 93.421875 L 72.863281 92.777344 L 74.117188 93.683594 C 74.808594 94.183594 75.394531 94.605469 75.417969 94.617188 C 75.445312 94.632812 75.390625 94.921875 75.300781 95.257812 C 75.066406 96.136719 75.246094 97.152344 75.78125 97.945312 C 76.703125 99.316406 78.097656 99.847656 79.640625 99.414062 Z M 84.867188 96.253906 C 83.320312 96.027344 82.425781 95.785156 82.308594 95.554688 C 82.242188 95.425781 82.144531 95.121094 82.089844 94.871094 C 81.984375 94.367188 82.238281 94.019531 85.066406 90.832031 L 86.476562 89.242188 L 87.175781 89.605469 C 88.113281 90.097656 89.292969 90.109375 90.292969 89.636719 L 91.003906 89.300781 L 91.324219 89.585938 C 91.976562 90.171875 95.082031 93.003906 95.390625 93.296875 L 95.710938 93.597656 L 95.234375 94.53125 L 94.761719 95.464844 L 93.453125 95.78125 C 92.734375 95.953125 91.585938 96.164062 90.898438 96.25 C 89.484375 96.421875 86.050781 96.425781 84.867188 96.253906 Z M 75.117188 92.550781 L 74.003906 91.722656 L 74.003906 73.585938 C 74.003906 63.605469 74.007812 53.726562 74.011719 51.621094 L 74.019531 47.800781 L 75.167969 47.050781 C 75.800781 46.640625 76.375 46.300781 76.449219 46.300781 C 76.519531 46.300781 76.789062 46.429688 77.046875 46.589844 C 77.304688 46.746094 77.621094 46.878906 77.746094 46.878906 C 77.941406 46.878906 78.007812 47.171875 78.144531 48.570312 C 78.234375 49.5 78.371094 50.71875 78.441406 51.277344 C 78.515625 51.839844 78.617188 52.910156 78.671875 53.65625 L 78.765625 55.011719 L 78.238281 55.207031 C 75.375 56.25 75.355469 60.464844 78.203125 61.648438 L 78.871094 61.921875 L 78.871094 77.378906 L 78.382812 77.539062 C 76.441406 78.1875 75.433594 80.554688 76.3125 82.394531 C 76.660156 83.113281 77.5625 83.945312 78.25 84.171875 C 78.828125 84.367188 78.816406 84.082031 78.4375 88.40625 C 78.085938 92.417969 78.050781 92.660156 77.816406 92.660156 C 77.714844 92.660156 77.328125 92.824219 76.957031 93.019531 C 76.589844 93.21875 76.273438 93.378906 76.257812 93.378906 C 76.242188 93.375 75.730469 93.003906 75.117188 92.550781 Z M 80.199219 92.902344 C 79.867188 92.730469 79.59375 92.492188 79.589844 92.371094 C 79.582031 92.050781 80.292969 84.410156 80.332031 84.382812 C 80.351562 84.371094 80.589844 84.269531 80.863281 84.160156 C 81.132812 84.054688 81.5625 83.777344 81.820312 83.550781 L 82.289062 83.132812 L 82.757812 83.464844 C 83.015625 83.644531 83.691406 84.144531 84.261719 84.574219 L 85.300781 85.355469 L 85.214844 86.019531 C 85.164062 86.429688 85.214844 86.949219 85.34375 87.371094 L 85.554688 88.058594 L 84.675781 89.027344 C 84.191406 89.5625 83.164062 90.726562 82.390625 91.617188 C 81.617188 92.507812 80.945312 93.230469 80.890625 93.226562 C 80.839844 93.21875 80.527344 93.074219 80.199219 92.902344 Z M 99.863281 92.785156 C 99.042969 92.347656 98.472656 92.285156 97.457031 92.523438 L 96.84375 92.664062 L 95.742188 91.601562 C 95.136719 91.019531 94.019531 89.976562 93.253906 89.28125 C 92.117188 88.253906 91.890625 87.980469 91.996094 87.777344 C 92.070312 87.640625 92.171875 87.207031 92.222656 86.816406 C 92.617188 83.824219 89.238281 81.808594 86.710938 83.527344 L 85.984375 84.019531 L 85.175781 83.398438 C 84.730469 83.058594 84.0625 82.570312 83.6875 82.3125 L 83.011719 81.847656 L 83.007812 80.882812 C 83.007812 80.074219 82.9375 79.796875 82.574219 79.15625 C 82.160156 78.425781 81.09375 77.542969 80.628906 77.542969 C 80.429688 77.542969 80.429688 77.488281 80.402344 66.828125 L 80.390625 61.941406 L 80.84375 61.785156 C 81.554688 61.546875 82.191406 60.957031 82.644531 60.113281 C 82.980469 59.492188 83.0625 59.167969 83.054688 58.46875 L 83.046875 57.597656 L 83.921875 57 C 84.402344 56.675781 85.21875 56.101562 85.742188 55.730469 L 86.6875 55.058594 L 87.238281 55.421875 C 88.402344 56.195312 89.988281 56.199219 91.132812 55.4375 C 91.976562 54.871094 92.714844 53.675781 92.714844 52.871094 C 92.714844 52.574219 92.925781 52.488281 95.179688 51.851562 C 96.53125 51.46875 98.757812 50.839844 100.121094 50.453125 C 101.488281 50.066406 102.628906 49.773438 102.660156 49.804688 C 102.714844 49.863281 100.078125 52.359375 95.789062 56.308594 C 94.925781 57.101562 93.417969 58.496094 92.433594 59.414062 C 91.453125 60.332031 89.363281 62.273438 87.792969 63.726562 C 83.292969 67.898438 80.660156 70.386719 80.609375 70.511719 C 80.550781 70.65625 80.542969 70.648438 82.726562 72.574219 C 83.707031 73.441406 85.214844 74.804688 86.078125 75.605469 C 87.597656 77.011719 89.75 78.953125 98.746094 87.019531 C 103.796875 91.550781 103.644531 91.28125 101.925781 92.488281 C 101.335938 92.898438 100.808594 93.226562 100.746094 93.214844 C 100.6875 93.203125 100.289062 93.011719 99.863281 92.785156 Z M 66.96875 86.855469 C 65.789062 85.246094 64.722656 83.554688 63.65625 81.585938 C 62.742188 79.898438 62.703125 79.785156 62.964844 79.640625 C 63.320312 79.441406 64.480469 78.273438 64.679688 77.914062 C 64.828125 77.640625 64.863281 77.640625 66.785156 77.980469 L 68.738281 78.328125 L 68.738281 87.46875 L 68.316406 87.691406 C 68.085938 87.808594 67.859375 87.910156 67.816406 87.910156 C 67.773438 87.910156 67.390625 87.4375 66.96875 86.855469 Z M 107.703125 87.511719 C 107.351562 87.394531 106.988281 87.253906 106.898438 87.207031 C 106.765625 87.132812 99.390625 80.53125 97.210938 78.539062 C 96.898438 78.25 94.84375 76.410156 92.644531 74.449219 C 90.445312 72.492188 88.566406 70.808594 88.464844 70.714844 C 88.277344 70.539062 90.351562 68.511719 97.007812 62.355469 C 98.375 61.089844 100.042969 59.53125 100.710938 58.894531 C 104.019531 55.738281 107.507812 52.554688 107.953125 52.292969 C 108.0625 52.230469 108.273438 52.347656 108.492188 52.59375 C 108.953125 53.105469 111.414062 56.804688 111.414062 56.980469 C 111.414062 57.054688 111.253906 57.273438 111.058594 57.472656 C 110.039062 58.5 109.765625 60.152344 110.394531 61.449219 L 110.722656 62.128906 L 108.875 65.480469 L 107.023438 68.832031 L 106.097656 68.785156 C 104.539062 68.703125 103.179688 69.519531 102.617188 70.875 C 102.503906 71.148438 102.316406 71.351562 102.179688 71.351562 C 102.046875 71.351562 100.167969 71.0625 98.003906 70.710938 C 93.109375 69.910156 92.21875 69.816406 91.933594 70.054688 C 91.636719 70.304688 91.65625 71.023438 91.96875 71.1875 C 92.195312 71.3125 97.851562 72.261719 100.636719 72.644531 C 102.355469 72.882812 102.328125 72.867188 102.601562 73.550781 C 102.886719 74.246094 103.675781 75.136719 104.339844 75.5 C 104.636719 75.660156 105.121094 75.738281 105.847656 75.738281 C 107.058594 75.738281 107.589844 75.527344 108.453125 74.691406 L 108.988281 74.175781 L 110.847656 75.167969 L 110.761719 75.753906 C 110.582031 76.976562 111.296875 78.445312 112.378906 79.082031 C 113.148438 79.539062 113.15625 79.507812 111.914062 82.074219 C 110.785156 84.402344 108.695312 87.792969 108.417969 87.742188 C 108.378906 87.738281 108.058594 87.632812 107.703125 87.511719 Z M 66.808594 76.460938 C 65.945312 76.277344 65.191406 76.125 65.132812 76.117188 C 65.074219 76.109375 65.027344 76.035156 65.027344 75.953125 C 65.027344 75.804688 68.375 74.089844 68.664062 74.089844 C 68.753906 74.089844 68.789062 74.609375 68.761719 75.457031 C 68.730469 76.398438 68.664062 76.820312 68.546875 76.804688 C 68.457031 76.796875 67.671875 76.640625 66.808594 76.460938 Z M 63.8125 73.945312 C 63.585938 73.707031 63.078125 73.390625 62.683594 73.242188 C 62.121094 73.03125 61.945312 72.886719 61.851562 72.558594 C 61.707031 72.027344 61.667969 68.15625 61.804688 67.371094 C 61.894531 66.835938 61.957031 66.765625 62.378906 66.683594 C 62.640625 66.632812 63.097656 66.429688 63.394531 66.226562 L 63.929688 65.859375 L 64.585938 66.234375 C 64.945312 66.445312 66.027344 67.015625 66.992188 67.507812 L 68.746094 68.398438 L 68.703125 70.382812 L 68.664062 72.363281 L 66.542969 73.371094 C 65.375 73.921875 64.375 74.375 64.320312 74.375 C 64.265625 74.375 64.039062 74.183594 63.8125 73.945312 Z M 110.378906 73.242188 C 109.421875 72.722656 109.417969 72.71875 109.417969 72.101562 C 109.417969 71.460938 109.019531 70.5 108.53125 69.964844 L 108.253906 69.65625 L 109.71875 67.011719 C 110.527344 65.558594 111.351562 64.0625 111.550781 63.6875 C 111.808594 63.203125 111.976562 63.027344 112.128906 63.09375 C 112.246094 63.140625 112.585938 63.230469 112.882812 63.289062 C 113.179688 63.347656 113.449219 63.421875 113.476562 63.453125 C 113.503906 63.480469 113.632812 64.121094 113.765625 64.875 C 114.042969 66.453125 114.210938 70.285156 114.066406 71.667969 L 113.964844 72.613281 L 113.421875 72.703125 C 113.121094 72.75 112.550781 73.015625 112.148438 73.296875 C 111.75 73.574219 111.402344 73.792969 111.382812 73.78125 C 111.359375 73.769531 110.910156 73.527344 110.378906 73.242188 Z M 66.738281 65.664062 C 65.679688 65.109375 64.824219 64.589844 64.84375 64.511719 C 64.863281 64.433594 64.917969 64.09375 64.96875 63.757812 C 65.035156 63.289062 65.132812 63.128906 65.363281 63.074219 C 65.53125 63.035156 66.339844 62.84375 67.15625 62.644531 C 67.976562 62.449219 68.667969 62.308594 68.695312 62.335938 C 68.722656 62.363281 68.726562 63.351562 68.703125 64.53125 L 68.664062 66.675781 Z M 64.160156 60.976562 C 63.8125 60.609375 63.414062 60.246094 63.273438 60.171875 C 63.039062 60.046875 63.050781 59.96875 63.449219 59.082031 C 64.105469 57.625 65.371094 55.46875 66.625 53.679688 C 67.25 52.789062 67.789062 52.0625 67.828125 52.0625 C 67.863281 52.0625 68.085938 52.160156 68.316406 52.28125 L 68.738281 52.5 L 68.738281 60.695312 L 68.414062 60.765625 C 68.238281 60.808594 67.351562 61.023438 66.441406 61.242188 L 64.789062 61.648438 Z M 82.082031 55.949219 C 81.941406 55.789062 81.480469 55.492188 81.066406 55.285156 C 80.175781 54.847656 80.296875 55.292969 79.871094 50.765625 C 79.703125 48.984375 79.542969 47.410156 79.515625 47.269531 C 79.480469 47.085938 79.660156 46.914062 80.160156 46.660156 L 80.851562 46.304688 L 83.492188 48.464844 L 86.136719 50.621094 L 85.921875 51.132812 C 85.691406 51.695312 85.632812 52.617188 85.785156 53.3125 C 85.878906 53.742188 85.832031 53.792969 84.625 54.664062 C 83.933594 55.164062 83.1875 55.71875 82.964844 55.902344 C 82.472656 56.308594 82.410156 56.3125 82.082031 55.949219 Z M 92.011719 50.226562 L 91.394531 49.417969 L 92.230469 47.804688 L 93.070312 46.191406 L 94.089844 46.125 C 95.488281 46.035156 96.386719 45.492188 97.066406 44.324219 C 97.078125 44.308594 97.835938 44.679688 98.753906 45.148438 C 100.621094 46.105469 102.777344 47.488281 102.898438 47.804688 C 103 48.070312 102.566406 48.207031 94.429688 50.488281 C 93.527344 50.738281 92.753906 50.964844 92.710938 50.992188 C 92.667969 51.015625 92.355469 50.667969 92.011719 50.226562 Z M 86.1875 48.757812 C 85.367188 48.101562 82.429688 45.6875 81.957031 45.277344 C 81.726562 45.078125 82.195312 43.832031 82.554688 43.695312 C 83.203125 43.445312 86.398438 43.136719 88.328125 43.136719 L 90.300781 43.136719 L 90.566406 43.761719 C 90.714844 44.105469 91.042969 44.628906 91.296875 44.921875 L 91.765625 45.457031 L 90.890625 47.140625 L 90.019531 48.820312 L 89.140625 48.921875 C 88.65625 48.976562 88.019531 49.144531 87.722656 49.289062 L 87.191406 49.558594 Z M 86.1875 48.757812 " fill-opacity="1" fill-rule="nonzero"/></g><g fill="#38b6ff" fill-opacity="1"><g transform="translate(-0.177421, 172.764651)"><g><path d="M 14.71875 -15.5625 C 14.9375 -15.5625 15.054688 -15.476562 15.078125 -15.3125 C 15.097656 -15.144531 15.054688 -15.007812 14.953125 -14.90625 L 9.625 -9.125 L 14.71875 -0.75 C 14.8125 -0.59375 14.828125 -0.425781 14.765625 -0.25 C 14.710938 -0.0820312 14.578125 0 14.359375 0 L 11.46875 0 C 11.1875 0 10.957031 -0.0625 10.78125 -0.1875 C 10.613281 -0.3125 10.453125 -0.5 10.296875 -0.75 C 10.296875 -0.75 10.179688 -0.941406 9.953125 -1.328125 C 9.722656 -1.722656 9.429688 -2.210938 9.078125 -2.796875 C 8.722656 -3.390625 8.347656 -4.007812 7.953125 -4.65625 C 7.566406 -5.300781 7.21875 -5.894531 6.90625 -6.4375 L 5.4375 -4.890625 L 5.4375 -0.6875 C 5.4375 -0.414062 5.378906 -0.234375 5.265625 -0.140625 C 5.148438 -0.046875 4.988281 0 4.78125 0 L 2.4375 0 C 2.21875 0 2.046875 -0.046875 1.921875 -0.140625 C 1.804688 -0.234375 1.75 -0.414062 1.75 -0.6875 L 1.75 -14.875 C 1.75 -15.144531 1.804688 -15.328125 1.921875 -15.421875 C 2.046875 -15.515625 2.21875 -15.5625 2.4375 -15.5625 L 4.78125 -15.5625 C 4.988281 -15.5625 5.148438 -15.515625 5.265625 -15.421875 C 5.378906 -15.328125 5.4375 -15.144531 5.4375 -14.875 L 5.4375 -9.609375 L 10.34375 -15 C 10.570312 -15.269531 10.757812 -15.429688 10.90625 -15.484375 C 11.050781 -15.535156 11.253906 -15.5625 11.515625 -15.5625 Z M 14.71875 -15.5625 "/></g></g></g><g fill="#38b6ff" fill-opacity="1"><g transform="translate(14.935746, 172.764651)"><g><path d="M 15.140625 -0.65625 C 15.203125 -0.519531 15.21875 -0.375 15.1875 -0.21875 C 15.15625 -0.0703125 15.003906 0 14.734375 0 L 12.25 0 C 12 0 11.8125 -0.046875 11.6875 -0.140625 C 11.5625 -0.234375 11.453125 -0.421875 11.359375 -0.703125 L 10.6875 -2.578125 L 4.890625 -2.578125 L 4.234375 -0.703125 C 4.140625 -0.421875 4.03125 -0.234375 3.90625 -0.140625 C 3.789062 -0.046875 3.597656 0 3.328125 0 L 0.859375 0 C 0.597656 0 0.445312 -0.0703125 0.40625 -0.21875 C 0.375 -0.375 0.390625 -0.519531 0.453125 -0.65625 L 5.703125 -14.828125 C 5.796875 -15.085938 5.914062 -15.273438 6.0625 -15.390625 C 6.21875 -15.503906 6.421875 -15.5625 6.671875 -15.5625 L 8.9375 -15.5625 C 9.207031 -15.5625 9.410156 -15.503906 9.546875 -15.390625 C 9.679688 -15.273438 9.800781 -15.085938 9.90625 -14.828125 Z M 7.8125 -11.125 L 6.03125 -5.890625 L 9.578125 -5.890625 Z M 7.8125 -11.125 "/></g></g></g><g fill="#38b6ff" fill-opacity="1"><g transform="translate(30.072569, 172.764651)"><g><path d="M 14.5 -0.75 C 14.613281 -0.59375 14.640625 -0.425781 14.578125 -0.25 C 14.515625 -0.0820312 14.367188 0 14.140625 0 L 11.359375 0 C 11.066406 0 10.835938 -0.0507812 10.671875 -0.15625 C 10.515625 -0.269531 10.347656 -0.453125 10.171875 -0.703125 L 7.625 -4.515625 C 7.507812 -4.660156 7.4375 -4.816406 7.40625 -4.984375 C 7.375 -5.148438 7.359375 -5.394531 7.359375 -5.71875 L 7.359375 -7.625 C 7.359375 -7.84375 7.40625 -8.007812 7.5 -8.125 C 7.59375 -8.238281 7.773438 -8.296875 8.046875 -8.296875 L 8.515625 -8.296875 C 9.097656 -8.296875 9.617188 -8.476562 10.078125 -8.84375 C 10.535156 -9.207031 10.765625 -9.664062 10.765625 -10.21875 C 10.765625 -10.832031 10.554688 -11.320312 10.140625 -11.6875 C 9.722656 -12.050781 9.207031 -12.234375 8.59375 -12.234375 L 5.4375 -12.234375 L 5.4375 -0.6875 C 5.4375 -0.414062 5.378906 -0.234375 5.265625 -0.140625 C 5.148438 -0.046875 4.976562 0 4.75 0 L 2.40625 0 C 2.207031 0 2.046875 -0.046875 1.921875 -0.140625 C 1.804688 -0.234375 1.75 -0.414062 1.75 -0.6875 L 1.75 -14.859375 C 1.75 -15.078125 1.789062 -15.242188 1.875 -15.359375 C 1.96875 -15.484375 2.144531 -15.546875 2.40625 -15.546875 L 8.375 -15.546875 C 9.238281 -15.546875 9.953125 -15.488281 10.515625 -15.375 C 11.085938 -15.269531 11.570312 -15.101562 11.96875 -14.875 C 12.375 -14.644531 12.742188 -14.363281 13.078125 -14.03125 C 13.523438 -13.601562 13.863281 -13.066406 14.09375 -12.421875 C 14.332031 -11.773438 14.453125 -11.070312 14.453125 -10.3125 C 14.453125 -9.488281 14.273438 -8.753906 13.921875 -8.109375 C 13.578125 -7.460938 13.15625 -6.925781 12.65625 -6.5 C 12.15625 -6.070312 11.660156 -5.773438 11.171875 -5.609375 Z M 14.5 -0.75 "/></g></g></g><g fill="#38b6ff" fill-opacity="1"><g transform="translate(45.469554, 172.764651)"><g><path d="M 12.28125 -3.3125 C 12.550781 -3.3125 12.734375 -3.25 12.828125 -3.125 C 12.921875 -3.007812 12.96875 -2.84375 12.96875 -2.625 L 12.96875 -0.6875 C 12.96875 -0.476562 12.921875 -0.3125 12.828125 -0.1875 C 12.734375 -0.0625 12.550781 0 12.28125 0 L 2.4375 0 C 2.164062 0 1.984375 -0.0625 1.890625 -0.1875 C 1.796875 -0.3125 1.75 -0.476562 1.75 -0.6875 L 1.75 -14.875 C 1.75 -15.144531 1.8125 -15.328125 1.9375 -15.421875 C 2.0625 -15.515625 2.226562 -15.5625 2.4375 -15.5625 L 4.78125 -15.5625 C 5 -15.5625 5.164062 -15.515625 5.28125 -15.421875 C 5.40625 -15.328125 5.46875 -15.144531 5.46875 -14.875 L 5.46875 -3.3125 Z M 12.28125 -3.3125 "/></g></g></g><g clip-path="url(#49b651f75e)"><g fill="#38b6ff" fill-opacity="1"><g transform="translate(58.879815, 172.764651)"><g><path d="M 9.078125 -9.03125 C 9.503906 -8.90625 9.960938 -8.75 10.453125 -8.5625 C 10.941406 -8.382812 11.398438 -8.140625 11.828125 -7.828125 C 12.253906 -7.523438 12.601562 -7.113281 12.875 -6.59375 C 13.15625 -6.070312 13.296875 -5.410156 13.296875 -4.609375 C 13.296875 -3.492188 13.019531 -2.566406 12.46875 -1.828125 C 11.925781 -1.097656 11.179688 -0.550781 10.234375 -0.1875 C 9.296875 0.175781 8.21875 0.359375 7 0.359375 C 6.257812 0.359375 5.515625 0.25 4.765625 0.03125 C 4.015625 -0.175781 3.328125 -0.488281 2.703125 -0.90625 C 2.085938 -1.320312 1.585938 -1.847656 1.203125 -2.484375 C 0.828125 -3.117188 0.640625 -3.84375 0.640625 -4.65625 C 0.640625 -4.925781 0.6875 -5.101562 0.78125 -5.1875 C 0.875 -5.28125 1.054688 -5.328125 1.328125 -5.328125 L 3.625 -5.328125 C 3.882812 -5.328125 4.085938 -5.289062 4.234375 -5.21875 C 4.378906 -5.144531 4.457031 -4.957031 4.46875 -4.65625 C 4.488281 -4.5 4.53125 -4.34375 4.59375 -4.1875 C 4.65625 -4.03125 4.765625 -3.863281 4.921875 -3.6875 C 5.160156 -3.40625 5.492188 -3.203125 5.921875 -3.078125 C 6.359375 -2.960938 6.796875 -2.90625 7.234375 -2.90625 C 7.878906 -2.90625 8.425781 -3.007812 8.875 -3.21875 C 9.332031 -3.425781 9.5625 -3.859375 9.5625 -4.515625 C 9.5625 -4.960938 9.351562 -5.285156 8.9375 -5.484375 C 8.53125 -5.691406 8.015625 -5.863281 7.390625 -6 C 6.765625 -6.132812 6.113281 -6.300781 5.4375 -6.5 C 4.65625 -6.757812 3.910156 -7.0625 3.203125 -7.40625 C 2.503906 -7.75 1.9375 -8.21875 1.5 -8.8125 C 1.070312 -9.414062 0.859375 -10.21875 0.859375 -11.21875 C 0.859375 -12.238281 1.128906 -13.09375 1.671875 -13.78125 C 2.210938 -14.46875 2.925781 -14.988281 3.8125 -15.34375 C 4.695312 -15.695312 5.625 -15.890625 6.59375 -15.921875 C 7.351562 -15.921875 8.101562 -15.832031 8.84375 -15.65625 C 9.582031 -15.488281 10.253906 -15.21875 10.859375 -14.84375 C 11.472656 -14.46875 11.960938 -14 12.328125 -13.4375 C 12.703125 -12.882812 12.890625 -12.210938 12.890625 -11.421875 C 12.890625 -11.140625 12.84375 -10.957031 12.75 -10.875 C 12.65625 -10.800781 12.472656 -10.765625 12.203125 -10.765625 L 9.890625 -10.765625 C 9.671875 -10.765625 9.523438 -10.832031 9.453125 -10.96875 C 9.378906 -11.101562 9.3125 -11.25 9.25 -11.40625 C 9.195312 -11.53125 9.132812 -11.644531 9.0625 -11.75 C 9 -11.851562 8.894531 -11.972656 8.75 -12.109375 C 8.53125 -12.328125 8.226562 -12.488281 7.84375 -12.59375 C 7.46875 -12.695312 7.097656 -12.75 6.734375 -12.75 C 6.484375 -12.75 6.191406 -12.707031 5.859375 -12.625 C 5.535156 -12.550781 5.253906 -12.414062 5.015625 -12.21875 C 4.773438 -12.019531 4.65625 -11.738281 4.65625 -11.375 C 4.65625 -11.007812 4.835938 -10.703125 5.203125 -10.453125 C 5.566406 -10.203125 6.003906 -9.984375 6.515625 -9.796875 C 7.023438 -9.617188 7.519531 -9.46875 8 -9.34375 C 8.488281 -9.226562 8.847656 -9.125 9.078125 -9.03125 Z M 9.078125 -9.03125 "/></g></g></g></g><g fill="#38b6ff" fill-opacity="1"><g transform="translate(72.834066, 172.764651)"><g><path d="M 13.03125 -3.3125 C 13.300781 -3.3125 13.484375 -3.25 13.578125 -3.125 C 13.671875 -3.007812 13.71875 -2.84375 13.71875 -2.625 L 13.71875 -0.6875 C 13.71875 -0.476562 13.671875 -0.3125 13.578125 -0.1875 C 13.484375 -0.0625 13.300781 0 13.03125 0 L 2.4375 0 C 2.164062 0 1.984375 -0.0625 1.890625 -0.1875 C 1.796875 -0.3125 1.75 -0.476562 1.75 -0.6875 L 1.75 -14.875 C 1.75 -15.101562 1.796875 -15.273438 1.890625 -15.390625 C 1.984375 -15.503906 2.164062 -15.5625 2.4375 -15.5625 L 12.625 -15.5625 C 12.894531 -15.5625 13.078125 -15.503906 13.171875 -15.390625 C 13.265625 -15.273438 13.3125 -15.101562 13.3125 -14.875 L 13.3125 -12.921875 C 13.3125 -12.710938 13.265625 -12.546875 13.171875 -12.421875 C 13.078125 -12.296875 12.894531 -12.234375 12.625 -12.234375 L 5.484375 -12.234375 L 5.484375 -9.65625 L 11.828125 -9.65625 C 12.097656 -9.65625 12.28125 -9.59375 12.375 -9.46875 C 12.46875 -9.351562 12.515625 -9.1875 12.515625 -8.96875 L 12.515625 -7.125 C 12.515625 -6.914062 12.46875 -6.75 12.375 -6.625 C 12.28125 -6.5 12.097656 -6.4375 11.828125 -6.4375 L 5.484375 -6.4375 L 5.484375 -3.3125 Z M 13.03125 -3.3125 "/></g></g></g><g fill="#38b6ff" fill-opacity="1"><g transform="translate(87.308639, 172.764651)"><g><path d="M 13.703125 -15.5625 C 13.921875 -15.5625 14.085938 -15.515625 14.203125 -15.421875 C 14.328125 -15.328125 14.390625 -15.144531 14.390625 -14.875 L 14.390625 -0.6875 C 14.390625 -0.476562 14.335938 -0.3125 14.234375 -0.1875 C 14.140625 -0.0625 13.960938 0 13.703125 0 L 11.546875 0 C 11.242188 0 11.03125 -0.0703125 10.90625 -0.21875 C 10.78125 -0.375 10.640625 -0.566406 10.484375 -0.796875 L 5.46875 -8.921875 L 5.46875 -0.6875 C 5.46875 -0.414062 5.40625 -0.234375 5.28125 -0.140625 C 5.164062 -0.046875 5 0 4.78125 0 L 2.4375 0 C 2.226562 0 2.0625 -0.046875 1.9375 -0.140625 C 1.8125 -0.234375 1.75 -0.414062 1.75 -0.6875 L 1.75 -14.875 C 1.75 -15.101562 1.796875 -15.273438 1.890625 -15.390625 C 1.984375 -15.503906 2.164062 -15.5625 2.4375 -15.5625 L 4.65625 -15.5625 C 4.957031 -15.5625 5.171875 -15.484375 5.296875 -15.328125 C 5.421875 -15.179688 5.5625 -14.992188 5.71875 -14.765625 L 10.734375 -6.671875 L 10.734375 -14.875 C 10.734375 -15.144531 10.796875 -15.328125 10.921875 -15.421875 C 11.054688 -15.515625 11.222656 -15.5625 11.421875 -15.5625 Z M 13.703125 -15.5625 "/></g></g></g><g fill="#ffffff" fill-opacity="1"><g transform="translate(103.086968, 172.764651)"><g><path d="M 14.171875 -15.5625 C 14.390625 -15.5625 14.53125 -15.484375 14.59375 -15.328125 C 14.65625 -15.179688 14.65625 -15.03125 14.59375 -14.875 L 9.53125 -0.703125 C 9.394531 -0.410156 9.265625 -0.21875 9.140625 -0.125 C 9.023438 -0.0390625 8.832031 0 8.5625 0 L 6.296875 0 C 6.046875 0 5.851562 -0.0390625 5.71875 -0.125 C 5.59375 -0.21875 5.460938 -0.410156 5.328125 -0.703125 L 0.234375 -14.875 C 0.171875 -15.03125 0.171875 -15.179688 0.234375 -15.328125 C 0.296875 -15.484375 0.4375 -15.5625 0.65625 -15.5625 L 3.28125 -15.5625 C 3.601562 -15.5625 3.820312 -15.503906 3.9375 -15.390625 C 4.050781 -15.285156 4.160156 -15.09375 4.265625 -14.8125 L 7.46875 -5.015625 L 10.671875 -14.8125 C 10.765625 -15.09375 10.875 -15.285156 11 -15.390625 C 11.125 -15.503906 11.34375 -15.5625 11.65625 -15.5625 Z M 14.171875 -15.5625 "/></g></g></g><g fill="#ffffff" fill-opacity="1"><g transform="translate(117.774414, 172.764651)"><g><path d="M 15.140625 -0.65625 C 15.203125 -0.519531 15.21875 -0.375 15.1875 -0.21875 C 15.15625 -0.0703125 15.003906 0 14.734375 0 L 12.25 0 C 12 0 11.8125 -0.046875 11.6875 -0.140625 C 11.5625 -0.234375 11.453125 -0.421875 11.359375 -0.703125 L 10.6875 -2.578125 L 4.890625 -2.578125 L 4.234375 -0.703125 C 4.140625 -0.421875 4.03125 -0.234375 3.90625 -0.140625 C 3.789062 -0.046875 3.597656 0 3.328125 0 L 0.859375 0 C 0.597656 0 0.445312 -0.0703125 0.40625 -0.21875 C 0.375 -0.375 0.390625 -0.519531 0.453125 -0.65625 L 5.703125 -14.828125 C 5.796875 -15.085938 5.914062 -15.273438 6.0625 -15.390625 C 6.21875 -15.503906 6.421875 -15.5625 6.671875 -15.5625 L 8.9375 -15.5625 C 9.207031 -15.5625 9.410156 -15.503906 9.546875 -15.390625 C 9.679688 -15.273438 9.800781 -15.085938 9.90625 -14.828125 Z M 7.8125 -11.125 L 6.03125 -5.890625 L 9.578125 -5.890625 Z M 7.8125 -11.125 "/></g></g></g><g clip-path="url(#7034b01c56)"><g fill="#ffffff" fill-opacity="1"><g transform="translate(132.911237, 172.764651)"><g><path d="M 13.390625 -15.5625 C 13.609375 -15.5625 13.773438 -15.515625 13.890625 -15.421875 C 14.015625 -15.328125 14.078125 -15.144531 14.078125 -14.875 L 14.078125 -4.75 C 14.078125 -3.820312 13.882812 -3.035156 13.5 -2.390625 C 13.125 -1.742188 12.625 -1.21875 12 -0.8125 C 11.382812 -0.414062 10.707031 -0.125 9.96875 0.0625 C 9.238281 0.257812 8.519531 0.359375 7.8125 0.359375 C 7.09375 0.359375 6.367188 0.257812 5.640625 0.0625 C 4.921875 -0.125 4.25 -0.414062 3.625 -0.8125 C 3.007812 -1.21875 2.507812 -1.742188 2.125 -2.390625 C 1.75 -3.035156 1.5625 -3.820312 1.5625 -4.75 L 1.5625 -14.875 C 1.5625 -15.144531 1.625 -15.328125 1.75 -15.421875 C 1.875 -15.515625 2.039062 -15.5625 2.25 -15.5625 L 4.59375 -15.5625 C 4.8125 -15.5625 4.976562 -15.515625 5.09375 -15.421875 C 5.21875 -15.328125 5.28125 -15.144531 5.28125 -14.875 L 5.28125 -5.28125 C 5.28125 -4.53125 5.503906 -3.953125 5.953125 -3.546875 C 6.410156 -3.140625 7.03125 -2.9375 7.8125 -2.9375 C 8.59375 -2.9375 9.210938 -3.140625 9.671875 -3.546875 C 10.128906 -3.953125 10.359375 -4.53125 10.359375 -5.28125 L 10.359375 -14.875 C 10.359375 -15.144531 10.421875 -15.328125 10.546875 -15.421875 C 10.671875 -15.515625 10.835938 -15.5625 11.046875 -15.5625 Z M 13.390625 -15.5625 "/></g></g></g></g><g fill="#ffffff" fill-opacity="1"><g transform="translate(148.189964, 172.764651)"><g><path d="M 12.28125 -3.3125 C 12.550781 -3.3125 12.734375 -3.25 12.828125 -3.125 C 12.921875 -3.007812 12.96875 -2.84375 12.96875 -2.625 L 12.96875 -0.6875 C 12.96875 -0.476562 12.921875 -0.3125 12.828125 -0.1875 C 12.734375 -0.0625 12.550781 0 12.28125 0 L 2.4375 0 C 2.164062 0 1.984375 -0.0625 1.890625 -0.1875 C 1.796875 -0.3125 1.75 -0.476562 1.75 -0.6875 L 1.75 -14.875 C 1.75 -15.144531 1.8125 -15.328125 1.9375 -15.421875 C 2.0625 -15.515625 2.226562 -15.5625 2.4375 -15.5625 L 4.78125 -15.5625 C 5 -15.5625 5.164062 -15.515625 5.28125 -15.421875 C 5.40625 -15.328125 5.46875 -15.144531 5.46875 -14.875 L 5.46875 -3.3125 Z M 12.28125 -3.3125 "/></g></g></g><g fill="#ffffff" fill-opacity="1"><g transform="translate(161.600225, 172.764651)"><g><path d="M 12.28125 -15.5625 C 12.550781 -15.5625 12.734375 -15.503906 12.828125 -15.390625 C 12.921875 -15.273438 12.96875 -15.101562 12.96875 -14.875 L 12.96875 -12.921875 C 12.96875 -12.710938 12.921875 -12.546875 12.828125 -12.421875 C 12.734375 -12.296875 12.550781 -12.234375 12.28125 -12.234375 L 8.65625 -12.234375 L 8.65625 -0.6875 C 8.65625 -0.414062 8.59375 -0.234375 8.46875 -0.140625 C 8.351562 -0.046875 8.1875 0 7.96875 0 L 5.625 0 C 5.425781 0 5.257812 -0.046875 5.125 -0.140625 C 5 -0.234375 4.9375 -0.414062 4.9375 -0.6875 L 4.9375 -12.234375 L 1.296875 -12.234375 C 1.035156 -12.234375 0.851562 -12.296875 0.75 -12.421875 C 0.65625 -12.546875 0.609375 -12.710938 0.609375 -12.921875 L 0.609375 -14.875 C 0.609375 -15.101562 0.65625 -15.273438 0.75 -15.390625 C 0.851562 -15.503906 1.035156 -15.5625 1.296875 -15.5625 Z M 12.28125 -15.5625 "/></g></g></g></svg>