<svg xmlns="http://www.w3.org/2000/svg" xmlns:xlink="http://www.w3.org/1999/xlink" width="234" zoomAndPan="magnify" viewBox="0 0 175.5 173.999997" height="232" preserveAspectRatio="xMidYMid meet" version="1.0"><defs><g/><clipPath id="6024f4c90c"><path d="M 18.265625 0.246094 L 156.894531 0.246094 L 156.894531 153.125 L 18.265625 153.125 Z M 18.265625 0.246094 " clip-rule="nonzero"/></clipPath><clipPath id="836af0e4fb"><path d="M 48.34375 30.109375 L 128.410156 30.109375 L 128.410156 110.101562 L 48.34375 110.101562 Z M 48.34375 30.109375 " clip-rule="nonzero"/></clipPath><clipPath id="d65dfbd70b"><path d="M 50.285156 32.578125 L 125.011719 32.578125 L 125.011719 107.238281 L 50.285156 107.238281 Z M 50.285156 32.578125 " clip-rule="nonzero"/></clipPath><clipPath id="4bb9f12d74"><path d="M 59 156 L 73 156 L 73 173.75 L 59 173.75 Z M 59 156 " clip-rule="nonzero"/></clipPath><clipPath id="811bf5bb13"><path d="M 134 157 L 147 157 L 147 173.75 L 134 173.75 Z M 134 157 " clip-rule="nonzero"/></clipPath></defs><path fill="#203a55" d="M 99.449219 97.960938 C 99.394531 99.777344 98.167969 101.417969 96.335938 101.910156 C 94.507812 102.394531 92.621094 101.585938 91.671875 100.054688 C 91.152344 101.785156 89.546875 103.050781 87.644531 103.050781 C 85.742188 103.050781 84.132812 101.785156 83.617188 100.054688 C 82.664062 101.585938 80.777344 102.402344 78.949219 101.917969 C 77.117188 101.429688 75.890625 99.785156 75.839844 97.972656 C 74.523438 99.21875 72.496094 99.519531 70.84375 98.570312 C 69.199219 97.617188 68.433594 95.71875 68.859375 93.960938 C 67.269531 94.820312 65.234375 94.582031 63.890625 93.242188 C 62.542969 91.898438 62.296875 89.863281 63.171875 88.265625 C 61.410156 88.691406 59.5 87.929688 58.558594 86.285156 C 57.605469 84.644531 57.898438 82.609375 59.140625 81.292969 C 57.332031 81.238281 55.6875 80.015625 55.195312 78.183594 C 54.707031 76.355469 55.519531 74.472656 57.066406 73.523438 C 55.324219 73.007812 54.058594 71.398438 54.058594 69.496094 C 54.058594 67.597656 55.332031 65.988281 57.066406 65.476562 C 55.527344 64.523438 54.707031 62.644531 55.195312 60.808594 C 55.6875 58.980469 57.339844 57.757812 59.140625 57.703125 C 57.898438 56.386719 57.597656 54.351562 58.558594 52.710938 C 59.507812 51.070312 61.410156 50.304688 63.171875 50.734375 C 62.308594 49.140625 62.550781 47.109375 63.890625 45.765625 C 65.234375 44.417969 67.269531 44.179688 68.859375 45.046875 C 68.441406 43.289062 69.199219 41.390625 70.84375 40.4375 C 72.488281 39.484375 74.523438 39.78125 75.839844 41.035156 C 75.890625 39.21875 77.117188 37.578125 78.949219 37.085938 C 80.777344 36.601562 82.675781 37.410156 83.617188 38.953125 C 84.132812 37.214844 85.742188 35.945312 87.644531 35.945312 C 89.546875 35.945312 91.152344 37.214844 91.671875 38.953125 C 92.621094 37.417969 94.507812 36.601562 96.335938 37.085938 C 98.167969 37.578125 99.394531 39.230469 99.449219 41.035156 C 100.761719 39.789062 102.800781 39.484375 104.445312 40.4375 C 106.089844 41.390625 106.851562 43.289062 106.425781 45.046875 C 108.019531 44.183594 110.054688 44.425781 111.394531 45.765625 C 112.738281 47.109375 112.988281 49.140625 112.117188 50.734375 C 113.878906 50.3125 115.777344 51.070312 116.730469 52.710938 C 117.679688 54.351562 117.390625 56.386719 116.132812 57.703125 C 117.941406 57.757812 119.59375 58.980469 120.078125 60.808594 C 120.570312 62.644531 119.761719 64.523438 118.214844 65.476562 C 119.957031 65.988281 121.226562 67.597656 121.226562 69.496094 C 121.226562 71.398438 119.957031 73.007812 118.214844 73.523438 C 119.753906 74.472656 120.570312 76.355469 120.078125 78.183594 C 119.59375 80.015625 117.941406 81.238281 116.132812 81.292969 C 117.378906 82.609375 117.679688 84.632812 116.730469 86.285156 C 115.777344 87.929688 113.878906 88.691406 112.117188 88.265625 C 112.976562 89.855469 112.738281 91.890625 111.394531 93.242188 C 110.046875 94.582031 108.019531 94.828125 106.425781 93.960938 C 106.847656 95.71875 106.089844 97.628906 104.445312 98.570312 C 102.800781 99.519531 100.761719 99.226562 99.449219 97.972656 Z M 154.296875 33.8125 L 154.8125 33.8125 L 154.8125 46.402344 L 154.296875 46.402344 C 152.492188 49.664062 146.503906 49.027344 146.4375 44.335938 L 146.4375 35.867188 C 146.503906 31.199219 152.492188 30.5625 154.296875 33.820312 Z M 154.296875 92.554688 L 154.8125 92.554688 L 154.8125 105.140625 L 154.289062 105.140625 C 152.484375 108.382812 146.492188 107.769531 146.433594 103.070312 L 146.433594 94.597656 C 146.492188 89.960938 152.484375 89.296875 154.289062 92.554688 Z M 154.296875 92.554688 " fill-opacity="1" fill-rule="evenodd"/><path fill="#ffffff" d="M 138.035156 10.734375 C 142.660156 10.734375 146.4375 14.511719 146.4375 19.132812 L 146.4375 119.84375 C 146.4375 124.453125 142.660156 128.234375 138.035156 128.234375 L 37.25 128.234375 C 32.625 128.234375 28.847656 124.460938 28.847656 119.84375 L 28.847656 19.132812 C 28.847656 14.511719 32.625 10.734375 37.25 10.734375 L 138.046875 10.734375 Z M 87.644531 35.917969 C 69.09375 35.917969 54.046875 50.941406 54.046875 69.492188 C 54.046875 88.035156 69.09375 103.050781 87.644531 103.050781 C 106.199219 103.050781 121.246094 88.027344 121.246094 69.492188 C 121.246094 50.953125 106.203125 35.917969 87.644531 35.917969 Z M 87.644531 35.917969 " fill-opacity="1" fill-rule="evenodd"/><path fill="#ffffff" d="M 146.4375 91.691406 L 146.4375 47.257812 L 149.238281 48.246094 C 150.128906 48.554688 151.144531 48.554688 152.03125 48.246094 L 154.839844 47.230469 L 154.839844 91.730469 L 152.03125 90.726562 C 151.144531 90.40625 150.128906 90.40625 149.230469 90.71875 L 146.433594 91.703125 Z M 154.839844 105.96875 L 154.839844 119.832031 C 154.839844 129.0625 147.28125 136.617188 138.035156 136.617188 L 37.25 136.617188 C 28.011719 136.617188 20.449219 129.070312 20.449219 119.832031 L 20.449219 19.132812 C 20.449219 9.902344 28.003906 2.34375 37.25 2.34375 L 138.046875 2.34375 C 147.28125 2.34375 154.847656 9.894531 154.847656 19.132812 L 154.847656 32.988281 L 152.039062 31.984375 C 151.148438 31.660156 150.136719 31.660156 149.238281 31.984375 L 146.4375 32.960938 L 146.4375 19.140625 C 146.4375 14.523438 142.660156 10.742188 138.035156 10.742188 L 37.25 10.742188 C 32.625 10.742188 28.847656 14.523438 28.847656 19.140625 L 28.847656 119.851562 C 28.847656 124.460938 32.625 128.246094 37.25 128.246094 L 138.046875 128.246094 C 142.667969 128.246094 146.445312 124.46875 146.445312 119.851562 L 146.445312 106.027344 L 149.246094 107.011719 C 150.136719 107.324219 151.148438 107.324219 152.039062 107.007812 L 154.847656 105.992188 Z M 154.839844 105.96875 " fill-opacity="1" fill-rule="evenodd"/><path fill="#38b6ff" d="M 37.25 17.03125 C 38.40625 17.03125 39.34375 17.976562 39.34375 19.132812 C 39.34375 20.285156 38.40625 21.226562 37.25 21.226562 C 36.09375 21.226562 35.152344 20.285156 35.152344 19.132812 C 35.152344 17.976562 36.09375 17.03125 37.25 17.03125 Z M 37.25 17.03125 " fill-opacity="1" fill-rule="evenodd"/><path fill="#38b6ff" d="M 87.644531 33.8125 C 107.359375 33.8125 123.34375 49.78125 123.34375 69.480469 C 123.34375 89.179688 107.359375 105.152344 87.644531 105.152344 C 67.925781 105.152344 51.941406 89.179688 51.941406 69.480469 C 51.941406 49.78125 67.925781 33.8125 87.644531 33.8125 Z M 87.644531 33.8125 " fill-opacity="1" fill-rule="evenodd"/><g clip-path="url(#6024f4c90c)"><path fill="#203a55" d="M 137.78125 138.710938 L 135.941406 153.394531 L 123.34375 153.394531 L 121.503906 138.710938 L 53.78125 138.710938 L 51.941406 153.394531 L 39.34375 153.394531 L 37.503906 138.710938 L 37.25 138.710938 C 26.851562 138.710938 18.351562 130.222656 18.351562 119.832031 L 18.351562 19.132812 C 18.34375 8.738281 26.851562 0.246094 37.25 0.246094 L 138.046875 0.246094 C 148.449219 0.246094 156.945312 8.738281 156.945312 19.132812 L 156.945312 119.84375 C 156.945312 130.222656 148.449219 138.722656 138.046875 138.722656 L 137.78125 138.722656 Z M 137.78125 138.710938 " fill-opacity="1" fill-rule="evenodd"/></g><path fill="#ffffff" d="M 148.539062 88.734375 C 149.886719 88.265625 151.390625 88.265625 152.730469 88.746094 L 152.730469 50.214844 C 151.390625 50.707031 149.878906 50.707031 148.539062 50.234375 Z M 148.539062 88.734375 " fill-opacity="1" fill-rule="evenodd"/><path fill="#ffffff" d="M 152.738281 108.957031 C 151.398438 109.449219 149.886719 109.449219 148.546875 108.976562 L 148.546875 119.84375 C 148.546875 125.613281 143.828125 130.328125 138.046875 130.328125 L 37.25 130.328125 C 31.472656 130.328125 26.753906 125.613281 26.753906 119.84375 L 26.753906 19.132812 C 26.753906 13.355469 31.472656 8.640625 37.25 8.640625 L 138.046875 8.640625 C 143.828125 8.640625 148.546875 13.355469 148.546875 19.132812 L 148.546875 29.992188 C 149.898438 29.519531 151.398438 29.519531 152.738281 30 L 152.738281 19.132812 C 152.738281 11.054688 146.121094 4.441406 138.035156 4.441406 L 37.25 4.441406 C 29.171875 4.441406 22.554688 11.046875 22.554688 19.132812 L 22.554688 119.84375 C 22.554688 127.914062 29.171875 134.523438 37.25 134.523438 L 138.046875 134.523438 C 146.128906 134.523438 152.75 127.914062 152.75 119.84375 L 152.75 108.96875 Z M 152.738281 108.957031 " fill-opacity="1" fill-rule="evenodd"/><path fill="#38b6ff" d="M 150.617188 92.605469 C 151.65625 92.605469 152.707031 93.292969 152.707031 94.660156 L 152.707031 103.050781 C 152.707031 104.414062 151.648438 105.105469 150.597656 105.105469 C 149.550781 105.105469 148.558594 104.4375 148.546875 103.082031 L 148.546875 94.632812 C 148.5625 93.285156 149.59375 92.605469 150.625 92.605469 M 150.625 90.835938 C 148.457031 90.835938 146.796875 92.457031 146.769531 94.617188 L 146.769531 103.050781 C 146.769531 103.050781 146.769531 103.097656 146.769531 103.097656 C 146.796875 105.253906 148.441406 106.882812 150.597656 106.882812 C 152.15625 106.882812 153.445312 106.066406 154.074219 104.828125 L 154.492188 104.828125 L 154.492188 103.050781 C 154.492188 103.050781 154.492188 94.660156 154.492188 94.660156 L 154.492188 92.882812 L 154.074219 92.882812 C 153.453125 91.640625 152.171875 90.835938 150.625 90.835938 Z M 150.625 90.835938 " fill-opacity="1" fill-rule="nonzero"/><path fill="#38b6ff" d="M 150.605469 33.855469 C 151.65625 33.855469 152.707031 34.550781 152.707031 35.90625 L 152.707031 44.300781 C 152.707031 45.667969 151.65625 46.363281 150.605469 46.363281 C 149.558594 46.363281 148.558594 45.695312 148.539062 44.328125 L 148.539062 35.878906 C 148.558594 34.523438 149.574219 33.855469 150.597656 33.855469 M 150.597656 32.078125 C 148.429688 32.078125 146.785156 33.707031 146.757812 35.867188 L 146.757812 44.300781 C 146.757812 44.300781 146.757812 44.347656 146.757812 44.347656 C 146.785156 46.5 148.441406 48.128906 150.605469 48.128906 C 152.164062 48.128906 153.445312 47.3125 154.074219 46.066406 L 154.480469 46.066406 L 154.480469 44.289062 C 154.480469 44.289062 154.480469 35.898438 154.480469 35.898438 L 154.480469 34.121094 L 154.066406 34.121094 C 153.4375 32.878906 152.15625 32.074219 150.597656 32.074219 Z M 150.597656 32.078125 " fill-opacity="1" fill-rule="nonzero"/><path fill="#ffffff" d="M 138.035156 12.832031 L 37.25 12.832031 C 33.792969 12.832031 30.945312 15.675781 30.945312 19.132812 L 30.945312 119.84375 C 30.945312 123.292969 33.785156 126.136719 37.25 126.136719 L 138.046875 126.136719 C 141.507812 126.136719 144.351562 123.304688 144.351562 119.84375 L 144.351562 19.132812 C 144.351562 15.675781 141.507812 12.832031 138.046875 12.832031 Z M 138.035156 12.832031 " fill-opacity="1" fill-rule="evenodd"/><path fill="#38b6ff" d="M 87.644531 117.664062 L 87.730469 117.664062 C 88.898438 117.664062 89.832031 118.605469 89.832031 119.757812 C 89.832031 120.914062 88.890625 121.859375 87.730469 121.859375 L 87.644531 121.859375 C 86.523438 121.8125 85.625 120.886719 85.625 119.757812 C 85.625 118.632812 86.523438 117.710938 87.644531 117.664062 Z M 87.644531 117.664062 " fill-opacity="1" fill-rule="evenodd"/><path fill="#38b6ff" d="M 87.644531 17.03125 C 88.800781 17.03125 89.742188 17.976562 89.742188 19.132812 C 89.742188 20.285156 88.800781 21.226562 87.644531 21.226562 C 86.480469 21.226562 85.546875 20.285156 85.546875 19.132812 C 85.546875 17.976562 86.488281 17.03125 87.644531 17.03125 Z M 87.644531 17.03125 " fill-opacity="1" fill-rule="evenodd"/><path fill="#38b6ff" d="M 138.125 121.859375 C 136.972656 121.859375 136.03125 120.914062 136.03125 119.757812 C 136.03125 118.605469 136.972656 117.664062 138.125 117.664062 C 139.285156 117.664062 140.226562 118.605469 140.226562 119.757812 C 140.226562 120.914062 139.285156 121.859375 138.125 121.859375 Z M 138.125 121.859375 " fill-opacity="1" fill-rule="evenodd"/><path fill="#38b6ff" d="M 140.136719 19.132812 C 140.136719 20.285156 139.195312 21.226562 138.035156 21.226562 C 136.882812 21.226562 135.941406 20.285156 135.941406 19.132812 C 135.941406 17.976562 136.882812 17.03125 138.035156 17.03125 C 139.195312 17.03125 140.136719 17.976562 140.136719 19.132812 Z M 140.136719 19.132812 " fill-opacity="1" fill-rule="evenodd"/><path fill="#38b6ff" d="M 39.785156 19.132812 C 39.785156 20.285156 38.839844 21.226562 37.683594 21.226562 C 36.53125 21.226562 35.585938 20.285156 35.585938 19.132812 C 35.585938 17.976562 36.53125 17.03125 37.683594 17.03125 C 38.839844 17.03125 39.785156 17.976562 39.785156 19.132812 Z M 39.785156 19.132812 " fill-opacity="1" fill-rule="evenodd"/><path fill="#38b6ff" d="M 98.144531 19.132812 C 98.144531 20.285156 97.199219 21.226562 96.042969 21.226562 C 94.890625 21.226562 93.945312 20.285156 93.945312 19.132812 C 93.945312 17.976562 94.890625 17.03125 96.042969 17.03125 C 97.199219 17.03125 98.144531 17.976562 98.144531 19.132812 Z M 98.144531 19.132812 " fill-opacity="1" fill-rule="evenodd"/><path fill="#38b6ff" d="M 87.972656 30.699219 C 109.820312 30.699219 127.53125 48.40625 127.53125 70.234375 C 127.53125 92.066406 109.8125 109.761719 87.972656 109.761719 C 66.132812 109.761719 48.40625 92.066406 48.40625 70.234375 C 48.40625 48.40625 66.121094 30.699219 87.972656 30.699219 Z M 87.972656 30.699219 " fill-opacity="1" fill-rule="evenodd"/><path fill="#38b6ff" d="M 106.542969 19.132812 C 106.542969 20.285156 105.601562 21.226562 104.445312 21.226562 C 103.289062 21.226562 102.347656 20.285156 102.347656 19.132812 C 102.347656 17.976562 103.289062 17.03125 104.445312 17.03125 C 105.601562 17.03125 106.542969 17.976562 106.542969 19.132812 Z M 106.542969 19.132812 " fill-opacity="1" fill-rule="evenodd"/><path fill="#38b6ff" d="M 114.945312 19.132812 C 114.945312 20.285156 114 21.226562 112.847656 21.226562 C 111.6875 21.226562 110.746094 20.285156 110.746094 19.132812 C 110.746094 17.976562 111.6875 17.03125 112.847656 17.03125 C 114 17.03125 114.945312 17.976562 114.945312 19.132812 Z M 114.945312 19.132812 " fill-opacity="1" fill-rule="evenodd"/><path fill="#38b6ff" d="M 123.34375 19.132812 C 123.34375 20.285156 122.398438 21.226562 121.246094 21.226562 C 120.089844 21.226562 119.148438 20.285156 119.148438 19.132812 C 119.148438 17.976562 120.089844 17.03125 121.246094 17.03125 C 122.398438 17.03125 123.34375 17.976562 123.34375 19.132812 Z M 123.34375 19.132812 " fill-opacity="1" fill-rule="evenodd"/><path fill="#38b6ff" d="M 131.742188 19.132812 C 131.742188 20.285156 130.804688 21.226562 129.648438 21.226562 C 128.488281 21.226562 127.550781 20.285156 127.550781 19.132812 C 127.550781 17.976562 128.488281 17.03125 129.648438 17.03125 C 130.804688 17.03125 131.742188 17.976562 131.742188 19.132812 Z M 131.742188 19.132812 " fill-opacity="1" fill-rule="evenodd"/><path fill="#38b6ff" d="M 138.125 29.546875 C 137.347656 29.546875 136.660156 29.113281 136.296875 28.480469 C 136.128906 28.183594 136.03125 27.828125 136.03125 27.453125 C 136.03125 26.296875 136.972656 25.355469 138.125 25.355469 C 139.285156 25.355469 140.226562 26.296875 140.226562 27.453125 C 140.226562 27.828125 140.128906 28.183594 139.957031 28.488281 C 139.59375 29.128906 138.917969 29.558594 138.125 29.558594 Z M 138.125 29.546875 " fill-opacity="1" fill-rule="evenodd"/><path fill="#38b6ff" d="M 138.125 37.941406 C 136.972656 37.941406 136.03125 37 136.03125 35.847656 C 136.03125 34.691406 136.972656 33.746094 138.125 33.746094 C 139.285156 33.746094 140.226562 34.691406 140.226562 35.847656 C 140.226562 37 139.285156 37.941406 138.125 37.941406 Z M 138.125 37.941406 " fill-opacity="1" fill-rule="evenodd"/><path fill="#38b6ff" d="M 138.125 46.332031 C 136.972656 46.332031 136.03125 45.390625 136.03125 44.238281 C 136.03125 43.082031 136.972656 42.144531 138.125 42.144531 C 139.285156 42.144531 140.226562 43.082031 140.226562 44.238281 C 140.226562 45.390625 139.285156 46.332031 138.125 46.332031 Z M 138.125 46.332031 " fill-opacity="1" fill-rule="evenodd"/><path fill="#38b6ff" d="M 138.125 54.726562 C 136.972656 54.726562 136.03125 53.789062 136.03125 52.632812 C 136.03125 51.480469 136.972656 50.539062 138.125 50.539062 C 139.285156 50.539062 140.226562 51.480469 140.226562 52.632812 C 140.226562 53.789062 139.285156 54.726562 138.125 54.726562 Z M 138.125 54.726562 " fill-opacity="1" fill-rule="evenodd"/><path fill="#38b6ff" d="M 138.125 63.113281 C 136.972656 63.113281 136.03125 62.171875 136.03125 61.015625 C 136.03125 59.863281 136.972656 58.921875 138.125 58.921875 C 139.285156 58.921875 140.226562 59.863281 140.226562 61.015625 C 140.226562 62.171875 139.285156 63.113281 138.125 63.113281 Z M 138.125 63.113281 " fill-opacity="1" fill-rule="evenodd"/><path fill="#38b6ff" d="M 138.125 71.507812 C 136.972656 71.507812 136.03125 70.566406 136.03125 69.40625 C 136.03125 68.253906 136.972656 67.3125 138.125 67.3125 C 139.285156 67.3125 140.226562 68.253906 140.226562 69.40625 C 140.226562 70.566406 139.285156 71.507812 138.125 71.507812 Z M 138.125 71.507812 " fill-opacity="1" fill-rule="evenodd"/><path fill="#38b6ff" d="M 138.125 79.898438 C 136.972656 79.898438 136.03125 78.957031 136.03125 77.804688 C 136.03125 76.648438 136.972656 75.707031 138.125 75.707031 C 139.285156 75.707031 140.226562 76.648438 140.226562 77.804688 C 140.226562 78.957031 139.285156 79.898438 138.125 79.898438 Z M 138.125 79.898438 " fill-opacity="1" fill-rule="evenodd"/><path fill="#38b6ff" d="M 138.125 88.292969 C 136.972656 88.292969 136.03125 87.351562 136.03125 86.199219 C 136.03125 85.039062 136.972656 84.097656 138.125 84.097656 C 139.285156 84.097656 140.226562 85.039062 140.226562 86.199219 C 140.226562 87.351562 139.285156 88.292969 138.125 88.292969 Z M 138.125 88.292969 " fill-opacity="1" fill-rule="evenodd"/><path fill="#38b6ff" d="M 138.125 96.683594 C 136.972656 96.683594 136.03125 95.742188 136.03125 94.589844 C 136.03125 93.433594 136.972656 92.496094 138.125 92.496094 C 139.285156 92.496094 140.226562 93.433594 140.226562 94.589844 C 140.226562 95.742188 139.285156 96.683594 138.125 96.683594 Z M 138.125 96.683594 " fill-opacity="1" fill-rule="evenodd"/><path fill="#38b6ff" d="M 138.125 105.078125 C 136.972656 105.078125 136.03125 104.140625 136.03125 102.984375 C 136.03125 101.832031 136.972656 100.886719 138.125 100.886719 C 139.285156 100.886719 140.226562 101.832031 140.226562 102.984375 C 140.226562 104.140625 139.285156 105.078125 138.125 105.078125 Z M 138.125 105.078125 " fill-opacity="1" fill-rule="evenodd"/><path fill="#38b6ff" d="M 138.125 113.472656 C 136.972656 113.472656 136.03125 112.53125 136.03125 111.375 C 136.03125 110.222656 136.972656 109.28125 138.125 109.28125 C 139.285156 109.28125 140.226562 110.222656 140.226562 111.375 C 140.226562 112.53125 139.285156 113.472656 138.125 113.472656 Z M 138.125 113.472656 " fill-opacity="1" fill-rule="evenodd"/><path fill="#38b6ff" d="M 127.628906 119.757812 C 127.628906 118.605469 128.574219 117.664062 129.726562 117.664062 C 130.882812 117.664062 131.824219 118.605469 131.824219 119.757812 C 131.824219 120.914062 130.882812 121.859375 129.726562 121.859375 C 128.574219 121.859375 127.628906 120.914062 127.628906 119.757812 Z M 127.628906 119.757812 " fill-opacity="1" fill-rule="evenodd"/><path fill="#38b6ff" d="M 119.230469 119.757812 C 119.230469 118.605469 120.167969 117.664062 121.324219 117.664062 C 122.480469 117.664062 123.421875 118.605469 123.421875 119.757812 C 123.421875 120.914062 122.480469 121.859375 121.324219 121.859375 C 120.167969 121.859375 119.230469 120.914062 119.230469 119.757812 Z M 119.230469 119.757812 " fill-opacity="1" fill-rule="evenodd"/><path fill="#38b6ff" d="M 110.828125 119.757812 C 110.828125 118.605469 111.769531 117.664062 112.925781 117.664062 C 114.078125 117.664062 115.023438 118.605469 115.023438 119.757812 C 115.023438 120.914062 114.078125 121.859375 112.925781 121.859375 C 111.769531 121.859375 110.828125 120.914062 110.828125 119.757812 Z M 110.828125 119.757812 " fill-opacity="1" fill-rule="evenodd"/><path fill="#38b6ff" d="M 102.425781 119.757812 C 102.425781 118.605469 103.367188 117.664062 104.527344 117.664062 C 105.679688 117.664062 106.621094 118.605469 106.621094 119.757812 C 106.621094 120.914062 105.679688 121.859375 104.527344 121.859375 C 103.367188 121.859375 102.425781 120.914062 102.425781 119.757812 Z M 102.425781 119.757812 " fill-opacity="1" fill-rule="evenodd"/><path fill="#38b6ff" d="M 94.027344 119.757812 C 94.027344 118.605469 94.96875 117.664062 96.125 117.664062 C 97.28125 117.664062 98.222656 118.605469 98.222656 119.757812 C 98.222656 120.914062 97.28125 121.859375 96.125 121.859375 C 94.96875 121.859375 94.027344 120.914062 94.027344 119.757812 Z M 94.027344 119.757812 " fill-opacity="1" fill-rule="evenodd"/><path fill="#38b6ff" d="M 47.75 19.132812 C 47.75 20.285156 46.804688 21.226562 45.648438 21.226562 C 44.496094 21.226562 43.550781 20.285156 43.550781 19.132812 C 43.550781 17.976562 44.496094 17.03125 45.648438 17.03125 C 46.804688 17.03125 47.75 17.976562 47.75 19.132812 Z M 47.75 19.132812 " fill-opacity="1" fill-rule="evenodd"/><path fill="#38b6ff" d="M 56.148438 19.132812 C 56.148438 20.285156 55.207031 21.226562 54.046875 21.226562 C 52.894531 21.226562 51.953125 20.285156 51.953125 19.132812 C 51.953125 17.976562 52.894531 17.03125 54.046875 17.03125 C 55.207031 17.03125 56.148438 17.976562 56.148438 19.132812 Z M 56.148438 19.132812 " fill-opacity="1" fill-rule="evenodd"/><path fill="#38b6ff" d="M 64.539062 19.132812 C 64.539062 20.285156 63.597656 21.226562 62.445312 21.226562 C 61.285156 21.226562 60.34375 20.285156 60.34375 19.132812 C 60.34375 17.976562 61.285156 17.03125 62.445312 17.03125 C 63.597656 17.03125 64.539062 17.976562 64.539062 19.132812 Z M 64.539062 19.132812 " fill-opacity="1" fill-rule="evenodd"/><path fill="#38b6ff" d="M 72.941406 19.132812 C 72.941406 20.285156 71.996094 21.226562 70.84375 21.226562 C 69.683594 21.226562 68.746094 20.285156 68.746094 19.132812 C 68.746094 17.976562 69.683594 17.03125 70.84375 17.03125 C 71.996094 17.03125 72.941406 17.976562 72.941406 19.132812 Z M 72.941406 19.132812 " fill-opacity="1" fill-rule="evenodd"/><path fill="#38b6ff" d="M 81.339844 19.132812 C 81.339844 20.285156 80.402344 21.226562 79.242188 21.226562 C 78.089844 21.226562 77.148438 20.285156 77.148438 19.132812 C 77.148438 17.976562 78.089844 17.03125 79.242188 17.03125 C 80.402344 17.03125 81.339844 17.976562 81.339844 19.132812 Z M 81.339844 19.132812 " fill-opacity="1" fill-rule="evenodd"/><path fill="#38b6ff" d="M 35.230469 119.757812 C 35.230469 118.605469 36.175781 117.664062 37.328125 117.664062 C 38.484375 117.664062 39.429688 118.605469 39.429688 119.757812 C 39.429688 120.914062 38.484375 121.859375 37.328125 121.859375 C 36.175781 121.859375 35.230469 120.914062 35.230469 119.757812 Z M 35.230469 119.757812 " fill-opacity="1" fill-rule="evenodd"/><path fill="#38b6ff" d="M 77.226562 119.757812 C 77.226562 118.605469 78.167969 117.664062 79.324219 117.664062 C 80.480469 117.664062 81.421875 118.605469 81.421875 119.757812 C 81.421875 120.914062 80.480469 121.859375 79.324219 121.859375 C 78.167969 121.859375 77.226562 120.914062 77.226562 119.757812 Z M 77.226562 119.757812 " fill-opacity="1" fill-rule="evenodd"/><path fill="#38b6ff" d="M 68.828125 119.757812 C 68.828125 118.605469 69.769531 117.664062 70.921875 117.664062 C 72.082031 117.664062 73.019531 118.605469 73.019531 119.757812 C 73.019531 120.914062 72.082031 121.859375 70.921875 121.859375 C 69.769531 121.859375 68.828125 120.914062 68.828125 119.757812 Z M 68.828125 119.757812 " fill-opacity="1" fill-rule="evenodd"/><path fill="#38b6ff" d="M 60.429688 119.757812 C 60.429688 118.605469 61.375 117.664062 62.53125 117.664062 C 63.683594 117.664062 64.628906 118.605469 64.628906 119.757812 C 64.628906 120.914062 63.683594 121.859375 62.53125 121.859375 C 61.375 121.859375 60.429688 120.914062 60.429688 119.757812 Z M 60.429688 119.757812 " fill-opacity="1" fill-rule="evenodd"/><path fill="#38b6ff" d="M 52.03125 119.757812 C 52.03125 118.605469 52.972656 117.664062 54.132812 117.664062 C 55.285156 117.664062 56.230469 118.605469 56.230469 119.757812 C 56.230469 120.914062 55.285156 121.859375 54.132812 121.859375 C 52.972656 121.859375 52.03125 120.914062 52.03125 119.757812 Z M 52.03125 119.757812 " fill-opacity="1" fill-rule="evenodd"/><path fill="#38b6ff" d="M 43.632812 119.757812 C 43.632812 118.605469 44.574219 117.664062 45.726562 117.664062 C 46.886719 117.664062 47.828125 118.605469 47.828125 119.757812 C 47.828125 120.914062 46.886719 121.859375 45.726562 121.859375 C 44.574219 121.859375 43.632812 120.914062 43.632812 119.757812 Z M 43.632812 119.757812 " fill-opacity="1" fill-rule="evenodd"/><path fill="#38b6ff" d="M 37.25 109.339844 C 38.40625 109.339844 39.34375 110.285156 39.34375 111.441406 C 39.34375 112.59375 38.40625 113.535156 37.25 113.535156 C 36.09375 113.535156 35.152344 112.59375 35.152344 111.441406 C 35.152344 110.285156 36.09375 109.339844 37.25 109.339844 Z M 37.25 109.339844 " fill-opacity="1" fill-rule="evenodd"/><path fill="#38b6ff" d="M 37.25 100.957031 C 38.40625 100.957031 39.34375 101.898438 39.34375 103.050781 C 39.34375 104.210938 38.40625 105.152344 37.25 105.152344 C 36.09375 105.152344 35.152344 104.210938 35.152344 103.050781 C 35.152344 101.898438 36.09375 100.957031 37.25 100.957031 Z M 37.25 100.957031 " fill-opacity="1" fill-rule="evenodd"/><path fill="#38b6ff" d="M 37.25 92.554688 C 38.40625 92.554688 39.34375 93.5 39.34375 94.652344 C 39.34375 95.808594 38.40625 96.75 37.25 96.75 C 36.09375 96.75 35.152344 95.808594 35.152344 94.652344 C 35.152344 93.5 36.09375 92.554688 37.25 92.554688 Z M 37.25 92.554688 " fill-opacity="1" fill-rule="evenodd"/><path fill="#38b6ff" d="M 37.25 84.171875 C 38.40625 84.171875 39.34375 85.109375 39.34375 86.265625 C 39.34375 87.417969 38.40625 88.363281 37.25 88.363281 C 36.09375 88.363281 35.152344 87.417969 35.152344 86.265625 C 35.152344 85.109375 36.09375 84.171875 37.25 84.171875 Z M 37.25 84.171875 " fill-opacity="1" fill-rule="evenodd"/><path fill="#38b6ff" d="M 37.25 75.78125 C 38.40625 75.78125 39.34375 76.71875 39.34375 77.875 C 39.34375 79.027344 38.40625 79.96875 37.25 79.96875 C 36.09375 79.96875 35.152344 79.027344 35.152344 77.875 C 35.152344 76.71875 36.09375 75.78125 37.25 75.78125 Z M 37.25 75.78125 " fill-opacity="1" fill-rule="evenodd"/><path fill="#38b6ff" d="M 37.25 67.382812 C 38.40625 67.382812 39.34375 68.324219 39.34375 69.480469 C 39.34375 70.632812 38.40625 71.578125 37.25 71.578125 C 36.09375 71.578125 35.152344 70.632812 35.152344 69.480469 C 35.152344 68.324219 36.09375 67.382812 37.25 67.382812 Z M 37.25 67.382812 " fill-opacity="1" fill-rule="evenodd"/><path fill="#38b6ff" d="M 37.25 58.992188 C 38.40625 58.992188 39.34375 59.933594 39.34375 61.089844 C 39.34375 62.242188 38.40625 63.183594 37.25 63.183594 C 36.09375 63.183594 35.152344 62.242188 35.152344 61.089844 C 35.152344 59.933594 36.09375 58.992188 37.25 58.992188 Z M 37.25 58.992188 " fill-opacity="1" fill-rule="evenodd"/><path fill="#38b6ff" d="M 37.25 50.597656 C 38.40625 50.597656 39.34375 51.539062 39.34375 52.691406 C 39.34375 53.847656 38.40625 54.792969 37.25 54.792969 C 36.09375 54.792969 35.152344 53.847656 35.152344 52.691406 C 35.152344 51.539062 36.09375 50.597656 37.25 50.597656 Z M 37.25 50.597656 " fill-opacity="1" fill-rule="evenodd"/><path fill="#38b6ff" d="M 37.25 42.207031 C 38.40625 42.207031 39.34375 43.148438 39.34375 44.300781 C 39.34375 45.457031 38.40625 46.398438 37.25 46.398438 C 36.09375 46.398438 35.152344 45.457031 35.152344 44.300781 C 35.152344 43.148438 36.09375 42.207031 37.25 42.207031 Z M 37.25 42.207031 " fill-opacity="1" fill-rule="evenodd"/><path fill="#38b6ff" d="M 37.25 33.8125 C 38.40625 33.8125 39.34375 34.753906 39.34375 35.90625 C 39.34375 37.0625 38.40625 38.003906 37.25 38.003906 C 36.09375 38.003906 35.152344 37.0625 35.152344 35.90625 C 35.152344 34.753906 36.09375 33.8125 37.25 33.8125 Z M 37.25 33.8125 " fill-opacity="1" fill-rule="evenodd"/><path fill="#38b6ff" d="M 37.25 25.425781 C 38.40625 25.425781 39.34375 26.367188 39.34375 27.523438 C 39.34375 27.808594 39.292969 28.082031 39.1875 28.320312 C 38.867188 29.085938 38.121094 29.617188 37.25 29.617188 C 36.378906 29.617188 35.613281 29.078125 35.300781 28.3125 C 35.203125 28.066406 35.152344 27.800781 35.152344 27.515625 C 35.152344 26.359375 36.09375 25.421875 37.25 25.421875 Z M 37.25 25.425781 " fill-opacity="1" fill-rule="evenodd"/><path fill="#203a55" d="M 114.863281 58.574219 C 113.378906 55 111.050781 51.691406 108.355469 49.007812 C 105.660156 46.316406 102.226562 44.300781 98.648438 42.816406 C 95.203125 41.390625 91.367188 40.675781 87.40625 40.675781 C 83.441406 40.675781 79.367188 40.820312 75.929688 42.246094 C 72.355469 43.730469 69.367188 46.539062 66.671875 49.230469 C 63.980469 51.921875 60.851562 54.773438 59.375 58.34375 C 57.941406 61.789062 58.414062 65.984375 58.414062 69.945312 C 58.414062 73.90625 58.707031 77.785156 60.132812 81.230469 C 61.617188 84.800781 64.628906 87.328125 67.324219 90.011719 C 70.015625 92.707031 72.449219 95.917969 76.027344 97.402344 C 79.476562 98.835938 83.449219 99.800781 87.414062 99.800781 C 91.378906 99.800781 95.261719 98.628906 98.714844 97.203125 C 102.285156 95.71875 105.511719 93.410156 108.207031 90.71875 C 110.898438 88.027344 113.066406 84.742188 114.550781 81.167969 C 115.984375 77.722656 117.617188 73.894531 117.617188 69.945312 C 117.617188 65.988281 116.300781 62.019531 114.875 58.585938 Z M 95.707031 86.816406 L 89.421875 85.886719 L 91.21875 73.746094 L 78.070312 83.859375 L 74.203125 78.816406 L 85.734375 69.945312 L 74.203125 61.070312 L 78.070312 56.023438 L 91.21875 66.140625 L 89.421875 54 L 95.707031 53.066406 L 98.195312 69.945312 Z M 95.707031 86.816406 " fill-opacity="1" fill-rule="nonzero"/><g clip-path="url(#836af0e4fb)"><path fill="#ffffff" d="M 128.410156 70.105469 C 128.410156 71.414062 128.34375 72.71875 128.214844 74.027344 C 128.085938 75.328125 127.894531 76.625 127.640625 77.90625 C 127.382812 79.195312 127.066406 80.464844 126.683594 81.714844 C 126.304688 82.96875 125.859375 84.199219 125.359375 85.414062 C 124.855469 86.621094 124.300781 87.800781 123.679688 88.960938 C 123.0625 90.117188 122.390625 91.234375 121.664062 92.328125 C 120.933594 93.414062 120.152344 94.46875 119.320312 95.480469 C 118.488281 96.492188 117.609375 97.460938 116.679688 98.386719 C 115.753906 99.316406 114.785156 100.191406 113.769531 101.023438 C 112.757812 101.855469 111.707031 102.632812 110.613281 103.359375 C 109.527344 104.089844 108.402344 104.761719 107.25 105.378906 C 106.089844 105.996094 104.90625 106.554688 103.695312 107.054688 C 102.484375 107.558594 101.25 107.996094 99.996094 108.378906 C 98.742188 108.757812 97.472656 109.078125 96.1875 109.332031 C 94.898438 109.589844 93.605469 109.78125 92.296875 109.910156 C 90.996094 110.035156 89.6875 110.101562 88.375 110.101562 C 87.0625 110.101562 85.757812 110.035156 84.453125 109.910156 C 83.144531 109.78125 81.851562 109.589844 80.5625 109.332031 C 79.28125 109.078125 78.011719 108.757812 76.753906 108.378906 C 75.503906 107.996094 74.265625 107.558594 73.054688 107.054688 C 71.847656 106.554688 70.660156 105.996094 69.503906 105.378906 C 68.351562 104.761719 67.226562 104.089844 66.136719 103.359375 C 65.042969 102.632812 63.992188 101.855469 62.980469 101.023438 C 61.96875 100.191406 60.996094 99.316406 60.070312 98.386719 C 59.140625 97.460938 58.265625 96.492188 57.433594 95.480469 C 56.597656 94.46875 55.816406 93.414062 55.089844 92.328125 C 54.359375 91.234375 53.6875 90.117188 53.074219 88.960938 C 52.453125 87.800781 51.894531 86.621094 51.390625 85.414062 C 50.890625 84.199219 50.449219 82.96875 50.070312 81.714844 C 49.6875 80.464844 49.371094 79.195312 49.113281 77.90625 C 48.855469 76.625 48.664062 75.328125 48.539062 74.027344 C 48.40625 72.71875 48.34375 71.414062 48.34375 70.105469 C 48.34375 68.796875 48.40625 67.492188 48.539062 66.183594 C 48.664062 64.882812 48.855469 63.585938 49.113281 62.300781 C 49.371094 61.019531 49.6875 59.75 50.070312 58.496094 C 50.449219 57.242188 50.890625 56.007812 51.390625 54.800781 C 51.894531 53.589844 52.453125 52.40625 53.074219 51.25 C 53.6875 50.09375 54.359375 48.972656 55.089844 47.882812 C 55.816406 46.796875 56.597656 45.746094 57.433594 44.734375 C 58.265625 43.722656 59.140625 42.75 60.070312 41.824219 C 60.996094 40.898438 61.96875 40.015625 62.980469 39.1875 C 63.992188 38.355469 65.042969 37.578125 66.136719 36.851562 C 67.226562 36.121094 68.351562 35.449219 69.503906 34.828125 C 70.660156 34.214844 71.847656 33.652344 73.054688 33.15625 C 74.265625 32.652344 75.503906 32.210938 76.753906 31.828125 C 78.011719 31.453125 79.28125 31.136719 80.5625 30.878906 C 81.851562 30.621094 83.144531 30.429688 84.453125 30.300781 C 85.757812 30.175781 87.0625 30.109375 88.375 30.109375 C 89.6875 30.109375 90.996094 30.175781 92.296875 30.300781 C 93.605469 30.429688 94.898438 30.621094 96.1875 30.878906 C 97.472656 31.136719 98.742188 31.453125 99.996094 31.828125 C 101.25 32.210938 102.484375 32.652344 103.695312 33.15625 C 104.90625 33.652344 106.089844 34.214844 107.25 34.828125 C 108.402344 35.449219 109.527344 36.121094 110.613281 36.851562 C 111.707031 37.578125 112.757812 38.355469 113.769531 39.1875 C 114.785156 40.015625 115.753906 40.898438 116.679688 41.824219 C 117.609375 42.75 118.488281 43.722656 119.320312 44.734375 C 120.152344 45.746094 120.933594 46.796875 121.664062 47.882812 C 122.390625 48.972656 123.0625 50.09375 123.679688 51.25 C 124.300781 52.40625 124.855469 53.589844 125.359375 54.800781 C 125.859375 56.007812 126.304688 57.242188 126.683594 58.496094 C 127.066406 59.75 127.382812 61.019531 127.640625 62.300781 C 127.894531 63.585938 128.085938 64.882812 128.214844 66.183594 C 128.34375 67.492188 128.410156 68.796875 128.410156 70.105469 Z M 128.410156 70.105469 " fill-opacity="1" fill-rule="nonzero"/></g><g clip-path="url(#d65dfbd70b)"><path fill="#203a55" d="M 84.71875 107.1875 C 84.488281 107.152344 83.367188 106.988281 82.234375 106.828125 C 74.402344 105.707031 66.582031 101.769531 61.101562 96.195312 C 55.148438 90.128906 51.554688 82.789062 50.484375 74.496094 C 50.144531 71.867188 50.253906 66.484375 50.695312 64.011719 C 52.070312 56.355469 55.6875 49.367188 61.113281 43.878906 C 67.601562 37.320312 76.296875 33.332031 85.558594 32.664062 C 87.96875 32.488281 89.789062 32.566406 92.648438 32.96875 C 103.207031 34.445312 113.070312 40.699219 118.941406 49.640625 C 123.03125 55.863281 125.011719 62.511719 125.011719 70.023438 C 125.011719 82.3125 119.066406 93.765625 109.195312 100.5 C 104.289062 103.851562 98.824219 106.003906 92.917969 106.917969 C 91.484375 107.140625 85.695312 107.332031 84.71875 107.1875 Z M 79.570312 99.496094 C 80.53125 99.226562 81.007812 98.832031 81.84375 97.597656 C 82.015625 97.34375 82.078125 97.347656 83.585938 97.640625 C 85.546875 98.027344 88.558594 98.164062 90.355469 97.945312 C 91.671875 97.78125 94.253906 97.296875 94.683594 97.128906 C 94.832031 97.070312 94.988281 97.222656 95.179688 97.59375 C 95.824219 98.855469 96.925781 99.511719 98.371094 99.507812 C 100.722656 99.503906 102.140625 97.644531 101.714844 95.125 L 101.617188 94.550781 L 102.746094 93.804688 C 103.871094 93.058594 103.871094 93.058594 104.140625 93.355469 C 104.863281 94.164062 106.644531 94.566406 107.644531 94.148438 C 109.066406 93.550781 109.890625 92.335938 109.890625 90.859375 C 109.890625 90.394531 109.796875 89.785156 109.679688 89.503906 L 109.464844 88.996094 L 110.371094 87.675781 C 111.617188 85.851562 112.605469 84.078125 113.65625 81.757812 C 114.542969 79.800781 114.558594 79.773438 115.136719 79.601562 C 117.113281 79.011719 118.144531 77.140625 117.570312 75.203125 C 117.363281 74.496094 116.578125 73.570312 115.890625 73.214844 L 115.363281 72.945312 L 115.496094 71.820312 C 115.671875 70.257812 115.519531 67.15625 115.15625 65.023438 C 114.925781 63.640625 114.898438 63.21875 115.03125 63.171875 C 115.457031 63.03125 116.382812 62.011719 116.691406 61.351562 C 117.273438 60.085938 117.050781 58.8125 116.035156 57.652344 C 115.394531 56.914062 114.546875 56.542969 113.519531 56.53125 L 112.675781 56.527344 L 111.820312 55.085938 C 111.351562 54.292969 110.570312 53.136719 110.082031 52.519531 L 109.199219 51.390625 L 109.503906 50.773438 C 109.917969 49.929688 109.917969 48.5 109.503906 47.699219 C 108.832031 46.398438 107.851562 45.839844 106.246094 45.835938 C 105.226562 45.832031 105.027344 45.875 104.503906 46.226562 C 104.175781 46.441406 103.855469 46.625 103.789062 46.625 C 103.726562 46.625 103.035156 46.199219 102.253906 45.675781 C 101.472656 45.160156 100.046875 44.347656 99.085938 43.871094 C 97.527344 43.101562 97.339844 42.96875 97.339844 42.640625 C 97.339844 40.894531 95.636719 39.292969 93.777344 39.292969 C 92.40625 39.292969 91.242188 40.015625 90.65625 41.230469 L 90.386719 41.789062 L 87.839844 41.824219 C 85.613281 41.847656 83.382812 42.074219 82.289062 42.386719 C 82.050781 42.457031 81.910156 42.332031 81.554688 41.757812 C 81.003906 40.867188 80.101562 40.304688 79.039062 40.195312 C 77.992188 40.085938 77.398438 40.21875 76.636719 40.726562 C 75.441406 41.523438 74.917969 43.0625 75.269531 44.753906 L 75.371094 45.257812 L 74.148438 46.042969 C 73.476562 46.480469 72.847656 46.894531 72.742188 46.96875 C 72.625 47.050781 72.402344 46.972656 72.082031 46.722656 C 70.480469 45.496094 68.554688 45.472656 67.265625 46.664062 C 66.375 47.492188 66.015625 49.210938 66.464844 50.5 C 66.703125 51.179688 66.730469 51.117188 65.785156 52.328125 C 64.726562 53.691406 62.957031 56.632812 62.175781 58.320312 C 61.484375 59.816406 61.472656 59.832031 60.90625 59.921875 C 58.074219 60.398438 56.976562 63.941406 59.058594 65.875 C 59.410156 66.199219 59.847656 66.535156 60.039062 66.621094 C 60.335938 66.757812 60.375 66.847656 60.289062 67.230469 C 60.160156 67.820312 60.160156 72.144531 60.289062 72.742188 C 60.394531 73.191406 60.371094 73.222656 59.683594 73.574219 C 58.050781 74.410156 57.40625 76.535156 58.269531 78.238281 C 58.753906 79.199219 60 80.109375 60.824219 80.109375 C 61.042969 80.109375 61.3125 80.519531 62.03125 81.941406 C 63.164062 84.175781 64.230469 85.914062 65.625 87.761719 L 66.679688 89.160156 L 66.46875 90.054688 C 66.15625 91.414062 66.46875 92.523438 67.417969 93.421875 C 68.335938 94.296875 69.417969 94.59375 70.6875 94.320312 C 71.253906 94.199219 71.601562 94.003906 72.117188 93.515625 L 72.800781 92.875 L 74.050781 93.777344 C 74.742188 94.277344 75.324219 94.695312 75.355469 94.710938 C 75.378906 94.726562 75.324219 95.015625 75.238281 95.351562 C 75 96.226562 75.179688 97.238281 75.714844 98.03125 C 76.632812 99.398438 78.027344 99.929688 79.570312 99.496094 Z M 84.789062 96.34375 C 83.25 96.121094 82.351562 95.878906 82.234375 95.644531 C 82.171875 95.519531 82.074219 95.210938 82.019531 94.964844 C 81.914062 94.460938 82.164062 94.113281 84.992188 90.933594 L 86.402344 89.339844 L 87.101562 89.710938 C 88.035156 90.199219 89.214844 90.210938 90.210938 89.738281 L 90.925781 89.402344 L 91.246094 89.6875 C 91.894531 90.269531 95 93.097656 95.304688 93.390625 L 95.628906 93.695312 L 95.152344 94.621094 L 94.679688 95.554688 L 93.371094 95.871094 C 92.652344 96.046875 91.503906 96.253906 90.816406 96.339844 C 89.40625 96.511719 85.976562 96.515625 84.789062 96.34375 Z M 75.050781 92.644531 L 73.9375 91.824219 L 73.9375 73.714844 C 73.9375 63.753906 73.945312 53.886719 73.949219 51.789062 L 73.953125 47.976562 L 75.101562 47.226562 C 75.730469 46.8125 76.3125 46.480469 76.382812 46.480469 C 76.457031 46.480469 76.722656 46.605469 76.980469 46.761719 C 77.234375 46.921875 77.554688 47.050781 77.679688 47.050781 C 77.871094 47.050781 77.941406 47.339844 78.074219 48.742188 C 78.164062 49.667969 78.300781 50.886719 78.375 51.445312 C 78.445312 52.007812 78.546875 53.070312 78.601562 53.816406 L 78.695312 55.175781 L 78.167969 55.367188 C 75.3125 56.40625 75.289062 60.613281 78.136719 61.792969 L 78.800781 62.070312 L 78.800781 77.5 L 78.3125 77.660156 C 76.375 78.308594 75.367188 80.675781 76.246094 82.507812 C 76.589844 83.226562 77.496094 84.054688 78.179688 84.285156 C 78.757812 84.476562 78.75 84.191406 78.371094 88.511719 C 78.019531 92.519531 77.980469 92.757812 77.75 92.757812 C 77.644531 92.757812 77.257812 92.917969 76.890625 93.117188 C 76.519531 93.3125 76.207031 93.476562 76.1875 93.476562 C 76.175781 93.46875 75.660156 93.101562 75.050781 92.644531 Z M 80.125 93 C 79.796875 92.828125 79.523438 92.589844 79.523438 92.46875 C 79.515625 92.144531 80.21875 84.523438 80.261719 84.496094 C 80.285156 84.480469 80.523438 84.382812 80.789062 84.269531 C 81.058594 84.164062 81.492188 83.886719 81.75 83.660156 L 82.21875 83.25 L 82.683594 83.574219 C 82.941406 83.757812 83.617188 84.257812 84.1875 84.6875 L 85.222656 85.464844 L 85.140625 86.128906 C 85.089844 86.539062 85.140625 87.054688 85.269531 87.480469 L 85.476562 88.160156 L 84.597656 89.132812 C 84.117188 89.664062 83.089844 90.824219 82.320312 91.714844 C 81.546875 92.601562 80.871094 93.324219 80.820312 93.320312 C 80.769531 93.3125 80.457031 93.167969 80.125 92.996094 Z M 99.777344 92.882812 C 98.957031 92.445312 98.386719 92.382812 97.375 92.617188 L 96.757812 92.761719 L 95.660156 91.703125 C 95.058594 91.117188 93.9375 90.074219 93.171875 89.382812 C 92.035156 88.355469 91.808594 88.082031 91.914062 87.882812 C 91.988281 87.746094 92.09375 87.3125 92.144531 86.921875 C 92.535156 83.933594 89.160156 81.925781 86.632812 83.636719 L 85.90625 84.128906 L 85.097656 83.511719 C 84.65625 83.167969 83.988281 82.683594 83.613281 82.429688 L 82.9375 81.960938 L 82.9375 81 C 82.9375 80.195312 82.867188 79.914062 82.503906 79.273438 C 82.085938 78.546875 81.023438 77.664062 80.554688 77.664062 C 80.359375 77.664062 80.359375 77.609375 80.332031 66.96875 L 80.320312 62.089844 L 80.773438 61.933594 C 81.484375 61.695312 82.121094 61.105469 82.570312 60.265625 C 82.910156 59.644531 82.988281 59.320312 82.984375 58.621094 L 82.972656 57.753906 L 83.847656 57.15625 C 84.328125 56.832031 85.144531 56.261719 85.667969 55.894531 L 86.609375 55.214844 L 87.160156 55.585938 C 88.324219 56.355469 89.90625 56.359375 91.050781 55.597656 C 91.894531 55.035156 92.632812 53.835938 92.632812 53.03125 C 92.632812 52.738281 92.84375 52.652344 95.09375 52.015625 C 96.449219 51.636719 98.671875 51.007812 100.035156 50.621094 C 101.398438 50.234375 102.539062 49.941406 102.570312 49.972656 C 102.625 50.027344 99.992188 52.523438 95.703125 56.464844 C 94.84375 57.253906 93.339844 58.65625 92.355469 59.570312 C 91.375 60.484375 89.28125 62.417969 87.714844 63.875 C 83.222656 68.035156 80.585938 70.523438 80.535156 70.648438 C 80.480469 70.792969 80.472656 70.785156 82.652344 72.707031 C 83.632812 73.570312 85.140625 74.929688 86.003906 75.730469 C 87.519531 77.132812 89.675781 79.074219 98.660156 87.125 C 103.710938 91.644531 103.550781 91.378906 101.835938 92.582031 C 101.25 92.996094 100.722656 93.320312 100.660156 93.3125 C 100.601562 93.300781 100.203125 93.105469 99.777344 92.882812 Z M 66.90625 86.960938 C 65.730469 85.359375 64.664062 83.664062 63.601562 81.699219 C 62.6875 80.015625 62.648438 79.902344 62.910156 79.757812 C 63.265625 79.558594 64.421875 78.394531 64.621094 78.035156 C 64.769531 77.761719 64.804688 77.761719 66.726562 78.101562 L 68.675781 78.449219 L 68.675781 87.574219 L 68.257812 87.792969 C 68.023438 87.914062 67.800781 88.011719 67.757812 88.011719 C 67.714844 88.011719 67.332031 87.539062 66.90625 86.960938 Z M 107.609375 87.621094 C 107.257812 87.5 106.894531 87.363281 106.804688 87.3125 C 106.675781 87.242188 99.300781 80.652344 97.125 78.660156 C 96.8125 78.371094 94.757812 76.535156 92.5625 74.578125 C 90.371094 72.621094 88.488281 70.941406 88.390625 70.847656 C 88.203125 70.671875 90.273438 68.648438 96.921875 62.503906 C 98.289062 61.238281 99.957031 59.683594 100.625 59.050781 C 103.929688 55.898438 107.417969 52.71875 107.859375 52.460938 C 107.96875 52.394531 108.183594 52.515625 108.402344 52.757812 C 108.859375 53.265625 111.320312 56.960938 111.320312 57.136719 C 111.320312 57.207031 111.15625 57.433594 110.960938 57.628906 C 109.949219 58.65625 109.667969 60.304688 110.296875 61.597656 L 110.628906 62.28125 L 106.929688 68.96875 L 106.007812 68.921875 C 104.445312 68.84375 103.089844 69.65625 102.527344 71.007812 C 102.417969 71.28125 102.226562 71.484375 102.089844 71.484375 C 101.957031 71.484375 100.082031 71.199219 97.917969 70.84375 C 93.027344 70.046875 92.140625 69.949219 91.855469 70.191406 C 91.554688 70.4375 91.574219 71.15625 91.886719 71.320312 C 92.109375 71.445312 97.765625 72.394531 100.554688 72.777344 C 102.265625 73.007812 102.238281 73 102.515625 73.679688 C 102.792969 74.375 103.589844 75.261719 104.246094 75.625 C 104.546875 75.785156 105.03125 75.863281 105.753906 75.863281 C 106.96875 75.863281 107.496094 75.648438 108.359375 74.820312 L 108.890625 74.300781 L 109.820312 74.800781 L 110.75 75.296875 L 110.667969 75.878906 C 110.488281 77.101562 111.199219 78.566406 112.28125 79.203125 C 113.050781 79.65625 113.058594 79.628906 111.816406 82.191406 C 110.691406 84.511719 108.601562 87.898438 108.324219 87.847656 C 108.285156 87.839844 107.964844 87.738281 107.609375 87.621094 Z M 66.75 76.582031 C 65.890625 76.402344 65.132812 76.246094 65.078125 76.242188 C 65.015625 76.234375 64.96875 76.164062 64.96875 76.078125 C 64.96875 75.929688 68.316406 74.21875 68.601562 74.21875 C 68.691406 74.21875 68.726562 74.734375 68.699219 75.578125 C 68.671875 76.523438 68.601562 76.941406 68.484375 76.929688 C 68.398438 76.917969 67.613281 76.765625 66.75 76.582031 Z M 63.753906 74.074219 C 63.53125 73.835938 63.023438 73.523438 62.628906 73.371094 C 62.066406 73.160156 61.886719 73.015625 61.800781 72.6875 C 61.648438 72.160156 61.613281 68.292969 61.746094 67.507812 C 61.839844 66.976562 61.902344 66.90625 62.328125 66.824219 C 62.589844 66.777344 63.042969 66.570312 63.335938 66.367188 L 63.871094 66.003906 L 64.527344 66.375 C 64.886719 66.585938 65.96875 67.15625 66.929688 67.644531 L 68.679688 68.535156 L 68.644531 70.519531 L 68.601562 72.496094 L 66.480469 73.5 C 65.316406 74.054688 64.316406 74.5 64.265625 74.5 C 64.207031 74.5 63.980469 74.3125 63.753906 74.074219 Z M 110.285156 73.371094 C 109.328125 72.855469 109.320312 72.851562 109.320312 72.234375 C 109.320312 71.59375 108.925781 70.632812 108.4375 70.097656 L 108.160156 69.789062 L 109.625 67.15625 C 110.433594 65.703125 111.253906 64.207031 111.457031 63.832031 C 111.710938 63.347656 111.878906 63.175781 112.03125 63.242188 C 112.152344 63.285156 112.488281 63.375 112.785156 63.4375 C 113.085938 63.496094 113.351562 63.566406 113.375 63.597656 C 113.402344 63.628906 113.535156 64.265625 113.667969 65.019531 C 113.945312 66.59375 114.113281 70.421875 113.96875 71.800781 L 113.863281 72.742188 L 113.324219 72.832031 C 113.023438 72.882812 112.453125 73.148438 112.054688 73.425781 C 111.652344 73.703125 111.304688 73.917969 111.289062 73.910156 C 111.265625 73.898438 110.816406 73.65625 110.285156 73.371094 Z M 66.679688 65.804688 C 65.617188 65.25 64.769531 64.734375 64.789062 64.660156 C 64.800781 64.578125 64.855469 64.238281 64.910156 63.902344 C 64.980469 63.4375 65.070312 63.273438 65.304688 63.222656 C 65.472656 63.179688 66.277344 62.988281 67.097656 62.792969 C 67.914062 62.597656 68.605469 62.457031 68.632812 62.484375 C 68.664062 62.511719 68.667969 63.496094 68.644531 64.671875 L 68.601562 66.8125 Z M 64.101562 61.128906 C 63.753906 60.757812 63.355469 60.394531 63.21875 60.324219 C 62.980469 60.199219 62.996094 60.125 63.390625 59.238281 C 64.046875 57.78125 65.308594 55.632812 66.566406 53.84375 C 67.1875 52.953125 67.730469 52.226562 67.765625 52.226562 C 67.804688 52.226562 68.023438 52.324219 68.257812 52.445312 L 68.675781 52.664062 L 68.675781 60.84375 L 68.355469 60.917969 C 68.175781 60.960938 67.289062 61.171875 66.382812 61.394531 L 64.730469 61.792969 Z M 82.011719 56.105469 C 81.867188 55.949219 81.410156 55.648438 80.992188 55.445312 C 80.105469 55.007812 80.222656 55.453125 79.796875 50.933594 C 79.636719 49.15625 79.476562 47.585938 79.449219 47.445312 C 79.410156 47.257812 79.59375 47.089844 80.089844 46.832031 L 80.777344 46.484375 L 83.421875 48.632812 L 86.058594 50.789062 L 85.851562 51.300781 C 85.617188 51.859375 85.554688 52.78125 85.710938 53.476562 C 85.804688 53.90625 85.757812 53.953125 84.550781 54.824219 C 83.859375 55.324219 83.113281 55.878906 82.890625 56.0625 C 82.398438 56.464844 82.339844 56.472656 82.011719 56.105469 Z M 91.933594 50.390625 L 91.3125 49.585938 L 92.148438 47.976562 L 92.988281 46.367188 L 94.007812 46.300781 C 95.402344 46.210938 96.304688 45.667969 96.980469 44.503906 C 96.996094 44.488281 97.75 44.855469 98.667969 45.328125 C 100.535156 46.277344 102.6875 47.660156 102.808594 47.976562 C 102.910156 48.242188 102.476562 48.378906 94.347656 50.652344 C 93.445312 50.90625 92.671875 51.132812 92.628906 51.15625 C 92.585938 51.179688 92.273438 50.835938 91.933594 50.390625 Z M 86.113281 48.925781 C 85.292969 48.273438 82.355469 45.863281 81.886719 45.457031 C 81.652344 45.257812 82.125 44.011719 82.480469 43.875 C 83.132812 43.625 86.320312 43.316406 88.25 43.316406 L 90.21875 43.316406 L 90.488281 43.941406 C 90.636719 44.285156 90.960938 44.808594 91.21875 45.101562 L 91.683594 45.632812 L 89.941406 48.992188 L 89.0625 49.089844 C 88.578125 49.148438 87.941406 49.316406 87.648438 49.460938 L 87.117188 49.726562 Z M 86.113281 48.925781 " fill-opacity="1" fill-rule="nonzero"/></g><g fill="#38b6ff" fill-opacity="1"><g transform="translate(-0.177421, 172.764651)"><g><path d="M 14.71875 -15.5625 C 14.9375 -15.5625 15.054688 -15.476562 15.078125 -15.3125 C 15.097656 -15.144531 15.054688 -15.007812 14.953125 -14.90625 L 9.625 -9.125 L 14.71875 -0.75 C 14.8125 -0.59375 14.828125 -0.425781 14.765625 -0.25 C 14.710938 -0.0820312 14.578125 0 14.359375 0 L 11.46875 0 C 11.1875 0 10.957031 -0.0625 10.78125 -0.1875 C 10.613281 -0.3125 10.453125 -0.5 10.296875 -0.75 C 10.296875 -0.75 10.179688 -0.941406 9.953125 -1.328125 C 9.722656 -1.722656 9.429688 -2.210938 9.078125 -2.796875 C 8.722656 -3.390625 8.347656 -4.007812 7.953125 -4.65625 C 7.566406 -5.300781 7.21875 -5.894531 6.90625 -6.4375 L 5.4375 -4.890625 L 5.4375 -0.6875 C 5.4375 -0.414062 5.378906 -0.234375 5.265625 -0.140625 C 5.148438 -0.046875 4.988281 0 4.78125 0 L 2.4375 0 C 2.21875 0 2.046875 -0.046875 1.921875 -0.140625 C 1.804688 -0.234375 1.75 -0.414062 1.75 -0.6875 L 1.75 -14.875 C 1.75 -15.144531 1.804688 -15.328125 1.921875 -15.421875 C 2.046875 -15.515625 2.21875 -15.5625 2.4375 -15.5625 L 4.78125 -15.5625 C 4.988281 -15.5625 5.148438 -15.515625 5.265625 -15.421875 C 5.378906 -15.328125 5.4375 -15.144531 5.4375 -14.875 L 5.4375 -9.609375 L 10.34375 -15 C 10.570312 -15.269531 10.757812 -15.429688 10.90625 -15.484375 C 11.050781 -15.535156 11.253906 -15.5625 11.515625 -15.5625 Z M 14.71875 -15.5625 "/></g></g></g><g fill="#38b6ff" fill-opacity="1"><g transform="translate(14.935746, 172.764651)"><g><path d="M 15.140625 -0.65625 C 15.203125 -0.519531 15.21875 -0.375 15.1875 -0.21875 C 15.15625 -0.0703125 15.003906 0 14.734375 0 L 12.25 0 C 12 0 11.8125 -0.046875 11.6875 -0.140625 C 11.5625 -0.234375 11.453125 -0.421875 11.359375 -0.703125 L 10.6875 -2.578125 L 4.890625 -2.578125 L 4.234375 -0.703125 C 4.140625 -0.421875 4.03125 -0.234375 3.90625 -0.140625 C 3.789062 -0.046875 3.597656 0 3.328125 0 L 0.859375 0 C 0.597656 0 0.445312 -0.0703125 0.40625 -0.21875 C 0.375 -0.375 0.390625 -0.519531 0.453125 -0.65625 L 5.703125 -14.828125 C 5.796875 -15.085938 5.914062 -15.273438 6.0625 -15.390625 C 6.21875 -15.503906 6.421875 -15.5625 6.671875 -15.5625 L 8.9375 -15.5625 C 9.207031 -15.5625 9.410156 -15.503906 9.546875 -15.390625 C 9.679688 -15.273438 9.800781 -15.085938 9.90625 -14.828125 Z M 7.8125 -11.125 L 6.03125 -5.890625 L 9.578125 -5.890625 Z M 7.8125 -11.125 "/></g></g></g><g fill="#38b6ff" fill-opacity="1"><g transform="translate(30.072569, 172.764651)"><g><path d="M 14.5 -0.75 C 14.613281 -0.59375 14.640625 -0.425781 14.578125 -0.25 C 14.515625 -0.0820312 14.367188 0 14.140625 0 L 11.359375 0 C 11.066406 0 10.835938 -0.0507812 10.671875 -0.15625 C 10.515625 -0.269531 10.347656 -0.453125 10.171875 -0.703125 L 7.625 -4.515625 C 7.507812 -4.660156 7.4375 -4.816406 7.40625 -4.984375 C 7.375 -5.148438 7.359375 -5.394531 7.359375 -5.71875 L 7.359375 -7.625 C 7.359375 -7.84375 7.40625 -8.007812 7.5 -8.125 C 7.59375 -8.238281 7.773438 -8.296875 8.046875 -8.296875 L 8.515625 -8.296875 C 9.097656 -8.296875 9.617188 -8.476562 10.078125 -8.84375 C 10.535156 -9.207031 10.765625 -9.664062 10.765625 -10.21875 C 10.765625 -10.832031 10.554688 -11.320312 10.140625 -11.6875 C 9.722656 -12.050781 9.207031 -12.234375 8.59375 -12.234375 L 5.4375 -12.234375 L 5.4375 -0.6875 C 5.4375 -0.414062 5.378906 -0.234375 5.265625 -0.140625 C 5.148438 -0.046875 4.976562 0 4.75 0 L 2.40625 0 C 2.207031 0 2.046875 -0.046875 1.921875 -0.140625 C 1.804688 -0.234375 1.75 -0.414062 1.75 -0.6875 L 1.75 -14.859375 C 1.75 -15.078125 1.789062 -15.242188 1.875 -15.359375 C 1.96875 -15.484375 2.144531 -15.546875 2.40625 -15.546875 L 8.375 -15.546875 C 9.238281 -15.546875 9.953125 -15.488281 10.515625 -15.375 C 11.085938 -15.269531 11.570312 -15.101562 11.96875 -14.875 C 12.375 -14.644531 12.742188 -14.363281 13.078125 -14.03125 C 13.523438 -13.601562 13.863281 -13.066406 14.09375 -12.421875 C 14.332031 -11.773438 14.453125 -11.070312 14.453125 -10.3125 C 14.453125 -9.488281 14.273438 -8.753906 13.921875 -8.109375 C 13.578125 -7.460938 13.15625 -6.925781 12.65625 -6.5 C 12.15625 -6.070312 11.660156 -5.773438 11.171875 -5.609375 Z M 14.5 -0.75 "/></g></g></g><g fill="#38b6ff" fill-opacity="1"><g transform="translate(45.469554, 172.764651)"><g><path d="M 12.28125 -3.3125 C 12.550781 -3.3125 12.734375 -3.25 12.828125 -3.125 C 12.921875 -3.007812 12.96875 -2.84375 12.96875 -2.625 L 12.96875 -0.6875 C 12.96875 -0.476562 12.921875 -0.3125 12.828125 -0.1875 C 12.734375 -0.0625 12.550781 0 12.28125 0 L 2.4375 0 C 2.164062 0 1.984375 -0.0625 1.890625 -0.1875 C 1.796875 -0.3125 1.75 -0.476562 1.75 -0.6875 L 1.75 -14.875 C 1.75 -15.144531 1.8125 -15.328125 1.9375 -15.421875 C 2.0625 -15.515625 2.226562 -15.5625 2.4375 -15.5625 L 4.78125 -15.5625 C 5 -15.5625 5.164062 -15.515625 5.28125 -15.421875 C 5.40625 -15.328125 5.46875 -15.144531 5.46875 -14.875 L 5.46875 -3.3125 Z M 12.28125 -3.3125 "/></g></g></g><g clip-path="url(#4bb9f12d74)"><g fill="#38b6ff" fill-opacity="1"><g transform="translate(58.879815, 172.764651)"><g><path d="M 9.078125 -9.03125 C 9.503906 -8.90625 9.960938 -8.75 10.453125 -8.5625 C 10.941406 -8.382812 11.398438 -8.140625 11.828125 -7.828125 C 12.253906 -7.523438 12.601562 -7.113281 12.875 -6.59375 C 13.15625 -6.070312 13.296875 -5.410156 13.296875 -4.609375 C 13.296875 -3.492188 13.019531 -2.566406 12.46875 -1.828125 C 11.925781 -1.097656 11.179688 -0.550781 10.234375 -0.1875 C 9.296875 0.175781 8.21875 0.359375 7 0.359375 C 6.257812 0.359375 5.515625 0.25 4.765625 0.03125 C 4.015625 -0.175781 3.328125 -0.488281 2.703125 -0.90625 C 2.085938 -1.320312 1.585938 -1.847656 1.203125 -2.484375 C 0.828125 -3.117188 0.640625 -3.84375 0.640625 -4.65625 C 0.640625 -4.925781 0.6875 -5.101562 0.78125 -5.1875 C 0.875 -5.28125 1.054688 -5.328125 1.328125 -5.328125 L 3.625 -5.328125 C 3.882812 -5.328125 4.085938 -5.289062 4.234375 -5.21875 C 4.378906 -5.144531 4.457031 -4.957031 4.46875 -4.65625 C 4.488281 -4.5 4.53125 -4.34375 4.59375 -4.1875 C 4.65625 -4.03125 4.765625 -3.863281 4.921875 -3.6875 C 5.160156 -3.40625 5.492188 -3.203125 5.921875 -3.078125 C 6.359375 -2.960938 6.796875 -2.90625 7.234375 -2.90625 C 7.878906 -2.90625 8.425781 -3.007812 8.875 -3.21875 C 9.332031 -3.425781 9.5625 -3.859375 9.5625 -4.515625 C 9.5625 -4.960938 9.351562 -5.285156 8.9375 -5.484375 C 8.53125 -5.691406 8.015625 -5.863281 7.390625 -6 C 6.765625 -6.132812 6.113281 -6.300781 5.4375 -6.5 C 4.65625 -6.757812 3.910156 -7.0625 3.203125 -7.40625 C 2.503906 -7.75 1.9375 -8.21875 1.5 -8.8125 C 1.070312 -9.414062 0.859375 -10.21875 0.859375 -11.21875 C 0.859375 -12.238281 1.128906 -13.09375 1.671875 -13.78125 C 2.210938 -14.46875 2.925781 -14.988281 3.8125 -15.34375 C 4.695312 -15.695312 5.625 -15.890625 6.59375 -15.921875 C 7.351562 -15.921875 8.101562 -15.832031 8.84375 -15.65625 C 9.582031 -15.488281 10.253906 -15.21875 10.859375 -14.84375 C 11.472656 -14.46875 11.960938 -14 12.328125 -13.4375 C 12.703125 -12.882812 12.890625 -12.210938 12.890625 -11.421875 C 12.890625 -11.140625 12.84375 -10.957031 12.75 -10.875 C 12.65625 -10.800781 12.472656 -10.765625 12.203125 -10.765625 L 9.890625 -10.765625 C 9.671875 -10.765625 9.523438 -10.832031 9.453125 -10.96875 C 9.378906 -11.101562 9.3125 -11.25 9.25 -11.40625 C 9.195312 -11.53125 9.132812 -11.644531 9.0625 -11.75 C 9 -11.851562 8.894531 -11.972656 8.75 -12.109375 C 8.53125 -12.328125 8.226562 -12.488281 7.84375 -12.59375 C 7.46875 -12.695312 7.097656 -12.75 6.734375 -12.75 C 6.484375 -12.75 6.191406 -12.707031 5.859375 -12.625 C 5.535156 -12.550781 5.253906 -12.414062 5.015625 -12.21875 C 4.773438 -12.019531 4.65625 -11.738281 4.65625 -11.375 C 4.65625 -11.007812 4.835938 -10.703125 5.203125 -10.453125 C 5.566406 -10.203125 6.003906 -9.984375 6.515625 -9.796875 C 7.023438 -9.617188 7.519531 -9.46875 8 -9.34375 C 8.488281 -9.226562 8.847656 -9.125 9.078125 -9.03125 Z M 9.078125 -9.03125 "/></g></g></g></g><g fill="#38b6ff" fill-opacity="1"><g transform="translate(72.834066, 172.764651)"><g><path d="M 13.03125 -3.3125 C 13.300781 -3.3125 13.484375 -3.25 13.578125 -3.125 C 13.671875 -3.007812 13.71875 -2.84375 13.71875 -2.625 L 13.71875 -0.6875 C 13.71875 -0.476562 13.671875 -0.3125 13.578125 -0.1875 C 13.484375 -0.0625 13.300781 0 13.03125 0 L 2.4375 0 C 2.164062 0 1.984375 -0.0625 1.890625 -0.1875 C 1.796875 -0.3125 1.75 -0.476562 1.75 -0.6875 L 1.75 -14.875 C 1.75 -15.101562 1.796875 -15.273438 1.890625 -15.390625 C 1.984375 -15.503906 2.164062 -15.5625 2.4375 -15.5625 L 12.625 -15.5625 C 12.894531 -15.5625 13.078125 -15.503906 13.171875 -15.390625 C 13.265625 -15.273438 13.3125 -15.101562 13.3125 -14.875 L 13.3125 -12.921875 C 13.3125 -12.710938 13.265625 -12.546875 13.171875 -12.421875 C 13.078125 -12.296875 12.894531 -12.234375 12.625 -12.234375 L 5.484375 -12.234375 L 5.484375 -9.65625 L 11.828125 -9.65625 C 12.097656 -9.65625 12.28125 -9.59375 12.375 -9.46875 C 12.46875 -9.351562 12.515625 -9.1875 12.515625 -8.96875 L 12.515625 -7.125 C 12.515625 -6.914062 12.46875 -6.75 12.375 -6.625 C 12.28125 -6.5 12.097656 -6.4375 11.828125 -6.4375 L 5.484375 -6.4375 L 5.484375 -3.3125 Z M 13.03125 -3.3125 "/></g></g></g><g fill="#38b6ff" fill-opacity="1"><g transform="translate(87.308639, 172.764651)"><g><path d="M 13.703125 -15.5625 C 13.921875 -15.5625 14.085938 -15.515625 14.203125 -15.421875 C 14.328125 -15.328125 14.390625 -15.144531 14.390625 -14.875 L 14.390625 -0.6875 C 14.390625 -0.476562 14.335938 -0.3125 14.234375 -0.1875 C 14.140625 -0.0625 13.960938 0 13.703125 0 L 11.546875 0 C 11.242188 0 11.03125 -0.0703125 10.90625 -0.21875 C 10.78125 -0.375 10.640625 -0.566406 10.484375 -0.796875 L 5.46875 -8.921875 L 5.46875 -0.6875 C 5.46875 -0.414062 5.40625 -0.234375 5.28125 -0.140625 C 5.164062 -0.046875 5 0 4.78125 0 L 2.4375 0 C 2.226562 0 2.0625 -0.046875 1.9375 -0.140625 C 1.8125 -0.234375 1.75 -0.414062 1.75 -0.6875 L 1.75 -14.875 C 1.75 -15.101562 1.796875 -15.273438 1.890625 -15.390625 C 1.984375 -15.503906 2.164062 -15.5625 2.4375 -15.5625 L 4.65625 -15.5625 C 4.957031 -15.5625 5.171875 -15.484375 5.296875 -15.328125 C 5.421875 -15.179688 5.5625 -14.992188 5.71875 -14.765625 L 10.734375 -6.671875 L 10.734375 -14.875 C 10.734375 -15.144531 10.796875 -15.328125 10.921875 -15.421875 C 11.054688 -15.515625 11.222656 -15.5625 11.421875 -15.5625 Z M 13.703125 -15.5625 "/></g></g></g><g fill="#203a55" fill-opacity="1"><g transform="translate(103.086968, 172.764651)"><g><path d="M 14.171875 -15.5625 C 14.390625 -15.5625 14.53125 -15.484375 14.59375 -15.328125 C 14.65625 -15.179688 14.65625 -15.03125 14.59375 -14.875 L 9.53125 -0.703125 C 9.394531 -0.410156 9.265625 -0.21875 9.140625 -0.125 C 9.023438 -0.0390625 8.832031 0 8.5625 0 L 6.296875 0 C 6.046875 0 5.851562 -0.0390625 5.71875 -0.125 C 5.59375 -0.21875 5.460938 -0.410156 5.328125 -0.703125 L 0.234375 -14.875 C 0.171875 -15.03125 0.171875 -15.179688 0.234375 -15.328125 C 0.296875 -15.484375 0.4375 -15.5625 0.65625 -15.5625 L 3.28125 -15.5625 C 3.601562 -15.5625 3.820312 -15.503906 3.9375 -15.390625 C 4.050781 -15.285156 4.160156 -15.09375 4.265625 -14.8125 L 7.46875 -5.015625 L 10.671875 -14.8125 C 10.765625 -15.09375 10.875 -15.285156 11 -15.390625 C 11.125 -15.503906 11.34375 -15.5625 11.65625 -15.5625 Z M 14.171875 -15.5625 "/></g></g></g><g fill="#203a55" fill-opacity="1"><g transform="translate(117.774414, 172.764651)"><g><path d="M 15.140625 -0.65625 C 15.203125 -0.519531 15.21875 -0.375 15.1875 -0.21875 C 15.15625 -0.0703125 15.003906 0 14.734375 0 L 12.25 0 C 12 0 11.8125 -0.046875 11.6875 -0.140625 C 11.5625 -0.234375 11.453125 -0.421875 11.359375 -0.703125 L 10.6875 -2.578125 L 4.890625 -2.578125 L 4.234375 -0.703125 C 4.140625 -0.421875 4.03125 -0.234375 3.90625 -0.140625 C 3.789062 -0.046875 3.597656 0 3.328125 0 L 0.859375 0 C 0.597656 0 0.445312 -0.0703125 0.40625 -0.21875 C 0.375 -0.375 0.390625 -0.519531 0.453125 -0.65625 L 5.703125 -14.828125 C 5.796875 -15.085938 5.914062 -15.273438 6.0625 -15.390625 C 6.21875 -15.503906 6.421875 -15.5625 6.671875 -15.5625 L 8.9375 -15.5625 C 9.207031 -15.5625 9.410156 -15.503906 9.546875 -15.390625 C 9.679688 -15.273438 9.800781 -15.085938 9.90625 -14.828125 Z M 7.8125 -11.125 L 6.03125 -5.890625 L 9.578125 -5.890625 Z M 7.8125 -11.125 "/></g></g></g><g clip-path="url(#811bf5bb13)"><g fill="#203a55" fill-opacity="1"><g transform="translate(132.911237, 172.764651)"><g><path d="M 13.390625 -15.5625 C 13.609375 -15.5625 13.773438 -15.515625 13.890625 -15.421875 C 14.015625 -15.328125 14.078125 -15.144531 14.078125 -14.875 L 14.078125 -4.75 C 14.078125 -3.820312 13.882812 -3.035156 13.5 -2.390625 C 13.125 -1.742188 12.625 -1.21875 12 -0.8125 C 11.382812 -0.414062 10.707031 -0.125 9.96875 0.0625 C 9.238281 0.257812 8.519531 0.359375 7.8125 0.359375 C 7.09375 0.359375 6.367188 0.257812 5.640625 0.0625 C 4.921875 -0.125 4.25 -0.414062 3.625 -0.8125 C 3.007812 -1.21875 2.507812 -1.742188 2.125 -2.390625 C 1.75 -3.035156 1.5625 -3.820312 1.5625 -4.75 L 1.5625 -14.875 C 1.5625 -15.144531 1.625 -15.328125 1.75 -15.421875 C 1.875 -15.515625 2.039062 -15.5625 2.25 -15.5625 L 4.59375 -15.5625 C 4.8125 -15.5625 4.976562 -15.515625 5.09375 -15.421875 C 5.21875 -15.328125 5.28125 -15.144531 5.28125 -14.875 L 5.28125 -5.28125 C 5.28125 -4.53125 5.503906 -3.953125 5.953125 -3.546875 C 6.410156 -3.140625 7.03125 -2.9375 7.8125 -2.9375 C 8.59375 -2.9375 9.210938 -3.140625 9.671875 -3.546875 C 10.128906 -3.953125 10.359375 -4.53125 10.359375 -5.28125 L 10.359375 -14.875 C 10.359375 -15.144531 10.421875 -15.328125 10.546875 -15.421875 C 10.671875 -15.515625 10.835938 -15.5625 11.046875 -15.5625 Z M 13.390625 -15.5625 "/></g></g></g></g><g fill="#203a55" fill-opacity="1"><g transform="translate(148.189964, 172.764651)"><g><path d="M 12.28125 -3.3125 C 12.550781 -3.3125 12.734375 -3.25 12.828125 -3.125 C 12.921875 -3.007812 12.96875 -2.84375 12.96875 -2.625 L 12.96875 -0.6875 C 12.96875 -0.476562 12.921875 -0.3125 12.828125 -0.1875 C 12.734375 -0.0625 12.550781 0 12.28125 0 L 2.4375 0 C 2.164062 0 1.984375 -0.0625 1.890625 -0.1875 C 1.796875 -0.3125 1.75 -0.476562 1.75 -0.6875 L 1.75 -14.875 C 1.75 -15.144531 1.8125 -15.328125 1.9375 -15.421875 C 2.0625 -15.515625 2.226562 -15.5625 2.4375 -15.5625 L 4.78125 -15.5625 C 5 -15.5625 5.164062 -15.515625 5.28125 -15.421875 C 5.40625 -15.328125 5.46875 -15.144531 5.46875 -14.875 L 5.46875 -3.3125 Z M 12.28125 -3.3125 "/></g></g></g><g fill="#203a55" fill-opacity="1"><g transform="translate(161.600225, 172.764651)"><g><path d="M 12.28125 -15.5625 C 12.550781 -15.5625 12.734375 -15.503906 12.828125 -15.390625 C 12.921875 -15.273438 12.96875 -15.101562 12.96875 -14.875 L 12.96875 -12.921875 C 12.96875 -12.710938 12.921875 -12.546875 12.828125 -12.421875 C 12.734375 -12.296875 12.550781 -12.234375 12.28125 -12.234375 L 8.65625 -12.234375 L 8.65625 -0.6875 C 8.65625 -0.414062 8.59375 -0.234375 8.46875 -0.140625 C 8.351562 -0.046875 8.1875 0 7.96875 0 L 5.625 0 C 5.425781 0 5.257812 -0.046875 5.125 -0.140625 C 5 -0.234375 4.9375 -0.414062 4.9375 -0.6875 L 4.9375 -12.234375 L 1.296875 -12.234375 C 1.035156 -12.234375 0.851562 -12.296875 0.75 -12.421875 C 0.65625 -12.546875 0.609375 -12.710938 0.609375 -12.921875 L 0.609375 -14.875 C 0.609375 -15.101562 0.65625 -15.273438 0.75 -15.390625 C 0.851562 -15.503906 1.035156 -15.5625 1.296875 -15.5625 Z M 12.28125 -15.5625 "/></g></g></g></svg>